<?xml version="1.0" encoding="UTF-8"?>
<svg id="_레이어_1" data-name="레이어 1" xmlns="http://www.w3.org/2000/svg" viewBox="0 0 2142.89 999.59">
  <defs>
    <style>
      .cls-1 {
        fill: #e50112;
      }

      .cls-2 {
        fill: #0b0204;
      }
    </style>
  </defs>
  <g id="surface1">
    <path class="cls-2" d="m753.76,196.88h-98.74v-59h79.2v-39.45h-79.2v-59h98.74V0h-138.17v236.66h138.17v-39.78"/>
    <path class="cls-2" d="m118.29,236.66l39.77-39.78v-59l-19.88-19.55-19.88-19.89h-58.98l-19.88-19.55v-19.89l19.88-19.55h39.09l19.88,19.55h39.77v-19.55L118.29,0H39.43L0,39.45v59l39.43,39.45h58.98l19.88,19.89v19.55l-19.88,19.55h-39.09l-19.88-19.55H0v19.55l39.43,39.78h78.86"/>
    <path class="cls-2" d="m362.84,0h-39.43v177.33l-19.55,19.55h-39.43l-19.88-19.55V0h-39.43v196.88l39.43,39.78h78.86l39.43-39.78V0"/>
    <path class="cls-2" d="m412.71.34v236.33h39.43v-98.44h78.86l39.43-39.45v-59L531,.34h-118.29Zm118.29,78.89l-19.88,19.55h-58.98v-59h58.98l19.88,19.55v19.89Z"/>
    <path class="cls-2" d="m801.73.34v236.33h39.43v-98.44h58.97l19.55,19.89v78.55h39.43v-98.44l-19.55-19.55,19.55-19.89v-59L919.79.34h-118.06Zm118.06,78.89l-19.55,19.55h-58.98v-59h58.98l19.55,19.55v19.89Z"/>
    <path class="cls-2" d="m418.33,291.62l-81.55,81.59v244.98h54.48v-108.56h108.85v108.56h54.48v-244.98l-81.89-81.59h-54.37Zm81.89,163.51h-108.85v-54.5l56.62-55.4,52.35,55.4v54.5h-.11Z"/>
    <path class="cls-2" d="m135.93,372.75l-81.45-81.47H0v326.91h54.48v-245.43l81.45,81.92,81.44-81.92v245.43h54.48v-327.02h-54.48l-81.44,81.59"/>
    <path class="cls-2" d="m620.54,291.62v326.57h54.48v-136.09h81.55l27.07,27.42v108.56h54.37v-135.98l-27.07-26.97,27.07-27.42v-81.59l-54.48-54.5h-163Zm163,109.01l-27.07,27.08h-81.55v-81.59h81.55l27.07,27.08v27.42Z"/>
    <path class="cls-2" d="m1100.76,291.62l-81.44,81.59v163.51l81.44,81.48h136.38l54.48-54.5,27.07-27.08v-163.4l-81.55-81.59h-136.38Zm163.45,218.01l-54.48,54.05h-81.55l-54.48-54.05v-109l54.48-54.5h81.55l54.48,54.5v109Z"/>
    <path class="cls-2" d="m904.63,618.19h54.48v-326.57h-54.48v326.57"/>
    <path class="cls-2" d="m1467.42,959.48l-9.89,10-10-10h-6.63v39.89h6.63v-29.89l10,10,9.89-10v29.89h6.63v-39.89h-6.63"/>
    <path class="cls-2" d="m1408.22,966.33h10v33.26h6.63v-33.26h10v-6.63h-26.51v6.63"/>
    <path class="cls-2" d="m903.84,999.59h190.86v-54.95h-136.37v-81.47h109.41v-54.5h-109.41v-81.59h136.37v-54.5h-190.86v327.02"/>
    <path class="cls-2" d="m1160.86,673.03v326.45h54.48v-135.98h81.44l27.07,27.42v108.55h54.48v-135.98l-27.07-27.08,27.07-27.42v-81.47l-54.48-54.5h-163Zm163.11,109l-27.07,27.08h-81.44v-81.47h81.44l27.07,27.08v27.31Z"/>
    <path class="cls-2" d="m674.57,781.7v-109.01h-54.48v326.91h54.48v-136.43l136.49,136.43h26.96v-54.95l-122.44-122.04,122.44-122.94v-26.97h-54.48l-108.96,109.01"/>
    <path class="cls-2" d="m136.04,754.16l-81.55-81.48H0v326.91h54.48v-245.43l81.55,81.92,81.45-81.92v245.43h54.48v-326.91h-54.48l-81.45,81.48"/>
    <path class="cls-2" d="m418.33,673.03l-81.55,81.47v244.98h54.48v-108.55h108.96v108.55h54.48v-244.98l-81.89-81.47h-54.48Zm82,163.51h-108.96v-54.5l56.62-55.4,52.23,55.4.11,54.5Z"/>
    <path class="cls-1" d="m1581.21,123.05l-77.29,77.32v88.33h159.74l40.55-40.57,40.55-40.57h158.84l38.64,41.47,38.64,41.47v69.11l-38.64,40.57-38.64,41.02h-239.95l-80.09,80.12-79.64,79.68v398.27h638.96v-162.05h-476.97v-155.08l39.54-39.56,39.09-39.11h238.37l80.1-80.12,79.64-79.68v-238.58l-80.09-80.12-79.65-79.67h-324.2l-77.51,77.76Z"/>
  </g>
</svg>