<?xml version="1.0" encoding="UTF-8"?>
<svg xmlns="http://www.w3.org/2000/svg" xmlns:xlink="http://www.w3.org/1999/xlink" width="px" height="1000px" viewBox="0 0 2143 1000" version="1.1">
<g id="surface1">
<path style=" stroke:none;fill-rule:nonzero;fill:rgb(4.313725%,0.784314%,1.568627%);fill-opacity:1;" d="M 753.761719 197.085938 L 655.019531 197.085938 L 655.019531 138.089844 L 734.214844 138.089844 L 734.214844 98.644531 L 655.019531 98.644531 L 655.019531 39.648438 L 753.761719 39.648438 L 753.761719 0.203125 L 615.589844 0.203125 L 615.589844 236.867188 L 753.761719 236.867188 L 753.761719 197.085938 "/>
<path style=" stroke:none;fill-rule:nonzero;fill:rgb(4.313725%,0.784314%,1.568627%);fill-opacity:1;" d="M 118.289062 236.867188 L 158.054688 197.085938 L 158.054688 138.089844 L 138.171875 118.535156 L 118.289062 98.644531 L 59.3125 98.644531 L 39.429688 79.089844 L 39.429688 59.199219 L 59.3125 39.648438 L 98.40625 39.648438 L 118.289062 59.199219 L 158.054688 59.199219 L 158.054688 39.648438 L 118.289062 0.203125 L 39.429688 0.203125 L 0 39.648438 L 0 98.644531 L 39.429688 138.089844 L 98.40625 138.089844 L 118.289062 157.980469 L 118.289062 177.535156 L 98.40625 197.085938 L 59.3125 197.085938 L 39.429688 177.535156 L 0 177.535156 L 0 197.085938 L 39.429688 236.867188 L 118.289062 236.867188 "/>
<path style=" stroke:none;fill-rule:nonzero;fill:rgb(4.313725%,0.784314%,1.568627%);fill-opacity:1;" d="M 362.839844 0.203125 L 323.410156 0.203125 L 323.410156 177.535156 L 303.863281 197.085938 L 264.433594 197.085938 L 244.550781 177.535156 L 244.550781 0.203125 L 205.121094 0.203125 L 205.121094 197.085938 L 244.550781 236.867188 L 323.410156 236.867188 L 362.839844 197.085938 L 362.839844 0.203125 "/>
<path style=" stroke:none;fill-rule:nonzero;fill:rgb(4.313725%,0.784314%,1.568627%);fill-opacity:1;" d="M 412.714844 0.539062 L 412.714844 236.867188 L 452.144531 236.867188 L 452.144531 138.425781 L 531.003906 138.425781 L 570.433594 98.980469 L 570.433594 39.984375 L 531.003906 0.539062 Z M 531.003906 79.429688 L 511.121094 98.980469 L 452.144531 98.980469 L 452.144531 39.984375 L 511.121094 39.984375 L 531.003906 59.539062 Z M 531.003906 79.429688 "/>
<path style=" stroke:none;fill-rule:nonzero;fill:rgb(4.313725%,0.784314%,1.568627%);fill-opacity:1;" d="M 801.730469 0.539062 L 801.730469 236.867188 L 841.160156 236.867188 L 841.160156 138.425781 L 900.132812 138.425781 L 919.679688 158.316406 L 919.679688 236.867188 L 959.109375 236.867188 L 959.109375 138.425781 L 939.5625 118.871094 L 959.109375 98.980469 L 959.109375 39.984375 L 919.792969 0.539062 Z M 919.792969 79.429688 L 900.246094 98.980469 L 841.269531 98.980469 L 841.269531 39.984375 L 900.246094 39.984375 L 919.792969 59.539062 Z M 919.792969 79.429688 "/>
<path style=" stroke:none;fill-rule:nonzero;fill:rgb(4.313725%,0.784314%,1.568627%);fill-opacity:1;" d="M 418.332031 291.820312 L 336.777344 373.40625 L 336.777344 618.390625 L 391.261719 618.390625 L 391.261719 509.832031 L 500.113281 509.832031 L 500.113281 618.390625 L 554.59375 618.390625 L 554.59375 373.40625 L 472.703125 291.820312 Z M 500.222656 455.328125 L 391.371094 455.328125 L 391.371094 400.828125 L 447.988281 345.425781 L 500.335938 400.828125 L 500.335938 455.328125 Z M 500.222656 455.328125 "/>
<path style=" stroke:none;fill-rule:nonzero;fill:rgb(4.313725%,0.784314%,1.568627%);fill-opacity:1;" d="M 135.925781 372.957031 L 54.480469 291.484375 L 0 291.484375 L 0 618.390625 L 54.480469 618.390625 L 54.480469 372.957031 L 135.925781 454.878906 L 217.367188 372.957031 L 217.367188 618.390625 L 271.847656 618.390625 L 271.847656 291.371094 L 217.367188 291.371094 L 135.925781 372.957031 "/>
<path style=" stroke:none;fill-rule:nonzero;fill:rgb(4.313725%,0.784314%,1.568627%);fill-opacity:1;" d="M 620.535156 291.820312 L 620.535156 618.390625 L 675.015625 618.390625 L 675.015625 482.300781 L 756.570312 482.300781 L 783.644531 509.71875 L 783.644531 618.277344 L 838.011719 618.277344 L 838.011719 482.300781 L 810.941406 455.328125 L 838.011719 427.910156 L 838.011719 346.324219 L 783.53125 291.820312 Z M 783.53125 400.828125 L 756.457031 427.910156 L 674.902344 427.910156 L 674.902344 346.324219 L 756.457031 346.324219 L 783.53125 373.40625 Z M 783.53125 400.828125 "/>
<path style=" stroke:none;fill-rule:nonzero;fill:rgb(4.313725%,0.784314%,1.568627%);fill-opacity:1;" d="M 1100.761719 291.820312 L 1019.320312 373.40625 L 1019.320312 536.914062 L 1100.761719 618.390625 L 1237.136719 618.390625 L 1291.617188 563.886719 L 1318.691406 536.804688 L 1318.691406 373.40625 L 1237.136719 291.820312 Z M 1264.210938 509.832031 L 1209.726562 563.886719 L 1128.171875 563.886719 L 1073.691406 509.832031 L 1073.691406 400.828125 L 1128.171875 346.324219 L 1209.726562 346.324219 L 1264.210938 400.828125 Z M 1264.210938 509.832031 "/>
<path style=" stroke:none;fill-rule:nonzero;fill:rgb(4.313725%,0.784314%,1.568627%);fill-opacity:1;" d="M 904.628906 618.390625 L 959.109375 618.390625 L 959.109375 291.820312 L 904.628906 291.820312 L 904.628906 618.390625 "/>
<path style=" stroke:none;fill-rule:nonzero;fill:rgb(4.313725%,0.784314%,1.568627%);fill-opacity:1;" d="M 1467.421875 959.679688 L 1457.535156 969.679688 L 1447.539062 959.679688 L 1440.910156 959.679688 L 1440.910156 999.574219 L 1447.539062 999.574219 L 1447.539062 969.679688 L 1457.535156 979.683594 L 1467.421875 969.679688 L 1467.421875 999.574219 L 1474.050781 999.574219 L 1474.050781 959.679688 L 1467.421875 959.679688 "/>
<path style=" stroke:none;fill-rule:nonzero;fill:rgb(4.313725%,0.784314%,1.568627%);fill-opacity:1;" d="M 1408.222656 966.535156 L 1418.21875 966.535156 L 1418.21875 999.796875 L 1424.847656 999.796875 L 1424.847656 966.535156 L 1434.84375 966.535156 L 1434.84375 959.902344 L 1408.335938 959.902344 L 1408.335938 966.535156 "/>
<path style=" stroke:none;fill-rule:nonzero;fill:rgb(4.313725%,0.784314%,1.568627%);fill-opacity:1;" d="M 903.839844 999.796875 L 1094.695312 999.796875 L 1094.695312 944.84375 L 958.324219 944.84375 L 958.324219 863.371094 L 1067.738281 863.371094 L 1067.738281 808.867188 L 958.324219 808.867188 L 958.324219 727.28125 L 1094.695312 727.28125 L 1094.695312 672.78125 L 903.839844 672.78125 L 903.839844 999.796875 "/>
<path style=" stroke:none;fill-rule:nonzero;fill:rgb(4.313725%,0.784314%,1.568627%);fill-opacity:1;" d="M 1160.863281 673.230469 L 1160.863281 999.683594 L 1215.34375 999.683594 L 1215.34375 863.707031 L 1296.785156 863.707031 L 1323.859375 891.128906 L 1323.859375 999.683594 L 1378.339844 999.683594 L 1378.339844 863.707031 L 1351.269531 836.625 L 1378.339844 809.207031 L 1378.339844 727.734375 L 1323.859375 673.230469 Z M 1323.972656 782.234375 L 1296.898438 809.316406 L 1215.457031 809.316406 L 1215.457031 727.84375 L 1296.898438 727.84375 L 1323.972656 754.925781 Z M 1323.972656 782.234375 "/>
<path style=" stroke:none;fill-rule:nonzero;fill:rgb(4.313725%,0.784314%,1.568627%);fill-opacity:1;" d="M 674.566406 781.898438 L 674.566406 672.890625 L 620.085938 672.890625 L 620.085938 999.796875 L 674.566406 999.796875 L 674.566406 863.371094 L 811.054688 999.796875 L 838.011719 999.796875 L 838.011719 944.84375 L 715.570312 822.804688 L 838.011719 699.863281 L 838.011719 672.890625 L 783.53125 672.890625 L 674.566406 781.898438 "/>
<path style=" stroke:none;fill-rule:nonzero;fill:rgb(4.313725%,0.784314%,1.568627%);fill-opacity:1;" d="M 136.035156 754.367188 L 54.480469 672.890625 L 0 672.890625 L 0 999.796875 L 54.480469 999.796875 L 54.480469 754.367188 L 136.035156 836.289062 L 217.480469 754.367188 L 217.480469 999.796875 L 271.960938 999.796875 L 271.960938 672.890625 L 217.480469 672.890625 L 136.035156 754.367188 "/>
<path style=" stroke:none;fill-rule:nonzero;fill:rgb(4.313725%,0.784314%,1.568627%);fill-opacity:1;" d="M 418.332031 673.230469 L 336.777344 754.703125 L 336.777344 999.683594 L 391.261719 999.683594 L 391.261719 891.128906 L 500.222656 891.128906 L 500.222656 999.683594 L 554.707031 999.683594 L 554.707031 754.703125 L 472.816406 673.230469 Z M 500.335938 836.738281 L 391.371094 836.738281 L 391.371094 782.234375 L 447.988281 726.832031 L 500.222656 782.234375 Z M 500.335938 836.738281 "/>
<path style=" stroke:none;fill-rule:nonzero;fill:rgb(89.803922%,0.392157%,7.058824%);fill-opacity:1;" d="M 1581.214844 123.253906 L 1503.929688 200.570312 L 1503.929688 288.898438 L 1663.667969 288.898438 L 1704.222656 248.332031 L 1744.773438 207.761719 L 1903.617188 207.761719 L 1942.257812 249.230469 L 1980.902344 290.699219 L 1980.902344 359.808594 L 1942.257812 400.378906 L 1903.617188 441.394531 L 1663.667969 441.394531 L 1583.574219 521.519531 L 1503.929688 601.195312 L 1503.929688 999.460938 L 2142.886719 999.460938 L 2142.886719 837.414062 L 1665.917969 837.414062 L 1665.917969 682.332031 L 1705.457031 642.773438 L 1744.550781 603.667969 L 1982.921875 603.667969 L 2063.019531 523.542969 L 2142.664062 443.867188 L 2142.664062 205.289062 L 2062.570312 125.164062 L 1982.921875 45.492188 L 1658.726562 45.492188 Z M 1581.214844 123.253906 "/>
</g>
</svg>
