<svg xmlns="http://www.w3.org/2000/svg" viewBox="0 0 918.6 515.1"><path d="M683.4 155.2l76.2-132c4.3-7.4 1.7-16.8-5.6-21.1S737.2.3 733 7.7l-77.2 133.7c-58.9-26.9-125.2-41.9-196.5-41.9s-137.6 15-196.5 41.9L185.6 7.7c-4.3-7.4-13.7-9.9-21.1-5.6-7.4 4.3-9.9 13.7-5.6 21.1l76.2 132C103.7 226.4 14.7 359.4 0 515.1h918.6c-14.7-155.7-103.7-288.7-235.2-359.9zm-435 230.9c-21.3 0-38.5-17.3-38.5-38.5 0-21.3 17.3-38.5 38.5-38.5 21.3 0 38.5 17.3 38.5 38.5.1 21.2-17.2 38.5-38.5 38.5zm421.7 0c-21.3 0-38.5-17.3-38.5-38.5 0-21.3 17.3-38.5 38.5-38.5 21.3 0 38.5 17.3 38.5 38.5.1 21.2-17.2 38.5-38.5 38.5z" fill="#32de84"></path></svg>