<?xml version="1.0" encoding="UTF-8"?>
<svg xmlns="http://www.w3.org/2000/svg" xmlns:xlink="http://www.w3.org/1999/xlink" width="100px" height="100px" viewBox="0 0 100 100" version="1.1">
<g id="surface1">
<path style=" stroke:none;fill-rule:nonzero;fill:rgb(24.705882%,56.078431%,96.862745%);fill-opacity:1;" d="M 78.917969 32.929688 C 66.265625 27.078125 48.066406 23.363281 30.949219 24.746094 C 31.800781 19.078125 33.933594 15.128906 37.398438 14.296875 C 42.183594 13.148438 47.398438 16.296875 52.367188 22.011719 C 55.617188 22.429688 59.484375 23.179688 62.183594 23.796875 C 53.117188 6.746094 40.949219 -2.804688 31.699219 0.730469 C 24.667969 3.414062 21.066406 13.097656 21.5 26.113281 C 12.332031 28.0625 5.183594 31.53125 0.601562 36.511719 C 0.367188 36.78125 -0.148438 37.464844 0.0351562 37.78125 C 0.183594 38.03125 0.632812 37.746094 0.851562 37.613281 C 6.148438 33.898438 12.949219 31.898438 21.800781 30.628906 C 23.066406 44.511719 28.933594 62.128906 38.699219 76.261719 C 33.367188 78.363281 28.882812 78.496094 26.433594 75.898438 C 23.050781 72.328125 23.167969 66.230469 25.632812 59.0625 C 24.367188 56.03125 23.082031 52.3125 22.285156 49.679688 C 12.015625 66.0625 9.816406 81.378906 17.5 87.628906 C 23.351562 92.378906 33.535156 90.664062 44.582031 83.78125 C 50.851562 90.746094 57.433594 95.195312 64.035156 96.664062 C 64.382812 96.730469 65.234375 96.847656 65.417969 96.53125 C 65.566406 96.28125 65.082031 96.011719 64.867188 95.914062 C 59 93.179688 53.867188 88.296875 48.351562 81.261719 C 59.75 73.230469 72.066406 59.328125 79.417969 43.8125 C 83.898438 47.398438 86.25 51.195312 85.234375 54.628906 C 83.832031 59.347656 78.5 62.296875 71.050781 63.730469 C 69.050781 66.347656 66.484375 69.3125 64.601562 71.328125 C 83.898438 71.996094 98.265625 66.246094 99.832031 56.480469 C 101.035156 49.046875 94.433594 41.078125 82.949219 34.945312 C 85.851562 26.03125 86.417969 18.113281 84.382812 11.664062 C 84.265625 11.328125 83.949219 10.53125 83.566406 10.53125 C 83.285156 10.53125 83.285156 11.078125 83.300781 11.3125 C 83.898438 17.746094 82.25 24.648438 78.917969 32.929688 Z M 43.367188 74.046875 C 35.199219 60.945312 30.5 45.511719 30.515625 29.914062 C 45.949219 29.398438 61.667969 33.03125 75.167969 40.863281 C 67.898438 54.480469 56.898438 66.28125 43.367188 74.046875 Z M 43.367188 74.046875 "/>
</g>
</svg>
