<?xml version="1.0" encoding="UTF-8"?>
<svg xmlns="http://www.w3.org/2000/svg" xmlns:xlink="http://www.w3.org/1999/xlink" width="100px" height="px" viewBox="0 0 100 100" version="1.1">
<g id="surface1">
<path style=" stroke:none;fill-rule:nonzero;fill:rgb(95.686275%,45.882353%,12.941176%);fill-opacity:1;" d="M 12.226562 56.121094 C 11.277344 44.175781 15.234375 32.375 23.191406 23.421875 C 31.152344 14.488281 42.414062 9.164062 54.378906 8.710938 C 66.339844 8.269531 77.960938 12.710938 86.570312 21.03125 C 95.195312 29.347656 100.03125 40.804688 99.996094 52.785156 L 99.996094 50 C 99.996094 22.378906 77.617188 0 49.996094 0 C 22.375 0 -0.00390625 22.378906 -0.00390625 50 C -0.00390625 77.621094 22.375 100 49.996094 100 L 53.335938 100 C 30.257812 98.371094 12.351562 79.234375 12.222656 56.121094 Z M 79.996094 58.335938 C 62.03125 58.398438 57.550781 33.382812 74.445312 27.210938 C 69.5 24.574219 63.949219 23.226562 58.335938 23.339844 C 44.175781 23.339844 31.414062 31.867188 25.992188 44.9375 C 20.578125 58.023438 23.570312 73.078125 33.582031 83.085938 C 43.589844 93.101562 58.644531 96.089844 71.730469 90.675781 C 84.804688 85.253906 93.328125 72.492188 93.328125 58.335938 C 93.429688 56.105469 93.25 53.859375 92.777344 51.660156 C 90.039062 56.039062 85.164062 58.59375 80 58.335938 Z M 79.996094 58.335938 "/>
</g>
</svg>
