
<svg version="1.0" id="Layer_1" x="0px" y="0px" width="729.57703" height="729.578" viewBox="0 0 729.57703 729.578" enable-background="new 0 0 800 800" xml:space="preserve" xmlns="http://www.w3.org/2000/svg"><defs id="defs7"></defs>
<path fill-rule="evenodd" clip-rule="evenodd" fill="#fe4747" d="m 0,383.636 c 0,-12.361 0,-24.724 0,-37.086 0.84,-0.568 0.538,-1.462 0.582,-2.221 1.245,-22.187 4.324,-44.11 9.714,-65.674 C 31.686,193.086 77.762,123.776 148.465,71.197 204.59,29.46 267.92,6.384 337.685,0.993 c 2.746,-0.21 5.625,0.289 8.256,-0.993 12.362,0 24.726,0 37.087,0 0.438,0.818 1.24,0.536 1.894,0.57 22.497,1.198 44.717,4.379 66.573,9.832 75.571,18.86 139.097,57.641 189.841,116.661 52.043,60.53 80.944,130.94 87.245,210.587 0.25,3.163 -0.228,6.436 0.996,9.507 0,12.158 0,24.318 0,36.478 -0.818,0.432 -0.556,1.228 -0.592,1.888 -1.253,22.288 -4.401,44.307 -9.807,65.966 -18.863,75.571 -57.642,139.101 -116.662,189.844 -60.53,52.045 -130.941,80.946 -210.588,87.247 -3.165,0.25 -6.437,-0.228 -9.508,0.998 -11.957,0 -23.912,0 -35.872,0 -0.566,-0.843 -1.46,-0.54 -2.22,-0.582 -22.187,-1.248 -44.109,-4.325 -65.674,-9.716 C 193.085,697.891 123.774,651.815 71.195,581.112 29.46,524.987 6.383,461.657 0.992,391.891 0.78,389.146 1.281,386.268 0,383.636 Z m 629.949,92.415 c -1.04,-1.691 -1.72,-2.811 -2.412,-3.918 -44.597,-71.33 -89.198,-142.658 -133.797,-213.986 -7.137,-11.417 -14.331,-22.799 -21.366,-34.278 -1.49,-2.433 -2.318,-2.172 -3.379,0.106 -0.086,0.182 -0.199,0.353 -0.307,0.524 -41.3,65.987 -82.605,131.97 -123.874,197.979 -1.031,1.65 -1.963,2.641 -4.194,2.635 -46.206,-0.081 -92.409,-0.059 -138.615,-0.083 -0.822,0 -1.802,0.414 -2.584,-0.57 0.506,-0.857 0.992,-1.725 1.519,-2.568 9.337,-14.938 18.74,-29.833 27.954,-44.845 1.429,-2.325 2.976,-2.998 5.585,-2.991 30.296,0.09 60.594,0.034 90.889,0.107 2.197,0.004 3.44,-0.679 4.591,-2.547 9.395,-15.257 18.903,-30.444 28.352,-45.669 0.447,-0.72 1.501,-1.491 0.833,-2.353 -0.344,-0.442 -1.494,-0.339 -2.281,-0.339 -66.267,-0.014 -132.533,-0.005 -198.801,-0.054 -1.879,-0.001 -2.89,0.666 -3.847,2.215 -9.471,15.331 -19.023,30.61 -28.528,45.919 -0.45,0.727 -1.488,1.478 -0.926,2.368 0.517,0.819 1.679,0.394 2.549,0.395 13.173,0.021 26.345,0.016 39.518,0.016 0.709,0 1.419,0.009 2.127,0.01 1.14,0.006 1.51,0.432 0.836,1.475 -0.439,0.679 -0.848,1.381 -1.275,2.066 -19.804,31.673 -39.613,63.345 -59.393,95.034 -0.611,0.978 -1.629,1.818 -1.533,3.353 1.043,0 2.043,0 3.043,0 85.924,0 171.849,-0.015 257.771,0.064 2.588,0.002 3.892,-0.877 5.213,-3.002 31.432,-50.431 62.938,-100.809 94.433,-151.202 0.849,-1.355 1.697,-2.712 2.64,-4.22 0.459,0.536 0.752,0.803 0.957,1.127 11.12,17.762 22.21,35.542 33.363,53.281 1.344,2.136 0.368,2.239 -1.444,2.23 -7.903,-0.044 -15.811,0.064 -23.713,-0.07 -2.194,-0.039 -3.428,0.659 -4.591,2.534 -9.343,15.053 -18.813,30.025 -28.208,45.043 -0.563,0.898 -1.835,1.838 -1.265,2.873 0.565,1.027 2.033,0.451 3.089,0.451 28.371,0.025 56.744,0.066 85.115,-0.048 2.862,-0.011 4.493,0.776 6.027,3.271 9.329,15.18 18.899,30.207 28.269,45.363 1.126,1.817 2.324,2.354 4.354,2.344 16.819,-0.073 33.639,-0.04 50.458,-0.04 2.098,0 4.198,0 6.848,0 z M 187.625,272.302 c 1.269,0 1.87,0 2.47,0 68.26,0 136.521,-0.008 204.779,0.046 1.869,10e-4 2.896,-0.613 3.854,-2.157 9.713,-15.647 19.497,-31.249 29.237,-46.875 0.338,-0.546 1.045,-1.048 0.526,-2.013 -0.532,0 -1.135,0 -1.737,0 -68.259,0 -136.52,0.009 -204.778,-0.039 -1.848,-0.001 -2.887,0.575 -3.859,2.147 -9.006,14.535 -18.1,29.016 -27.165,43.515 -1.006,1.61 -1.998,3.228 -3.327,5.376 z" id="path2"></path>
</svg>
