

<svg version="1.0" xmlns="http://www.w3.org/2000/svg" width="850.000000pt" height="205.000000pt" viewBox="0 0 850.000000 205.000000" preserveAspectRatio="xMidYMid meet">

<g transform="translate(0.000000,205.000000) scale(0.100000,-0.100000)" fill="#000000" stroke="none">
<path d="M155 1972 c-98 -47 -133 -148 -82 -237 33 -58 78 -85 144 -85 105 0
175 68 175 171 0 119 -129 202 -237 151z"></path>
<path d="M5802 1950 c-314 -44 -541 -223 -657 -515 -102 -257 -93 -648 20
-892 70 -151 160 -258 292 -343 134 -88 289 -130 483 -130 258 0 455 75 610
231 89 90 159 202 199 321 48 139 56 197 55 403 -1 171 -3 200 -27 290 -16 59
-48 143 -79 205 -45 89 -67 118 -143 195 -124 124 -234 186 -396 221 -90 19
-271 26 -357 14z m279 -288 c122 -32 224 -111 294 -227 126 -210 136 -567 23
-802 -39 -82 -150 -198 -221 -232 -142 -68 -329 -69 -466 -2 -153 74 -260 243
-292 461 -16 114 -6 314 21 408 64 226 212 372 410 405 59 10 170 5 231 -11z"></path>
<path d="M7570 1949 c-87 -13 -217 -59 -286 -100 -111 -67 -207 -195 -233
-310 -16 -67 -13 -198 5 -260 25 -84 52 -129 113 -189 98 -96 218 -147 471
-200 250 -53 319 -77 390 -137 92 -77 92 -223 -1 -310 -149 -139 -494 -135
-638 8 -32 32 -81 120 -81 147 0 9 -38 12 -155 12 l-155 0 0 -42 c0 -58 39
-163 85 -232 70 -106 184 -181 350 -232 84 -26 102 -27 275 -28 159 0 196 3
265 22 281 77 436 253 452 512 13 206 -75 350 -271 445 -100 48 -169 68 -414
119 -284 60 -372 124 -372 269 0 146 135 240 345 240 194 1 333 -91 360 -236
l7 -37 159 0 159 0 -6 43 c-42 305 -278 489 -644 502 -63 2 -144 -1 -180 -6z"></path>
<path d="M680 1016 l0 -916 165 0 165 0 0 299 0 298 243 6 c269 6 312 13 437
74 92 44 201 149 247 238 129 247 73 595 -124 764 -59 51 -159 104 -238 127
-52 15 -117 18 -477 21 l-418 4 0 -915z m745 630 c181 -48 267 -187 243 -393
-15 -126 -93 -222 -213 -261 -58 -19 -88 -22 -255 -22 l-190 0 0 345 0 345
183 0 c119 0 199 -5 232 -14z"></path>
<path d="M4519 1573 c0 -281 -3 -354 -12 -339 -99 156 -227 226 -411 226 -164
-1 -252 -36 -364 -146 -81 -81 -137 -184 -169 -310 -26 -107 -24 -373 5 -479
35 -126 86 -220 161 -296 104 -104 214 -149 366 -149 177 0 299 64 412 216
l22 29 0 -112 1 -113 155 0 155 0 0 915 0 915 -160 0 -160 0 -1 -357z m-227
-383 c59 -17 130 -80 165 -147 45 -83 63 -161 63 -271 0 -195 -73 -348 -195
-407 -50 -24 -172 -32 -229 -15 -85 25 -158 101 -199 207 -40 102 -40 324 0
426 39 99 107 173 187 204 39 15 159 16 208 3z"></path>
<path d="M2675 1464 c-11 -2 -45 -9 -75 -15 -190 -37 -351 -192 -375 -361 l-7
-48 145 0 145 0 26 53 c46 93 134 134 270 125 90 -6 147 -35 190 -96 28 -40
31 -50 31 -130 l0 -87 -210 -12 c-243 -14 -331 -29 -431 -77 -94 -45 -147 -94
-186 -174 -30 -61 -33 -74 -33 -162 0 -91 2 -101 38 -173 42 -85 90 -132 177
-177 203 -103 480 -44 614 130 16 22 34 40 38 40 4 0 8 -45 8 -100 l0 -100
150 0 151 0 -3 517 -3 518 -32 68 c-81 170 -275 269 -521 266 -48 -1 -96 -3
-107 -5z m349 -854 c-1 -98 -19 -143 -81 -201 -61 -59 -117 -82 -208 -87 -44
-2 -99 1 -122 7 -80 22 -133 88 -133 166 0 83 52 141 150 169 50 14 291 35
365 32 l30 -1 -1 -85z"></path>
<path d="M70 770 l0 -670 155 0 155 0 0 670 0 670 -155 0 -155 0 0 -670z"></path>
</g>
</svg>
