<svg xmlns="http://www.w3.org/2000/svg" width="50.581001" height="48.938" version="1.1" viewBox="0 0 13.38289 12.948179">
  <g transform="matrix(1.2229208,0,0,1.2229208,0,-0.06865246)">
    <path d="m 5.4997448,2.6937413 c 0,-0.018669 0,-0.018669 0,0 0,-0.5237782 0.1309459,-0.9727339 0.3554061,-1.3655685 C 6.0983268,0.93533854 6.4163595,0.61733087 6.8279087,0.39285295 7.2394579,0.16837712 7.7070941,0.05613811 8.2308755,0.05613811 c 0.5238332,0 0.9914715,0.11223488 1.4030207,0.35542209 0.4115488,0.22447379 0.7295818,0.54248549 0.9727578,0.954025 0.22446,0.4115433 0.336692,0.8604929 0.336692,1.3655686 0,0.5050755 -0.130945,0.9727319 -0.355406,1.3655683 C 10.344764,4.5082597 10.026732,4.8075643 9.6151825,5.032038 9.2036333,5.2565181 8.735995,5.3687529 8.2308755,5.3687529 L 6.6782493,5.3500848 H 5.5745454 5.4810187 Z" fill="#00a378"></path>
    <path d="m 5.4436348,8.0063581 c 0,0.5237744 -0.1309458,0.9727451 -0.3554225,1.365575 -0.2431885,0.3928305 -0.5612047,0.7108589 -0.9727476,0.9353169 -0.4115492,0.224454 -0.8792145,0.336746 -1.4029999,0.336746 -0.5237855,0 -0.991455,-0.112272 -1.4029979,-0.35546 C 0.89791772,10.064078 0.57990576,9.7460498 0.3367194,9.3345041 0.11223635,8.941676 0,8.474044 0,7.9689315 0,7.4638727 0.13094586,6.9962406 0.3554227,6.6034126 0.59861527,6.1918691 0.91662516,5.8925542 1.3281701,5.6680408 1.7397193,5.443592 2.2073825,5.3313532 2.7124648,5.3313532 l 1.5526533,0.018669 h 1.1036912 0.093527 z" fill="#e53d40"></path>
  </g>
</svg>