<?xml version="1.0" encoding="UTF-8"?>
<svg id="_레이어_1" data-name="레이어 1" xmlns="http://www.w3.org/2000/svg" viewBox="0 0 73.7 83.34">
  <defs>
    <style>
      .cls-1 {
        fill: #cea146;
      }
    </style>
  </defs>
  <g id="surface1">
    <path class="cls-1" d="m31.91,0v71.62h41.8l-9.38,11.72H7.82l6.77-11.85V8.2L8.34,0h23.57Zm5.08,15.62c16.27.26,29.3,13.41,29.3,29.69,0,8.34-3.39,15.89-8.98,21.23h8.85c4.17-5.86,6.64-12.89,6.77-20.7.39-20.18-15.76-36.72-35.94-37.11h-.13l.13,6.9ZM9.51,57.81c-1.82-3.77-2.73-8.07-2.73-12.5s1.04-8.72,2.73-12.5v-12.11C3.78,27.09.13,35.42,0,44.66c-.13,9.63,3.52,18.49,9.5,25.13v-11.98Z"/>
  </g>
</svg>