<?xml version="1.0" encoding="UTF-8"?>
<svg xmlns="http://www.w3.org/2000/svg" xmlns:xlink="http://www.w3.org/1999/xlink" width="100px" height="px" viewBox="0 0 100 100" version="1.1">
<g id="surface1">
<path style=" stroke:none;fill-rule:nonzero;fill:rgb(80.784314%,63.137255%,27.45098%);fill-opacity:1;" d="M 44.40625 8.332031 L 44.40625 79.949219 L 86.203125 79.949219 L 76.828125 91.667969 L 20.316406 91.667969 L 27.085938 79.816406 L 27.085938 16.535156 L 20.835938 8.332031 Z M 49.484375 23.957031 C 65.757812 24.21875 78.78125 37.371094 78.78125 53.644531 C 78.78125 61.980469 75.394531 69.53125 69.796875 74.871094 L 78.648438 74.871094 C 82.816406 69.011719 85.289062 61.980469 85.421875 54.167969 C 85.8125 33.984375 69.664062 17.449219 49.484375 17.058594 L 49.351562 17.058594 Z M 22.007812 66.144531 C 20.1875 62.371094 19.273438 58.074219 19.273438 53.644531 C 19.273438 49.21875 20.316406 44.921875 22.007812 41.144531 L 22.007812 29.035156 C 16.28125 35.417969 12.632812 43.75 12.503906 52.996094 C 12.375 62.628906 16.019531 71.484375 22.007812 78.125 Z M 22.007812 66.144531 "/>
</g>
</svg>
