
<svg xmlns="http://www.w3.org/2000/svg" width="250" height="250" viewBox="0 0 66.14583 66.145835" version="1.1" id="svg1291">
  <defs id="defs1285"></defs>
  
  
  <g id="layer1" transform="translate(171.37441,202.2851)">
    <g class="scaling-icon" id="g1917" transform="matrix(3.1498015,0,0,3.1498015,-369.8119,-202.2851)" style="stroke-width:0.084">
      <g class="logo-21dp" id="g1915" style="stroke-width:0.084">
        <g class="dpi-1" id="g1913" style="stroke-width:0.084">
          <g style="fill:none;fill-rule:evenodd;stroke-width:0.084" class="inbug" id="g1905">
            <path style="fill:#ffffff;stroke-width:0.084" d="M 82.479,0 H 64.583 C 63.727,0 63,0.677 63,1.511 V 19.488 C 63,20.323 63.477,21 64.333,21 H 82.229 C 83.086,21 84,20.323 84,19.488 V 1.511 C 84,0.677 83.336,0 82.479,0" class="bug-text-color" id="path1901"></path>
            <path style="fill:#0a66c2;stroke-width:0.084" d="M 82.479,0 H 64.583 C 63.727,0 63,0.677 63,1.511 V 19.488 C 63,20.323 63.477,21 64.333,21 H 82.229 C 83.086,21 84,20.323 84,19.488 V 1.511 C 84,0.677 83.336,0 82.479,0 Z M 71,8 h 2.827 v 1.441 h 0.031 C 74.289,8.664 75.562,7.875 77.136,7.875 80.157,7.875 81,9.479 81,12.45 V 18 H 78 V 12.997 C 78,11.667 77.469,10.5 76.227,10.5 74.719,10.5 74,11.521 74,13.197 V 18 h -3 z m -5,10 h 3 V 8 H 66 Z M 69.375,4.5 A 1.8745001,1.8745001 0 1 1 65.626,4.501 1.8745001,1.8745001 0 0 1 69.375,4.5 Z" class="background" id="path1903"></path>
       </g>
      </g>
    </g>
  </g>
</g></svg>