<svg width="297.145" height="297.145" viewBox="0 0 583.677 583.677" fill="none" xmlns="http://www.w3.org/2000/svg"><path d="M579.437 579.476a13.641 13.641 0 01-9.902 4.164H14.03a13.733 13.733 0 01-9.94-4.164L5.24 283.388h572.788z" fill="#6dbbff"></path><path d="M573.039.045a11.666 11.666 0 00-9.506 3.608L291.689 283.276l.074.11 287.675 296.089a13.646 13.646 0 01-9.904 4.165l.113.037a14.22 14.22 0 009.868-4.162 14.207 14.207 0 004.16-9.865V11.905a11.656 11.656 0 00-1.91-6.638A11.66 11.66 0 00573.04.045z" fill="#a9deff"></path><path d="M291.764 283.392L4.09 579.48A13.786 13.786 0 010 569.616V11.91A11.706 11.706 0 0119.656 3.32z" fill="#3f8eff"></path></svg>