
<svg xmlns="http://www.w3.org/2000/svg" width="100.76mm" height="16.639999mm" viewBox="0 0 100.75999 16.639999" version="1.1" id="svg87">
  <defs id="defs81"></defs>
  <g id="layer1">
    <path d="M 12.299413,0.00310448 H 9.0052505 L 6.1173596,3.8978055 3.2941632,0.00310448 H 0 V 13.259151 H 3.47298 V 5.2446525 H 3.505238 L 6.1173586,8.8137324 8.7943175,5.2446525 h 0.033515 v 8.0144985 h 3.4715805 z" style="fill:#2f51a2;fill-opacity:1;fill-rule:nonzero;stroke:none;stroke-width:0.0357634" id="path16"></path>
    <path d="m 22.99906,3.4593117 h -3.439684 l -1.412254,4.6406899 h -0.03224 L 16.702659,3.4593117 h -3.69944 l 3.505244,8.9561843 -1.525666,4.218689 h 3.343154 z" style="fill:#2f51a2;fill-opacity:1;fill-rule:nonzero;stroke:none;stroke-width:0.0357634" id="path18"></path>
    <path d="m 33.781034,3.3948972 h -3.471586 v 2.676531 h -3.456167 c 0.128394,-0.3950741 0.331207,-0.8297054 0.60908,-1.3031436 0.279282,-0.4735801 0.738872,-0.8844285 1.381508,-1.2324437 0.642778,-0.3475793 1.574701,-0.5293271 2.795658,-0.5474634 h 2.725526 L 33.55465,0.00310448 H 31.850533 C 30.60131,-0.02213827 29.436465,0.10649831 28.353663,0.39117356 27.270962,0.6747742 26.267944,1.2699148 25.344496,2.1782276 24.520112,3.0232815 23.91675,4.0011993 23.531185,5.114475 c -0.385423,1.1121302 -0.576832,2.2533757 -0.572899,3.4243448 0.0071,1.1747198 0.190264,2.3246132 0.550404,3.4450142 0.360565,1.121497 0.864761,2.168007 1.510326,3.14184 l 2.823477,-1.866523 C 27.455245,12.623672 27.139781,11.951678 26.897988,11.24328 26.656297,10.535125 26.527904,9.8058734 26.512524,9.0569548 h 3.796924 v 4.2021962 h 3.471586 z" style="fill:#2f51a2;fill-opacity:1;fill-rule:nonzero;stroke:none;stroke-width:0.0357634" id="path20"></path>
    <path d="m 35.740864,3.4593117 v 9.7998393 h 3.115349 V 6.1036862 h 0.74603 c 0.630145,0.00101 1.017109,0.1091217 1.162302,0.3253779 0.145556,0.2152629 0.212433,0.6315855 0.201353,1.2488971 v 5.5811898 h 3.115349 V 7.2240887 C 44.10061,5.931995 43.849136,4.9792591 43.326631,4.3687397 42.803062,3.7568617 41.886447,3.4535535 40.576075,3.4593117 Z" style="fill:#2f51a2;fill-opacity:1;fill-rule:nonzero;stroke:none;stroke-width:0.0357634" id="path22"></path>
    <path d="m 48.918952,3.4593117 h -3.115329 v 9.7998803 h 3.115329 z m 0,-3.45620722 H 45.803623 V 2.6474992 h 3.115329 z" style="fill:#2f51a2;fill-opacity:1;fill-rule:nonzero;stroke:none;stroke-width:0.0357634" id="path24"></path>
    <path d="m 50.683521,3.4593117 v 9.7998393 h 3.034157 V 6.1036862 h 1.866493 v 7.1554648 h 3.034167 V 6.1036862 h 0.502826 c 0.630156,0.00101 1.01711,0.1091217 1.162312,0.3253779 0.144126,0.2152629 0.211005,0.6315855 0.199915,1.2488971 v 5.5811898 h 3.034166 V 7.2240887 C 63.538644,5.931995 63.287241,4.9792591 62.763307,4.3687397 62.240802,3.7568617 61.323122,3.4535535 60.01418,3.4593117 Z" style="fill:#2f51a2;fill-opacity:1;fill-rule:nonzero;stroke:none;stroke-width:0.0357634" id="path26"></path>
    <path d="m 73.0982,10.614492 h -1.233477 c -0.254273,0.0041 -0.524999,-0.002 -0.815756,-0.0222 -0.289328,-0.01815 -0.63409,-0.06975 -1.033919,-0.156606 0.89265,-0.4692515 1.698756,-1.0657912 2.415456,-1.7895685 0.716701,-0.7249227 1.096864,-1.625835 1.137272,-2.7044602 0.02646,-0.185965 -0.008,-0.4931459 -0.103353,-0.9176902 C 73.369331,4.5977389 73.06208,4.1981941 72.542445,3.8265783 72.02137,3.4549627 71.135512,3.2566197 69.885226,3.2329787 h -0.649469 c -1.590038,-0.02798 -2.736961,0.2863884 -3.439358,0.94272 -0.702752,0.6554697 -1.053585,1.6722249 -1.055015,3.0484001 0.04329,1.6847754 0.602248,3.1015002 1.679444,4.2468922 1.076831,1.145545 2.415456,1.742074 4.01623,1.78817 H 72.31892 Z M 70.388053,6.3804237 c -0.05292,0.4356045 -0.34475,0.8533161 -0.8787,1.2517256 -0.532156,0.396615 -0.991716,0.6884373 -1.377251,0.872983 -0.06437,-0.1870497 -0.115873,-0.3801312 -0.153778,-0.5768321 -0.03608,-0.1984849 -0.05576,-0.3954694 -0.05718,-0.5912072 0.003,-0.4860189 0.132682,-0.8518765 0.389823,-1.095109 0.258215,-0.2430804 0.63122,-0.3647424 1.120463,-0.3647424 0.202429,-0.01105 0.409136,0.010137 0.617282,0.062954 0.209575,0.051804 0.32258,0.198495 0.339388,0.4401765 z" style="fill:#2f51a2;fill-opacity:1;fill-rule:nonzero;stroke:none;stroke-width:0.0357634" id="path28"></path>
    <path d="M 78.437679,0.00310448 H 74.964693 V 13.259151 h 7.22134 l 0.810037,-2.985527 h -4.558391 z" style="fill:#2f51a2;fill-opacity:1;fill-rule:nonzero;stroke:none;stroke-width:0.0357634" id="path30"></path>
    <path d="m 86.567046,3.4593117 h -3.115329 v 9.7998803 h 3.115329 z m 0,-3.45620722 H 83.451717 V 2.6474992 h 3.115329 z" style="fill:#2f51a2;fill-opacity:1;fill-rule:nonzero;stroke:none;stroke-width:0.0357634" id="path32"></path>
    <path d="m 93.086708,3.4593117 h -2.612512 c -1.032134,0.051499 -1.733457,0.342257 -2.105031,0.8715841 -0.371585,0.5306957 -0.546469,0.9920092 -0.523934,1.3844375 0.008,0.4330599 0.101923,0.8271407 0.28503,1.1818367 0.181677,0.3548479 0.405202,0.6957465 0.673423,1.0240136 l 1.312877,1.7044829 c 0.07542,0.093368 0.164867,0.2134686 0.268221,0.3560948 0.103363,0.1439137 0.160935,0.2794237 0.170597,0.4067017 -0.03072,0.185652 -0.180247,0.275055 -0.449909,0.265404 -0.269651,-0.01014 -0.476368,-0.02261 -0.62156,-0.03934 h -1.719861 l 0.779635,2.644659 h 3.164346 c 0.761397,-0.0211 1.359011,-0.265293 1.790672,-0.732041 0.431661,-0.465316 0.651253,-1.022472 0.658045,-1.669396 -0.0051,-0.428914 -0.09762,-0.828317 -0.275024,-1.1985033 C 93.704344,9.2887825 93.48225,8.9425921 93.216531,8.6196167 L 91.837852,6.883403 C 91.783512,6.81761 91.72877,6.7420336 91.671554,6.6583473 c -0.0587,-0.085055 -0.08941,-0.1719852 -0.09367,-0.2625042 -0.0041,-0.1494897 0.06154,-0.2503391 0.197055,-0.3017673 0.135541,-0.050384 0.367287,-0.074005 0.695595,-0.071268 h 1.394413 z" style="fill:#2f51a2;fill-opacity:1;fill-rule:nonzero;stroke:none;stroke-width:0.0357634" id="path34"></path>
    <path d="M 98.723726,0.62044655 95.608387,1.5452533 V 3.4593117 H 94.911353 V 6.022798 h 0.697034 v 4.235447 c 0.01683,1.160923 0.29612,1.957337 0.838292,2.389028 0.541807,0.431671 1.247427,0.635478 2.115038,0.611878 h 1.412293 l 0.77822,-2.644659 H 99.519825 C 99.202952,10.593809 98.989088,10.502867 98.878589,10.343757 98.768433,10.182821 98.716579,9.9872356 98.723726,9.7554488 V 6.022798 h 1.640104 V 3.4593117 h -1.640104 z" style="fill:#2f51a2;fill-opacity:1;fill-rule:nonzero;stroke:none;stroke-width:0.0357634" id="path36"></path>
  </g>
</svg>