

<svg version="1.0" xmlns="http://www.w3.org/2000/svg" width="440px" height="440px" viewBox="0 0 440 440" preserveAspectRatio="xMidYMid meet">
 <g fill="#000000">
  <path d="M114.5 437.4 c-5.9 -2.1 -15.4 -10.7 -18.1 -16.2 -1.2 -2.6 -4.2 -7 -6.6 -9.8 -2.5 -2.9 -5 -6.6 -5.8 -8.3 -1.2 -3 -1.4 -3.1 -8.4 -3.2 -9 -0.2 -33.7 -0.1 -48.1 0.2 -8.5 0.1 -12 -0.3 -15.5 -1.6 -6.3 -2.5 -7.7 -4 -8.4 -8.8 -0.7 -4.4 -2 -103.3 -1.5 -107.7 0.3 -2.3 0.3 -5.5 0.2 -26.5 -0.1 -3.8 -0.1 -11.9 -0.1 -18 0 -6 -0.1 -17.5 -0.1 -25.5 -0.1 -8 -0.1 -15.8 -0.1 -17.5 0.1 -1.6 0 -24.5 -0.2 -50.7 -0.4 -62.5 -3.8 -57.1 36.5 -57.3 15 -0.1 27.8 -0.5 28.5 -0.9 0.7 -0.4 5.8 -0.7 11.5 -0.5 5.6 0.1 14.3 0 19.2 -0.1 5 -0.1 20.9 0.4 35.5 1 15.2 0.8 31.1 1 37.2 0.6 l10.7 -0.8 -5.1 -6.4 c-6.5 -8.3 -17.6 -19.1 -25.7 -25 -6.2 -4.5 -9 -7.1 -23.6 -22.3 -3.8 -4 -8.9 -8.6 -11.2 -10.3 -9.1 -6.7 -7.2 -19.8 2.9 -19.8 7.5 0 11.3 3 50 40.2 10.8 10.4 21.6 20.4 24 22.1 8.5 6.2 9.7 7.3 17.7 14.5 4.5 3.9 8.7 7.2 9.5 7.2 1.9 0 11.8 -8.2 21.7 -18 4.8 -4.7 12.2 -11.2 16.5 -14.5 7.5 -5.8 19.2 -16.7 36.7 -34.2 4.5 -4.5 10.8 -10.4 14 -13.2 5.1 -4.5 6.2 -5.1 10.3 -5.1 3.7 0 5.1 0.5 7.5 2.9 4.5 4.6 4 7.5 -3.5 16.7 -3.5 4.3 -10.5 12 -15.7 16.9 -5.2 5 -12.8 12.6 -16.8 16.9 -4.1 4.3 -11.6 11.1 -16.6 15.2 -5 4 -11 9.6 -13.4 12.4 l-4.3 5 46.4 -0.4 c25.5 -0.3 50.1 -0.8 54.8 -1.2 5.5 -0.4 11.9 -0.2 17.5 0.6 11.3 1.7 23.5 1.7 39.6 0 12 -1.2 12.7 -1.1 16.5 0.8 3.2 1.6 4.3 2.9 5.2 6 1.4 4.6 2.6 35.2 2.1 52.2 -0.4 12.8 -0.4 29.2 0 97 0.2 25.6 0.1 60.2 -0.2 77 -0.4 16.9 -0.1 38.4 0.4 48.3 0.6 9.9 0.8 18.9 0.5 20.2 -0.3 1.3 -2.3 4.2 -4.4 6.6 l-3.9 4.2 -10.9 0.8 c-6 0.5 -21.9 1 -35.4 1.1 l-24.5 0.3 -3.5 6.6 c-1.9 3.6 -4.8 8.1 -6.3 9.9 -1.5 1.8 -3.5 4.6 -4.4 6.4 -2.8 5.5 -7.4 10.6 -11.5 12.7 -5.7 2.9 -16.2 3.6 -22.5 1.5 -6.1 -2 -17.8 -12.4 -22.3 -19.9 -1.8 -2.8 -4.7 -6.8 -6.5 -8.7 -1.8 -1.9 -3.9 -4.8 -4.8 -6.4 l-1.5 -3 -10.3 0.3 c-5.7 0.2 -16.7 0.3 -24.4 0.4 -7.7 0 -20.7 0.1 -29 0.1 -8.2 0 -21.1 -0.1 -28.5 -0.2 -18.9 -0.5 -18.8 -0.5 -23.6 7.6 -2.2 3.7 -4.7 8 -5.5 9.7 -2.5 5.4 -16.8 19.4 -20.8 20.5 -5.1 1.4 -14.9 1.1 -19.6 -0.6z m17.3 -24.8 c3.4 -3.5 6.2 -6.9 6.2 -7.5 0 -0.7 -4.6 -1.1 -14.1 -1.1 l-14 0 2.2 3.2 c3.8 5.3 10.5 11.8 12.1 11.8 0.8 0 4.3 -2.9 7.6 -6.4z m197.2 -1.3 c7.2 -8.2 7.2 -8.5 -0.2 -7.7 -3.5 0.4 -10 0.8 -14.5 0.8 -4.6 0.1 -8.3 0.5 -8.3 0.9 0 0.4 2.9 3.7 6.4 7.3 l6.4 6.6 3 -1.6 c1.6 -0.8 4.9 -3.7 7.2 -6.3z m-191.5 -29.7 c30.3 0 64.7 0.2 76.5 0.4 16.7 0.3 119.6 -0.6 156.5 -1.3 3.3 -0.1 13.4 0 22.5 0.3 19 0.5 23.1 -0.3 25 -5 0.9 -2.3 1.2 -20 1 -74.7 -0.2 -39.5 -0.3 -75.2 -0.4 -79.3 0 -4.1 0.1 -13.1 0.3 -20 0.2 -6.9 0.2 -30.5 -0.1 -52.4 -0.6 -39.9 -0.6 -40 -2.8 -41.8 -1.6 -1.3 -4 -1.8 -8.9 -1.8 -3.6 0 -10.9 -0.5 -16.1 -1 -6.4 -0.7 -16.3 -0.6 -30.3 0.2 -16 0.8 -23.1 0.8 -30.7 -0.1 -7.7 -0.9 -13.2 -0.9 -24.6 0 -11.4 0.9 -22.9 0.9 -51.6 -0.1 -29.2 -1 -37.9 -1 -41.3 0 -3.5 1 -9.2 1 -27.7 -0.1 -30.7 -1.7 -47.6 -1.8 -56.8 -0.4 -5.1 0.8 -21.7 1.1 -52 0.9 -43.9 -0.3 -50.4 0 -52.9 3 -1 1.2 -2.7 44.5 -2.5 65.6 0 4.7 0.2 17.5 0.3 28.5 0.1 11 -0.2 24.5 -0.7 30 -0.4 5.6 -0.4 12 0 14.5 0.5 2.5 0.8 31.7 0.7 65 -0.2 41.2 0.1 61.3 0.8 63 2.2 5.2 3.1 5.4 25.5 6.1 11.5 0.4 21.2 1 21.6 1.4 0.4 0.3 3.6 0.2 7.2 -0.2 3.6 -0.4 31.3 -0.8 61.5 -0.7z"></path>
  <path d="M56 369.1 c-16.7 -0.8 -20.4 -1.6 -21.4 -4.9 -0.5 -1.6 -0.8 -41.8 -0.4 -61.2 0 -3.6 -0.2 -21.1 -0.6 -39 -0.8 -39.6 -0.8 -96.9 0.2 -122.1 0.6 -16.1 1 -19 2.5 -20.7 1.8 -2 2.9 -2 79 -2.1 125.7 -0.2 143.7 -0.2 198.3 0.3 32.5 0.3 58.6 0 69.2 -0.7 18.8 -1.2 21.5 -0.8 23.2 3.9 0.6 1.6 1.3 36.4 1.6 90.7 0.4 48.5 0.6 90.2 0.7 92.7 0 2.5 0 8.6 0 13.5 0 5 0 11.9 0 15.5 0 12.3 -1.6 31 -2.8 32 -0.6 0.5 -10.5 1 -22.1 1.2 -19.7 0.2 -90.4 0.3 -102.4 0.1 -24.3 -0.4 -30.6 -0.2 -38.2 0.8 -6.8 1 -11 1 -19 0.1 -12.7 -1.5 -124.3 -1.5 -143.8 0 -4.1 0.3 -14.9 0.3 -24 -0.1z m111.5 -17.2 c5.5 -0.1 27.6 -0.1 49 0 21.5 0 66.9 -0.1 101.1 -0.2 59.4 -0.3 62.2 -0.4 65.4 -2.2 6.5 -3.9 7.6 -6.4 7.1 -17.3 -0.5 -11.6 -0.5 -17.9 -0.3 -41.7 0.1 -9.9 0.1 -20.2 0 -23 0 -2.7 0 -11.5 0.1 -19.5 0.1 -11.8 -0.6 -97.6 -0.8 -101.7 -0.1 -0.6 -1.3 -2.5 -2.7 -4.3 -5.2 -6.2 -4.8 -6.1 -48.2 -6.6 -21.8 -0.2 -55.2 -0.4 -74.2 -0.3 -41 0.2 -42.5 0.3 -60.5 0.2 -25.7 0 -32.8 0 -71.5 0 -21.2 0.1 -45.3 0 -53.7 -0.2 -13.5 -0.2 -15.7 0 -19.8 1.8 -6.8 3 -7.7 5.8 -8.8 28.1 -0.6 10.2 -1 21.9 -1 26 0.6 145.2 0.7 150.7 2.9 153.7 1.1 1.5 4 3.8 6.5 5.1 4.1 2.2 5.2 2.3 16.9 1.8 6.9 -0.3 26.9 -0.2 44.5 0.3 17.6 0.4 33.4 0.6 35 0.4 1.7 -0.2 7.5 -0.4 13 -0.4z"></path>
  <path d="M184.6 326.8 c-2.2 -3 -2 -9.6 0.3 -13.3 1 -1.6 7.9 -9.2 15.2 -16.8 l13.4 -13.7 6 0 6 0 15.2 15.3 15.3 15.4 0 6.1 c0 9.6 1.5 9.2 -37.2 9.2 -32.6 0 -32.7 0 -34.2 -2.2z"></path>
  <path d="M96.2 261.4 c-9.2 -4.6 -13 -15.3 -10.2 -28.8 0.9 -4.5 2 -6.6 5 -9.6 7.1 -7.1 19.8 -9 29.5 -4.5 9.8 4.7 14.2 15.4 11.7 28.6 -1.3 6.9 -3.3 10.2 -8.6 14 -3.6 2.7 -4.6 2.9 -13.1 2.9 -7.8 0 -9.8 -0.4 -14.3 -2.6z"></path>
  <path d="M320.2 220.9 c-5.5 -1.6 -11.7 -8.7 -13.2 -14.8 -2 -8.2 -0.9 -19.1 2.3 -24.1 4.2 -6.2 9.5 -8.5 19.7 -8.5 7.1 0 9.3 0.4 13.4 2.5 8.8 4.5 12.3 12.2 11.4 25 -0.7 9.6 -3.1 13.8 -9.9 17.2 -6.1 3.1 -18 4.5 -23.7 2.7z"></path>
 </g>
 <g fill="#ffffff">
  <path d="M117.7 420 c-2.5 -2 -14.7 -17.7 -14.7 -18.9 0 -0.6 41.2 -0.2 41.8 0.4 0.8 0.7 -5.5 9.4 -10.7 14.8 -5 5.1 -5.9 5.7 -9.7 5.7 -2.6 0 -5.1 -0.7 -6.7 -2z"></path>
  <path d="M311.3 417.8 c-4.1 -3.8 -12.3 -14.7 -12.3 -16.3 0 -0.4 3.7 -0.6 8.3 -0.4 4.5 0.1 14.2 -0.1 21.5 -0.5 7.2 -0.3 13.2 -0.3 13.2 0.1 0 0.3 -1.9 3.1 -4.1 6.2 -12.1 16.2 -18.1 18.7 -26.6 10.9z"></path>
  <path d="M221.5 385.8 c-6 -0.4 -28.3 -0.7 -49.5 -0.7 -21.2 0 -41.4 -0.1 -45 -0.3 -8.6 -0.4 -38.9 -0.3 -51.5 0.2 -5.5 0.2 -19.6 -0.1 -31.3 -0.6 -19.3 -0.9 -21.4 -1.2 -23.3 -3 -2.8 -2.9 -4.3 -13.4 -3.8 -27.4 0.4 -10.5 0.3 -89.1 0 -114 -0.1 -5.8 0.2 -15.7 0.6 -22.1 0.4 -6.4 0.5 -17.6 0.1 -25 -0.4 -7.4 -0.5 -22.6 -0.2 -33.9 0.3 -11.3 0.7 -27.6 0.8 -36.2 0.2 -11 0.6 -16.2 1.5 -17.2 2.8 -3.4 9.1 -3.8 52.1 -3.8 1.4 0 13.1 0.1 26 0.2 13 0.1 26.2 -0.2 29.5 -0.8 7.6 -1.4 24.1 -1.4 41.5 -0.2 17.8 1.3 37 1.3 50 0.1 6.1 -0.5 13.4 -0.6 17.5 -0.1 11.9 1.4 55.6 1.8 73.3 0.6 8.3 -0.5 15.5 -0.4 22 0.4 7.6 0.9 13.4 0.9 26.7 -0.1 17.1 -1.3 24.1 -1.4 30.5 -0.5 1.9 0.3 9.1 0.8 15.8 1.2 9.6 0.6 12.9 1.1 14.5 2.5 2.2 1.7 2.2 2.2 2.6 41.6 0.5 44.9 0.5 52.1 0.3 71.8 0 7.7 0 46.2 0.1 85.5 0.1 57 -0.2 72.2 -1.2 74.8 -2.1 5 -5.8 5.7 -27.1 5.4 -22.7 -0.4 -33.2 -0.3 -57 0.6 -10.2 0.4 -23 0.4 -28.5 0 -11.2 -0.8 -67.1 0.1 -72.5 1.1 -1.9 0.3 -8.4 0.3 -14.5 -0.1z m-130 -20.4 c5.5 -0.4 16.3 -0.6 24 -0.5 7.7 0.2 15.4 0.3 17 0.3 32.8 -0.5 86.2 0 92.8 0.8 6.7 0.9 10.3 0.8 18.8 -0.4 7.1 -1 14.4 -1.3 22.9 -1 15.4 0.7 9.1 0.6 57.5 0.6 60.2 0 76.8 -0.2 78.1 -1.3 1.3 -1.1 2.9 -22.4 2.4 -32.4 -0.5 -8.2 -0.5 -12.8 -0.2 -21 0.4 -12.2 -0.8 -180.1 -1.3 -183.3 -1.1 -6 -3.3 -6.6 -21.3 -5.4 -13.2 1 -43 1.7 -53.7 1.5 -6.3 -0.2 -70.3 -1.5 -75.5 -1.5 -3 -0.1 -13.6 -0.1 -23.5 0 -9.9 0 -21.4 0.1 -25.5 0.1 -4.1 0 -21.2 0.3 -38 0.6 -16.8 0.4 -32.7 0.6 -35.5 0.6 -2.7 -0.1 -24 -0.4 -47.1 -0.6 -41.5 -0.4 -42.2 -0.4 -44 1.7 -1.6 1.7 -2 4.5 -2.6 20.2 -0.6 15.4 -0.8 41.9 -0.5 56.1 0.1 2.2 0 9.4 -0.1 16 -0.1 6.6 0.1 26.6 0.5 44.5 0.4 17.9 0.6 36.8 0.6 42 -0.4 26.5 -0.2 56.7 0.3 58.2 0.3 1 1.5 2.3 2.7 3 2.2 1.1 32.2 2.9 38.2 2.2 1.7 -0.2 7.5 -0.7 13 -1z"></path>
  <path d="M109 354.8 c-10.2 -0.3 -25.5 -0.4 -34 -0.1 -14.8 0.5 -15.7 0.4 -19.9 -1.9 -2.5 -1.2 -5.4 -3.6 -6.5 -5.1 -2.1 -2.8 -2.1 -4 -2.3 -65 0 -34.2 -0.2 -71.2 -0.4 -82.2 -0.2 -11 0.1 -28.3 0.7 -38.5 1.2 -22.1 2.2 -25.1 8.7 -28 3.9 -1.7 6.9 -2 25.8 -2 38.4 -0.1 83.1 -0.2 97.9 -0.2 8 0 17.2 0 20.5 0 6.3 -0.1 12 -0.1 81 0.2 100.7 0.4 99.7 0.4 103.1 2.2 3.3 1.8 8.3 7.2 8.5 9.1 0.2 1.6 1.1 83.3 1.1 100.7 0.1 7.4 0.1 17.1 0.1 21.5 0 4.4 0 12.5 0.1 18 0 5.5 0 17.7 -0.1 27 0 9.4 0 20.9 0 25.7 0.1 9.9 -1.1 12.6 -7.4 16.3 -3.3 1.9 -5.4 2 -50.9 2.2 -48.2 0.2 -156.6 0.3 -163 0.2 -1.9 0 -12.7 0.1 -24 0.3 -11.3 0.2 -28.8 0 -39 -0.4z m141.8 -30.4 c1.5 -1 2.2 -2.5 2.2 -4.6 0 -2.7 -2.2 -5.3 -15.3 -18.5 -12.8 -12.9 -15.7 -15.3 -18.2 -15.3 -2.6 0 -5.1 2.1 -17.2 14.6 -15.7 16.3 -17.5 19 -14.9 22.9 l1.6 2.5 29.8 0 c25.3 0 30.1 -0.2 32 -1.6z m-130.2 -66.3 c5 -3.6 7.1 -6.8 8.4 -12.9 2.2 -10.1 -2.4 -19.4 -11.9 -23.8 -5.2 -2.5 -6 -2.6 -11.1 -1.6 -11.2 2.4 -17.3 9.6 -17.4 20.6 -0.2 12.4 8.6 20.6 21.9 20.6 5.2 0 6.8 -0.5 10.1 -2.9z m219.1 -42.2 c6 -2.5 9 -6.2 10.4 -12.5 1.5 -6.6 0.1 -14.1 -3.5 -18.8 -3.5 -4.6 -11 -8 -17.6 -8 -14.1 0 -22.5 11.8 -19 26.5 1.5 6.2 7.8 13.2 13.2 14.7 4.3 1.2 11.2 0.4 16.5 -1.9z"></path>
 </g>
</svg>