<svg xmlns="http://www.w3.org/2000/svg" viewBox="0 0 300 297.42"><defs><path d="M 0,0 H 32 V 32 H 0 Z"></path></defs><g fill="none" fill-rule="evenodd" transform="matrix(9.3457851,0,0,9.3457851,0.93457851,-0.71040078)"><path d="M 32,27.7 V 27.3 L 31.9,26.7 V 26.3 25.6 24.8 24.1 L 31.8,23.6 V 23 22.2 21.9 21.5 l 0.1,-0.4 V 20.8 20 19.5 19.3 19 17.8 17.3 16.7 16.1 15.6 15 14.3 14.1 13.5 12.8 L 31.8,12.1 V 11.6 11 l 0.1,-0.2 a 13.8,13.8 0 0 1 0,-0.7 V 9.7 9.4 8.7 8.3 7.6 7.4 c 0,-0.3 -0.1,-0.7 -0.3,-1 L 31.4,6.2 30.6,6.1 h -1 L 29.1,6.2 H 28.4 27.8 L 27,6.1 h -4.6 l -0.5,0.1 h -1.4 -0.6 -0.2 -1 L 19,6 19.1,5.9 19.3,5.6 19.6,5.4 h 0.1 L 20.2,5 20.5,4.7 20.9,4.4 21.1,4.1 21.4,3.8 21.8,3.4 22.1,3.1 22.5,2.7 22.7,2.5 23.1,2.2 23.4,1.8 23.5,1.6 23.7,1.4 23.9,1.2 24,1 V 0.6 C 24,0.4 23.9,0.2 23.7,0.2 A 1,1 0 0 0 23,0.1 c -0.1,0 -0.2,0 -0.3,0.2 L 22.5,0.5 H 22.4 L 22.3,0.7 21.9,0.9 21.7,1.2 21.5,1.4 21.3,1.6 21.1,1.9 20.7,2.1 20.5,2.4 20.2,2.7 19.9,3 19.5,3.4 19.3,3.5 A 2,2 0 0 0 19,3.7 L 18.7,4 18.3,4.3 18,4.6 H 17.9 L 17.6,4.9 17.4,5.1 17.2,5.3 16.7,5.8 A 2,2 0 0 0 16.3,6.1 L 16.1,6.2 H 16 L 15.8,6.1 15.5,5.8 15.2,5.6 15,5.4 14.7,5.1 14.4,4.9 13.8,4.5 13.6,4.3 13.2,3.9 13,3.8 C 13,3.6 12.8,3.5 12.7,3.4 L 12.5,3.2 12.1,2.8 11.8,2.6 11.5,2.3 11.1,1.9 10.9,1.7 10.5,1.4 V 1.3 L 10.3,1.1 9.9,0.8 9.5,0.5 9.4,0.4 9.3,0.3 9,0.2 H 8.6 8.5 8.3 L 8,0.4 V 0.8 1.1 L 8.1,1.3 8.4,1.6 8.7,1.8 9.2,2.3 9.5,2.6 9.6,2.7 9.8,3 10,3.1 10.2,3.3 v 0.1 l 0.3,0.2 0.2,0.2 0.4,0.3 0.3,0.2 0.2,0.2 0.2,0.2 0.3,0.3 h 0.1 l 0.3,0.3 0.2,0.4 0.4,0.4 0.1,0.1 H 12.8 L 12.1,6.3 H 9 A 2,2 0 0 0 8.4,6.2 H 7 a 3,3 0 0 1 -0.3,0 H 2.2 L 1.7,6.3 H 1.2 1 A 1,1 0 0 0 0.4,6.6 L 0,7 v 7.9 L -0.1,15.4 0,16.3 V 28 l 0.1,0.3 c 0,0.2 0.2,0.4 0.4,0.5 H 0.7 C 0.8,29 1,29 1.2,29 H 6 v 0.1 l 0.4,0.7 0.4,0.4 0.2,0.5 0.2,0.3 0.2,0.1 0.4,0.3 0.1,0.2 0.3,0.1 0.6,0.2 h 0.5 l 0.4,-0.1 c 0.3,0 0.5,-0.2 0.6,-0.4 L 10.7,31 h 0.1 l 0.2,-0.3 0.2,-0.4 0.2,-0.2 0.5,-0.8 V 29 h 3.9 l 0.3,-0.1 0.8,0.1 H 19 c 0.2,0 0.5,-0.1 0.8,0 l 0.3,-0.1 c 0,0.2 0.1,0.4 0.3,0.5 a 4,4 0 0 1 0.6,0.8 l 0.3,0.4 0.2,0.2 0.3,0.3 0.2,0.2 c 0.1,0.2 0.3,0.3 0.6,0.3 l 0.5,0.2 h 0.1 l 0.8,-0.1 0.4,-0.2 0.3,-0.2 v -0.1 l 0.4,-0.6 0.1,-0.2 0.5,-0.5 0.1,-0.2 0.1,-0.4 0.3,-0.3 h 3.3 c 0,0 0.1,-0.1 0.2,0 l 0.4,-0.1 h 1 c 0,0 0.2,0 0.3,-0.2 l 0.2,-0.2 0.2,-0.2 0.2,-0.5 v -0.2" fill="#231916" mask="url(#mask-2)"></path><path d="M 9.5,30.5 10,30 l 0.2,-0.3 0.2,-0.3 0.2,-0.2 a 3,3 0 0 0 -0.3,0 H 10 a 2,2 0 0 0 -0.6,0 H 7.7 c 0,-0.1 -0.1,-0.1 -0.2,0 l 0.2,0.2 0.2,0.4 v 0.1 l 0.4,0.4 c 0.3,0.4 0.3,0.3 0.6,0.4 0.2,0 0.4,0 0.6,-0.2 M 24.9,29 24.8,29.1 H 22 v 0 h -0.3 l 0.3,0.6 0.6,0.7 0.2,0.1 c 0.2,0.2 0.5,0.2 0.8,0 l 0.2,-0.1 0.1,-0.1 0.3,-0.2 0.3,-0.5 0.3,-0.4 V 29 m 0.7,-14.3 v 0.2 l -0.2,0.4 v 0.1 h -0.1 v 0.1 H 25 l -0.3,0.3 H 24.3 24.2 L 24,15.9 H 23.4 23.2 L 23,15.6 v 0 h -0.1 v -0.1 l -0.2,-0.2 v -0.1 l -0.1,-0.1 v -0.2 l -0.1,-0.2 v -0.1 -0.3 -0.1 -0.5 l 0.2,-0.2 v -0.1 l 0.2,-0.1 0.3,-0.2 V 13 h 0.2 l 0.1,-0.1 h 1 V 13 c 0.2,0 0.4,0.2 0.5,0.3 l 0.3,0.3 0.1,0.2 V 14 l 0.1,0.3 v 0.3 m -7.1,8.7 -0.2,0.4 h -0.4 -4 L 13.6,23.5 V 23.4 23.2 23 l 0.3,-0.3 0.2,-0.3 0.3,-0.2 0.2,-0.3 0.4,-0.4 0.4,-0.3 0.2,-0.3 h 0.3 l 0.5,0.1 0.6,0.6 0.2,0.3 a 5.9,5.9 0 0 1 0.4,0.4 l 0.2,0.2 0.4,0.3 0.2,0.3 v 0.2 m -9,-5.6 v 0.4 H 9.3 v 0.1 L 9.2,18.4 9,18.7 A 1.8,1.8 0 0 1 8.5,19 H 7.6 7.5 L 7.3,18.9 C 7.1,18.9 7,18.7 6.8,18.6 L 6.4,17.8 v -0.3 -0.2 -0.1 -0.1 l 0.1,-0.2 c 0,-0.2 0.1,-0.3 0.2,-0.3 V 16.5 H 6.8 V 16.4 H 7 L 7.3,16.2 7.5,16.1 H 7.6 L 8,16 h 0.4 l 0.2,0.1 a 2.4,2.4 0 0 1 0.5,0.3 l 0.2,0.3 v 0.1 l 0.2,0.3 v 0.6 m 19.1,5.2 V 22 21.4 a 8.3,8.3 0 0 0 0,-1.7 v -0.5 a 4.3,4.3 0 0 0 0.1,-1.1 v -0.6 -0.4 -0.7 -0.5 -0.6 -1 -0.4 l -0.1,-0.5 v -0.3 -0.4 -0.5 -0.1 -0.8 -0.4 c 0,-0.3 0,-0.6 -0.2,-0.8 L 28,9.8 a 3,3 0 0 0 -0.5,0 L 26.9,9.7 h -0.3 -4 -0.2 -1.2 a 2,2 0 0 1 -0.5,0 h -3.1 -0.2 a 2.9,2.9 0 0 1 -1,0 H 16 15.2 14.5 10.2 C 10,9.6 9.9,9.6 9.8,9.7 H 9.5 c 0,0 -0.1,-0.1 -0.1,0 H 9 8 C 8,9.6 7.8,9.6 7.8,9.7 H 6.7 5.6 5 a 2,2 0 0 0 -0.7,0 L 3.9,9.9 3.6,10.1 3.4,10.7 v 2.4 l -0.1,0.6 v 10.4 l 0.1,0.8 v 0.4 l 0.8,0.5 h 10.5 c 0,0.1 0,0 0.1,0 h 13 l 0.4,-0.2 v -0.1 c 0.2,0 0.2,-0.2 0.3,-0.3 l 0.1,-0.4 v -1 -1" fill="#FEFEFE"></path><path d="m 29.5,24.7 -0.1,0.7 v 0.9 c 0,0.2 -0.2,0.2 -0.3,0.3 h -1.2 a 2.4,2.4 0 0 1 -1,0 H 26.7 26.3 L 26,26.5 a 4,4 0 0 0 -0.8,0 H 24 20.6 c -0.1,0.1 -0.3,0.1 -0.4,0 h -2.5 l -0.3,0.1 a 2,2 0 0 1 -0.8,0 H 15.8 15.6 15.2 15 14.8 13.2 l -0.7,-0.1 h -0.4 a 5,5 0 0 0 -0.7,0 H 11 10.9 L 9.6,26.6 H 9.3 C 9.1,26.5 8.8,26.5 8.5,26.6 H 8.1 L 7.5,26.5 H 6.3 L 5.9,26.6 H 5.2 4.1 3.3 3 A 0.4,0.4 0 0 1 2.7,26.1 V 25.2 25.1 24.6 24.4 24.3 23.5 23 21.5 20.7 20 19.6 18.7 18 L 2.6,16.7 V 16.4 15.9 15 14.7 14.2 13.6 12.8 12.1 11.7 11.2 10.6 L 2.7,10.1 V 10 9.4 C 2.7,9.2 2.9,9.1 3.1,9.1 h 4.1 a 4,4 0 0 1 1,0 h 5.6 L 14.3,9 H 20 a 4.4,4.4 0 0 0 1.1,0 h 1.3 l 0.8,0.1 H 28 L 28.8,9 h 0.4 c 0.2,0.1 0.2,0.2 0.2,0.4 v 1.8 l 0.1,0.8 v 12.7 m 1.2,-0.8 v -0.4 -0.2 -0.4 l 0.1,-0.6 V 21.9 21.5 21 20 19.7 19.5 18.8 18.6 18.3 18.2 17.9 17.6 17.2 16.8 16.6 15.9 15.3 14.9 14.6 14 13 12.8 12.5 12.1 11.7 11.3 11.1 10.9 10.3 9.7 9 8.7 8 L 30.6,7.7 A 0.6,0.6 0 0 0 30.2,7.6 H 29.5 L 28.6,7.5 H 28.4 L 27.8,7.4 H 27.4 27.3 26.6 A 2.2,2.2 0 0 1 26,7.5 h -1 c -0.1,0 -0.3,0.1 -0.4,0 H 23 v 0 h -0.3 -0.3 a 2,2 0 0 0 -0.4,0 h -1 -0.1 a 1,1 0 0 1 -0.4,0 H 19 18.8 18.1 17.9 a 1,1 0 0 1 -0.3,0 H 17.3 L 16.8,7.4 h -0.4 -0.1 a 3,3 0 0 0 -0.6,0 L 15.2,7.5 H 15 13.9 12.9 12.7 12 v 0 L 11.7,7.4 H 11.5 11.3 10.6 9 C 8.8,7.5 8.6,7.6 8.4,7.5 H 7.8 7.7 a 1,1 0 0 1 -0.4,0 H 6.9 6.6 3.3 a 1,1 0 0 0 -0.4,0 H 2.7 2.4 a 1,1 0 0 1 -0.3,0 H 1.7 C 1.5,7.6 1.4,7.8 1.4,8 v 2 l -0.1,0.6 v 1.8 4.3 l -0.1,0.6 v 1.4 l 0.1,0.5 v 6.5 0.5 l -0.1,0.3 v 0.3 l 0.1,0.5 v 0.4 l 0.4,0.2 a 2.1,2.1 0 0 0 1,0 L 3.1,28 h 1 l 0.4,0.1 H 7.4 L 7.9,28 H 9 l 0.3,0.1 h 7.5 c 0,0.1 0.2,0 0.2,0 h 4.7 c 0,-0.1 0,0 0,0 h 4.8 l 0.4,-0.2 h 0.4 l 0.2,0.2 H 30 l 0.5,-0.2 h 0.1 l 0.2,-0.5 V 26.8 26.3 25.9 25.4 24.7 24" fill="#FEFEFE"></path></g></svg>