<svg xmlns="http://www.w3.org/2000/svg" viewBox="0 0 300 300"><circle cx="150" cy="150" r="143.7" style="fill:#f6a"></circle><path d="M76.8,191.3A31,31,0,0,1,64.5,189a22.35,22.35,0,0,1-8.6-6.4,27.78,27.78,0,0,1-5.2-9.6A38.06,38.06,0,0,1,49,161.1a41.92,41.92,0,0,1,1.7-12,28.26,28.26,0,0,1,5.2-9.7,25.42,25.42,0,0,1,8.6-6.5,29,29,0,0,1,12.3-2.4,29.34,29.34,0,0,1,12.3,2.4,25,25,0,0,1,8.8,6.5,28.26,28.26,0,0,1,5.2,9.7,41.92,41.92,0,0,1,1.7,12,41.22,41.22,0,0,1-1.7,11.9,24.83,24.83,0,0,1-5.2,9.6,23.06,23.06,0,0,1-8.8,6.4A29.05,29.05,0,0,1,76.8,191.3Zm0-12.1c4.2,0,7.2-1.6,9-4.7s2.7-7.6,2.7-13.4-.9-10.3-2.7-13.4-4.8-4.7-9-4.7-7.1,1.6-8.9,4.7-2.7,7.6-2.7,13.4.9,10.3,2.7,13.4S72.7,179.2,76.8,179.2Zm51.8-14.5a22.33,22.33,0,0,1-9.8-5.3c-2.4-2.4-3.5-5.9-3.5-10.6,0-5.7,2-10.1,6.1-13.4s9.6-4.8,16.7-4.8a49.13,49.13,0,0,1,8.6.8,48.3,48.3,0,0,1,8.6,2.4,35.79,35.79,0,0,1-1.1,6.1,31.62,31.62,0,0,1-2.1,5.5c-1.8-.7-3.8-1.4-5.9-2a25.83,25.83,0,0,0-6.8-.8,12.08,12.08,0,0,0-5.9,1.2,4.64,4.64,0,0,0-.6,7.3,16,16,0,0,0,4.3,1.9l6.4,1.9a29.4,29.4,0,0,1,5.7,2.2,15.57,15.57,0,0,1,4.3,3.2,13.66,13.66,0,0,1,2.8,4.7,19.89,19.89,0,0,1,1,6.8,18.08,18.08,0,0,1-1.7,7.7,17.59,17.59,0,0,1-5,6.2,26.37,26.37,0,0,1-8,4.2,35,35,0,0,1-10.7,1.5c-1.8,0-3.4-.1-4.9-.2a29.69,29.69,0,0,1-4.3-.6c-1.4-.3-2.7-.6-4.1-1s-2.8-.9-4.4-1.5a26.12,26.12,0,0,1,1.1-6.1,38.9,38.9,0,0,1,2.2-6,46.35,46.35,0,0,0,7,2.2,31.06,31.06,0,0,0,6.9.7,21.36,21.36,0,0,0,3.4-.3,12.22,12.22,0,0,0,3.4-1,8.32,8.32,0,0,0,2.6-1.9,5.26,5.26,0,0,0-.5-7,15.77,15.77,0,0,0-4.5-2.1ZM167.9,132a54,54,0,0,1,8-.7,44,44,0,0,1,8,.7v30.7a32.2,32.2,0,0,0,.7,7.6,10.84,10.84,0,0,0,2.2,4.7,8.18,8.18,0,0,0,3.8,2.5,17,17,0,0,0,5.3.7,27.52,27.52,0,0,0,7-.8V132a53.88,53.88,0,0,1,7.9-.7,44,44,0,0,1,8,.7v55.8a86.1,86.1,0,0,1-9.5,2.4,61.1,61.1,0,0,1-12.3,1.2,65.33,65.33,0,0,1-11-.9,22.61,22.61,0,0,1-9.3-3.8,18.66,18.66,0,0,1-6.3-8.5c-1.6-3.7-2.4-8.7-2.4-14.9V132Zm65.9,58a58,58,0,0,1-.7-8.2,47.3,47.3,0,0,1,.7-8.3,58,58,0,0,1,8.2-.7,47.3,47.3,0,0,1,8.3.7,59.22,59.22,0,0,1,.7,8.2,46.51,46.51,0,0,1-.7,8.3,59.22,59.22,0,0,1-8.2.7A77.42,77.42,0,0,1,233.8,190Zm-.4-80.7a63.6,63.6,0,0,1,8.6-.7,53,53,0,0,1,8.8.7l-1.1,54.9a49.86,49.86,0,0,1-7.5.7,39.09,39.09,0,0,1-7.6-.7Z" style="fill:#fff"></path><path d="M150,0A150,150,0,1,0,300,150,150.05,150.05,0,0,0,150,0Zm0,285A135,135,0,1,1,285,150,134.95,134.95,0,0,1,150,285Z" style="fill:#fff"></path></svg>