


<svg version="1.1" id="레이어_1" xmlns="http://www.w3.org/2000/svg" xmlns:xlink="http://www.w3.org/1999/xlink" x="0px" y="0px" width="1000px" height="1181px" viewBox="0 0 1000 1181" enable-background="new 0 0 1000 1181" xml:space="preserve">
<g>
	<path fill="#0096D9" d="M901.164,300.305c14.401-91.792-0.112-154.242-49.744-210.841C796.763,27.208,698.022,0.497,571.687,0.497
		H204.91c-25.828,0-47.785,18.774-51.807,44.326L0.39,1013.177c-3.007,19.092,11.745,36.37,31.089,36.37h226.416l-15.611,99.14
		c-2.653,16.651,10.249,31.816,27.179,31.816h190.851c22.567,0,41.831-16.418,45.328-38.731l1.881-9.736l35.926-227.973
		l2.337-12.567c3.533-22.309,22.759-38.764,45.328-38.764h28.554c184.896,0,329.657-75.099,371.957-292.328
		c17.658-90.771,8.524-166.558-38.195-219.8C939.265,324.479,921.692,311.167,901.164,300.305"></path>
	<path fill="#15126F" d="M901.164,300.305c14.401-91.792-0.112-154.242-49.744-210.841C796.763,27.208,698.022,0.497,571.687,0.497
		H204.91c-25.828,0-47.785,18.774-51.807,44.326L0.39,1013.177c-3.007,19.092,11.745,36.37,31.089,36.37h226.416l56.855-360.605
		l-1.767,11.313c4.025-25.495,25.822-44.35,51.65-44.35h107.62c211.33,0,376.83-85.8,425.183-334.133
		C898.827,314.425,900.087,307.296,901.164,300.305"></path>
	<path fill="#0A2A82" d="M375.866,301.521c2.415-15.316,12.274-27.902,25.53-34.267c6.01-2.888,12.764-4.498,19.795-4.498h287.498
		c34.073,0,65.809,2.237,94.836,6.91c8.283,1.321,16.376,2.888,24.214,4.616c7.836,1.729,15.454,3.672,22.797,5.833
		c3.714,1.102,7.323,2.223,10.904,3.382c14.238,4.749,27.509,10.349,39.743,16.827c14.4-91.83-0.113-154.262-49.764-210.842
		C796.763,27.188,698.022,0.516,571.668,0.516H204.929c-25.825,0-47.782,18.775-51.806,44.27L0.409,1013.177
		c-3.026,19.092,11.745,36.413,31.09,36.413h226.396l56.875-360.686L375.866,301.521z"></path>
</g>
</svg>
