


<svg version="1.1" id="레이어_1" xmlns="http://www.w3.org/2000/svg" xmlns:xlink="http://www.w3.org/1999/xlink" x="0px" y="0px" width="1000px" height="1000px" viewBox="0 0 1000 1000" enable-background="new 0 0 1000 1000" xml:space="preserve">
<g>
	<path fill="#0096FA" d="M1000,799.525C1000,909.97,910.97,1000,800.525,1000H200.475C90.032,1000,0,909.97,0,799.525V199.475
		C0,89.032,90.032,0,200.475,0h600.051C910.97,0,1000,89.032,1000,199.475V799.525z"></path>
	<path fill="#FFFFFF" d="M761.901,262.951l0.008-0.008c-55.849-48.458-134.014-76.433-224.87-76.433
		C300.2,186.522,139.132,368.074,139.132,368.074l45.378,71.558c0,0,22.042,2.094,8.744-40.059
		C204.739,378.033,231,349.021,268,315.564v476.635C256,797.496,230.231,806,247.275,827h130.412
		C394.901,806,367,797.006,346,792.199V679.742c0,0,92.031,34.867,188.405,34.867c84.659,0,163.022-25.037,220.313-70.236
		c57.3-44.93,94.918-112.027,94.669-188.718C849.564,380.343,817.767,311.221,761.901,262.951z M692,606.741v0.012
		c-37,38.858-99.492,63.425-165.955,63.38C451.882,670.178,391,655.902,346,635.744V278.166c50-31.933,121.216-51.597,180.448-51.48
		c71.972,0.064,129.782,27.083,168.014,68.058c38.126,41.232,59.222,96.012,59.411,159.674C753.627,516.459,729,567.563,692,606.741
		z"></path>
</g>
</svg>
