<?xml version="1.0" encoding="UTF-8"?>
<svg xmlns="http://www.w3.org/2000/svg" xmlns:xlink="http://www.w3.org/1999/xlink" width="100px" height="px" viewBox="0 0 100 100" version="1.1">
<g id="surface1">
<path style=" stroke:none;fill-rule:evenodd;fill:rgb(0.784314%,21.568627%,56.862745%);fill-opacity:1;" d="M 98.621094 71.480469 C 96.6875 73.921875 91.949219 75.660156 91.949219 75.660156 L 56.703125 88.320312 L 56.703125 78.984375 L 82.640625 69.742188 C 85.585938 68.6875 86.035156 67.195312 83.644531 66.414062 C 81.253906 65.628906 76.929688 65.855469 73.984375 66.914062 L 56.703125 73 L 56.703125 63.3125 L 57.699219 62.972656 C 57.699219 62.972656 62.691406 61.207031 69.714844 60.429688 C 76.738281 59.65625 85.335938 60.535156 92.085938 63.09375 C 99.695312 65.496094 100.550781 69.042969 98.621094 71.480469 Z M 60.058594 55.582031 L 60.058594 31.707031 C 60.058594 28.902344 59.539062 26.320312 56.910156 25.589844 C 54.894531 24.945312 53.644531 26.816406 53.644531 29.617188 L 53.644531 89.410156 L 37.519531 84.292969 L 37.519531 13 C 44.375 14.273438 54.363281 17.28125 59.734375 19.089844 C 73.390625 23.78125 78.019531 29.617188 78.019531 42.761719 C 78.019531 55.578125 70.109375 60.433594 60.058594 55.582031 Z M 7.929688 78.007812 C 0.121094 75.808594 -1.179688 71.226562 2.382812 68.585938 C 5.671875 66.148438 11.265625 64.316406 11.265625 64.316406 L 34.386719 56.09375 L 34.386719 65.464844 L 17.75 71.421875 C 14.808594 72.476562 14.359375 73.96875 16.746094 74.75 C 19.136719 75.53125 23.460938 75.308594 26.40625 74.253906 L 34.386719 71.355469 L 34.386719 79.742188 C 33.878906 79.832031 33.316406 79.921875 32.792969 80.011719 C 24.8125 81.3125 16.308594 80.769531 7.929688 78.007812 Z M 7.929688 78.007812 "/>
</g>
</svg>
