<?xml version="1.0" encoding="utf-8"?>
<!-- Generator: Adobe Illustrator 16.0.0, SVG Export Plug-In . SVG Version: 6.00 Build 0)  -->
<!DOCTYPE svg PUBLIC "-//W3C//DTD SVG 1.1//EN" "http://www.w3.org/Graphics/SVG/1.1/DTD/svg11.dtd">
<svg version="1.1" id="Layer_1" xmlns="http://www.w3.org/2000/svg" xmlns:xlink="http://www.w3.org/1999/xlink" x="0px" y="0px"
	 width="283.465px" height="283.465px" viewBox="0 0 283.465 283.465" enable-background="new 0 0 283.465 283.465"
	 xml:space="preserve">
<g>
	<g>
		<path fill="#231F20" d="M50.805,204.411c4.157,2.014,12.619,2.418,20.596,0.997c3.918-0.696,4.563-0.906,23.276-7.716
			c2.649-0.972,4.876-1.767,4.931-1.767c0.069,0,0.114,5.003,0.103,11.344l-0.05,11.338l-3.025,0.504
			c-22.405,3.768-44.688,2.208-66.353-4.609c-1.141-0.349-2.818-0.872-3.698-1.136c-5.064-1.558-10.251-4.218-13.151-6.764
			c-2.109-1.833-3.703-4.013-4.459-6.122c-0.356-0.97-0.417-1.354-0.47-2.784c-0.064-2.053,0.105-2.915,0.979-4.646
			c0.706-1.421,1.854-2.868,3.135-3.924c3.508-2.92,10.061-6.442,17.733-9.562c2.68-1.085,3.776-1.48,15.079-5.498
			c4.292-1.515,18.245-6.485,31.021-11.016l23.208-8.263l0.05,12.652c0.013,6.957,0,12.682-0.033,12.702
			c-0.033,0.037-10.254,3.715-22.723,8.169c-12.449,4.475-23.105,8.313-23.658,8.522c-2.286,0.964-4.026,2.237-4.714,3.464
			C47.662,201.91,48.358,203.229,50.805,204.411z"/>
		<path fill="#231F20" d="M152.893,76.586c-0.421,0.98-0.725,1.879-1.032,3.46c-0.225,1.078-0.238,5.704-0.311,82.857l-0.064,81.702
			l-21.664-6.882l-21.681-6.863l-0.033-96.019c-0.03-94.238-0.03-95.984,0.219-95.984c0.147,0,1.613,0.262,3.272,0.606
			c13.021,2.652,31.589,7.725,50.572,13.822c15.14,4.849,24.49,9.027,32.573,14.522c9.521,6.455,15.614,14.434,18.997,24.825
			c2.151,6.525,3.214,13.976,3.436,23.711c0.163,6.933-0.367,12.61-1.631,17.883c-4.528,18.81-17.981,27.473-36.102,23.199
			c-2.911-0.678-6.611-1.988-9.399-3.286l-1.271-0.59V121.14c0-32.592-0.037-35.324-0.492-37.999
			c-0.953-5.765-3.601-9.1-8.188-10.375C156.97,71.904,154.382,73.27,152.893,76.586z"/>
		<path fill="#231F20" d="M271.19,197.933c-2.886,2.859-8.175,6.141-13.92,8.614c-1.061,0.439-8.092,3.032-15.622,5.764
			c-44.327,15.897-81.373,29.197-81.641,29.313c-0.233,0.095-0.252-0.565-0.252-12.554c0-11.932,0.019-12.663,0.252-12.745
			c0.238-0.094,13.614-4.848,33.609-11.979c6.583-2.364,17.585-6.269,24.421-8.716c6.855-2.446,13.068-4.737,13.857-5.103
			c2.235-1.064,3.555-2.108,4.179-3.355c0.514-1.018,0.294-1.862-0.733-2.809c-3.547-3.258-15.854-3.871-25.714-1.289
			c-1.935,0.49-2.604,0.725-17.696,6.051c-27.327,9.614-31.923,11.243-32.037,11.243c-0.085,0-0.138-4.709-0.138-13.105v-13.093
			l3.211-1.041c12.086-3.876,26.58-6.573,39.325-7.271c1.798-0.1,14.133,0.042,15.873,0.174c11.4,0.899,20.455,2.452,29.361,5.076
			c2.364,0.696,9.917,3.277,12.241,4.184c4.475,1.75,8.79,4.309,11.22,6.646c2.839,2.72,3.984,5.072,3.984,8.131
			C274.975,192.965,273.856,195.313,271.19,197.933z"/>
	</g>
</g>
</svg>
