<svg width="1000" height="1000" xmlns="http://www.w3.org/2000/svg" style="vector-effect: non-scaling-stroke;" stroke="null" version="1.1">

 <g stroke="null">
  <title stroke="null">Layer 1</title>
  <g stroke="null" id="surface1">
   <path stroke="null" id="svg_1" fill="rgb(0%,0%,0%)" fill-rule="nonzero" d="m4.46024,500.00001c0,273.67621 221.8613,495.53751 495.53751,495.53751c273.67621,0 495.542,-221.8613 495.542,-495.53751c0,-273.6807 -221.86579,-495.53752 -495.542,-495.53752c-273.67621,0 -495.53751,221.85682 -495.53751,495.53752zm0,0"/>
   <path stroke="null" id="svg_2" fill="rgb(14.509804%,95.686275%,93.333333%)" fill-rule="nonzero" d="m446.98024,430.71603l0,-26.28215c-8.9073,-1.25195 -17.88639,-1.9071 -26.87446,-1.95198c-52.86942,0.06283 -103.55352,21.09034 -140.93278,58.47407c-37.38372,37.38821 -58.41573,88.06783 -58.47855,140.93726c0.01346,32.0573 7.75855,63.63446 22.57564,92.06153c14.82156,28.42708 36.28435,52.85596 62.562,71.21802c-34.22916,-36.89911 -53.1252,-85.44726 -52.85148,-135.77237c-0.04936,-51.90914 20.22877,-101.76309 56.49067,-138.90002c36.26191,-37.13694 85.62226,-58.59523 137.50896,-59.78436zm0,0"/>
   <path stroke="null" id="svg_3" fill="rgb(14.509804%,95.686275%,93.333333%)" fill-rule="nonzero" d="m451.67845,721.02218c49.07316,0 89.65635,-39.58251 91.48268,-88.20245l0.38591,-433.57233l78.61308,0l-0.11667,-0.66412c-1.69172,-9.04641 -2.55328,-18.23191 -2.56225,-27.43987l-108.22032,0l-0.175,434.23644c-0.89746,23.51797 -10.86376,45.77949 -27.80782,62.11776c-16.94406,16.33379 -39.5556,25.47892 -63.09151,25.51931c-14.72733,0.00448 -29.2303,-3.58536 -42.24797,-10.45991c16.48186,22.88974 43.36082,38.46517 73.73987,38.46517zm0,0"/>
   <path stroke="null" id="svg_4" fill="rgb(14.509804%,95.686275%,93.333333%)" fill-rule="nonzero" d="m770.25014,347.28807l0,-25.43853c-29.15402,0.02692 -57.67981,-8.45409 -82.08178,-24.40646c21.04545,24.1776 49.63407,42.90312 82.08178,49.84498zm0,0"/>
   <path stroke="null" id="svg_5" fill="rgb(99.607843%,17.254902%,33.333333%)" fill-rule="nonzero" d="m688.16837,297.44309c-23.94875,-27.35461 -37.13693,-62.47225 -37.12795,-98.82839l-29.46364,0c3.8546,20.11659 11.74328,39.24148 23.19039,56.22593c11.44263,16.98444 26.20586,31.47394 43.40121,42.60246zm0,0"/>
   <path stroke="null" id="svg_6" fill="rgb(99.607843%,17.254902%,33.333333%)" fill-rule="nonzero" d="m420.10578,509.99324c-50.22191,0 -91.67563,41.69603 -91.67563,91.89999c0,34.97854 20.43518,65.36207 49.42765,80.61442c-11.20479,-15.4453 -17.24022,-34.03172 -17.24022,-53.10725c0.02693,-24.14618 9.62975,-47.29619 26.69946,-64.36589c17.0697,-17.07868 40.21522,-26.686 64.3614,-26.71293c9.12269,0.01795 18.18704,1.44492 26.87896,4.21358l0,-110.60756c-8.9073,-1.25645 -17.88639,-1.9116 -26.87896,-1.95647c-1.61094,0 -3.13214,0.08077 -4.6982,0.13013l-0.41732,0l-0.29616,83.71515c-8.46306,-2.63405 -17.29407,-3.9219 -26.16099,-3.82318zm0,0"/>
   <path stroke="null" id="svg_7" fill="rgb(99.607843%,17.254902%,33.333333%)" fill-rule="nonzero" d="m770.25014,346.0002l-0.51604,-0.09871l0,83.65233c-54.18869,-0.13013 -106.96836,-17.2851 -150.88112,-49.04175l0,221.33181c0.04487,26.11611 -5.06617,51.9944 -15.03247,76.13609c-9.97079,24.1417 -24.60389,46.08013 -43.06915,64.55885c-18.46077,18.47872 -40.38574,33.12976 -64.52295,43.12299c-24.13272,9.98426 -50.00652,15.11324 -76.12263,15.09081c-40.84794,0.23783 -80.76251,-12.16508 -114.27369,-35.51702c18.61782,20.07621 41.18448,36.08691 66.28196,47.04041c25.0975,10.94902 52.18287,16.59854 79.5644,16.59405c52.87839,-0.05833 103.57597,-21.09482 140.96867,-58.492c37.38373,-37.3972 58.41123,-88.09925 58.45612,-140.97765l0,-220.18754c43.91276,31.5637 96.64307,48.50776 150.72407,48.42699l0,-108.28314c-10.61247,-0.00449 -21.19803,-1.13081 -31.57716,-3.35651zm0,0"/>
   <path stroke="null" id="svg_8" fill="rgb(100%,100%,100%)" fill-rule="nonzero" d="m619.51261,601.89323l0,-220.16959c43.91724,31.55922 96.65204,48.50328 150.73753,48.42699l0,-84.19977c-31.89127,-6.88353 -60.6908,-23.92182 -82.08178,-48.55713c-17.13253,-11.14197 -31.82396,-25.64493 -43.18582,-42.63388c-11.35737,-16.98444 -19.14733,-36.10484 -22.9032,-56.19002l-79.32657,0l-0.175,434.23644c-0.89297,23.51797 -10.85479,45.77949 -27.80334,62.12225c-16.94406,16.33827 -39.55558,25.47892 -63.09599,25.51482c-14.43117,-0.01795 -28.65592,-3.4642 -41.48961,-10.06503c-12.83819,-6.60083 -23.92182,-16.15879 -32.33104,-27.8886c-14.71387,-7.70918 -27.04049,-19.2954 -35.64715,-33.50221c-8.60664,-14.21129 -13.16574,-30.50021 -13.1837,-47.11221c0.03142,-24.14169 9.63424,-47.29618 26.70844,-64.3614c17.07419,-17.06971 40.2242,-26.67703 64.37039,-26.69946c9.12268,0.02244 18.17807,1.44043 26.87446,4.19563l0,-84.92671c-107.78057,2.53533 -194.70862,90.86791 -194.70862,199.31708c-0.02693,50.41037 19.1204,98.94955 53.56047,135.77237c33.44836,23.54488 73.36294,36.16767 114.27369,36.14074c52.86942,-0.05833 103.55801,-21.08584 140.94174,-58.47855c37.38373,-37.38373 58.41125,-88.07232 58.4651,-140.94174zm0,0"/>
  </g>
 </g>
</svg>