<svg xmlns="http://www.w3.org/2000/svg" viewBox="0 0 241.93 274.66"><g id="toonation"><path style="fill:#2196f3" d="M115.84,0C90.28,1.73,64.7,10.47,42.74,29.72,17.84,51.54,3,78.46.42,111.28-4.08,169,28,217.35,82.5,237c8.33,3,12.46,5.63,14.32,6.31,2.61,1.75,9.5,12.22,20.15,19.29,16.87,11.19,45.37,12.23,46.53,12,5.17-.95,5.54-4.62,2.84-8.46-11.85-16.86-9.46-29.4-4-31.14a118.71,118.71,0,0,0,44.48-28.86c38.93-39.31,46.56-101,17.34-147.63C200,19.88,164.21,1.2,115.84,0m95.45,181.45c-13.46,21.46-36.13,39-60.32,46.58-12.2,4.35-5.75,25-1.78,31.17.65,1,1.68,2.73-.5,2.32A58.25,58.25,0,0,1,127,252.69C117.67,246.42,109.9,236,107,233.75c-4-3.15-10.39-4.72-14.44-6.42-35.87-15.11-63-35.24-74.89-72.43C6.17,118.79,12.2,85,35.41,54.78c18.2-23.73,42.7-36.58,72-41.19,40.67-6.39,88,17,107.65,53.8,20.74,38.73,19.43,77-3.8,114.06"></path><path style="fill:#2196f3" d="M159.4,46.41C105.55,20.48,51.28,50.91,38,103c-5.91,23.24-.79,45,10.79,65.05,15.39,26.69,39.85,41.14,69.38,47.45,1.16.24,4.84-1.87,5.53-4.93.65-2.86-1.62-6.63-2.79-7.48-2.78-2-6.76-2.39-10.2-3.53-30.53-10-52-29.78-59.24-61.37C41.22,93.55,73,53.51,118.9,51.28c40.68-1,82.82,34.9,72,77.79-5.2,20.67-16.84,36.64-37.59,42-21,5.42-40.32-.72-55.45-17.07-12-13-13.42-27.5-7.2-44.12,7.64-20.38,32.07-28.4,53-15.47,12,7.43,15.57,23,9,34.42-3.76,6.51-9.34,8.19-16.34,7.08s-8.45-5.61-9.21-11.87A7.1,7.1,0,0,0,120.6,118c-4-.45-6.16,3.62-6.66,5.13-2.6,7.88.5,14.81,6.38,20.27,7.26,6.72,16.09,9.22,25.53,6.39,18.46-5.5,27.64-24.52,22.81-43.23C162.25,81.69,127.1,65.67,100.81,79,73.3,92.86,64.32,132.86,82.58,157.77c11.42,15.57,26.73,24.78,45.68,28,24.93,4.19,46-3,61.52-23,15.28-19.78,20.91-42.48,13.82-66.88-6.77-23.21-22.5-38.92-44.2-49.39"></path></g></svg>