<svg xmlns="http://www.w3.org/2000/svg" width="193.099" height="193.099" viewBox="0 0 144.824 144.824"><path fill="#001935" d="M 115.90625 0 L 28.921875 0 C 13.015625 0 0 13.019531 0 28.921875 L 0 115.902344 C 0 131.808594 13.015625 144.824219 28.921875 144.824219 L 115.90625 144.824219 C 131.804688 144.824219 144.824219 131.808594 144.824219 115.902344 L 144.824219 28.921875 C 144.824219 13.019531 131.804688 0 115.90625 0"></path><path fill="#ffffff" d="M 97.355469 117.515625 L 82.09375 117.515625 C 68.351562 117.515625 58.109375 110.449219 58.109375 93.535156 L 58.109375 66.445312 L 45.625 66.445312 L 45.625 51.78125 C 59.367188 48.210938 65.113281 36.382812 65.777344 26.144531 L 80.042969 26.144531 L 80.042969 49.402344 L 96.695312 49.402344 L 96.695312 66.445312 L 80.042969 66.445312 L 80.042969 90.03125 C 80.042969 97.101562 83.613281 99.546875 89.292969 99.546875 L 97.355469 99.546875 Z M 97.355469 117.515625"></path></svg>