<?xml version="1.0" encoding="utf-8"?>
<!-- Generator: Adobe Illustrator 16.0.0, SVG Export Plug-In . SVG Version: 6.00 Build 0)  -->
<!DOCTYPE svg PUBLIC "-//W3C//DTD SVG 1.1//EN" "http://www.w3.org/Graphics/SVG/1.1/DTD/svg11.dtd">
<svg version="1.1" id="Layer_1" xmlns="http://www.w3.org/2000/svg" xmlns:xlink="http://www.w3.org/1999/xlink" x="0px" y="0px"
	 width="1000px" height="1000px" viewBox="0 0 1000 1000" enable-background="new 0 0 1000 1000" xml:space="preserve">
<g>
	<path fill="#00ADEF" d="M1000,900c0,55.224-44.775,100-100,100H100C44.776,1000,0,955.224,0,900V100C0,44.771,44.776,0,100,0h800
		c55.225,0,100,44.771,100,100V900L1000,900z"/>
	<path fill="#FFFFFF" d="M841.443,332.083c-3.219,70.337-52.34,166.643-147.381,288.896
		C595.809,748.645,512.676,812.5,444.698,812.5c-42.138,0-77.783-38.863-106.905-116.635
		c-19.442-71.289-38.867-142.574-58.321-213.871c-21.631-77.727-44.816-116.638-69.629-116.638
		c-5.407,0-24.325,11.376-56.718,34.029l-33.984-43.787c35.665-31.328,70.838-62.655,105.448-94.036
		c47.567-41.08,83.302-62.703,107.1-64.885c56.223-5.402,90.841,33.033,103.83,115.308c14.042,88.778,23.767,143.991,29.219,165.597
		c16.228,73.661,34.07,110.453,53.543,110.453c15.108,0,37.843-23.89,68.145-71.688c30.244-47.766,46.456-84.114,48.641-109.098
		c4.33-41.231-11.893-61.89-48.641-61.89c-17.305,0-35.148,3.979-53.495,11.844c35.526-116.308,103.377-172.798,203.523-169.576
		C810.713,189.811,845.732,237.959,841.443,332.083L841.443,332.083z"/>
</g>
</svg>
