<svg id="Слой_1" data-name="Слой 1" xmlns="http://www.w3.org/2000/svg" xmlns:xlink="http://www.w3.org/1999/xlink" viewBox="0 0 624.0001 624">
  <defs>
    <style>
      .cls-1 {
        fill: none;
      }

      .cls-2 {
        clip-path: url(#clip-path);
      }

      .cls-3 {
        fill: #07f;
      }

      .cls-4 {
        fill: #fff;
      }
    </style>
    <clipPath id="clip-path">
      <rect class="cls-1" width="624" height="624"/>
    </clipPath>
  </defs>
  <title>VK</title>
  <g class="cls-2">
    <g>
      <path class="cls-3" d="M299.19315,624H325.1783c141.05371,0,211.58059,0,255.39432-43.79883C624.37145,536.38744,624,465.87543,624,325.17827V298.8217c0-140.66744,0-211.20914-43.42743-255.02287C537.14513,0,466.21713,0,325.17827,0H299.19312C158.12457,0,87.61257,0,43.79886,43.79886,0,87.61257,0,158.09485,0,298.82173V325.1783C0,465.87546,0,536.38744,43.79886,580.20117,87.61257,624,158.12457,624,299.19315,624Z"/>
      <path class="cls-4" d="M334.85029,449.904c-140.69715,0-226.096-97.61142-229.40915-259.83657H176.696c2.22857,119.15429,56.44229,169.728,97.99773,180.03886V190.06743h68.31314V292.87888c40.08457-4.45714,82.01143-51.22743,96.14058-102.81143h67.16917c-10.75656,63.4697-56.41259,110.24-88.69714,129.55427,32.28458,15.6,84.25485,56.42744,104.29713,130.2823H448.06173c-15.6-49.37028-53.8423-87.61256-105.05485-92.81257V449.904h-8.17141Z"/>
    </g>
  </g>
</svg>
