


<svg version="1.1" id="레이어_1" xmlns="http://www.w3.org/2000/svg" xmlns:xlink="http://www.w3.org/1999/xlink" x="0px" y="0px" width="500px" height="500px" viewBox="-235 -235 500 500" enable-background="new -235 -235 500 500" xml:space="preserve">
<g>
	<path fill="#2787F5" d="M-235,4.583c0-112.931,0-169.417,35.083-204.5S-108.332-235,4.583-235h20.833
		c112.924,0,169.418,0,204.492,35.083C265-164.834,265-108.332,265,4.583v20.833c0,112.924,0,169.418-35.092,204.492
		C194.834,265,138.34,265,25.416,265H4.583c-112.931,0-169.417,0-204.5-35.092C-235,194.834-235,138.34-235,25.416V4.583z"></path>
	<path fill="#FFFFFF" d="M-99.583-78.75h-36.45c-10.417,0-12.5,4.899-12.5,10.319c0,9.651,12.354,57.552,57.552,120.882
		c30.11,43.262,72.567,66.715,111.182,66.715c23.185,0,26.05-5.207,26.05-14.16V72.291c0-10.416,2.197-12.5,9.537-12.5
		c5.404,0,14.666,2.703,36.313,23.568c24.723,24.723,28.793,35.807,42.691,35.807h36.459c10.416,0,15.625-5.207,12.613-15.494
		c-3.271-10.238-15.088-25.098-30.744-42.725c-8.496-10.025-21.225-20.85-25.098-26.254c-5.42-6.965-3.875-10.041,0-16.227
		c0,0,44.4-62.565,49.055-83.813c2.313-7.723,0-13.403-11.035-13.403h-36.457c-9.277,0-13.543,4.899-15.869,10.319
		c0,0-18.539,45.182-44.809,74.528c-8.496,8.504-12.354,11.222-16.992,11.222c-2.311,0-5.664-2.718-5.664-10.433v-72.233
		c0-9.27-2.686-13.403-10.416-13.403h-57.3c-5.786,0-9.27,4.297-9.27,8.382c0,8.789,13.135,10.815,14.486,35.531V18.85
		c0,11.775-2.116,13.924-6.763,13.924c-12.354,0-42.424-45.41-60.254-97.339C-86.766-74.665-90.266-78.75-99.583-78.75z"></path>
</g>
</svg>
