<svg xmlns="http://www.w3.org/2000/svg" viewBox="0 0 600 253.42"><path d="M557.82,246.79a10.71,10.71,0,0,1-8.29-4.45c-8-10.1-16-20.46-23.73-30.48-7.25-9.39-14.74-19.08-22.22-28.56H30.8A24.45,24.45,0,0,1,6.5,158.91V31A24.46,24.46,0,0,1,30.79,6.6H569.2A24.52,24.52,0,0,1,593.6,31V158.9a24.46,24.46,0,0,1-24.29,24.4H566.2v53.4c.06,4.06-1.42,6.45-2.68,7.73A8,8,0,0,1,557.82,246.79Z" style="fill:#fff"></path><path d="M569.2,0H30.8A30.78,30.78,0,0,0,9,9.1,31.32,31.32,0,0,0,0,31V158.9H0a30.9,30.9,0,0,0,30.8,31H500.1l40.8,52.4c4.1,5.4,8.3,8.7,12.1,10.1,10.8,4,19.7-4.3,19.7-15.4V189.7a30.86,30.86,0,0,0,18.3-8.9,31.32,31.32,0,0,0,9-21.9V31h0A30.89,30.89,0,0,0,569.2,0Zm19.4,158.9a19.41,19.41,0,0,1-5.7,13.7,19.2,19.2,0,0,1-13.6,5.7h-8.1v58.4c.1,6.6-5.2,6-7.7,2.6-16-20.2-31.5-40.8-47.5-61H30.8a19.2,19.2,0,0,1-13.6-5.7,19.41,19.41,0,0,1-5.7-13.7V31a19.41,19.41,0,0,1,5.7-13.7,19.2,19.2,0,0,1,13.6-5.7H569.2A19.46,19.46,0,0,1,588.6,31Z"></path><path d="M107,45.6a14.35,14.35,0,0,1,3.9.6,13.82,13.82,0,0,1,3.7,1.6,11.1,11.1,0,0,1,2.8,2.4,4.78,4.78,0,0,1,1.1,3,6.72,6.72,0,0,1-.3,1.4L91.3,143.3a7.32,7.32,0,0,1-4.4,4.7,19,19,0,0,1-14.8,0,7.8,7.8,0,0,1-4.4-4.7L40.6,54.6a8.52,8.52,0,0,1-.3-1.4,5.05,5.05,0,0,1,1.1-3.1,11.1,11.1,0,0,1,2.8-2.4,15.57,15.57,0,0,1,3.7-1.6,13.56,13.56,0,0,1,3.9-.6,9.48,9.48,0,0,1,4,.8A4.45,4.45,0,0,1,58,49.1l21.5,76.4,21.3-76.4a4.26,4.26,0,0,1,2.2-2.8A11.39,11.39,0,0,1,107,45.6Z"></path><path d="M539.9,35.5H249.2a20,20,0,0,0-19.8,20.1v81.5a20,20,0,0,0,19.8,20.1H539.9a20,20,0,0,0,19.8-20.1V55.6A20,20,0,0,0,539.9,35.5ZM267,129.1c2.5,2.6,6.2,3.9,11,3.9a16.16,16.16,0,0,0,7.5-1.5,10.4,10.4,0,0,0,4.2-3.8,12.88,12.88,0,0,0,1.9-4.9c.3-1.8.5-3.4.6-4.9a5,5,0,0,1,2.8-4.5,12.76,12.76,0,0,1,6.1-1.3q4.65,0,6.9,1.8c1.5,1.2,2.2,3.6,2.2,7.2a27.13,27.13,0,0,1-2.4,11.5,23.75,23.75,0,0,1-6.9,8.8,33.43,33.43,0,0,1-10.6,5.6,43.16,43.16,0,0,1-13.3,2,41.68,41.68,0,0,1-12.4-1.8,28.16,28.16,0,0,1-10.2-5.6,25.86,25.86,0,0,1-6.9-9.9,39.35,39.35,0,0,1-2.5-15V77.5a39.21,39.21,0,0,1,2.6-15,25.86,25.86,0,0,1,6.9-9.9A26.86,26.86,0,0,1,264.7,47a41.68,41.68,0,0,1,12.4-1.8,35.6,35.6,0,0,1,13.5,2.4,30.52,30.52,0,0,1,10.5,5.3,24.12,24.12,0,0,1,6.8,8.4,24.91,24.91,0,0,1,2.4,11c0,3.6-.7,6-2.2,7.2s-3.7,1.8-6.8,1.8a14.86,14.86,0,0,1-6.4-1.3,4.85,4.85,0,0,1-2.6-4.5,38.59,38.59,0,0,0-.6-4,12.24,12.24,0,0,0-1.9-4.6,10.47,10.47,0,0,0-4.2-3.8,16.89,16.89,0,0,0-7.8-1.5q-7.05,0-10.8,3.9c-2.5,2.6-3.8,6.7-3.8,12.2v39.2C263.2,122.4,264.5,126.5,267,129.1Zm123.8,13.1a4.59,4.59,0,0,1-2.8,4.3,13.23,13.23,0,0,1-6.2,1.5,13,13,0,0,1-6.3-1.5,4.59,4.59,0,0,1-2.8-4.3V101.8H341.4v40.4a4.59,4.59,0,0,1-2.8,4.3,13.23,13.23,0,0,1-6.2,1.5,13,13,0,0,1-6.3-1.5,4.59,4.59,0,0,1-2.8-4.3V50.8a4.42,4.42,0,0,1,2.8-4.3,15.7,15.7,0,0,1,12.5,0,4.42,4.42,0,0,1,2.8,4.3V87.5h31.3V50.8a4.42,4.42,0,0,1,2.8-4.3,14.56,14.56,0,0,1,6.3-1.3,16.51,16.51,0,0,1,6.2,1.3,4.42,4.42,0,0,1,2.8,4.3Zm87.1,1.3a13.09,13.09,0,0,1-2.8,2.4,15.57,15.57,0,0,1-3.7,1.6,12.9,12.9,0,0,1-3.8.6,8.12,8.12,0,0,1-4-.8,4.49,4.49,0,0,1-2.2-2.8l-5.3-18.7H424.3L419,144.5a4.45,4.45,0,0,1-2.2,2.8,9.48,9.48,0,0,1-4,.8,12.9,12.9,0,0,1-3.8-.6,11.94,11.94,0,0,1-6.5-3.9,5.05,5.05,0,0,1-1.1-3.1,8.52,8.52,0,0,1,.3-1.4l26.8-88.5a7.39,7.39,0,0,1,4.3-4.7,17.16,17.16,0,0,1,7.2-1.5,19.62,19.62,0,0,1,7.6,1.5,7.17,7.17,0,0,1,4.3,4.7l26.8,88.5a6.72,6.72,0,0,1,.3,1.4A4.31,4.31,0,0,1,477.9,143.5Zm65.3-84.3a4.49,4.49,0,0,1-4.2,2.5H518.7v80.6a4.59,4.59,0,0,1-2.8,4.3,13.23,13.23,0,0,1-6.2,1.5,13,13,0,0,1-6.3-1.5,4.59,4.59,0,0,1-2.8-4.3V61.7H480.2a4.79,4.79,0,0,1-4.2-2.5,10.64,10.64,0,0,1-1.5-5.8,11.89,11.89,0,0,1,1.4-5.6,4.65,4.65,0,0,1,4.3-2.6H539a4.65,4.65,0,0,1,4.3,2.6,12.16,12.16,0,0,1,1.4,5.6A11.14,11.14,0,0,1,543.2,59.2Z"></path><polygon points="440 68.2 452.1 111.4 427.9 111.4 440 68.2"></polygon><path d="M196.6,138.8a3.39,3.39,0,0,0-.6-1.2l-18.5-34.3a25.36,25.36,0,0,0,13.2-9.2c3.5-4.6,5.3-10.9,5.3-19A34.43,34.43,0,0,0,193.4,61a22.84,22.84,0,0,0-7.2-9,29.85,29.85,0,0,0-10.7-4.9,54.72,54.72,0,0,0-13-1.5H134.3a5.81,5.81,0,0,0-4.3,1.7,5.28,5.28,0,0,0-1.6,3.9V143a4.7,4.7,0,0,0,2.9,4.3,14.19,14.19,0,0,0,12.7,0,4.59,4.59,0,0,0,2.8-4.3V106.2h11.9l20.1,39a9.78,9.78,0,0,0,2.8,3.2,6.6,6.6,0,0,0,3.6,1.1,9.83,9.83,0,0,0,4-.8,14.9,14.9,0,0,0,3.7-2.2,11.29,11.29,0,0,0,2.7-3.1,7,7,0,0,0,1.1-3.5A4.51,4.51,0,0,0,196.6,138.8ZM173.5,88.5a16.65,16.65,0,0,1-9.8,3.3H147V61.7h15.5c4.6,0,8.3,1.1,11,3.5,2.7,2.2,4.1,6.2,4.1,11.7S176.2,86.3,173.5,88.5Z"></path></svg>