<svg width="60" height="60" viewBox="0 0 60 60" fill="none" xmlns="http://www.w3.org/2000/svg">
<g clip-path="url(#clip0_3980_1981)">
<mask id="mask0_3980_1981" style="mask-type:alpha" maskUnits="userSpaceOnUse" x="0" y="0" width="60" height="60">
<path d="M0 20.8C0 13.5193 0 9.87898 1.41692 7.09812C2.66327 4.65202 4.65202 2.66327 7.09812 1.41692C9.87898 0 13.5193 0 20.8 0H39.2C46.4807 0 50.121 0 52.9019 1.41692C55.348 2.66327 57.3367 4.65202 58.5831 7.09812C60 9.87898 60 13.5193 60 20.8V39.2C60 46.4807 60 50.121 58.5831 52.9019C57.3367 55.348 55.348 57.3367 52.9019 58.5831C50.121 60 46.4807 60 39.2 60H20.8C13.5193 60 9.87898 60 7.09812 58.5831C4.65202 57.3367 2.66327 55.348 1.41692 52.9019C0 50.121 0 46.4807 0 39.2V20.8Z" fill="white"/>
</mask>
<g mask="url(#mask0_3980_1981)">
<rect width="60" height="60" fill="#FF0558"/>
</g>
<path d="M18.3267 14L17.3367 23.1942L17.0342 23.2125L15.9892 16.5942H13.89L12.7992 23.4967L12.4967 23.515L11.5617 16.5942H8.95833L11.2592 26.5492L13.8075 26.3842L14.8067 20.0683H15.0725L16.0442 26.2283L18.7483 26.0542L20.9208 14H18.3267Z" fill="white"/>
<path d="M21.7731 16.5942L20.0864 26.0451H22.1124L22.3415 24.5234H24.2572L24.4864 26.0451H26.5306L24.8257 16.5942H21.7731ZM22.598 22.8001L23.1848 18.8677H23.4323L24.0097 22.8001H22.598Z" fill="white"/>
<path d="M49.0902 16.5942H46.0285L44.3511 26.0451H46.3769L46.6061 24.5142H48.5218L48.7418 26.0451H50.7859L49.0902 16.5942ZM46.8628 22.8001L47.4494 18.8677H47.6969L48.2651 22.8001H46.8628Z" fill="white"/>
<path d="M34.4692 16.4933C32.6359 16.4933 31.7192 17.5109 31.7192 19.0784V23.5609C31.7192 25.1284 32.6359 26.1458 34.4692 26.1458C36.3026 26.1458 37.2192 25.1284 37.2192 23.5609V21.9384H35.1476V23.7717C35.1476 24.2667 34.9551 24.4408 34.4601 24.4408C33.9651 24.4408 33.7817 24.2667 33.7817 23.7717V18.9041C33.7817 18.4091 33.9742 18.235 34.4601 18.235C34.9459 18.235 35.1476 18.4091 35.1476 18.9041V19.9767H37.2192V19.06C37.2284 17.5109 36.3392 16.4933 34.4692 16.4933Z" fill="white"/>
<path d="M25.9623 18.5559H27.6673V26.0451H29.7298V18.5559H31.2332V16.5942H25.9623V18.5559Z" fill="white"/>
<path d="M41.6832 20.3342H40.2165V16.5942H38.1449V26.0451H40.2165V22.2592H41.6832V26.0451H43.7549V16.5942H41.6832V20.3342Z" fill="white"/>
<path d="M10.2143 29.7574H14.3393C16.0718 29.7574 17.1717 30.2525 17.6575 31.3434C17.9325 31.93 17.9784 32.4433 17.9784 34.35C17.9784 36.2566 17.9325 36.77 17.6575 37.375C17.1717 38.4567 16.0718 38.9425 14.3393 38.9425H12.5059V47H10.2599L10.2143 29.7574ZM13.78 36.9167C14.6967 36.9167 15.2925 36.7425 15.5583 36.1375C15.6866 35.8625 15.7324 35.6242 15.7324 34.3042C15.7324 32.9842 15.7325 32.7367 15.5583 32.4709C15.2925 31.8842 14.7058 31.7191 13.78 31.7191H12.4601V36.9442L13.78 36.9167Z" fill="white"/>
<path d="M19.6831 29.7574H26.0082V31.8109H21.938V36.8158H25.9165V38.8967H21.9197V44.9467H25.9899V47H19.6647L19.6831 29.7574Z" fill="white"/>
<path d="M27.8418 29.7574H31.6734C33.8459 29.7574 35.2666 30.5917 35.9725 32.1317C36.3666 33.0484 36.4859 33.8641 36.4859 38.3833C36.4859 42.9025 36.3666 43.7275 35.9725 44.635C35.2666 46.1659 33.8459 47 31.6734 47H27.8418V29.7574ZM31.5084 44.9467C31.964 44.9467 32.4776 44.9212 32.9031 44.6886C33.3286 44.4561 33.6684 44.0936 33.8733 43.6541C34.1483 43.0675 34.2217 42.5542 34.2217 38.4017C34.2217 34.2492 34.1483 33.69 33.8733 33.1033C33.672 32.661 33.3327 32.2959 32.9062 32.0629C32.4798 31.8298 31.964 31.8109 31.5084 31.8109H30.1151V44.9467H31.5084Z" fill="white"/>
<path d="M38.6126 29.7574H40.8584V47H38.6126V29.7574Z" fill="white"/>
<path d="M49.2366 43.535H45.0566L44.47 47H42.2242L45.4234 29.7574H48.8333L52.005 47H49.7867L49.2366 43.535ZM48.8884 41.5551L47.1558 31.5634H47.1101L45.3958 41.5551H48.8884Z" fill="white"/>
</g>
<defs>
<clipPath id="clip0_3980_1981">
<rect width="60" height="60" fill="white"/>
</clipPath>
</defs>
</svg>
