


<svg height="100%" stroke-miterlimit="10" style="fill-rule:nonzero;clip-rule:evenodd;stroke-linecap:round;stroke-linejoin:round" version="1.1" viewBox="0 0 108 24" width="100%" xml:space="preserve" xmlns="http://www.w3.org/2000/svg" xmlns:xlink="http://www.w3.org/1999/xlink">
<defs></defs>
<g id="Untitled">
<g opacity="1">
<path d="M55.478 5.164C55.4721 9.05842 56.4526 12.8909 58.328 16.304C58.6377 12.3432 59.9124 8.51853 62.041 5.164L68.849 5.164C65.4272 9.90043 63.4861 15.5448 63.271 21.384L54.928 21.384C51.4137 16.6956 49.4598 11.0222 49.342 5.16401C49.342 5.16401 55.478 5.16401 55.478 5.164Z" fill="#0050FF" fill-rule="evenodd" opacity="1" stroke="none"></path>
<path d="M75.796 5.164C75.7901 9.05842 76.7706 12.8909 78.646 16.304C78.9557 12.3432 80.2304 8.51853 82.359 5.164L89.167 5.164C85.7453 9.90046 83.8042 15.5448 83.589 21.384L75.246 21.384C71.7316 16.6956 69.7778 11.0222 69.66 5.16401C69.66 5.16401 75.796 5.16401 75.796 5.164Z" fill="#0050FF" fill-rule="evenodd" opacity="1" stroke="none"></path>
<path d="M24.437 21.384C24.0472 15.6163 25.6514 9.88976 28.981 5.164L22.207 5.164C20.6416 7.93396 19.7605 11.0377 19.637 14.217C18.2869 10.6697 17.8904 6.83039 18.487 3.08201L13.025 3.08201C10.9936 6.43875 9.91496 10.2855 9.905 14.209C8.43932 9.96427 8.11888 5.4081 8.976 0.999999L2.329 0.999999C1.194 8.565 2.999 16.485 7.743 22.918L14.447 22.918C13.8343 19.8915 13.8705 16.7695 14.553 13.758C15.1086 16.4813 16.1868 19.0711 17.728 21.384L24.438 21.384L24.437 21.384Z" fill="#0050FF" fill-rule="evenodd" opacity="1" stroke="none"></path>
<path d="M37.462 16.868C35.302 16.868 33.812 15.259 33.812 13.274C33.812 11.289 35.302 9.679 37.462 9.679C39.621 9.679 41.112 11.289 41.112 13.274C41.112 15.259 39.621 16.868 37.462 16.868ZM42.147 5.164C42.071 5.576 42.001 5.989 41.937 6.403C40.4423 5.2078 38.5827 4.56181 36.669 4.573C31.845 4.573 28.039 8.432 28.039 13.274C28.039 18.116 31.845 21.975 36.669 21.975C38.654 21.975 40.479 21.313 41.936 20.145C42.001 20.559 42.071 20.971 42.147 21.383L47.633 21.383C46.6424 16.022 46.6424 10.525 47.633 5.16401C47.633 5.16401 42.147 5.16401 42.147 5.164Z" fill="#0050FF" fill-rule="evenodd" opacity="1" stroke="none"></path>
<g opacity="1">
<clipPath id="ClipPath">
<path d="M88.027 4.573L106 4.573L106 21.976L88.027 21.976L88.027 4.573Z" fill-rule="evenodd"></path>
</clipPath>
<g clip-path="url(#ClipPath)">
<path d="M93.726 11.398C94.226 9.738 95.606 8.918 97.195 8.918C98.784 8.918 100.094 9.782 100.599 11.398L93.726 11.398ZM97.185 4.573C91.387 4.573 88.027 8.752 88.027 13.193C88.027 18.008 91.59 21.976 97.843 21.976C100.533 21.976 103.243 21.219 104.947 20.383L104.947 15.61C103.226 16.515 100.872 17.318 98.613 17.318C95.922 17.318 94.228 16.221 93.743 14.593L105.953 14.593C106.455 8.633 102.853 4.573 97.185 4.573Z" fill="#0050FF" fill-rule="evenodd" opacity="1" stroke="none"></path>
</g>
</g>
</g>
</g>
</svg>
