<svg width="18" height="18" xmlns="http://www.w3.org/2000/svg"><path d="M0 18h18V0H0v18z" fill="#1565C0"/><path d="m0 0 15 14V0H0z" fill="#FDD835"/><path d="m13 13.96-1 .54v.5h-.5l-.47 1-.53-1H10v-.6l-1-.44 1-.36V13h.5l.53-1 .47 1h.5v.6l1 .36zm-3-3-1 .54v.5h-.5l-.47 1-.53-1H7v-.6l-1-.44 1-.36V10h.5l.53-1 .47 1H9v.6l1 .36zm-3-3L6 8.5V9h-.5l-.47 1-.53-1H4v-.6l-1-.44 1-.36V7h.5l.53-1 .47 1H6v.6l1 .36zm-3-3L3 5.5V6h-.5l-.47 1-.53-1H1v-.6l-1-.44 1-.36V4h.5l.53-1 .47 1H3v.6l1 .36z" fill="#F8F9FD"/></svg>