<svg width="18" height="18" xmlns="http://www.w3.org/2000/svg"><path d="M0 12h18V0H0v12z" fill="#EF5350"/><path d="M0 18h18v-6H0v6z" fill="#388E3C"/><path fill="#F8F9FD" d="M0 0h6v18H0z"/><path d="m3.97 11.12-1-1.78 1-1.74 1 1.74-1 1.78z" fill="#EF5350"/><path d="M2 11.12 1 9.34 2 7.6l1 1.74-1 1.78zm1.97-5-1-1.78 1-1.74 1 1.74-1 1.78z" fill="#EF5350"/><path d="M2 6.12 1 4.34 2 2.6l1 1.74-1 1.78zm1.94 9.82-.97-1.77.97-1.75.98 1.75-.98 1.77zm-1.95 0L1 14.17l.98-1.75.98 1.75-.98 1.77z" fill="#EF5350"/></svg>