<svg width="18" height="18" xmlns="http://www.w3.org/2000/svg"><path d="M0 0h18v18H0V0z" fill="#0D47A1"/><path d="m12 8 .21.65h.7l-.57.4.22.66-.56-.4-.56.4.22-.65-.56-.4h.69L12 8zM9.17 9.17l.61.31.5-.48-.12.68.62.31-.68.1-.11.69-.31-.62-.68.11.48-.48-.3-.62zM8 12l.65-.21v-.7l.4.57.66-.22-.4.56.4.56-.65-.22-.4.56v-.69L8 12zm1.17 2.83.31-.62-.48-.48.68.1.3-.6.12.67.68.11-.62.31.11.68-.49-.48-.6.3zM12 16l-.21-.65h-.7l.57-.4-.22-.66.56.4.56-.4-.22.65.56.4h-.69L12 16zm2.83-1.17-.62-.31-.48.48.1-.68-.6-.31.67-.1.11-.69.31.62.68-.11-.48.48.3.62zM16 12l-.65.21v.7l-.4-.57-.66.22.4-.56-.4-.56.65.22.4-.56v.69L16 12zm-1.17-2.83-.31.62.48.48-.68-.1-.31.6-.1-.67-.69-.11.62-.31-.11-.68.48.48.62-.3zM9 4V0H0v9h4V6l3 3h2V7L6 4h3z" fill="#F8F9FD"/><path d="M3 1V0H1v1H0v2h1v6h2V3h6V1H3z" fill="#EF5350"/><path d="M9 8 5 4H4l5 5V8z" fill="#EF5350"/></svg>