<svg width="18" height="18" xmlns="http://www.w3.org/2000/svg"><path d="M0 18h18v-4H0v4zM18 0H0v8h18V0z" fill="#0D47A1"/><path d="M0 8v6h18V8H0z" fill="#fff"/><path d="M0 10v2h18v-2H0z" fill="#EF5350"/><path d="m7.5 6 .2.64h.63l-.51.39.2.64-.52-.4-.51.4.2-.64-.52-.4h.64L7.5 6zm0 8.33.2.64h.63l-.51.4.2.63-.52-.4-.5.4.2-.64-.52-.39h.64l.2-.64zm-3.67-2.81.2.63h.63l-.51.4.2.63-.52-.4-.51.4.2-.63-.52-.4h.63l.2-.63zm1.4-4.69.2.64h.63l-.51.4.2.63-.52-.4-.51.4.2-.64-.52-.39h.64l.2-.64zM3 9.46h.63l.2-.64.2.64h.63l-.51.39.2.64-.52-.4-.51.4.2-.64-.52-.4zm1.72 5.58.2-.63-.52-.4h.64l.2-.63.19.63h.63l-.51.4.2.63-.52-.39-.51.4zm6.45-3.52-.2.63h-.63l.51.4-.2.63.52-.4.51.4-.2-.63.52-.4h-.63l-.2-.63zm-1.4-4.69-.2.64h-.63l.51.4-.2.63.52-.4.51.4-.2-.64.52-.39h-.64l-.2-.64zM12 9.46h-.63l-.2-.64-.2.64h-.63l.51.39-.2.64.52-.4.51.4-.2-.64.52-.4zm-1.72 5.58-.2-.63.52-.4h-.64l-.2-.63-.19.63h-.63l.51.4-.2.63.52-.39.51.4z" fill="#FDD835"/></svg>