<svg width="18" height="18" xmlns="http://www.w3.org/2000/svg"><path d="M0 0h18v18H0V0z" fill="#F0F3FA"/><path d="M0 0h18v5H0V0zm0 13h18v5H0v-5zm5.54-7.13.29.9h.94l-.76.55.3.9-.77-.56-.76.56.29-.9-.77-.55h.95l.29-.9zm0 3.91.29.9h.94l-.76.55.3.9-.77-.55-.76.55.29-.9-.77-.55h.95l.29-.9zm6.92-3.91.3.9h.94l-.77.55.3.9-.77-.56-.76.56.29-.9-.76-.55h.94l.3-.9zm0 3.91.3.9h.94l-.77.55.3.9-.77-.55-.76.55.29-.9-.76-.55h.94l.3-.9zM9 7.83l.3.9h.93l-.76.55.3.9L9 9.61l-.76.55.29-.9-.76-.55h.94l.29-.9z" fill="#1E88E5"/></svg>