<svg width="18" height="18" xmlns="http://www.w3.org/2000/svg"><path d="M0 12h18v6H0v-6z" fill="#1565C0"/><path d="M0 6h18v6H0V6z" fill="#F8F9FD"/><path d="M0 0h18v6H0V0z" fill="#EF5350"/><path d="M8 6V5l-.92-1L6 5v1h2zm4 0V5l-1-1-1 1v1h2zm-2 0H8V5l1-1 1 1v1z" fill="#0D47A1"/><path d="M6 6v4.63c0 1.1.47 2.09 1.2 2.7 0 0 .9.67 1.8.67s1.8-.67 1.8-.67c.73-.62 1.2-1.6 1.2-2.7V6H6z" fill="#F8F9FD"/><mask id="a" maskUnits="userSpaceOnUse" x="6" y="6" width="6" height="8"><path d="M6 6v4.63c0 1.1.47 2.09 1.2 2.7 0 0 .9.67 1.8.67s1.8-.67 1.8-.67c.73-.62 1.2-1.6 1.2-2.7V6H6z" fill="#fff"/></mask><g mask="url(#a)" fill="#EF5350"><path d="M6 6h2v2H6zm4 0h2v2h-2zM8 8h2v2H8zm-2 2h2v2H6zm4 0h2v2h-2zm-2 2h2v2H8z"/></g></svg>