<svg width="18" height="18" fill="none" xmlns="http://www.w3.org/2000/svg"><path fill="#EF5350" d="M0 0h18v18H0z"/><path fill="#F8F9FD" d="M0 4h18v3H0zm0 7h18v3H0z"/><path fill-rule="evenodd" clip-rule="evenodd" d="M0 11h11V0H0v11z" fill="#1565C0"/><path d="M6.635 8.344c-1.585 0-2.87-1.274-2.87-2.844 0-1.57 1.285-2.844 2.87-2.844.494 0 .96.124 1.365.342A3.536 3.536 0 0 0 5.531 2C3.581 2 2 3.567 2 5.5S3.581 9 5.531 9C6.492 9 7.363 8.62 8 8.002c-.406.218-.87.342-1.365.342z" fill="#FDD835"/><path d="m7.5 3 .212 1.569.873-1.321-.49 1.505 1.36-.812L8.36 5.086l1.577-.142-1.482.556 1.482.556-1.577-.142L9.455 7.06l-1.36-.812.49 1.505-.873-1.321L7.5 8l-.212-1.569-.873 1.321.49-1.505-1.36.812L6.64 5.914l-1.577.142L6.545 5.5l-1.482-.556 1.577.142L5.545 3.94l1.36.812-.49-1.505.873 1.321L7.5 3z" fill="#FDD835"/></svg>