<svg width="18" height="18" xmlns="http://www.w3.org/2000/svg"><path d="M0 0h18v18H0V0z" fill="#4CAF50"/><path d="M18 0H0v18L18 0z" fill="#0D47A1"/><path d="m3.8 3.13.19.6h.63l-.51.37.2.6-.52-.37-.5.37.19-.6-.51-.37h.63l.2-.6zm3.2 0 .2.6h.63l-.51.37.2.6L7 4.33l-.5.37.19-.6-.51-.37h.63l.2-.6zM3.8 6.26l.19.6h.63l-.51.37.2.6-.52-.37-.5.37.19-.6-.51-.37h.63l.2-.6zm3.2 0 .2.6h.63l-.51.37.2.6L7 7.46l-.5.37.19-.6-.51-.37h.63l.2-.6zM5.4 4.7l.2.6h.62l-.5.36.19.6-.51-.37-.51.37.2-.6-.52-.37h.63l.2-.6z" fill="#F8F9FD"/><path d="M18 1V0h-1.06L0 16.94V18h1L18 1z" fill="#FDD835"/></svg>