<svg width="18" height="18" xmlns="http://www.w3.org/2000/svg"><path d="M0 0h18v18H0V0z" fill="#4A89DC"/><path d="m9.82 14.87.2.6h.63l-.51.37.2.6-.52-.37-.5.36.19-.6-.51-.36h.63l.2-.6zm5.01-3.91.2.6h.62l-.5.36.19.6-.51-.37-.5.37.19-.6-.51-.37h.63l.19-.6zm1.25-5.87.2.6h.63l-.51.36.2.6-.52-.37-.5.37.19-.6-.5-.36h.62l.2-.6zm.32 4.31.19.59h.63l-.51.37.2.6-.52-.37-.5.37.19-.6-.5-.37h.62l.2-.6zm-5.68 4.06.56.29.45-.45-.1.63.56.28-.62.1-.1.62-.28-.56-.62.1.44-.45-.29-.56zm0-2.34.56.28.45-.44-.1.62.56.28-.62.1-.1.62-.28-.56-.62.1.44-.44-.29-.56zm1.96 1.5.56.29.45-.45-.1.62.56.29-.62.1-.1.62-.29-.56-.62.1.45-.45-.29-.56zm0-5.02.56.28.45-.45-.1.63.56.28-.62.1-.1.62-.29-.56-.62.1.45-.45-.29-.56zm1.9-.07.56.29.44-.45-.1.63.56.28-.62.1-.1.62-.28-.56-.62.1.44-.45-.28-.56z" fill="#FDD835"/><path fill="#0D47A1" d="M0 0h9v9H0z"/><path d="M9 4V0H0v9h4V6l3 3h2V7L6 4h3z" fill="#F8F9FD"/><path d="M3 1V0H1v1H0v2h1v6h2V3h6V1H3z" fill="#EF5350"/><path d="M9 8 5 4H4l5 5V8z" fill="#EF5350"/></svg>