<svg width="18" height="18" xmlns="http://www.w3.org/2000/svg"><path d="M0 0h18v18H0V0z" fill="#EF5350"/><path d="M0 12v6h18v-6H0z" fill="#4CAF50"/><path d="M18 6V0H0v6h18z" fill="#4A89DC"/><path d="M0 7v4h18V7H0zm4.11-3.74c0-.84.6-1.55 1.39-1.72a1.76 1.76 0 1 0 0 3.44 1.76 1.76 0 0 1-1.4-1.72zm2.43.8.12.37h.38l-.31.22.12.37-.31-.23-.31.23.11-.37-.3-.22h.38l.12-.37zm1.23 0 .12.37h.38l-.3.22.11.37-.31-.23-.31.23.12-.37-.32-.22h.39l.12-.37zm1.23 0 .12.37h.38l-.3.22.11.37L9 4.8l-.31.23.12-.37-.32-.22h.39L9 4.06zm1.23 0 .12.37h.39l-.32.22.12.37-.3-.23-.32.23.12-.37-.31-.22h.38l.12-.37zm1.23 0 .12.37h.39l-.32.22.12.37-.3-.23-.32.23.12-.37-.31-.22h.38l.12-.37zM7.77 2.78l.12.37h.38l-.3.22.11.37-.31-.23-.31.23.12-.37-.32-.22h.39l.12-.37zm1.23 0 .12.37h.38l-.3.22.11.37L9 3.51l-.31.23.12-.37-.32-.22h.39L9 2.78zm1.23 0 .12.37h.39l-.32.22.12.37-.3-.23-.32.23.12-.37-.31-.22h.38l.12-.37zm1.23 0 .12.37h.39l-.32.22.12.37-.3-.23-.32.23.12-.37-.31-.22h.38l.12-.37zM9 1.5l.12.37h.38l-.3.22.11.37L9 2.23l-.31.23.12-.37-.32-.22h.39L9 1.5zm1.23 0 .12.37h.39l-.32.22.12.37-.3-.23-.32.23.12-.37-.31-.22h.38l.12-.37zm1.23 0 .12.37h.39l-.32.22.12.37-.3-.23-.32.23.12-.37-.31-.22h.38l.12-.37z" fill="#F8F9FD"/></svg>