<?xml version="1.0" encoding="UTF-8"?>
<svg xmlns="http://www.w3.org/2000/svg" xmlns:xlink="http://www.w3.org/1999/xlink" width="px" height="1000px" viewBox="0 0 5837 1000" version="1.1">
<defs>
<linearGradient id="linear0" gradientUnits="userSpaceOnUse" x1="647.835" y1="213.54" x2="647.835" y2="61.13" gradientTransform="matrix(4.505596,0,0,-4.506243,0,1008.574588)">
<stop offset="0" style="stop-color:rgb(81.568627%,77.254902%,75.294118%);stop-opacity:1;"/>
<stop offset="0.99" style="stop-color:rgb(67.058824%,62.745098%,61.176471%);stop-opacity:1;"/>
</linearGradient>
<linearGradient id="linear1" gradientUnits="userSpaceOnUse" x1="612.285" y1="192.04" x2="612.285" y2="62.26" gradientTransform="matrix(4.505596,0,0,-4.506243,0,1008.574588)">
<stop offset="0" style="stop-color:rgb(92.941176%,89.803922%,88.627451%);stop-opacity:1;"/>
<stop offset="1" style="stop-color:rgb(81.568627%,77.254902%,75.294118%);stop-opacity:1;"/>
</linearGradient>
<linearGradient id="linear2" gradientUnits="userSpaceOnUse" x1="324.66" y1="192.04" x2="324.66" y2="62.26" gradientTransform="matrix(4.505596,0,0,-4.506243,0,1008.574588)">
<stop offset="0" style="stop-color:rgb(92.941176%,89.803922%,88.627451%);stop-opacity:1;"/>
<stop offset="1" style="stop-color:rgb(81.568627%,77.254902%,75.294118%);stop-opacity:1;"/>
</linearGradient>
<linearGradient id="linear3" gradientUnits="userSpaceOnUse" x1="396.565" y1="192.04" x2="396.565" y2="62.26" gradientTransform="matrix(4.505596,0,0,-4.506243,0,1008.574588)">
<stop offset="0" style="stop-color:rgb(92.941176%,89.803922%,88.627451%);stop-opacity:1;"/>
<stop offset="1" style="stop-color:rgb(81.568627%,77.254902%,75.294118%);stop-opacity:1;"/>
</linearGradient>
<linearGradient id="linear4" gradientUnits="userSpaceOnUse" x1="1241.4701" y1="192.04" x2="1241.4701" y2="62.26" gradientTransform="matrix(4.505596,0,0,-4.506243,0,1008.574588)">
<stop offset="0" style="stop-color:rgb(92.941176%,89.803922%,88.627451%);stop-opacity:1;"/>
<stop offset="1" style="stop-color:rgb(81.568627%,77.254902%,75.294118%);stop-opacity:1;"/>
</linearGradient>
<linearGradient id="linear5" gradientUnits="userSpaceOnUse" x1="40.71" y1="192.04" x2="40.71" y2="62.26" gradientTransform="matrix(4.505596,0,0,-4.506243,0,1008.574588)">
<stop offset="0" style="stop-color:rgb(92.941176%,89.803922%,88.627451%);stop-opacity:1;"/>
<stop offset="1" style="stop-color:rgb(81.568627%,77.254902%,75.294118%);stop-opacity:1;"/>
</linearGradient>
<linearGradient id="linear6" gradientUnits="userSpaceOnUse" x1="59.3" y1="192.05" x2="59.3" y2="62.26" gradientTransform="matrix(4.505596,0,0,-4.506243,0,1008.574588)">
<stop offset="0" style="stop-color:rgb(92.941176%,89.803922%,88.627451%);stop-opacity:1;"/>
<stop offset="1" style="stop-color:rgb(81.568627%,77.254902%,75.294118%);stop-opacity:1;"/>
</linearGradient>
<linearGradient id="linear7" gradientUnits="userSpaceOnUse" x1="63.95" y1="192.04" x2="63.95" y2="62.26" gradientTransform="matrix(4.505596,0,0,-4.506243,0,1008.574588)">
<stop offset="0" style="stop-color:rgb(92.941176%,89.803922%,88.627451%);stop-opacity:1;"/>
<stop offset="1" style="stop-color:rgb(81.568627%,77.254902%,75.294118%);stop-opacity:1;"/>
</linearGradient>
<linearGradient id="linear8" gradientUnits="userSpaceOnUse" x1="113.725" y1="192.04" x2="113.725" y2="62.26" gradientTransform="matrix(4.505596,0,0,-4.506243,0,1008.574588)">
<stop offset="0" style="stop-color:rgb(92.941176%,89.803922%,88.627451%);stop-opacity:1;"/>
<stop offset="1" style="stop-color:rgb(81.568627%,77.254902%,75.294118%);stop-opacity:1;"/>
</linearGradient>
<linearGradient id="linear9" gradientUnits="userSpaceOnUse" x1="169.495" y1="192.04" x2="169.495" y2="62.26" gradientTransform="matrix(4.505596,0,0,-4.506243,0,1008.574588)">
<stop offset="0" style="stop-color:rgb(92.941176%,89.803922%,88.627451%);stop-opacity:1;"/>
<stop offset="1" style="stop-color:rgb(81.568627%,77.254902%,75.294118%);stop-opacity:1;"/>
</linearGradient>
<linearGradient id="linear10" gradientUnits="userSpaceOnUse" x1="243.56" y1="192.04" x2="243.56" y2="62.26" gradientTransform="matrix(4.505596,0,0,-4.506243,0,1008.574588)">
<stop offset="0" style="stop-color:rgb(92.941176%,89.803922%,88.627451%);stop-opacity:1;"/>
<stop offset="1" style="stop-color:rgb(81.568627%,77.254902%,75.294118%);stop-opacity:1;"/>
</linearGradient>
<linearGradient id="linear11" gradientUnits="userSpaceOnUse" x1="313.3" y1="192.04" x2="313.3" y2="62.26" gradientTransform="matrix(4.505596,0,0,-4.506243,0,1008.574588)">
<stop offset="0" style="stop-color:rgb(92.941176%,89.803922%,88.627451%);stop-opacity:1;"/>
<stop offset="1" style="stop-color:rgb(81.568627%,77.254902%,75.294118%);stop-opacity:1;"/>
</linearGradient>
<linearGradient id="linear12" gradientUnits="userSpaceOnUse" x1="470.48" y1="191.79" x2="470.48" y2="62.37" gradientTransform="matrix(4.505596,0,0,-4.506243,0,1008.574588)">
<stop offset="0" style="stop-color:rgb(92.941176%,89.803922%,88.627451%);stop-opacity:1;"/>
<stop offset="1" style="stop-color:rgb(81.568627%,77.254902%,75.294118%);stop-opacity:1;"/>
</linearGradient>
<linearGradient id="linear13" gradientUnits="userSpaceOnUse" x1="550.9" y1="192.04" x2="550.9" y2="62.26" gradientTransform="matrix(4.505596,0,0,-4.506243,0,1008.574588)">
<stop offset="0" style="stop-color:rgb(92.941176%,89.803922%,88.627451%);stop-opacity:1;"/>
<stop offset="1" style="stop-color:rgb(81.568627%,77.254902%,75.294118%);stop-opacity:1;"/>
</linearGradient>
<linearGradient id="linear14" gradientUnits="userSpaceOnUse" x1="789.695" y1="192.04" x2="789.695" y2="62.26" gradientTransform="matrix(4.505596,0,0,-4.506243,0,1008.574588)">
<stop offset="0" style="stop-color:rgb(92.941176%,89.803922%,88.627451%);stop-opacity:1;"/>
<stop offset="1" style="stop-color:rgb(81.568627%,77.254902%,75.294118%);stop-opacity:1;"/>
</linearGradient>
<linearGradient id="linear15" gradientUnits="userSpaceOnUse" x1="828.84" y1="192.04" x2="828.84" y2="62.26" gradientTransform="matrix(4.505596,0,0,-4.506243,0,1008.574588)">
<stop offset="0" style="stop-color:rgb(92.941176%,89.803922%,88.627451%);stop-opacity:1;"/>
<stop offset="1" style="stop-color:rgb(81.568627%,77.254902%,75.294118%);stop-opacity:1;"/>
</linearGradient>
<linearGradient id="linear16" gradientUnits="userSpaceOnUse" x1="927.865" y1="192.04" x2="927.865" y2="62.26" gradientTransform="matrix(4.505596,0,0,-4.506243,0,1008.574588)">
<stop offset="0" style="stop-color:rgb(92.941176%,89.803922%,88.627451%);stop-opacity:1;"/>
<stop offset="1" style="stop-color:rgb(81.568627%,77.254902%,75.294118%);stop-opacity:1;"/>
</linearGradient>
<linearGradient id="linear17" gradientUnits="userSpaceOnUse" x1="992.29" y1="192.04" x2="992.29" y2="62.26" gradientTransform="matrix(4.505596,0,0,-4.506243,0,1008.574588)">
<stop offset="0" style="stop-color:rgb(92.941176%,89.803922%,88.627451%);stop-opacity:1;"/>
<stop offset="1" style="stop-color:rgb(81.568627%,77.254902%,75.294118%);stop-opacity:1;"/>
</linearGradient>
<linearGradient id="linear18" gradientUnits="userSpaceOnUse" x1="911.52" y1="192.04" x2="911.52" y2="62.26" gradientTransform="matrix(4.505596,0,0,-4.506243,0,1008.574588)">
<stop offset="0" style="stop-color:rgb(92.941176%,89.803922%,88.627451%);stop-opacity:1;"/>
<stop offset="1" style="stop-color:rgb(81.568627%,77.254902%,75.294118%);stop-opacity:1;"/>
</linearGradient>
<linearGradient id="linear19" gradientUnits="userSpaceOnUse" x1="942.1851" y1="192.04" x2="942.1851" y2="62.26" gradientTransform="matrix(4.505596,0,0,-4.506243,0,1008.574588)">
<stop offset="0" style="stop-color:rgb(92.941176%,89.803922%,88.627451%);stop-opacity:1;"/>
<stop offset="1" style="stop-color:rgb(81.568627%,77.254902%,75.294118%);stop-opacity:1;"/>
</linearGradient>
<linearGradient id="linear20" gradientUnits="userSpaceOnUse" x1="997.3799" y1="192.04" x2="997.3799" y2="62.26" gradientTransform="matrix(4.505596,0,0,-4.506243,0,1008.574588)">
<stop offset="0" style="stop-color:rgb(92.941176%,89.803922%,88.627451%);stop-opacity:1;"/>
<stop offset="1" style="stop-color:rgb(81.568627%,77.254902%,75.294118%);stop-opacity:1;"/>
</linearGradient>
<linearGradient id="linear21" gradientUnits="userSpaceOnUse" x1="1070.965" y1="192.04" x2="1070.965" y2="62.26" gradientTransform="matrix(4.505596,0,0,-4.506243,0,1008.574588)">
<stop offset="0" style="stop-color:rgb(92.941176%,89.803922%,88.627451%);stop-opacity:1;"/>
<stop offset="1" style="stop-color:rgb(81.568627%,77.254902%,75.294118%);stop-opacity:1;"/>
</linearGradient>
<linearGradient id="linear22" gradientUnits="userSpaceOnUse" x1="1254.9351" y1="192.04" x2="1254.9351" y2="62.26" gradientTransform="matrix(4.505596,0,0,-4.506243,0,1008.574588)">
<stop offset="0" style="stop-color:rgb(92.941176%,89.803922%,88.627451%);stop-opacity:1;"/>
<stop offset="1" style="stop-color:rgb(81.568627%,77.254902%,75.294118%);stop-opacity:1;"/>
</linearGradient>
<linearGradient id="linear23" gradientUnits="userSpaceOnUse" x1="764.345" y1="192.04" x2="764.345" y2="62.26" gradientTransform="matrix(4.505596,0,0,-4.506243,0,1008.574588)">
<stop offset="0" style="stop-color:rgb(92.941176%,89.803922%,88.627451%);stop-opacity:1;"/>
<stop offset="1" style="stop-color:rgb(81.568627%,77.254902%,75.294118%);stop-opacity:1;"/>
</linearGradient>
<linearGradient id="linear24" gradientUnits="userSpaceOnUse" x1="795.005" y1="192.05" x2="795.005" y2="62.26" gradientTransform="matrix(4.505596,0,0,-4.506243,0,1008.574588)">
<stop offset="0" style="stop-color:rgb(92.941176%,89.803922%,88.627451%);stop-opacity:1;"/>
<stop offset="1" style="stop-color:rgb(81.568627%,77.254902%,75.294118%);stop-opacity:1;"/>
</linearGradient>
<linearGradient id="linear25" gradientUnits="userSpaceOnUse" x1="629.41" y1="192.04" x2="629.41" y2="62.26" gradientTransform="matrix(4.505596,0,0,-4.506243,0,1008.574588)">
<stop offset="0" style="stop-color:rgb(92.941176%,89.803922%,88.627451%);stop-opacity:1;"/>
<stop offset="1" style="stop-color:rgb(81.568627%,77.254902%,75.294118%);stop-opacity:1;"/>
</linearGradient>
<linearGradient id="linear26" gradientUnits="userSpaceOnUse" x1="696.9" y1="192.04" x2="696.9" y2="62.26" gradientTransform="matrix(4.505596,0,0,-4.506243,0,1008.574588)">
<stop offset="0" style="stop-color:rgb(92.941176%,89.803922%,88.627451%);stop-opacity:1;"/>
<stop offset="1" style="stop-color:rgb(81.568627%,77.254902%,75.294118%);stop-opacity:1;"/>
</linearGradient>
<linearGradient id="linear27" gradientUnits="userSpaceOnUse" x1="850.205" y1="192.04" x2="850.205" y2="62.26" gradientTransform="matrix(4.505596,0,0,-4.506243,0,1008.574588)">
<stop offset="0" style="stop-color:rgb(92.941176%,89.803922%,88.627451%);stop-opacity:1;"/>
<stop offset="1" style="stop-color:rgb(81.568627%,77.254902%,75.294118%);stop-opacity:1;"/>
</linearGradient>
<linearGradient id="linear28" gradientUnits="userSpaceOnUse" x1="463.85" y1="192.04" x2="463.85" y2="62.26" gradientTransform="matrix(4.505596,0,0,-4.506243,0,1008.574588)">
<stop offset="0" style="stop-color:rgb(92.941176%,89.803922%,88.627451%);stop-opacity:1;"/>
<stop offset="1" style="stop-color:rgb(81.568627%,77.254902%,75.294118%);stop-opacity:1;"/>
</linearGradient>
<linearGradient id="linear29" gradientUnits="userSpaceOnUse" x1="509.825" y1="192.04" x2="509.825" y2="62.26" gradientTransform="matrix(4.505596,0,0,-4.506243,0,1008.574588)">
<stop offset="0" style="stop-color:rgb(92.941176%,89.803922%,88.627451%);stop-opacity:1;"/>
<stop offset="1" style="stop-color:rgb(81.568627%,77.254902%,75.294118%);stop-opacity:1;"/>
</linearGradient>
<linearGradient id="linear30" gradientUnits="userSpaceOnUse" x1="565.025" y1="192.04" x2="565.025" y2="62.26" gradientTransform="matrix(4.505596,0,0,-4.506243,0,1008.574588)">
<stop offset="0" style="stop-color:rgb(92.941176%,89.803922%,88.627451%);stop-opacity:1;"/>
<stop offset="1" style="stop-color:rgb(81.568627%,77.254902%,75.294118%);stop-opacity:1;"/>
</linearGradient>
<linearGradient id="linear31" gradientUnits="userSpaceOnUse" x1="396.39" y1="192.04" x2="396.39" y2="62.26" gradientTransform="matrix(4.505596,0,0,-4.506243,0,1008.574588)">
<stop offset="0" style="stop-color:rgb(92.941176%,89.803922%,88.627451%);stop-opacity:1;"/>
<stop offset="1" style="stop-color:rgb(81.568627%,77.254902%,75.294118%);stop-opacity:1;"/>
</linearGradient>
<linearGradient id="linear32" gradientUnits="userSpaceOnUse" x1="427.055" y1="192.04" x2="427.055" y2="62.26" gradientTransform="matrix(4.505596,0,0,-4.506243,0,1008.574588)">
<stop offset="0" style="stop-color:rgb(92.941176%,89.803922%,88.627451%);stop-opacity:1;"/>
<stop offset="1" style="stop-color:rgb(81.568627%,77.254902%,75.294118%);stop-opacity:1;"/>
</linearGradient>
<linearGradient id="linear33" gradientUnits="userSpaceOnUse" x1="298.28" y1="192.04" x2="298.28" y2="62.26" gradientTransform="matrix(4.505596,0,0,-4.506243,0,1008.574588)">
<stop offset="0" style="stop-color:rgb(92.941176%,89.803922%,88.627451%);stop-opacity:1;"/>
<stop offset="1" style="stop-color:rgb(81.568627%,77.254902%,75.294118%);stop-opacity:1;"/>
</linearGradient>
<linearGradient id="linear34" gradientUnits="userSpaceOnUse" x1="328.935" y1="192.04" x2="328.935" y2="62.26" gradientTransform="matrix(4.505596,0,0,-4.506243,0,1008.574588)">
<stop offset="0" style="stop-color:rgb(92.941176%,89.803922%,88.627451%);stop-opacity:1;"/>
<stop offset="1" style="stop-color:rgb(81.568627%,77.254902%,75.294118%);stop-opacity:1;"/>
</linearGradient>
<linearGradient id="linear35" gradientUnits="userSpaceOnUse" x1="224.69" y1="192.04" x2="224.69" y2="62.26" gradientTransform="matrix(4.505596,0,0,-4.506243,0,1008.574588)">
<stop offset="0" style="stop-color:rgb(92.941176%,89.803922%,88.627451%);stop-opacity:1;"/>
<stop offset="1" style="stop-color:rgb(81.568627%,77.254902%,75.294118%);stop-opacity:1;"/>
</linearGradient>
<linearGradient id="linear36" gradientUnits="userSpaceOnUse" x1="255.35" y1="192.04" x2="255.35" y2="62.26" gradientTransform="matrix(4.505596,0,0,-4.506243,0,1008.574588)">
<stop offset="0" style="stop-color:rgb(92.941176%,89.803922%,88.627451%);stop-opacity:1;"/>
<stop offset="1" style="stop-color:rgb(81.568627%,77.254902%,75.294118%);stop-opacity:1;"/>
</linearGradient>
<linearGradient id="linear37" gradientUnits="userSpaceOnUse" x1="896.41" y1="191.79" x2="896.41" y2="62.66" gradientTransform="matrix(4.505596,0,0,-4.506243,0,1008.574588)">
<stop offset="0" style="stop-color:rgb(92.941176%,89.803922%,88.627451%);stop-opacity:1;"/>
<stop offset="1" style="stop-color:rgb(81.568627%,77.254902%,75.294118%);stop-opacity:1;"/>
</linearGradient>
<linearGradient id="linear38" gradientUnits="userSpaceOnUse" x1="365.205" y1="192.04" x2="365.205" y2="62.26" gradientTransform="matrix(4.505596,0,0,-4.506243,0,1008.574588)">
<stop offset="0" style="stop-color:rgb(92.941176%,89.803922%,88.627451%);stop-opacity:1;"/>
<stop offset="1" style="stop-color:rgb(81.568627%,77.254902%,75.294118%);stop-opacity:1;"/>
</linearGradient>
<linearGradient id="linear39" gradientUnits="userSpaceOnUse" x1="78.87" y1="192.04" x2="78.87" y2="62.26" gradientTransform="matrix(4.505596,0,0,-4.506243,0,1008.574588)">
<stop offset="0" style="stop-color:rgb(92.941176%,89.803922%,88.627451%);stop-opacity:1;"/>
<stop offset="1" style="stop-color:rgb(81.568627%,77.254902%,75.294118%);stop-opacity:1;"/>
</linearGradient>
<linearGradient id="linear40" gradientUnits="userSpaceOnUse" x1="185.41" y1="192.04" x2="185.41" y2="62.26" gradientTransform="matrix(4.505596,0,0,-4.506243,0,1008.574588)">
<stop offset="0" style="stop-color:rgb(92.941176%,89.803922%,88.627451%);stop-opacity:1;"/>
<stop offset="1" style="stop-color:rgb(81.568627%,77.254902%,75.294118%);stop-opacity:1;"/>
</linearGradient>
<linearGradient id="linear41" gradientUnits="userSpaceOnUse" x1="204.565" y1="192.04" x2="204.565" y2="62.26" gradientTransform="matrix(4.505596,0,0,-4.506243,0,1008.574588)">
<stop offset="0" style="stop-color:rgb(92.941176%,89.803922%,88.627451%);stop-opacity:1;"/>
<stop offset="1" style="stop-color:rgb(81.568627%,77.254902%,75.294118%);stop-opacity:1;"/>
</linearGradient>
<linearGradient id="linear42" gradientUnits="userSpaceOnUse" x1="166.575" y1="192.04" x2="166.575" y2="62.26" gradientTransform="matrix(4.505596,0,0,-4.506243,0,1008.574588)">
<stop offset="0" style="stop-color:rgb(92.941176%,89.803922%,88.627451%);stop-opacity:1;"/>
<stop offset="1" style="stop-color:rgb(81.568627%,77.254902%,75.294118%);stop-opacity:1;"/>
</linearGradient>
<linearGradient id="linear43" gradientUnits="userSpaceOnUse" x1="283.3" y1="192.04" x2="283.3" y2="62.26" gradientTransform="matrix(4.505596,0,0,-4.506243,0,1008.574588)">
<stop offset="0" style="stop-color:rgb(92.941176%,89.803922%,88.627451%);stop-opacity:1;"/>
<stop offset="1" style="stop-color:rgb(81.568627%,77.254902%,75.294118%);stop-opacity:1;"/>
</linearGradient>
<linearGradient id="linear44" gradientUnits="userSpaceOnUse" x1="355.275" y1="192.04" x2="355.275" y2="62.26" gradientTransform="matrix(4.505596,0,0,-4.506243,0,1008.574588)">
<stop offset="0" style="stop-color:rgb(92.941176%,89.803922%,88.627451%);stop-opacity:1;"/>
<stop offset="1" style="stop-color:rgb(81.568627%,77.254902%,75.294118%);stop-opacity:1;"/>
</linearGradient>
<linearGradient id="linear45" gradientUnits="userSpaceOnUse" x1="424.36" y1="192.04" x2="424.36" y2="62.26" gradientTransform="matrix(4.505596,0,0,-4.506243,0,1008.574588)">
<stop offset="0" style="stop-color:rgb(92.941176%,89.803922%,88.627451%);stop-opacity:1;"/>
<stop offset="1" style="stop-color:rgb(81.568627%,77.254902%,75.294118%);stop-opacity:1;"/>
</linearGradient>
<linearGradient id="linear46" gradientUnits="userSpaceOnUse" x1="474.795" y1="192.04" x2="474.795" y2="62.26" gradientTransform="matrix(4.505596,0,0,-4.506243,0,1008.574588)">
<stop offset="0" style="stop-color:rgb(92.941176%,89.803922%,88.627451%);stop-opacity:1;"/>
<stop offset="1" style="stop-color:rgb(81.568627%,77.254902%,75.294118%);stop-opacity:1;"/>
</linearGradient>
<linearGradient id="linear47" gradientUnits="userSpaceOnUse" x1="631.315" y1="192.04" x2="631.315" y2="62.26" gradientTransform="matrix(4.505596,0,0,-4.506243,0,1008.574588)">
<stop offset="0" style="stop-color:rgb(92.941176%,89.803922%,88.627451%);stop-opacity:1;"/>
<stop offset="1" style="stop-color:rgb(81.568627%,77.254902%,75.294118%);stop-opacity:1;"/>
</linearGradient>
<linearGradient id="linear48" gradientUnits="userSpaceOnUse" x1="753.235" y1="192.04" x2="753.235" y2="62.26" gradientTransform="matrix(4.505596,0,0,-4.506243,0,1008.574588)">
<stop offset="0" style="stop-color:rgb(92.941176%,89.803922%,88.627451%);stop-opacity:1;"/>
<stop offset="1" style="stop-color:rgb(81.568627%,77.254902%,75.294118%);stop-opacity:1;"/>
</linearGradient>
<linearGradient id="linear49" gradientUnits="userSpaceOnUse" x1="804.76" y1="192.04" x2="804.76" y2="62.26" gradientTransform="matrix(4.505596,0,0,-4.506243,0,1008.574588)">
<stop offset="0" style="stop-color:rgb(92.941176%,89.803922%,88.627451%);stop-opacity:1;"/>
<stop offset="1" style="stop-color:rgb(81.568627%,77.254902%,75.294118%);stop-opacity:1;"/>
</linearGradient>
<linearGradient id="linear50" gradientUnits="userSpaceOnUse" x1="1177.0699" y1="192.04" x2="1177.0699" y2="62.26" gradientTransform="matrix(4.505596,0,0,-4.506243,0,1008.574588)">
<stop offset="0" style="stop-color:rgb(92.941176%,89.803922%,88.627451%);stop-opacity:1;"/>
<stop offset="1" style="stop-color:rgb(81.568627%,77.254902%,75.294118%);stop-opacity:1;"/>
</linearGradient>
<linearGradient id="linear51" gradientUnits="userSpaceOnUse" x1="1266.54" y1="192.04" x2="1266.54" y2="62.26" gradientTransform="matrix(4.505596,0,0,-4.506243,0,1008.574588)">
<stop offset="0" style="stop-color:rgb(92.941176%,89.803922%,88.627451%);stop-opacity:1;"/>
<stop offset="1" style="stop-color:rgb(81.568627%,77.254902%,75.294118%);stop-opacity:1;"/>
</linearGradient>
<linearGradient id="linear52" gradientUnits="userSpaceOnUse" x1="1089.235" y1="192.09" x2="1089.235" y2="62.9" gradientTransform="matrix(4.505596,0,0,-4.506243,0,1008.574588)">
<stop offset="0" style="stop-color:rgb(92.941176%,89.803922%,88.627451%);stop-opacity:1;"/>
<stop offset="1" style="stop-color:rgb(81.568627%,77.254902%,75.294118%);stop-opacity:1;"/>
</linearGradient>
<linearGradient id="linear53" gradientUnits="userSpaceOnUse" x1="1087.6001" y1="192.04" x2="1087.6001" y2="62.27" gradientTransform="matrix(4.505596,0,0,-4.506243,0,1008.574588)">
<stop offset="0" style="stop-color:rgb(92.941176%,89.803922%,88.627451%);stop-opacity:1;"/>
<stop offset="1" style="stop-color:rgb(81.568627%,77.254902%,75.294118%);stop-opacity:1;"/>
</linearGradient>
<linearGradient id="linear54" gradientUnits="userSpaceOnUse" x1="1125.125" y1="192.04" x2="1125.125" y2="62.26" gradientTransform="matrix(4.505596,0,0,-4.506243,0,1008.574588)">
<stop offset="0" style="stop-color:rgb(92.941176%,89.803922%,88.627451%);stop-opacity:1;"/>
<stop offset="1" style="stop-color:rgb(81.568627%,77.254902%,75.294118%);stop-opacity:1;"/>
</linearGradient>
<linearGradient id="linear55" gradientUnits="userSpaceOnUse" x1="774.33" y1="191.91" x2="774.33" y2="62.7" gradientTransform="matrix(4.505596,0,0,-4.506243,0,1008.574588)">
<stop offset="0" style="stop-color:rgb(92.941176%,89.803922%,88.627451%);stop-opacity:1;"/>
<stop offset="1" style="stop-color:rgb(81.568627%,77.254902%,75.294118%);stop-opacity:1;"/>
</linearGradient>
<linearGradient id="linear56" gradientUnits="userSpaceOnUse" x1="923.09" y1="192.04" x2="923.09" y2="62.27" gradientTransform="matrix(4.505596,0,0,-4.506243,0,1008.574588)">
<stop offset="0" style="stop-color:rgb(92.941176%,89.803922%,88.627451%);stop-opacity:1;"/>
<stop offset="1" style="stop-color:rgb(81.568627%,77.254902%,75.294118%);stop-opacity:1;"/>
</linearGradient>
<linearGradient id="linear57" gradientUnits="userSpaceOnUse" x1="945.685" y1="192.04" x2="945.685" y2="62.27" gradientTransform="matrix(4.505596,0,0,-4.506243,0,1008.574588)">
<stop offset="0" style="stop-color:rgb(92.941176%,89.803922%,88.627451%);stop-opacity:1;"/>
<stop offset="1" style="stop-color:rgb(81.568627%,77.254902%,75.294118%);stop-opacity:1;"/>
</linearGradient>
<linearGradient id="linear58" gradientUnits="userSpaceOnUse" x1="963.495" y1="192.04" x2="963.495" y2="62.27" gradientTransform="matrix(4.505596,0,0,-4.506243,0,1008.574588)">
<stop offset="0" style="stop-color:rgb(92.941176%,89.803922%,88.627451%);stop-opacity:1;"/>
<stop offset="1" style="stop-color:rgb(81.568627%,77.254902%,75.294118%);stop-opacity:1;"/>
</linearGradient>
<linearGradient id="linear59" gradientUnits="userSpaceOnUse" x1="963.16" y1="192.04" x2="963.16" y2="62.26" gradientTransform="matrix(4.505596,0,0,-4.506243,0,1008.574588)">
<stop offset="0" style="stop-color:rgb(92.941176%,89.803922%,88.627451%);stop-opacity:1;"/>
<stop offset="1" style="stop-color:rgb(81.568627%,77.254902%,75.294118%);stop-opacity:1;"/>
</linearGradient>
<linearGradient id="linear60" gradientUnits="userSpaceOnUse" x1="930.975" y1="192.04" x2="930.975" y2="62.26" gradientTransform="matrix(4.505596,0,0,-4.506243,0,1008.574588)">
<stop offset="0" style="stop-color:rgb(92.941176%,89.803922%,88.627451%);stop-opacity:1;"/>
<stop offset="1" style="stop-color:rgb(81.568627%,77.254902%,75.294118%);stop-opacity:1;"/>
</linearGradient>
<linearGradient id="linear61" gradientUnits="userSpaceOnUse" x1="553.64" y1="192.04" x2="553.64" y2="62.26" gradientTransform="matrix(4.505596,0,0,-4.506243,0,1008.574588)">
<stop offset="0" style="stop-color:rgb(92.941176%,89.803922%,88.627451%);stop-opacity:1;"/>
<stop offset="1" style="stop-color:rgb(81.568627%,77.254902%,75.294118%);stop-opacity:1;"/>
</linearGradient>
<linearGradient id="linear62" gradientUnits="userSpaceOnUse" x1="692.215" y1="192.04" x2="692.215" y2="62.26" gradientTransform="matrix(4.505596,0,0,-4.506243,0,1008.574588)">
<stop offset="0" style="stop-color:rgb(92.941176%,89.803922%,88.627451%);stop-opacity:1;"/>
<stop offset="1" style="stop-color:rgb(81.568627%,77.254902%,75.294118%);stop-opacity:1;"/>
</linearGradient>
<linearGradient id="linear63" gradientUnits="userSpaceOnUse" x1="859.545" y1="192.04" x2="859.545" y2="62.26" gradientTransform="matrix(4.505596,0,0,-4.506243,0,1008.574588)">
<stop offset="0" style="stop-color:rgb(92.941176%,89.803922%,88.627451%);stop-opacity:1;"/>
<stop offset="1" style="stop-color:rgb(81.568627%,77.254902%,75.294118%);stop-opacity:1;"/>
</linearGradient>
<linearGradient id="linear64" gradientUnits="userSpaceOnUse" x1="44.775" y1="192.04" x2="44.775" y2="62.26" gradientTransform="matrix(4.505596,0,0,-4.506243,0,1008.574588)">
<stop offset="0" style="stop-color:rgb(92.941176%,89.803922%,88.627451%);stop-opacity:1;"/>
<stop offset="1" style="stop-color:rgb(81.568627%,77.254902%,75.294118%);stop-opacity:1;"/>
</linearGradient>
<linearGradient id="linear65" gradientUnits="userSpaceOnUse" x1="95.33" y1="192.04" x2="95.33" y2="62.26" gradientTransform="matrix(4.505596,0,0,-4.506243,0,1008.574588)">
<stop offset="0" style="stop-color:rgb(92.941176%,89.803922%,88.627451%);stop-opacity:1;"/>
<stop offset="1" style="stop-color:rgb(81.568627%,77.254902%,75.294118%);stop-opacity:1;"/>
</linearGradient>
<linearGradient id="linear66" gradientUnits="userSpaceOnUse" x1="148.845" y1="192.04" x2="148.845" y2="62.26" gradientTransform="matrix(4.505596,0,0,-4.506243,0,1008.574588)">
<stop offset="0" style="stop-color:rgb(92.941176%,89.803922%,88.627451%);stop-opacity:1;"/>
<stop offset="1" style="stop-color:rgb(81.568627%,77.254902%,75.294118%);stop-opacity:1;"/>
</linearGradient>
<linearGradient id="linear67" gradientUnits="userSpaceOnUse" x1="1100.34" y1="192.04" x2="1100.34" y2="62.26" gradientTransform="matrix(4.505596,0,0,-4.506243,0,1008.574588)">
<stop offset="0" style="stop-color:rgb(92.941176%,89.803922%,88.627451%);stop-opacity:1;"/>
<stop offset="1" style="stop-color:rgb(81.568627%,77.254902%,75.294118%);stop-opacity:1;"/>
</linearGradient>
<linearGradient id="linear68" gradientUnits="userSpaceOnUse" x1="1139" y1="192.04" x2="1139" y2="62.26" gradientTransform="matrix(4.505596,0,0,-4.506243,0,1008.574588)">
<stop offset="0" style="stop-color:rgb(92.941176%,89.803922%,88.627451%);stop-opacity:1;"/>
<stop offset="1" style="stop-color:rgb(81.568627%,77.254902%,75.294118%);stop-opacity:1;"/>
</linearGradient>
<linearGradient id="linear69" gradientUnits="userSpaceOnUse" x1="1043.845" y1="192.04" x2="1043.845" y2="62.26" gradientTransform="matrix(4.505596,0,0,-4.506243,0,1008.574588)">
<stop offset="0" style="stop-color:rgb(92.941176%,89.803922%,88.627451%);stop-opacity:1;"/>
<stop offset="1" style="stop-color:rgb(81.568627%,77.254902%,75.294118%);stop-opacity:1;"/>
</linearGradient>
<linearGradient id="linear70" gradientUnits="userSpaceOnUse" x1="550.235" y1="192.04" x2="550.235" y2="62.26" gradientTransform="matrix(4.505596,0,0,-4.506243,0,1008.574588)">
<stop offset="0" style="stop-color:rgb(92.941176%,89.803922%,88.627451%);stop-opacity:1;"/>
<stop offset="1" style="stop-color:rgb(81.568627%,77.254902%,75.294118%);stop-opacity:1;"/>
</linearGradient>
<linearGradient id="linear71" gradientUnits="userSpaceOnUse" x1="660.135" y1="192.04" x2="660.135" y2="62.26" gradientTransform="matrix(4.505596,0,0,-4.506243,0,1008.574588)">
<stop offset="0" style="stop-color:rgb(92.941176%,89.803922%,88.627451%);stop-opacity:1;"/>
<stop offset="1" style="stop-color:rgb(81.568627%,77.254902%,75.294118%);stop-opacity:1;"/>
</linearGradient>
<linearGradient id="linear72" gradientUnits="userSpaceOnUse" x1="808.95" y1="192.04" x2="808.95" y2="62.26" gradientTransform="matrix(4.505596,0,0,-4.506243,0,1008.574588)">
<stop offset="0" style="stop-color:rgb(92.941176%,89.803922%,88.627451%);stop-opacity:1;"/>
<stop offset="1" style="stop-color:rgb(81.568627%,77.254902%,75.294118%);stop-opacity:1;"/>
</linearGradient>
<linearGradient id="linear73" gradientUnits="userSpaceOnUse" x1="953.845" y1="192.04" x2="953.845" y2="62.26" gradientTransform="matrix(4.505596,0,0,-4.506243,0,1008.574588)">
<stop offset="0" style="stop-color:rgb(92.941176%,89.803922%,88.627451%);stop-opacity:1;"/>
<stop offset="1" style="stop-color:rgb(81.568627%,77.254902%,75.294118%);stop-opacity:1;"/>
</linearGradient>
</defs>
<g id="surface1">
<path style=" stroke:none;fill-rule:nonzero;fill:rgb(0%,0%,0%);fill-opacity:1;" d="M 5724.359375 362.109375 L 5829.339844 187.71875 L 5771.21875 0.257812 L 1759.433594 0.257812 L 1740.511719 137.246094 L 1703.566406 0.257812 L 768.65625 0.257812 L 736.664062 129.136719 L 658.71875 129.136719 L 640.246094 200.335938 L 537.066406 0.257812 L 232.039062 0.257812 L 0 745.589844 L 185.179688 999.292969 L 489.308594 999.292969 L 526.703125 858.695312 L 649.707031 858.695312 L 732.160156 999.292969 L 1671.578125 999.292969 L 1694.105469 836.164062 L 1745.917969 999.292969 L 4884.066406 999.292969 L 5011.125 736.128906 L 5126.015625 736.128906 L 5232.800781 527.039062 L 5346.792969 999.292969 L 5662.632812 999.292969 L 5837.449219 745.140625 Z M 3013.34375 539.203125 L 3013.792969 449.980469 L 3283.679688 449.980469 L 3286.382812 539.203125 Z M 3013.34375 539.203125 "/>
<path style=" stroke:none;fill-rule:nonzero;fill:rgb(23.921569%,22.352941%,21.960784%);fill-opacity:1;" d="M 1218.3125 736.128906 L 969.605469 736.128906 L 1075.9375 947.921875 L 1311.578125 947.921875 Z M 1218.3125 736.128906 "/>
<path style=" stroke:none;fill-rule:nonzero;fill:rgb(23.921569%,22.352941%,21.960784%);fill-opacity:1;" d="M 1301.214844 736.128906 L 1390.425781 947.921875 L 1626.070312 947.921875 L 1550.375 736.128906 Z M 1301.214844 736.128906 "/>
<path style=" stroke:none;fill-rule:nonzero;fill:rgb(23.921569%,22.352941%,21.960784%);fill-opacity:1;" d="M 2047.792969 736.128906 L 2097.804688 947.921875 L 2647.9375 947.921875 L 2628.566406 736.128906 Z M 2047.792969 736.128906 "/>
<path style=" stroke:none;fill-rule:nonzero;fill:rgb(23.921569%,22.352941%,21.960784%);fill-opacity:1;" d="M 3292.238281 736.128906 L 3276.921875 947.921875 L 2726.785156 947.921875 L 2711.46875 736.128906 Z M 3292.238281 736.128906 "/>
<path style=" stroke:none;fill-rule:nonzero;fill:rgb(23.921569%,22.352941%,21.960784%);fill-opacity:1;" d="M 3375.140625 736.128906 L 3623.851562 736.128906 L 3591.410156 947.921875 L 3355.316406 947.921875 Z M 3375.140625 736.128906 "/>
<path style=" stroke:none;fill-rule:nonzero;fill:rgb(23.921569%,22.352941%,21.960784%);fill-opacity:1;" d="M 3706.753906 736.128906 L 3669.808594 947.921875 L 3905.449219 947.921875 L 3955.464844 736.128906 Z M 3706.753906 736.128906 "/>
<path style=" stroke:none;fill-rule:nonzero;fill:rgb(23.921569%,22.352941%,21.960784%);fill-opacity:1;" d="M 4038.367188 736.128906 L 3984.296875 947.921875 L 4219.941406 947.921875 L 4287.527344 736.128906 Z M 4038.367188 736.128906 "/>
<path style=" stroke:none;fill-rule:nonzero;fill:rgb(23.921569%,22.352941%,21.960784%);fill-opacity:1;" d="M 4370.429688 736.128906 L 4298.789062 947.921875 L 4534.433594 947.921875 L 4619.136719 736.128906 Z M 4370.429688 736.128906 "/>
<path style=" stroke:none;fill-rule:nonzero;fill:rgb(23.921569%,22.352941%,21.960784%);fill-opacity:1;" d="M 4702.039062 736.128906 L 4612.828125 947.921875 L 4848.921875 947.921875 L 4950.75 736.128906 Z M 4702.039062 736.128906 "/>
<path style=" stroke:none;fill-rule:nonzero;fill:rgb(23.921569%,22.352941%,21.960784%);fill-opacity:1;" d="M 5531.519531 736.128906 L 5399.054688 947.921875 L 5634.699219 947.921875 L 5780.230469 736.128906 Z M 5531.519531 736.128906 "/>
<path style=" stroke:none;fill-rule:nonzero;fill:rgb(23.921569%,22.352941%,21.960784%);fill-opacity:1;" d="M 1716.179688 736.128906 L 1783.316406 947.921875 L 2019.410156 947.921875 L 1964.890625 736.128906 Z M 1716.179688 736.128906 "/>
<path style=" stroke:none;fill-rule:nonzero;fill:rgb(23.921569%,22.352941%,21.960784%);fill-opacity:1;" d="M 637.992188 736.128906 L 886.703125 736.128906 L 997.539062 947.921875 L 761.445312 947.921875 Z M 637.992188 736.128906 "/>
<path style=" stroke:none;fill-rule:nonzero;fill:rgb(23.921569%,22.352941%,21.960784%);fill-opacity:1;" d="M 211.3125 947.921875 L 57.222656 736.128906 L 305.929688 736.128906 L 446.957031 947.921875 Z M 211.3125 947.921875 "/>
<path style=" stroke:none;fill-rule:nonzero;fill:url(#linear0);" d="M 709.632812 449.980469 L 628.980469 449.980469 L 592.484375 590.574219 L 429.382812 590.574219 L 468.132812 449.980469 L 387.933594 449.980469 L 306.378906 736.128906 L 57.671875 736.128906 L 270.785156 52.078125 L 501.472656 52.078125 L 464.976562 180.957031 L 542.925781 180.957031 L 506.429688 313.441406 L 664.574219 313.441406 L 698.816406 180.957031 L 776.765625 180.957031 L 808.753906 52.078125 L 1039.441406 52.078125 L 886.25 736.128906 L 637.542969 736.128906 Z M 1116.9375 52.078125 L 1347.625 52.078125 L 1218.3125 736.128906 L 969.605469 736.128906 Z M 2116.730469 52.078125 L 2655.148438 52.078125 L 2650.191406 180.957031 L 2337.953125 180.957031 L 2328.042969 313.441406 L 2644.785156 313.441406 L 2639.378906 449.980469 L 2317.679688 449.980469 L 2307.316406 590.574219 L 2633.972656 590.574219 L 2628.113281 736.128906 L 2047.792969 736.128906 Z M 2732.644531 52.078125 L 3271.0625 52.078125 L 3275.117188 180.957031 L 2962.878906 180.957031 L 2961.078125 591.027344 L 3287.734375 591.027344 L 3292.238281 736.578125 L 2711.46875 736.578125 Z M 3685.578125 449.980469 L 3604.925781 449.980469 L 3623.851562 736.128906 L 3375.140625 736.128906 L 3348.109375 52.078125 L 3886.527344 52.078125 L 3912.660156 313.441406 L 3833.359375 313.441406 L 3839.667969 381.035156 L 3919.867188 381.035156 L 3955.914062 736.128906 L 3707.203125 736.128906 Z M 3587.355469 180.957031 L 3595.917969 313.441406 L 3675.214844 313.441406 L 3665.300781 180.957031 Z M 4579.039062 52.078125 L 5117.457031 52.078125 L 5148.542969 180.957031 L 4836.308594 180.957031 L 4863.792969 313.441406 L 5180.535156 313.441406 L 5213.425781 449.980469 L 4891.726562 449.980469 L 4950.75 736.128906 L 4702.039062 736.128906 Z M 5383.285156 180.957031 L 5226.941406 180.957031 L 5194.503906 52.078125 L 5732.921875 52.078125 L 5773.019531 180.957031 L 5616.675781 180.957031 L 5779.777344 736.578125 L 5531.070312 736.578125 Z M 1745.46875 519.828125 L 1664.367188 519.828125 L 1684.640625 381.035156 L 1604.894531 381.035156 L 1550.375 736.128906 L 1301.667969 736.128906 L 1424.667969 52.078125 L 1655.355469 52.078125 L 1635.53125 180.957031 L 1713.476562 180.957031 L 1694.105469 313.441406 L 1773.402344 313.441406 L 1808.996094 52.078125 L 2039.683594 52.078125 L 1964.890625 736.128906 L 1716.179688 736.128906 Z M 4501.992188 52.078125 L 3963.574219 52.078125 L 4038.816406 736.128906 L 4287.527344 736.128906 L 4258.238281 519.828125 L 4339.339844 519.828125 L 4370.878906 736.128906 L 4619.585938 736.128906 Z M 4320.417969 302.175781 L 4360.066406 302.175781 L 4378.988281 427 L 4325.371094 427 L 4318.613281 381.484375 L 4238.863281 381.484375 L 4245.171875 427 L 4191.554688 427 L 4175.785156 302.175781 L 4215.4375 302.175781 L 4210.929688 268.828125 L 4119.015625 268.828125 L 4108.203125 180.957031 L 4212.28125 180.957031 L 4222.644531 258.015625 L 4301.492188 258.015625 L 4290.230469 180.957031 L 4394.308594 180.957031 L 4408.277344 268.828125 L 4316.359375 268.828125 Z M 4320.417969 302.175781 "/>
<path style=" stroke:none;fill-rule:nonzero;fill:rgb(60%,56.078431%,54.509804%);fill-opacity:1;" d="M 1109.726562 591.027344 L 1080.441406 736.128906 L 1052.507812 736.128906 L 1082.695312 591.027344 Z M 1109.726562 591.027344 "/>
<path style=" stroke:none;fill-rule:nonzero;fill:rgb(60%,56.078431%,54.509804%);fill-opacity:1;" d="M 4195.160156 662.675781 L 4204.621094 736.128906 L 4176.6875 736.128906 L 4167.675781 662.675781 Z M 4195.160156 662.675781 "/>
<path style=" stroke:none;fill-rule:nonzero;fill:rgb(14.901961%,14.117647%,13.72549%);fill-opacity:1;" d="M 1080.441406 736.128906 L 1111.53125 801.917969 L 1084.496094 801.917969 L 1052.507812 736.128906 Z M 1080.441406 736.128906 "/>
<path style=" stroke:none;fill-rule:nonzero;fill:rgb(60%,56.078431%,54.509804%);fill-opacity:1;" d="M 1424.21875 662.675781 L 1412.054688 736.128906 L 1384.121094 736.128906 L 1396.734375 662.675781 Z M 1424.21875 662.675781 "/>
<path style=" stroke:none;fill-rule:nonzero;fill:rgb(14.901961%,14.117647%,13.72549%);fill-opacity:1;" d="M 1881.988281 736.128906 L 1900.460938 801.917969 L 1872.976562 801.917969 L 1854.503906 736.128906 Z M 1881.988281 736.128906 "/>
<path style=" stroke:none;fill-rule:nonzero;fill:rgb(14.901961%,14.117647%,13.72549%);fill-opacity:1;" d="M 2158.632812 736.128906 L 2185.664062 865.90625 L 2158.632812 865.90625 L 2130.695312 736.128906 Z M 2158.632812 736.128906 "/>
<path style=" stroke:none;fill-rule:nonzero;fill:rgb(14.901961%,14.117647%,13.72549%);fill-opacity:1;" d="M 392.4375 865.90625 L 378.46875 844.726562 L 297.820312 844.726562 L 312.238281 865.90625 Z M 392.4375 865.90625 "/>
<path style=" stroke:none;fill-rule:nonzero;fill:rgb(14.901961%,14.117647%,13.72549%);fill-opacity:1;" d="M 4737.183594 844.726562 L 4656.535156 844.726562 L 4647.523438 865.90625 L 4727.722656 865.90625 Z M 4737.183594 844.726562 "/>
<path style=" stroke:none;fill-rule:nonzero;fill:rgb(14.901961%,14.117647%,13.72549%);fill-opacity:1;" d="M 3768.480469 844.726562 L 3687.832031 844.726562 L 3684.226562 865.90625 L 3764.425781 865.90625 Z M 3768.480469 844.726562 "/>
<path style=" stroke:none;fill-rule:nonzero;fill:rgb(14.901961%,14.117647%,13.72549%);fill-opacity:1;" d="M 2444.285156 801.917969 L 2471.320312 801.917969 L 2462.757812 736.128906 L 2434.824219 736.128906 Z M 2444.285156 801.917969 "/>
<path style=" stroke:none;fill-rule:nonzero;fill:rgb(14.901961%,14.117647%,13.72549%);fill-opacity:1;" d="M 5450.417969 865.90625 L 5463.484375 844.726562 L 5544.136719 844.726562 L 5530.621094 865.90625 Z M 5450.417969 865.90625 "/>
<path style=" stroke:none;fill-rule:nonzero;fill:rgb(14.901961%,14.117647%,13.72549%);fill-opacity:1;" d="M 954.734375 865.90625 L 943.472656 844.726562 L 862.820312 844.726562 L 874.085938 865.90625 Z M 954.734375 865.90625 "/>
<path style=" stroke:none;fill-rule:nonzero;fill:rgb(60%,56.078431%,54.509804%);fill-opacity:1;" d="M 4082.070312 404.015625 L 4079.367188 381.035156 L 3999.617188 381.035156 L 4001.871094 404.015625 Z M 4082.070312 404.015625 "/>
<path style=" stroke:none;fill-rule:nonzero;fill:rgb(60%,56.078431%,54.509804%);fill-opacity:1;" d="M 854.710938 290.910156 L 885.800781 158.878906 L 782.171875 158.878906 L 776.765625 180.957031 L 854.710938 180.957031 L 828.128906 290.910156 L 669.980469 290.910156 L 664.574219 313.441406 L 981.320312 313.441406 L 986.273438 290.910156 Z M 854.710938 290.910156 "/>
<path style=" stroke:none;fill-rule:nonzero;fill:rgb(60%,56.078431%,54.509804%);fill-opacity:1;" d="M 5604.960938 52.078125 L 5579.28125 52.078125 L 5617.125 180.957031 L 5643.257812 180.957031 Z M 5604.960938 52.078125 "/>
<path style=" stroke:none;fill-rule:nonzero;fill:rgb(60%,56.078431%,54.509804%);fill-opacity:1;" d="M 5022.386719 313.441406 L 4995.804688 313.441406 L 5025.992188 449.980469 L 5052.574219 449.980469 Z M 5022.386719 313.441406 "/>
<path style=" stroke:none;fill-rule:nonzero;fill:rgb(60%,56.078431%,54.509804%);fill-opacity:1;" d="M 3614.390625 591.027344 L 3612.585938 567.144531 L 3504.003906 567.144531 L 3513.011719 736.128906 L 3540.949219 736.128906 L 3532.386719 591.027344 Z M 3614.390625 591.027344 "/>
<path style=" stroke:none;fill-rule:nonzero;fill:rgb(60%,56.078431%,54.509804%);fill-opacity:1;" d="M 236.996094 158.878906 L 470.835938 158.878906 L 464.527344 180.957031 L 230.234375 180.957031 Z M 236.996094 158.878906 "/>
<path style=" stroke:none;fill-rule:nonzero;fill:rgb(60%,56.078431%,54.509804%);fill-opacity:1;" d="M 1335.910156 543.261719 L 1340.414062 519.828125 L 1583.265625 519.828125 L 1579.660156 543.261719 Z M 1335.910156 543.261719 "/>
<path style=" stroke:none;fill-rule:nonzero;fill:rgb(60%,56.078431%,54.509804%);fill-opacity:1;" d="M 5479.707031 543.261719 L 5473.398438 519.828125 L 5716.699219 519.828125 L 5723.457031 543.261719 Z M 5479.707031 543.261719 "/>
<path style=" stroke:none;fill-rule:nonzero;fill:rgb(60%,56.078431%,54.509804%);fill-opacity:1;" d="M 4352.855469 614.910156 L 4349.253906 591.027344 L 4594.355469 591.027344 L 4598.410156 614.910156 Z M 4352.855469 614.910156 "/>
<path style=" stroke:none;fill-rule:nonzero;fill:rgb(60%,56.078431%,54.509804%);fill-opacity:1;" d="M 1907.667969 519.828125 L 1745.46875 519.828125 L 1742.3125 543.261719 L 1877.933594 543.261719 L 1854.503906 736.128906 L 1881.988281 736.128906 Z M 1907.667969 519.828125 "/>
<path style=" stroke:none;fill-rule:nonzero;fill:rgb(60%,56.078431%,54.509804%);fill-opacity:1;" d="M 3516.617188 313.441406 L 3515.265625 290.910156 L 3462.550781 290.910156 L 3450.386719 52.078125 L 3424.703125 52.078125 L 3433.265625 224.667969 L 3354.867188 224.667969 L 3355.769531 246.75 L 3434.164062 246.75 L 3437.320312 313.441406 Z M 3516.617188 313.441406 "/>
<path style=" stroke:none;fill-rule:nonzero;fill:rgb(60%,56.078431%,54.509804%);fill-opacity:1;" d="M 3516.617188 313.441406 L 3515.265625 290.910156 L 3462.550781 290.910156 L 3450.386719 52.078125 L 3424.703125 52.078125 L 3433.265625 224.667969 L 3354.867188 224.667969 L 3355.769531 246.75 L 3434.164062 246.75 L 3437.320312 313.441406 Z M 3516.617188 313.441406 "/>
<path style=" stroke:none;fill-rule:nonzero;fill:rgb(60%,56.078431%,54.509804%);fill-opacity:1;" d="M 347.382812 591.027344 L 354.140625 567.144531 L 218.519531 567.144531 L 253.664062 449.980469 L 146.433594 449.980469 L 139.222656 473.414062 L 219.875 473.414062 L 162.203125 662.675781 L 327.105469 662.675781 L 333.863281 638.792969 L 196.894531 638.792969 L 211.3125 591.027344 Z M 347.382812 591.027344 "/>
<path style=" stroke:none;fill-rule:nonzero;fill:rgb(60%,56.078431%,54.509804%);fill-opacity:1;" d="M 4992.652344 180.957031 L 4973.277344 94.4375 L 4844.417969 94.4375 L 4835.40625 52.078125 L 4809.722656 52.078125 L 4822.789062 116.066406 L 4952.101562 116.066406 L 4966.519531 180.957031 Z M 4992.652344 180.957031 "/>
<path style=" stroke:none;fill-rule:nonzero;fill:rgb(60%,56.078431%,54.509804%);fill-opacity:1;" d="M 2099.609375 224.667969 L 2178.003906 224.667969 L 2175.753906 246.75 L 2097.355469 246.75 Z M 2099.609375 224.667969 "/>
<path style=" stroke:none;fill-rule:nonzero;fill:rgb(60%,56.078431%,54.509804%);fill-opacity:1;" d="M 2064.914062 567.144531 L 2062.660156 591.027344 L 2144.214844 591.027344 L 2130.695312 736.128906 L 2158.632812 736.128906 L 2173.5 567.144531 Z M 2064.914062 567.144531 "/>
<path style=" stroke:none;fill-rule:nonzero;fill:rgb(60%,56.078431%,54.509804%);fill-opacity:1;" d="M 1638.683594 158.878906 L 1561.1875 158.878906 L 1557.585938 180.957031 L 1635.53125 180.957031 Z M 1638.683594 158.878906 "/>
<path style=" stroke:none;fill-rule:nonzero;fill:rgb(60%,56.078431%,54.509804%);fill-opacity:1;" d="M 2028.417969 158.878906 L 1794.578125 158.878906 L 1791.425781 180.957031 L 2025.714844 180.957031 Z M 2028.417969 158.878906 "/>
<path style=" stroke:none;fill-rule:nonzero;fill:rgb(14.901961%,14.117647%,13.72549%);fill-opacity:1;" d="M 4204.621094 736.128906 L 4176.6875 736.128906 L 4138.839844 865.90625 L 4165.875 865.90625 Z M 4204.621094 736.128906 "/>
<path style=" stroke:none;fill-rule:nonzero;fill:rgb(60%,56.078431%,54.509804%);fill-opacity:1;" d="M 3694.136719 567.144531 L 3695.941406 591.027344 L 3777.492188 591.027344 L 3775.691406 567.144531 Z M 3694.136719 567.144531 "/>
<path style=" stroke:none;fill-rule:nonzero;fill:rgb(60%,56.078431%,54.509804%);fill-opacity:1;" d="M 2726.335938 246.75 L 2725.886719 268.828125 L 2804.734375 268.828125 L 2798.875 519.828125 L 2718.226562 519.828125 L 2717.324219 543.261719 L 2825.910156 543.261719 L 2830.867188 268.828125 L 2962.429688 268.828125 L 2962.429688 246.75 Z M 2726.335938 246.75 "/>
<path style=" stroke:none;fill-rule:nonzero;fill:rgb(60%,56.078431%,54.509804%);fill-opacity:1;" d="M 4784.941406 591.027344 L 4757.910156 449.980469 L 4650.675781 449.980469 L 4654.730469 473.414062 L 4735.382812 473.414062 L 4757.460938 591.027344 Z M 4784.941406 591.027344 "/>
<path style=" stroke:none;fill-rule:nonzero;fill:rgb(60%,56.078431%,54.509804%);fill-opacity:1;" d="M 2988.113281 736.128906 L 2960.175781 736.128906 L 2960.628906 674.84375 L 2988.113281 674.84375 Z M 2988.113281 736.128906 "/>
<path style=" stroke:none;fill-rule:nonzero;fill:rgb(14.901961%,14.117647%,13.72549%);fill-opacity:1;" d="M 2988.113281 801.917969 L 2961.078125 801.917969 L 2960.175781 736.128906 L 2988.113281 736.128906 Z M 2988.113281 801.917969 "/>
<path style=" stroke:none;fill-rule:nonzero;fill:rgb(14.901961%,14.117647%,13.72549%);fill-opacity:1;" d="M 3531.9375 801.917969 L 3504.902344 801.917969 L 3513.011719 736.128906 L 3540.949219 736.128906 Z M 3531.9375 801.917969 "/>
<path style=" stroke:none;fill-rule:nonzero;fill:rgb(60%,56.078431%,54.509804%);fill-opacity:1;" d="M 1223.269531 158.878906 L 1205.699219 246.75 L 1232.28125 246.75 L 1245.347656 180.957031 L 1323.292969 180.957031 L 1327.347656 158.878906 Z M 1223.269531 158.878906 "/>
<path style=" stroke:none;fill-rule:nonzero;fill:rgb(60%,56.078431%,54.509804%);fill-opacity:1;" d="M 2525.386719 591.027344 L 2522.683594 638.792969 L 2440.679688 638.792969 L 2434.824219 736.128906 L 2462.757812 736.128906 L 2466.8125 662.675781 L 2549.265625 662.675781 L 2552.421875 591.027344 Z M 2525.386719 591.027344 "/>
<path style=" stroke:none;fill-rule:nonzero;fill:rgb(14.901961%,14.117647%,13.72549%);fill-opacity:1;" d="M 3283.679688 855.542969 L 3284.128906 844.726562 L 3203.480469 844.726562 L 3203.027344 855.542969 Z M 3283.679688 855.542969 "/>
<path style=" stroke:none;fill-rule:nonzero;fill:rgb(14.901961%,14.117647%,13.72549%);fill-opacity:1;" d="M 1412.054688 736.128906 L 1462.96875 865.90625 L 1436.382812 865.90625 L 1384.121094 736.128906 Z M 1412.054688 736.128906 "/>
<path style=" stroke:none;fill-rule:nonzero;fill:rgb(41.960784%,39.607843%,38.431373%);fill-opacity:1;" d="M 253.664062 449.980469 L 250.0625 461.695312 L 142.828125 461.695312 L 146.433594 449.980469 Z M 253.664062 449.980469 "/>
<path style=" stroke:none;fill-rule:nonzero;fill:rgb(41.960784%,39.607843%,38.431373%);fill-opacity:1;" d="M 218.519531 567.144531 L 228.433594 578.859375 L 350.984375 578.859375 L 354.140625 567.144531 Z M 218.519531 567.144531 "/>
<path style=" stroke:none;fill-rule:nonzero;fill:rgb(41.960784%,39.607843%,38.431373%);fill-opacity:1;" d="M 196.894531 638.792969 L 207.257812 650.960938 L 330.261719 650.960938 L 333.863281 638.792969 Z M 196.894531 638.792969 "/>
<path style=" stroke:none;fill-rule:nonzero;fill:rgb(41.960784%,39.607843%,38.431373%);fill-opacity:1;" d="M 236.996094 158.878906 L 470.835938 158.878906 L 467.679688 170.144531 L 233.839844 170.144531 Z M 236.996094 158.878906 "/>
<path style=" stroke:none;fill-rule:nonzero;fill:rgb(41.960784%,39.607843%,38.431373%);fill-opacity:1;" d="M 782.171875 158.878906 L 779.46875 170.144531 L 883.546875 170.144531 L 885.800781 158.878906 Z M 782.171875 158.878906 "/>
<path style=" stroke:none;fill-rule:nonzero;fill:rgb(41.960784%,39.607843%,38.431373%);fill-opacity:1;" d="M 854.710938 180.957031 L 865.074219 191.773438 L 838.492188 302.175781 L 667.277344 302.175781 L 669.980469 290.910156 L 828.128906 290.910156 Z M 854.710938 180.957031 "/>
<path style=" stroke:none;fill-rule:nonzero;fill:rgb(41.960784%,39.607843%,38.431373%);fill-opacity:1;" d="M 854.710938 290.910156 L 865.074219 302.175781 L 984.023438 302.175781 L 986.273438 290.910156 Z M 854.710938 290.910156 "/>
<path style=" stroke:none;fill-rule:nonzero;fill:rgb(41.960784%,39.607843%,38.431373%);fill-opacity:1;" d="M 219.875 473.414062 L 229.785156 484.679688 L 176.167969 662.675781 L 162.203125 662.675781 Z M 219.875 473.414062 "/>
<path style=" stroke:none;fill-rule:nonzero;fill:rgb(41.960784%,39.607843%,38.431373%);fill-opacity:1;" d="M 1205.699219 246.75 L 1219.214844 246.75 L 1234.535156 170.144531 L 1325.097656 170.144531 L 1327.347656 158.878906 L 1223.269531 158.878906 Z M 1205.699219 246.75 "/>
<path style=" stroke:none;fill-rule:nonzero;fill:rgb(41.960784%,39.607843%,38.431373%);fill-opacity:1;" d="M 1109.726562 591.027344 L 1107.476562 602.742188 L 1093.957031 602.742188 L 1066.476562 736.128906 L 1052.507812 736.128906 L 1082.695312 591.027344 Z M 1109.726562 591.027344 "/>
<path style=" stroke:none;fill-rule:nonzero;fill:rgb(41.960784%,39.607843%,38.431373%);fill-opacity:1;" d="M 1557.585938 180.957031 L 1570.199219 180.957031 L 1572.003906 170.144531 L 1637.332031 170.144531 L 1638.683594 158.878906 L 1561.1875 158.878906 Z M 1557.585938 180.957031 "/>
<path style=" stroke:none;fill-rule:nonzero;fill:rgb(41.960784%,39.607843%,38.431373%);fill-opacity:1;" d="M 1794.578125 158.878906 L 2028.417969 158.878906 L 2027.066406 170.144531 L 1793.226562 170.144531 Z M 1794.578125 158.878906 "/>
<path style=" stroke:none;fill-rule:nonzero;fill:rgb(41.960784%,39.607843%,38.431373%);fill-opacity:1;" d="M 1340.414062 519.828125 L 1583.265625 519.828125 L 1581.464844 531.542969 L 1338.160156 531.542969 Z M 1340.414062 519.828125 "/>
<path style=" stroke:none;fill-rule:nonzero;fill:rgb(41.960784%,39.607843%,38.431373%);fill-opacity:1;" d="M 1424.21875 662.675781 L 1396.734375 662.675781 L 1384.121094 736.128906 L 1398.085938 736.128906 L 1408.449219 674.84375 L 1422.417969 674.84375 Z M 1424.21875 662.675781 "/>
<path style=" stroke:none;fill-rule:nonzero;fill:rgb(41.960784%,39.607843%,38.431373%);fill-opacity:1;" d="M 1745.46875 519.828125 L 1744.117188 531.542969 L 1906.316406 531.542969 L 1907.667969 519.828125 Z M 1745.46875 519.828125 "/>
<path style=" stroke:none;fill-rule:nonzero;fill:rgb(41.960784%,39.607843%,38.431373%);fill-opacity:1;" d="M 1877.933594 543.261719 L 1890.097656 555.425781 L 1868.019531 736.128906 L 1854.503906 736.128906 Z M 1877.933594 543.261719 "/>
<path style=" stroke:none;fill-rule:nonzero;fill:rgb(41.960784%,39.607843%,38.431373%);fill-opacity:1;" d="M 2099.609375 224.667969 L 2098.257812 235.484375 L 2177.105469 235.484375 L 2178.003906 224.667969 Z M 2099.609375 224.667969 "/>
<path style=" stroke:none;fill-rule:nonzero;fill:rgb(41.960784%,39.607843%,38.431373%);fill-opacity:1;" d="M 2064.914062 567.144531 L 2063.5625 578.859375 L 2172.597656 578.859375 L 2173.5 567.144531 Z M 2064.914062 567.144531 "/>
<path style=" stroke:none;fill-rule:nonzero;fill:rgb(41.960784%,39.607843%,38.431373%);fill-opacity:1;" d="M 2144.214844 591.027344 L 2156.828125 602.742188 L 2144.664062 736.128906 L 2130.695312 736.128906 Z M 2144.214844 591.027344 "/>
<path style=" stroke:none;fill-rule:nonzero;fill:rgb(41.960784%,39.607843%,38.431373%);fill-opacity:1;" d="M 2538.902344 591.027344 L 2525.386719 591.027344 L 2522.683594 638.792969 L 2440.679688 638.792969 L 2434.824219 736.128906 L 2448.792969 736.128906 L 2453.746094 650.960938 L 2535.75 650.960938 Z M 2538.902344 591.027344 "/>
<path style=" stroke:none;fill-rule:nonzero;fill:rgb(41.960784%,39.607843%,38.431373%);fill-opacity:1;" d="M 2725.886719 257.5625 L 2962.429688 257.5625 L 2962.429688 246.75 L 2726.335938 246.75 Z M 2725.886719 257.5625 "/>
<path style=" stroke:none;fill-rule:nonzero;fill:rgb(41.960784%,39.607843%,38.431373%);fill-opacity:1;" d="M 2804.734375 268.828125 L 2817.347656 280.09375 L 2812.394531 531.542969 L 2717.777344 531.542969 L 2718.226562 519.828125 L 2798.875 519.828125 Z M 2804.734375 268.828125 "/>
<path style=" stroke:none;fill-rule:nonzero;fill:rgb(41.960784%,39.607843%,38.431373%);fill-opacity:1;" d="M 3433.265625 224.667969 L 3354.867188 224.667969 L 3355.316406 235.484375 L 3420.648438 235.484375 Z M 3433.265625 224.667969 "/>
<path style=" stroke:none;fill-rule:nonzero;fill:rgb(41.960784%,39.607843%,38.431373%);fill-opacity:1;" d="M 3516.617188 313.441406 L 3515.265625 290.910156 L 3462.550781 290.910156 L 3450.386719 52.078125 L 3437.769531 52.078125 L 3450.386719 302.175781 L 3503.101562 302.175781 L 3503.550781 313.441406 Z M 3516.617188 313.441406 "/>
<path style=" stroke:none;fill-rule:nonzero;fill:rgb(41.960784%,39.607843%,38.431373%);fill-opacity:1;" d="M 3613.488281 578.859375 L 3612.585938 567.144531 L 3504.003906 567.144531 L 3504.453125 578.859375 Z M 3613.488281 578.859375 "/>
<path style=" stroke:none;fill-rule:nonzero;fill:rgb(41.960784%,39.607843%,38.431373%);fill-opacity:1;" d="M 3532.386719 591.027344 L 3519.773438 602.742188 L 3526.980469 736.128906 L 3540.949219 736.128906 Z M 3532.386719 591.027344 "/>
<path style=" stroke:none;fill-rule:nonzero;fill:rgb(41.960784%,39.607843%,38.431373%);fill-opacity:1;" d="M 3694.136719 567.144531 L 3695.039062 578.859375 L 3763.074219 578.859375 L 3763.976562 591.027344 L 3777.492188 591.027344 L 3775.691406 567.144531 L 3694.136719 567.144531 "/>
<path style=" stroke:none;fill-rule:nonzero;fill:rgb(41.960784%,39.607843%,38.431373%);fill-opacity:1;" d="M 4000.96875 392.75 L 3999.617188 381.035156 L 4079.367188 381.035156 L 4082.070312 404.015625 L 4068.554688 404.015625 L 4067.652344 392.75 Z M 4000.96875 392.75 "/>
<path style=" stroke:none;fill-rule:nonzero;fill:rgb(41.960784%,39.607843%,38.431373%);fill-opacity:1;" d="M 4349.253906 591.027344 L 4594.355469 591.027344 L 4596.160156 602.742188 L 4351.054688 602.742188 Z M 4349.253906 591.027344 "/>
<path style=" stroke:none;fill-rule:nonzero;fill:rgb(41.960784%,39.607843%,38.431373%);fill-opacity:1;" d="M 4169.027344 674.84375 L 4182.996094 674.84375 L 4190.65625 736.128906 L 4204.621094 736.128906 L 4195.160156 662.675781 L 4167.675781 662.675781 Z M 4169.027344 674.84375 "/>
<path style=" stroke:none;fill-rule:nonzero;fill:rgb(41.960784%,39.607843%,38.431373%);fill-opacity:1;" d="M 4652.480469 461.695312 L 4746.644531 461.695312 L 4770.976562 591.027344 L 4784.941406 591.027344 L 4757.910156 449.980469 L 4650.675781 449.980469 Z M 4652.480469 461.695312 "/>
<path style=" stroke:none;fill-rule:nonzero;fill:rgb(41.960784%,39.607843%,38.431373%);fill-opacity:1;" d="M 4835.40625 52.078125 L 4822.789062 52.078125 L 4833.605469 105.253906 L 4962.464844 105.253906 L 4979.585938 180.957031 L 4992.652344 180.957031 L 4973.277344 94.4375 L 4844.417969 94.4375 Z M 4835.40625 52.078125 "/>
<path style=" stroke:none;fill-rule:nonzero;fill:rgb(41.960784%,39.607843%,38.431373%);fill-opacity:1;" d="M 5022.386719 313.441406 L 5008.871094 313.441406 L 5039.507812 449.980469 L 5052.574219 449.980469 Z M 5022.386719 313.441406 "/>
<path style=" stroke:none;fill-rule:nonzero;fill:rgb(41.960784%,39.607843%,38.431373%);fill-opacity:1;" d="M 5473.398438 519.828125 L 5716.699219 519.828125 L 5720.304688 531.542969 L 5476.550781 531.542969 Z M 5473.398438 519.828125 "/>
<path style=" stroke:none;fill-rule:nonzero;fill:rgb(41.960784%,39.607843%,38.431373%);fill-opacity:1;" d="M 5591.894531 52.078125 L 5630.191406 180.957031 L 5643.257812 180.957031 L 5604.960938 52.078125 Z M 5591.894531 52.078125 "/>
<path style=" stroke:none;fill-rule:nonzero;fill:rgb(41.960784%,39.607843%,38.431373%);fill-opacity:1;" d="M 2960.628906 662.675781 L 2960.628906 674.84375 L 2988.113281 674.84375 L 2988.113281 662.675781 Z M 2960.628906 662.675781 "/>
<path style=" stroke:none;fill-rule:nonzero;fill:rgb(9.019608%,8.627451%,8.235294%);fill-opacity:1;" d="M 874.085938 865.90625 L 862.820312 844.726562 L 876.339844 844.726562 L 882.195312 855.542969 L 948.878906 855.542969 L 954.734375 865.90625 Z M 874.085938 865.90625 "/>
<path style=" stroke:none;fill-rule:nonzero;fill:rgb(9.019608%,8.627451%,8.235294%);fill-opacity:1;" d="M 1066.476562 736.128906 L 1052.507812 736.128906 L 1084.496094 801.917969 L 1111.53125 801.917969 L 1106.574219 791.101562 L 1092.605469 791.101562 Z M 1066.476562 736.128906 "/>
<path style=" stroke:none;fill-rule:nonzero;fill:rgb(9.019608%,8.627451%,8.235294%);fill-opacity:1;" d="M 1868.019531 736.128906 L 1883.789062 791.101562 L 1897.304688 791.101562 L 1900.460938 801.917969 L 1872.976562 801.917969 L 1854.503906 736.128906 Z M 1868.019531 736.128906 "/>
<path style=" stroke:none;fill-rule:nonzero;fill:rgb(9.019608%,8.627451%,8.235294%);fill-opacity:1;" d="M 2144.664062 736.128906 L 2169.894531 855.542969 L 2183.410156 855.542969 L 2185.664062 865.90625 L 2158.632812 865.90625 L 2130.695312 736.128906 Z M 2144.664062 736.128906 "/>
<path style=" stroke:none;fill-rule:nonzero;fill:rgb(9.019608%,8.627451%,8.235294%);fill-opacity:1;" d="M 2448.792969 736.128906 L 2456.449219 791.101562 L 2469.96875 791.101562 L 2471.320312 801.917969 L 2444.285156 801.917969 L 2434.824219 736.128906 Z M 2448.792969 736.128906 "/>
<path style=" stroke:none;fill-rule:nonzero;fill:rgb(9.019608%,8.627451%,8.235294%);fill-opacity:1;" d="M 4190.65625 736.128906 L 4155.511719 855.542969 L 4141.996094 855.542969 L 4138.839844 865.90625 L 4165.875 865.90625 L 4204.621094 736.128906 Z M 4190.65625 736.128906 "/>
<path style=" stroke:none;fill-rule:nonzero;fill:rgb(9.019608%,8.627451%,8.235294%);fill-opacity:1;" d="M 4727.722656 865.90625 L 4737.183594 844.726562 L 4723.667969 844.726562 L 4719.160156 855.542969 L 4652.027344 855.542969 L 4647.523438 865.90625 Z M 4727.722656 865.90625 "/>
<path style=" stroke:none;fill-rule:nonzero;fill:rgb(9.019608%,8.627451%,8.235294%);fill-opacity:1;" d="M 5456.726562 855.542969 L 5523.859375 855.542969 L 5530.621094 844.726562 L 5544.136719 844.726562 L 5530.621094 865.90625 L 5450.417969 865.90625 Z M 5456.726562 855.542969 "/>
<path style=" stroke:none;fill-rule:nonzero;fill:rgb(9.019608%,8.627451%,8.235294%);fill-opacity:1;" d="M 297.820312 844.726562 L 312.238281 865.90625 L 392.4375 865.90625 L 385.679688 855.542969 L 318.546875 855.542969 L 311.335938 844.726562 Z M 297.820312 844.726562 "/>
<path style=" stroke:none;fill-rule:nonzero;fill:rgb(9.019608%,8.627451%,8.235294%);fill-opacity:1;" d="M 3526.980469 736.128906 L 3519.773438 791.101562 L 3506.253906 791.101562 L 3504.902344 801.917969 L 3531.9375 801.917969 L 3540.949219 736.128906 Z M 3526.980469 736.128906 "/>
<path style=" stroke:none;fill-rule:nonzero;fill:rgb(9.019608%,8.627451%,8.235294%);fill-opacity:1;" d="M 2960.628906 791.101562 L 2961.078125 801.917969 L 2988.113281 801.917969 L 2988.113281 791.101562 Z M 2960.628906 791.101562 "/>
<path style=" stroke:none;fill-rule:nonzero;fill:rgb(9.019608%,8.627451%,8.235294%);fill-opacity:1;" d="M 3203.027344 855.542969 L 3202.578125 865.90625 L 3282.777344 865.90625 L 3283.679688 855.542969 Z M 3203.027344 855.542969 "/>
<path style=" stroke:none;fill-rule:nonzero;fill:rgb(9.019608%,8.627451%,8.235294%);fill-opacity:1;" d="M 1398.085938 736.128906 L 1384.121094 736.128906 L 1436.382812 865.90625 L 1462.96875 865.90625 L 1458.910156 855.542969 L 1445.394531 855.542969 Z M 1398.085938 736.128906 "/>
<path style=" stroke:none;fill-rule:nonzero;fill:rgb(9.019608%,8.627451%,8.235294%);fill-opacity:1;" d="M 3686.027344 855.542969 L 3684.226562 865.90625 L 3764.425781 865.90625 L 3768.480469 844.726562 L 3754.964844 844.726562 L 3753.160156 855.542969 Z M 3686.027344 855.542969 "/>
<path style=" stroke:none;fill-rule:nonzero;fill:rgb(41.960784%,39.607843%,38.431373%);fill-opacity:1;" d="M 312.238281 865.90625 L 319.445312 876.269531 L 399.644531 876.269531 L 392.4375 865.90625 Z M 312.238281 865.90625 "/>
<path style=" stroke:none;fill-rule:nonzero;fill:rgb(41.960784%,39.607843%,38.431373%);fill-opacity:1;" d="M 874.085938 865.90625 L 954.734375 865.90625 L 960.140625 876.269531 L 879.941406 876.269531 Z M 874.085938 865.90625 "/>
<path style=" stroke:none;fill-rule:nonzero;fill:rgb(41.960784%,39.607843%,38.431373%);fill-opacity:1;" d="M 1084.496094 801.917969 L 1089.453125 812.734375 L 1116.488281 812.734375 L 1111.53125 801.917969 Z M 1084.496094 801.917969 "/>
<path style=" stroke:none;fill-rule:nonzero;fill:rgb(41.960784%,39.607843%,38.431373%);fill-opacity:1;" d="M 1872.976562 801.917969 L 1876.128906 812.734375 L 1903.164062 812.734375 L 1900.460938 801.917969 Z M 1872.976562 801.917969 "/>
<path style=" stroke:none;fill-rule:nonzero;fill:rgb(41.960784%,39.607843%,38.431373%);fill-opacity:1;" d="M 2158.632812 865.90625 L 2160.882812 876.269531 L 2187.46875 876.269531 L 2185.664062 865.90625 Z M 2158.632812 865.90625 "/>
<path style=" stroke:none;fill-rule:nonzero;fill:rgb(41.960784%,39.607843%,38.431373%);fill-opacity:1;" d="M 2444.285156 801.917969 L 2445.636719 812.734375 L 2472.671875 812.734375 L 2471.320312 801.917969 Z M 2444.285156 801.917969 "/>
<path style=" stroke:none;fill-rule:nonzero;fill:rgb(41.960784%,39.607843%,38.431373%);fill-opacity:1;" d="M 3684.226562 865.90625 L 3764.425781 865.90625 L 3762.171875 876.269531 L 3682.425781 876.269531 Z M 3684.226562 865.90625 "/>
<path style=" stroke:none;fill-rule:nonzero;fill:rgb(41.960784%,39.607843%,38.431373%);fill-opacity:1;" d="M 4138.839844 865.90625 L 4136.136719 876.269531 L 4162.71875 876.269531 L 4165.875 865.90625 Z M 4138.839844 865.90625 "/>
<path style=" stroke:none;fill-rule:nonzero;fill:rgb(41.960784%,39.607843%,38.431373%);fill-opacity:1;" d="M 4727.722656 865.90625 L 4723.214844 876.269531 L 4643.015625 876.269531 L 4647.523438 865.90625 Z M 4727.722656 865.90625 "/>
<path style=" stroke:none;fill-rule:nonzero;fill:rgb(41.960784%,39.607843%,38.431373%);fill-opacity:1;" d="M 5450.417969 865.90625 L 5443.660156 876.269531 L 5523.859375 876.269531 L 5530.621094 865.90625 Z M 5450.417969 865.90625 "/>
<path style=" stroke:none;fill-rule:nonzero;fill:rgb(41.960784%,39.607843%,38.431373%);fill-opacity:1;" d="M 2961.078125 801.917969 L 2961.078125 812.734375 L 2988.113281 812.734375 L 2988.113281 801.917969 Z M 2961.078125 801.917969 "/>
<path style=" stroke:none;fill-rule:nonzero;fill:rgb(41.960784%,39.607843%,38.431373%);fill-opacity:1;" d="M 3531.9375 801.917969 L 3530.585938 812.734375 L 3503.550781 812.734375 L 3504.902344 801.917969 Z M 3531.9375 801.917969 "/>
<path style=" stroke:none;fill-rule:nonzero;fill:url(#linear1);" d="M 2799.328125 508.109375 L 2718.226562 508.109375 L 2718.226562 519.828125 L 2798.875 519.828125 Z M 2799.328125 508.109375 "/>
<path style=" stroke:none;fill-rule:nonzero;fill:url(#linear2);" d="M 1340.414062 519.828125 L 1583.265625 519.828125 L 1585.070312 508.109375 L 1342.21875 508.109375 Z M 1340.414062 519.828125 "/>
<path style=" stroke:none;fill-rule:nonzero;fill:url(#linear3);" d="M 1909.019531 508.109375 L 1666.167969 508.109375 L 1664.367188 519.828125 L 1907.667969 519.828125 Z M 1909.019531 508.109375 "/>
<path style=" stroke:none;fill-rule:nonzero;fill:url(#linear4);" d="M 5713.097656 508.109375 L 5470.246094 508.109375 L 5473.398438 519.828125 L 5716.699219 519.828125 Z M 5713.097656 508.109375 "/>
<path style=" stroke:none;fill-rule:nonzero;fill:url(#linear5);" d="M 57.222656 736.128906 L 305.929688 736.128906 L 309.535156 723.960938 L 61.277344 723.960938 Z M 57.222656 736.128906 "/>
<path style=" stroke:none;fill-rule:nonzero;fill:url(#linear6);" d="M 196.894531 638.792969 L 333.863281 638.792969 L 337.46875 626.625 L 200.5 626.625 Z M 196.894531 638.792969 "/>
<path style=" stroke:none;fill-rule:nonzero;fill:url(#linear7);" d="M 218.519531 567.144531 L 354.140625 567.144531 L 357.746094 555.425781 L 222.125 555.425781 Z M 218.519531 567.144531 "/>
<path style=" stroke:none;fill-rule:nonzero;fill:url(#linear8);" d="M 429.382812 591.027344 L 592.484375 591.027344 L 595.640625 578.859375 L 432.539062 578.859375 Z M 429.382812 591.027344 "/>
<path style=" stroke:none;fill-rule:nonzero;fill:url(#linear9);" d="M 637.992188 736.128906 L 886.703125 736.128906 L 889.40625 723.960938 L 641.144531 723.960938 Z M 637.992188 736.128906 "/>
<path style=" stroke:none;fill-rule:nonzero;fill:url(#linear10);" d="M 1112.433594 578.859375 L 1084.949219 578.859375 L 1082.695312 591.027344 L 1109.726562 591.027344 Z M 1112.433594 578.859375 "/>
<path style=" stroke:none;fill-rule:nonzero;fill:url(#linear11);" d="M 1426.472656 650.960938 L 1398.988281 650.960938 L 1396.734375 662.675781 L 1424.21875 662.675781 Z M 1426.472656 650.960938 "/>
<path style=" stroke:none;fill-rule:nonzero;fill:url(#linear12);" d="M 2174.851562 555.425781 L 2066.265625 555.425781 L 2064.914062 567.144531 L 2173.5 567.144531 Z M 2174.851562 555.425781 "/>
<path style=" stroke:none;fill-rule:nonzero;fill:url(#linear13);" d="M 2523.585938 626.625 L 2441.582031 626.625 L 2440.679688 638.792969 L 2522.683594 638.792969 Z M 2523.585938 626.625 "/>
<path style=" stroke:none;fill-rule:nonzero;fill:url(#linear14);" d="M 3504.003906 567.144531 L 3612.585938 567.144531 L 3611.6875 555.425781 L 3503.550781 555.425781 Z M 3504.003906 567.144531 "/>
<path style=" stroke:none;fill-rule:nonzero;fill:url(#linear15);" d="M 3774.789062 555.425781 L 3693.238281 555.425781 L 3694.136719 567.144531 L 3775.691406 567.144531 Z M 3774.789062 555.425781 "/>
<path style=" stroke:none;fill-rule:nonzero;fill:url(#linear16);" d="M 4166.324219 650.960938 L 4167.675781 662.675781 L 4195.160156 662.675781 L 4193.359375 650.960938 Z M 4166.324219 650.960938 "/>
<path style=" stroke:none;fill-rule:nonzero;fill:url(#linear17);" d="M 4592.105469 578.859375 L 4347.449219 578.859375 L 4349.253906 591.027344 L 4594.355469 591.027344 Z M 4592.105469 578.859375 "/>
<path style=" stroke:none;fill-rule:nonzero;fill:url(#linear18);" d="M 4037.015625 723.960938 L 4038.367188 736.128906 L 4176.6875 736.128906 L 4175.335938 723.960938 Z M 4037.015625 723.960938 "/>
<path style=" stroke:none;fill-rule:nonzero;fill:url(#linear19);" d="M 4202.820312 723.960938 L 4204.621094 736.128906 L 4287.527344 736.128906 L 4285.722656 723.960938 Z M 4202.820312 723.960938 "/>
<path style=" stroke:none;fill-rule:nonzero;fill:url(#linear20);" d="M 4368.625 723.960938 L 4370.429688 736.128906 L 4619.136719 736.128906 L 4616.882812 723.960938 Z M 4368.625 723.960938 "/>
<path style=" stroke:none;fill-rule:nonzero;fill:url(#linear21);" d="M 4699.789062 723.960938 L 4702.039062 736.128906 L 4950.75 736.128906 L 4948.496094 723.960938 Z M 4699.789062 723.960938 "/>
<path style=" stroke:none;fill-rule:nonzero;fill:url(#linear22);" d="M 5776.625 723.960938 L 5527.917969 723.960938 L 5531.519531 736.128906 L 5780.230469 736.128906 Z M 5776.625 723.960938 "/>
<path style=" stroke:none;fill-rule:nonzero;fill:url(#linear23);" d="M 3374.691406 723.960938 L 3375.140625 736.128906 L 3513.011719 736.128906 L 3512.5625 723.960938 Z M 3374.691406 723.960938 "/>
<path style=" stroke:none;fill-rule:nonzero;fill:url(#linear24);" d="M 3540.046875 723.960938 L 3540.949219 736.128906 L 3623.851562 736.128906 L 3622.949219 723.960938 Z M 3540.046875 723.960938 "/>
<path style=" stroke:none;fill-rule:nonzero;fill:url(#linear25);" d="M 2711.46875 736.128906 L 2960.175781 736.128906 L 2960.175781 723.960938 L 2711.917969 723.960938 Z M 2711.46875 736.128906 "/>
<path style=" stroke:none;fill-rule:nonzero;fill:url(#linear26);" d="M 2988.113281 723.960938 L 2988.113281 736.128906 L 3292.238281 736.128906 L 3291.789062 723.960938 Z M 2988.113281 723.960938 "/>
<path style=" stroke:none;fill-rule:nonzero;fill:url(#linear27);" d="M 3705.851562 723.960938 L 3706.753906 736.128906 L 3955.464844 736.128906 L 3954.109375 723.960938 Z M 3705.851562 723.960938 "/>
<path style=" stroke:none;fill-rule:nonzero;fill:url(#linear28);" d="M 2047.792969 736.128906 L 2130.695312 736.128906 L 2132.046875 723.960938 L 2049.144531 723.960938 Z M 2047.792969 736.128906 "/>
<path style=" stroke:none;fill-rule:nonzero;fill:url(#linear29);" d="M 2158.632812 736.128906 L 2434.824219 736.128906 L 2435.726562 723.960938 L 2159.53125 723.960938 Z M 2158.632812 736.128906 "/>
<path style=" stroke:none;fill-rule:nonzero;fill:url(#linear30);" d="M 2462.757812 736.128906 L 2628.566406 736.128906 L 2629.015625 723.960938 L 2463.210938 723.960938 Z M 2462.757812 736.128906 "/>
<path style=" stroke:none;fill-rule:nonzero;fill:url(#linear31);" d="M 1716.179688 736.128906 L 1854.503906 736.128906 L 1855.855469 723.960938 L 1717.984375 723.960938 Z M 1716.179688 736.128906 "/>
<path style=" stroke:none;fill-rule:nonzero;fill:url(#linear32);" d="M 1881.988281 736.128906 L 1964.890625 736.128906 L 1966.242188 723.960938 L 1883.339844 723.960938 Z M 1881.988281 736.128906 "/>
<path style=" stroke:none;fill-rule:nonzero;fill:url(#linear33);" d="M 1301.214844 736.128906 L 1384.121094 736.128906 L 1386.371094 723.960938 L 1303.46875 723.960938 Z M 1301.214844 736.128906 "/>
<path style=" stroke:none;fill-rule:nonzero;fill:url(#linear34);" d="M 1412.054688 736.128906 L 1550.375 736.128906 L 1552.179688 723.960938 L 1414.308594 723.960938 Z M 1412.054688 736.128906 "/>
<path style=" stroke:none;fill-rule:nonzero;fill:url(#linear35);" d="M 969.605469 736.128906 L 1052.507812 736.128906 L 1055.210938 723.960938 L 972.308594 723.960938 Z M 969.605469 736.128906 "/>
<path style=" stroke:none;fill-rule:nonzero;fill:url(#linear36);" d="M 1080.441406 736.128906 L 1218.3125 736.128906 L 1221.015625 723.960938 L 1082.695312 723.960938 Z M 1080.441406 736.128906 "/>
<path style=" stroke:none;fill-rule:nonzero;fill:url(#linear37);" d="M 4078.015625 369.769531 L 3998.265625 369.769531 L 3999.617188 381.035156 L 4079.367188 381.035156 Z M 4078.015625 369.769531 "/>
<path style=" stroke:none;fill-rule:nonzero;fill:url(#linear38);" d="M 1685.992188 369.769531 L 1606.246094 369.769531 L 1604.894531 381.035156 L 1684.640625 381.035156 Z M 1685.992188 369.769531 "/>
<path style=" stroke:none;fill-rule:nonzero;fill:url(#linear39);" d="M 473.539062 148.511719 L 240.597656 148.511719 L 236.996094 158.878906 L 470.835938 158.878906 Z M 473.539062 148.511719 "/>
<path style=" stroke:none;fill-rule:nonzero;fill:url(#linear40);" d="M 888.503906 148.511719 L 784.875 148.511719 L 782.171875 158.878906 L 885.800781 158.878906 Z M 888.503906 148.511719 "/>
<path style=" stroke:none;fill-rule:nonzero;fill:url(#linear41);" d="M 854.710938 290.910156 L 986.273438 290.910156 L 988.976562 280.09375 L 856.964844 280.09375 Z M 854.710938 290.910156 "/>
<path style=" stroke:none;fill-rule:nonzero;fill:url(#linear42);" d="M 830.832031 280.09375 L 673.136719 280.09375 L 669.980469 290.910156 L 828.128906 290.910156 Z M 830.832031 280.09375 "/>
<path style=" stroke:none;fill-rule:nonzero;fill:url(#linear43);" d="M 1329.152344 148.511719 L 1225.523438 148.511719 L 1223.269531 158.878906 L 1327.347656 158.878906 Z M 1329.152344 148.511719 "/>
<path style=" stroke:none;fill-rule:nonzero;fill:url(#linear44);" d="M 1640.488281 148.511719 L 1562.539062 148.511719 L 1561.1875 158.878906 L 1638.683594 158.878906 Z M 1640.488281 148.511719 "/>
<path style=" stroke:none;fill-rule:nonzero;fill:url(#linear45);" d="M 1794.578125 158.878906 L 2028.417969 158.878906 L 2029.320312 148.511719 L 1795.929688 148.511719 Z M 1794.578125 158.878906 "/>
<path style=" stroke:none;fill-rule:nonzero;fill:url(#linear46);" d="M 2178.90625 213.855469 L 2100.507812 213.855469 L 2099.609375 224.667969 L 2178.003906 224.667969 Z M 2178.90625 213.855469 "/>
<path style=" stroke:none;fill-rule:nonzero;fill:url(#linear47);" d="M 2962.429688 235.484375 L 2726.785156 235.484375 L 2726.335938 246.75 L 2962.429688 246.75 Z M 2962.429688 235.484375 "/>
<path style=" stroke:none;fill-rule:nonzero;fill:url(#linear48);" d="M 3432.8125 213.855469 L 3354.417969 213.855469 L 3354.867188 224.667969 L 3433.265625 224.667969 Z M 3432.8125 213.855469 "/>
<path style=" stroke:none;fill-rule:nonzero;fill:url(#linear49);" d="M 3665.300781 180.957031 L 3664.402344 170.144531 L 3586.453125 170.144531 L 3587.355469 180.957031 Z M 3665.300781 180.957031 "/>
<path style=" stroke:none;fill-rule:nonzero;fill:url(#linear50);" d="M 5223.789062 170.144531 L 5226.941406 180.957031 L 5382.835938 180.957031 L 5380.132812 170.144531 Z M 5223.789062 170.144531 "/>
<path style=" stroke:none;fill-rule:nonzero;fill:url(#linear51);" d="M 5773.019531 180.957031 L 5769.867188 170.144531 L 5639.65625 170.144531 L 5643.257812 180.957031 Z M 5773.019531 180.957031 "/>
<path style=" stroke:none;fill-rule:nonzero;fill:url(#linear52);" d="M 4973.277344 94.4375 L 4970.574219 84.074219 L 4842.164062 84.074219 L 4844.417969 94.4375 Z M 4973.277344 94.4375 "/>
<path style=" stroke:none;fill-rule:nonzero;fill:url(#linear53);" d="M 4966.519531 180.957031 L 4964.265625 170.144531 L 4834.054688 170.144531 L 4836.308594 180.957031 Z M 4966.519531 180.957031 "/>
<path style=" stroke:none;fill-rule:nonzero;fill:url(#linear54);" d="M 5148.542969 180.957031 L 5145.839844 170.144531 L 4989.949219 170.144531 L 4992.652344 180.957031 Z M 5148.542969 180.957031 "/>
<path style=" stroke:none;fill-rule:nonzero;fill:url(#linear55);" d="M 3515.265625 290.910156 L 3514.816406 280.09375 L 3462.101562 280.09375 L 3462.550781 290.910156 Z M 3515.265625 290.910156 "/>
<path style=" stroke:none;fill-rule:nonzero;fill:url(#linear56);" d="M 4211.832031 180.957031 L 4210.480469 170.144531 L 4106.402344 170.144531 L 4107.753906 180.957031 Z M 4211.832031 180.957031 "/>
<path style=" stroke:none;fill-rule:nonzero;fill:url(#linear57);" d="M 4301.042969 257.5625 L 4299.238281 246.75 L 4220.84375 246.75 L 4222.195312 257.5625 Z M 4301.042969 257.5625 "/>
<path style=" stroke:none;fill-rule:nonzero;fill:url(#linear58);" d="M 4393.859375 180.957031 L 4392.054688 170.144531 L 4288.425781 170.144531 L 4289.777344 180.957031 Z M 4393.859375 180.957031 "/>
<path style=" stroke:none;fill-rule:nonzero;fill:url(#linear59);" d="M 4320.417969 302.175781 L 4360.066406 302.175781 L 4358.714844 290.910156 L 4319.066406 290.910156 Z M 4320.417969 302.175781 "/>
<path style=" stroke:none;fill-rule:nonzero;fill:url(#linear60);" d="M 4175.785156 302.175781 L 4214.984375 302.175781 L 4213.632812 290.910156 L 4173.984375 290.910156 Z M 4175.785156 302.175781 "/>
<path style=" stroke:none;fill-rule:nonzero;fill:url(#linear61);" d="M 2337.953125 180.957031 L 2650.191406 180.957031 L 2650.640625 170.144531 L 2338.855469 170.144531 Z M 2337.953125 180.957031 "/>
<path style=" stroke:none;fill-rule:nonzero;fill:url(#linear62);" d="M 3274.667969 170.144531 L 2962.878906 170.144531 L 2962.878906 180.957031 L 3275.117188 180.957031 Z M 3274.667969 170.144531 "/>
<path style=" stroke:none;fill-rule:nonzero;fill:url(#linear63);" d="M 3913.109375 313.441406 L 3911.757812 302.175781 L 3832.460938 302.175781 L 3833.8125 313.441406 Z M 3913.109375 313.441406 "/>
<path style=" stroke:none;fill-rule:nonzero;fill:url(#linear64);" d="M 257.269531 438.265625 L 150.035156 438.265625 L 146.433594 449.980469 L 253.664062 449.980469 Z M 257.269531 438.265625 "/>
<path style=" stroke:none;fill-rule:nonzero;fill:url(#linear65);" d="M 471.285156 438.265625 L 391.085938 438.265625 L 387.933594 449.980469 L 468.132812 449.980469 Z M 471.285156 438.265625 "/>
<path style=" stroke:none;fill-rule:nonzero;fill:url(#linear66);" d="M 712.335938 438.265625 L 632.136719 438.265625 L 628.980469 449.980469 L 709.632812 449.980469 Z M 712.335938 438.265625 "/>
<path style=" stroke:none;fill-rule:nonzero;fill:url(#linear67);" d="M 4889.472656 438.265625 L 4891.726562 449.980469 L 5025.992188 449.980469 L 5023.289062 438.265625 Z M 4889.472656 438.265625 "/>
<path style=" stroke:none;fill-rule:nonzero;fill:url(#linear68);" d="M 5050.324219 438.265625 L 5052.574219 449.980469 L 5213.425781 449.980469 L 5210.722656 438.265625 Z M 5050.324219 438.265625 "/>
<path style=" stroke:none;fill-rule:nonzero;fill:url(#linear69);" d="M 4755.65625 438.265625 L 4648.421875 438.265625 L 4650.675781 449.980469 L 4757.910156 449.980469 Z M 4755.65625 438.265625 "/>
<path style=" stroke:none;fill-rule:nonzero;fill:url(#linear70);" d="M 2318.128906 449.980469 L 2639.828125 449.980469 L 2640.28125 438.265625 L 2319.03125 438.265625 Z M 2318.128906 449.980469 "/>
<path style=" stroke:none;fill-rule:nonzero;fill:url(#linear71);" d="M 2988.113281 650.960938 L 2960.628906 650.960938 L 2960.628906 662.675781 L 2988.113281 662.675781 Z M 2988.113281 650.960938 "/>
<path style=" stroke:none;fill-rule:nonzero;fill:url(#linear72);" d="M 3604.027344 438.265625 L 3604.925781 449.980469 L 3685.578125 449.980469 L 3684.675781 438.265625 Z M 3604.027344 438.265625 "/>
<path style=" stroke:none;fill-rule:nonzero;fill:url(#linear73);" d="M 4256.4375 508.109375 L 4257.789062 519.828125 L 4338.890625 519.828125 L 4337.085938 508.109375 Z M 4256.4375 508.109375 "/>
<path style=" stroke:none;fill-rule:nonzero;fill:rgb(41.960784%,39.607843%,38.431373%);fill-opacity:1;" d="M 3202.578125 865.90625 L 3202.128906 876.269531 L 3281.875 876.269531 L 3282.777344 865.90625 Z M 3202.578125 865.90625 "/>
<path style=" stroke:none;fill-rule:nonzero;fill:rgb(41.960784%,39.607843%,38.431373%);fill-opacity:1;" d="M 1436.382812 865.90625 L 1440.4375 876.269531 L 1467.023438 876.269531 L 1462.96875 865.90625 Z M 1436.382812 865.90625 "/>
<path style=" stroke:none;fill-rule:nonzero;fill:rgb(23.921569%,22.352941%,21.960784%);fill-opacity:1;" d="M 392.4375 865.90625 L 399.644531 876.269531 L 414.964844 818.589844 L 408.207031 808.226562 Z M 392.4375 865.90625 "/>
<path style=" stroke:none;fill-rule:nonzero;fill:rgb(23.921569%,22.352941%,21.960784%);fill-opacity:1;" d="M 5450.417969 865.90625 L 5443.660156 876.269531 L 5428.34375 814.535156 L 5434.648438 804.171875 Z M 5450.417969 865.90625 "/>
</g>
</svg>
