<?xml version="1.0" encoding="UTF-8"?>
<svg id="_레이어_1" data-name="레이어 1" xmlns="http://www.w3.org/2000/svg" xmlns:xlink="http://www.w3.org/1999/xlink" viewBox="0 0 5837.45 999.04">
  <defs>
    <style>
      .cls-1 {
        fill: url(#_무제_그라디언트_9);
      }

      .cls-2 {
        fill: url(#_무제_그라디언트);
      }

      .cls-3 {
        fill: url(#_무제_그라디언트_17);
      }

      .cls-4 {
        fill: url(#_무제_그라디언트_12);
      }

      .cls-5 {
        fill: url(#_무제_그라디언트_38);
      }

      .cls-6 {
        fill: url(#_무제_그라디언트_4);
      }

      .cls-7 {
        fill: #998f8b;
      }

      .cls-8 {
        fill: url(#_무제_그라디언트_42);
      }

      .cls-9 {
        fill: url(#_무제_그라디언트_56);
      }

      .cls-10 {
        fill: url(#_무제_그라디언트_43);
      }

      .cls-11 {
        fill: url(#_무제_그라디언트_10);
      }

      .cls-12 {
        fill: #262423;
      }

      .cls-13 {
        fill: url(#_무제_그라디언트_39);
      }

      .cls-14 {
        fill: url(#_무제_그라디언트_33);
      }

      .cls-15 {
        fill: url(#_무제_그라디언트_59);
      }

      .cls-16 {
        fill: #171615;
      }

      .cls-17 {
        fill: url(#_무제_그라디언트_11);
      }

      .cls-18 {
        fill: url(#_무제_그라디언트_41);
      }

      .cls-19 {
        fill: url(#_무제_그라디언트_28);
      }

      .cls-20 {
        fill: url(#_무제_그라디언트_20);
      }

      .cls-21 {
        fill: url(#_무제_그라디언트_32);
      }

      .cls-22 {
        fill: url(#_무제_그라디언트_35);
      }

      .cls-23 {
        fill: url(#_무제_그라디언트_65);
      }

      .cls-24 {
        fill: url(#_무제_그라디언트_37);
      }

      .cls-25 {
        fill: url(#_무제_그라디언트_2);
      }

      .cls-26 {
        fill: url(#_무제_그라디언트_54);
      }

      .cls-27 {
        fill: url(#_무제_그라디언트_61);
      }

      .cls-28 {
        fill: url(#_무제_그라디언트_49);
      }

      .cls-29 {
        fill: #6b6562;
      }

      .cls-30 {
        fill: url(#_무제_그라디언트_27);
      }

      .cls-31 {
        fill: url(#_무제_그라디언트_36);
      }

      .cls-32 {
        fill: #3d3938;
      }

      .cls-33 {
        fill: url(#_무제_그라디언트_72);
      }

      .cls-34 {
        fill: url(#_무제_그라디언트_34);
      }

      .cls-35 {
        fill: url(#_무제_그라디언트_46);
      }

      .cls-36 {
        fill: url(#_무제_그라디언트_68);
      }

      .cls-37 {
        fill: url(#_무제_그라디언트_15);
      }

      .cls-38 {
        fill: url(#_무제_그라디언트_55);
      }

      .cls-39 {
        fill: url(#_무제_그라디언트_22);
      }

      .cls-40 {
        fill: url(#_무제_그라디언트_8);
      }

      .cls-41 {
        fill: url(#_무제_그라디언트_51);
      }

      .cls-42 {
        fill: url(#_무제_그라디언트_7);
      }

      .cls-43 {
        fill: url(#_무제_그라디언트_62);
      }

      .cls-44 {
        fill: url(#_무제_그라디언트_16);
      }

      .cls-45 {
        fill: url(#_무제_그라디언트_24);
      }

      .cls-46 {
        fill: url(#_무제_그라디언트_47);
      }

      .cls-47 {
        fill: url(#_무제_그라디언트_73);
      }

      .cls-48 {
        fill: url(#_무제_그라디언트_13);
      }

      .cls-49 {
        fill: url(#_무제_그라디언트_58);
      }

      .cls-50 {
        fill: url(#_무제_그라디언트_44);
      }

      .cls-51 {
        fill: url(#_무제_그라디언트_21);
      }

      .cls-52 {
        fill: url(#_무제_그라디언트_70);
      }

      .cls-53 {
        fill: url(#_무제_그라디언트_40);
      }

      .cls-54 {
        fill: url(#_무제_그라디언트_53);
      }

      .cls-55 {
        fill: url(#_무제_그라디언트_23);
      }

      .cls-56 {
        fill: url(#_무제_그라디언트_64);
      }

      .cls-57 {
        fill: url(#_무제_그라디언트_50);
      }

      .cls-58 {
        fill: url(#_무제_그라디언트_30);
      }

      .cls-59 {
        fill: url(#_무제_그라디언트_14);
      }

      .cls-60 {
        fill: url(#_무제_그라디언트_19);
      }

      .cls-61 {
        fill: url(#_무제_그라디언트_3);
      }

      .cls-62 {
        fill: url(#_무제_그라디언트_26);
      }

      .cls-63 {
        fill: url(#_무제_그라디언트_69);
      }

      .cls-64 {
        fill: url(#_무제_그라디언트_74);
      }

      .cls-65 {
        fill: url(#_무제_그라디언트_25);
      }

      .cls-66 {
        fill: url(#_무제_그라디언트_60);
      }

      .cls-67 {
        fill: url(#_무제_그라디언트_66);
      }

      .cls-68 {
        fill: url(#_무제_그라디언트_63);
      }

      .cls-69 {
        fill: url(#_무제_그라디언트_48);
      }

      .cls-70 {
        fill: url(#_무제_그라디언트_5);
      }

      .cls-71 {
        fill: url(#_무제_그라디언트_52);
      }

      .cls-72 {
        fill: url(#_무제_그라디언트_18);
      }

      .cls-73 {
        fill: url(#_무제_그라디언트_31);
      }

      .cls-74 {
        fill: url(#_무제_그라디언트_6);
      }

      .cls-75 {
        fill: url(#_무제_그라디언트_29);
      }

      .cls-76 {
        fill: url(#_무제_그라디언트_45);
      }

      .cls-77 {
        fill: url(#_무제_그라디언트_71);
      }

      .cls-78 {
        fill: url(#_무제_그라디언트_67);
      }

      .cls-79 {
        fill: url(#_무제_그라디언트_57);
      }
    </style>
    <linearGradient id="_무제_그라디언트" data-name="무제 그라디언트" x1="3566.3" y1="866.2" x2="3566.3" y2="1018.61" gradientTransform="translate(-13149.58 -3857.26) scale(4.51)" gradientUnits="userSpaceOnUse">
      <stop offset="0" stop-color="#d0c5c0"/>
      <stop offset=".99" stop-color="#aba09c"/>
    </linearGradient>
    <linearGradient id="_무제_그라디언트_2" data-name="무제 그라디언트 2" x1="3530.8" y1="887.7" x2="3530.8" y2="1017.48" gradientTransform="translate(-13149.58 -3857.26) scale(4.51)" gradientUnits="userSpaceOnUse">
      <stop offset="0" stop-color="#ede5e2"/>
      <stop offset="1" stop-color="#d0c5c0"/>
    </linearGradient>
    <linearGradient id="_무제_그라디언트_3" data-name="무제 그라디언트 3" x1="3243.15" y1="887.7" x2="3243.15" y2="1017.48" gradientTransform="translate(-13149.58 -3857.26) scale(4.51)" gradientUnits="userSpaceOnUse">
      <stop offset="0" stop-color="#ede5e2"/>
      <stop offset="1" stop-color="#d0c5c0"/>
    </linearGradient>
    <linearGradient id="_무제_그라디언트_4" data-name="무제 그라디언트 4" x1="3315.05" y1="887.7" x2="3315.05" y2="1017.48" gradientTransform="translate(-13149.58 -3857.26) scale(4.51)" gradientUnits="userSpaceOnUse">
      <stop offset="0" stop-color="#ede5e2"/>
      <stop offset="1" stop-color="#d0c5c0"/>
    </linearGradient>
    <linearGradient id="_무제_그라디언트_5" data-name="무제 그라디언트 5" x1="4159.95" y1="887.7" x2="4159.95" y2="1017.48" gradientTransform="translate(-13149.58 -3857.26) scale(4.51)" gradientUnits="userSpaceOnUse">
      <stop offset="0" stop-color="#ede5e2"/>
      <stop offset="1" stop-color="#d0c5c0"/>
    </linearGradient>
    <linearGradient id="_무제_그라디언트_6" data-name="무제 그라디언트 6" x1="2959.2" y1="887.7" x2="2959.2" y2="1017.48" gradientTransform="translate(-13149.58 -3857.26) scale(4.51)" gradientUnits="userSpaceOnUse">
      <stop offset="0" stop-color="#ede5e2"/>
      <stop offset="1" stop-color="#d0c5c0"/>
    </linearGradient>
    <linearGradient id="_무제_그라디언트_7" data-name="무제 그라디언트 7" x1="2977.8" y1="887.69" x2="2977.8" y2="1017.48" gradientTransform="translate(-13149.58 -3857.26) scale(4.51)" gradientUnits="userSpaceOnUse">
      <stop offset="0" stop-color="#ede5e2"/>
      <stop offset="1" stop-color="#d0c5c0"/>
    </linearGradient>
    <linearGradient id="_무제_그라디언트_8" data-name="무제 그라디언트 8" x1="2982.45" y1="887.7" x2="2982.45" y2="1017.48" gradientTransform="translate(-13149.58 -3857.26) scale(4.51)" gradientUnits="userSpaceOnUse">
      <stop offset="0" stop-color="#ede5e2"/>
      <stop offset="1" stop-color="#d0c5c0"/>
    </linearGradient>
    <linearGradient id="_무제_그라디언트_9" data-name="무제 그라디언트 9" x1="3032.25" y1="887.7" x2="3032.25" y2="1017.48" gradientTransform="translate(-13149.58 -3857.26) scale(4.51)" gradientUnits="userSpaceOnUse">
      <stop offset="0" stop-color="#ede5e2"/>
      <stop offset="1" stop-color="#d0c5c0"/>
    </linearGradient>
    <linearGradient id="_무제_그라디언트_10" data-name="무제 그라디언트 10" x1="3088" y1="887.7" x2="3088" y2="1017.48" gradientTransform="translate(-13149.58 -3857.26) scale(4.51)" gradientUnits="userSpaceOnUse">
      <stop offset="0" stop-color="#ede5e2"/>
      <stop offset="1" stop-color="#d0c5c0"/>
    </linearGradient>
    <linearGradient id="_무제_그라디언트_11" data-name="무제 그라디언트 11" x1="3162.1" y1="887.7" x2="3162.1" y2="1017.48" gradientTransform="translate(-13149.58 -3857.26) scale(4.51)" gradientUnits="userSpaceOnUse">
      <stop offset="0" stop-color="#ede5e2"/>
      <stop offset="1" stop-color="#d0c5c0"/>
    </linearGradient>
    <linearGradient id="_무제_그라디언트_12" data-name="무제 그라디언트 12" x1="3231.8" y1="887.7" x2="3231.8" y2="1017.48" gradientTransform="translate(-13149.58 -3857.26) scale(4.51)" gradientUnits="userSpaceOnUse">
      <stop offset="0" stop-color="#ede5e2"/>
      <stop offset="1" stop-color="#d0c5c0"/>
    </linearGradient>
    <linearGradient id="_무제_그라디언트_13" data-name="무제 그라디언트 13" x1="3389" y1="887.95" x2="3389" y2="1017.37" gradientTransform="translate(-13149.58 -3857.26) scale(4.51)" gradientUnits="userSpaceOnUse">
      <stop offset="0" stop-color="#ede5e2"/>
      <stop offset="1" stop-color="#d0c5c0"/>
    </linearGradient>
    <linearGradient id="_무제_그라디언트_14" data-name="무제 그라디언트 14" x1="3469.4" y1="887.7" x2="3469.4" y2="1017.48" gradientTransform="translate(-13149.58 -3857.26) scale(4.51)" gradientUnits="userSpaceOnUse">
      <stop offset="0" stop-color="#ede5e2"/>
      <stop offset="1" stop-color="#d0c5c0"/>
    </linearGradient>
    <linearGradient id="_무제_그라디언트_15" data-name="무제 그라디언트 15" x1="3708.2" y1="887.7" x2="3708.2" y2="1017.48" gradientTransform="translate(-13149.58 -3857.26) scale(4.51)" gradientUnits="userSpaceOnUse">
      <stop offset="0" stop-color="#ede5e2"/>
      <stop offset="1" stop-color="#d0c5c0"/>
    </linearGradient>
    <linearGradient id="_무제_그라디언트_16" data-name="무제 그라디언트 16" x1="3747.35" y1="887.7" x2="3747.35" y2="1017.48" gradientTransform="translate(-13149.58 -3857.26) scale(4.51)" gradientUnits="userSpaceOnUse">
      <stop offset="0" stop-color="#ede5e2"/>
      <stop offset="1" stop-color="#d0c5c0"/>
    </linearGradient>
    <linearGradient id="_무제_그라디언트_17" data-name="무제 그라디언트 17" x1="3846.4" y1="887.7" x2="3846.4" y2="1017.48" gradientTransform="translate(-13149.58 -3857.26) scale(4.51)" gradientUnits="userSpaceOnUse">
      <stop offset="0" stop-color="#ede5e2"/>
      <stop offset="1" stop-color="#d0c5c0"/>
    </linearGradient>
    <linearGradient id="_무제_그라디언트_18" data-name="무제 그라디언트 18" x1="3910.8" y1="887.7" x2="3910.8" y2="1017.48" gradientTransform="translate(-13149.58 -3857.26) scale(4.51)" gradientUnits="userSpaceOnUse">
      <stop offset="0" stop-color="#ede5e2"/>
      <stop offset="1" stop-color="#d0c5c0"/>
    </linearGradient>
    <linearGradient id="_무제_그라디언트_19" data-name="무제 그라디언트 19" x1="3830" y1="887.7" x2="3830" y2="1017.48" gradientTransform="translate(-13149.58 -3857.26) scale(4.51)" gradientUnits="userSpaceOnUse">
      <stop offset="0" stop-color="#ede5e2"/>
      <stop offset="1" stop-color="#d0c5c0"/>
    </linearGradient>
    <linearGradient id="_무제_그라디언트_20" data-name="무제 그라디언트 20" x1="3860.7" y1="887.7" x2="3860.7" y2="1017.48" gradientTransform="translate(-13149.58 -3857.26) scale(4.51)" gradientUnits="userSpaceOnUse">
      <stop offset="0" stop-color="#ede5e2"/>
      <stop offset="1" stop-color="#d0c5c0"/>
    </linearGradient>
    <linearGradient id="_무제_그라디언트_21" data-name="무제 그라디언트 21" x1="3915.9" y1="887.7" x2="3915.9" y2="1017.48" gradientTransform="translate(-13149.58 -3857.26) scale(4.51)" gradientUnits="userSpaceOnUse">
      <stop offset="0" stop-color="#ede5e2"/>
      <stop offset="1" stop-color="#d0c5c0"/>
    </linearGradient>
    <linearGradient id="_무제_그라디언트_22" data-name="무제 그라디언트 22" x1="3989.45" y1="887.7" x2="3989.45" y2="1017.48" gradientTransform="translate(-13149.58 -3857.26) scale(4.51)" gradientUnits="userSpaceOnUse">
      <stop offset="0" stop-color="#ede5e2"/>
      <stop offset="1" stop-color="#d0c5c0"/>
    </linearGradient>
    <linearGradient id="_무제_그라디언트_23" data-name="무제 그라디언트 23" x1="4173.4" y1="887.7" x2="4173.4" y2="1017.48" gradientTransform="translate(-13149.58 -3857.26) scale(4.51)" gradientUnits="userSpaceOnUse">
      <stop offset="0" stop-color="#ede5e2"/>
      <stop offset="1" stop-color="#d0c5c0"/>
    </linearGradient>
    <linearGradient id="_무제_그라디언트_24" data-name="무제 그라디언트 24" x1="3682.85" y1="887.7" x2="3682.85" y2="1017.48" gradientTransform="translate(-13149.58 -3857.26) scale(4.51)" gradientUnits="userSpaceOnUse">
      <stop offset="0" stop-color="#ede5e2"/>
      <stop offset="1" stop-color="#d0c5c0"/>
    </linearGradient>
    <linearGradient id="_무제_그라디언트_25" data-name="무제 그라디언트 25" x1="3713.5" y1="887.69" x2="3713.5" y2="1017.48" gradientTransform="translate(-13149.58 -3857.26) scale(4.51)" gradientUnits="userSpaceOnUse">
      <stop offset="0" stop-color="#ede5e2"/>
      <stop offset="1" stop-color="#d0c5c0"/>
    </linearGradient>
    <linearGradient id="_무제_그라디언트_26" data-name="무제 그라디언트 26" x1="3547.9" y1="887.7" x2="3547.9" y2="1017.48" gradientTransform="translate(-13149.58 -3857.26) scale(4.51)" gradientUnits="userSpaceOnUse">
      <stop offset="0" stop-color="#ede5e2"/>
      <stop offset="1" stop-color="#d0c5c0"/>
    </linearGradient>
    <linearGradient id="_무제_그라디언트_27" data-name="무제 그라디언트 27" x1="3615.45" y1="887.7" x2="3615.45" y2="1017.48" gradientTransform="translate(-13149.58 -3857.26) scale(4.51)" gradientUnits="userSpaceOnUse">
      <stop offset="0" stop-color="#ede5e2"/>
      <stop offset="1" stop-color="#d0c5c0"/>
    </linearGradient>
    <linearGradient id="_무제_그라디언트_28" data-name="무제 그라디언트 28" x1="3768.7" y1="887.7" x2="3768.7" y2="1017.48" gradientTransform="translate(-13149.58 -3857.26) scale(4.51)" gradientUnits="userSpaceOnUse">
      <stop offset="0" stop-color="#ede5e2"/>
      <stop offset="1" stop-color="#d0c5c0"/>
    </linearGradient>
    <linearGradient id="_무제_그라디언트_29" data-name="무제 그라디언트 29" x1="3382.35" y1="887.7" x2="3382.35" y2="1017.48" gradientTransform="translate(-13149.58 -3857.26) scale(4.51)" gradientUnits="userSpaceOnUse">
      <stop offset="0" stop-color="#ede5e2"/>
      <stop offset="1" stop-color="#d0c5c0"/>
    </linearGradient>
    <linearGradient id="_무제_그라디언트_30" data-name="무제 그라디언트 30" x1="3428.35" y1="887.7" x2="3428.35" y2="1017.48" gradientTransform="translate(-13149.58 -3857.26) scale(4.51)" gradientUnits="userSpaceOnUse">
      <stop offset="0" stop-color="#ede5e2"/>
      <stop offset="1" stop-color="#d0c5c0"/>
    </linearGradient>
    <linearGradient id="_무제_그라디언트_31" data-name="무제 그라디언트 31" x1="3483.55" y1="887.7" x2="3483.55" y2="1017.48" gradientTransform="translate(-13149.58 -3857.26) scale(4.51)" gradientUnits="userSpaceOnUse">
      <stop offset="0" stop-color="#ede5e2"/>
      <stop offset="1" stop-color="#d0c5c0"/>
    </linearGradient>
    <linearGradient id="_무제_그라디언트_32" data-name="무제 그라디언트 32" x1="3314.9" y1="887.7" x2="3314.9" y2="1017.48" gradientTransform="translate(-13149.58 -3857.26) scale(4.51)" gradientUnits="userSpaceOnUse">
      <stop offset="0" stop-color="#ede5e2"/>
      <stop offset="1" stop-color="#d0c5c0"/>
    </linearGradient>
    <linearGradient id="_무제_그라디언트_33" data-name="무제 그라디언트 33" x1="3345.55" y1="887.7" x2="3345.55" y2="1017.48" gradientTransform="translate(-13149.58 -3857.26) scale(4.51)" gradientUnits="userSpaceOnUse">
      <stop offset="0" stop-color="#ede5e2"/>
      <stop offset="1" stop-color="#d0c5c0"/>
    </linearGradient>
    <linearGradient id="_무제_그라디언트_34" data-name="무제 그라디언트 34" x1="3216.75" y1="887.7" x2="3216.75" y2="1017.48" gradientTransform="translate(-13149.58 -3857.26) scale(4.51)" gradientUnits="userSpaceOnUse">
      <stop offset="0" stop-color="#ede5e2"/>
      <stop offset="1" stop-color="#d0c5c0"/>
    </linearGradient>
    <linearGradient id="_무제_그라디언트_35" data-name="무제 그라디언트 35" x1="3247.45" y1="887.7" x2="3247.45" y2="1017.48" gradientTransform="translate(-13149.58 -3857.26) scale(4.51)" gradientUnits="userSpaceOnUse">
      <stop offset="0" stop-color="#ede5e2"/>
      <stop offset="1" stop-color="#d0c5c0"/>
    </linearGradient>
    <linearGradient id="_무제_그라디언트_36" data-name="무제 그라디언트 36" x1="3143.2" y1="887.7" x2="3143.2" y2="1017.48" gradientTransform="translate(-13149.58 -3857.26) scale(4.51)" gradientUnits="userSpaceOnUse">
      <stop offset="0" stop-color="#ede5e2"/>
      <stop offset="1" stop-color="#d0c5c0"/>
    </linearGradient>
    <linearGradient id="_무제_그라디언트_37" data-name="무제 그라디언트 37" x1="3173.9" y1="887.7" x2="3173.9" y2="1017.48" gradientTransform="translate(-13149.58 -3857.26) scale(4.51)" gradientUnits="userSpaceOnUse">
      <stop offset="0" stop-color="#ede5e2"/>
      <stop offset="1" stop-color="#d0c5c0"/>
    </linearGradient>
    <linearGradient id="_무제_그라디언트_38" data-name="무제 그라디언트 38" x1="3814.9" y1="887.95" x2="3814.9" y2="1017.08" gradientTransform="translate(-13149.58 -3857.26) scale(4.51)" gradientUnits="userSpaceOnUse">
      <stop offset="0" stop-color="#ede5e2"/>
      <stop offset="1" stop-color="#d0c5c0"/>
    </linearGradient>
    <linearGradient id="_무제_그라디언트_39" data-name="무제 그라디언트 39" x1="3283.7" y1="887.7" x2="3283.7" y2="1017.48" gradientTransform="translate(-13149.58 -3857.26) scale(4.51)" gradientUnits="userSpaceOnUse">
      <stop offset="0" stop-color="#ede5e2"/>
      <stop offset="1" stop-color="#d0c5c0"/>
    </linearGradient>
    <linearGradient id="_무제_그라디언트_40" data-name="무제 그라디언트 40" x1="2997.35" y1="887.7" x2="2997.35" y2="1017.48" gradientTransform="translate(-13149.58 -3857.26) scale(4.51)" gradientUnits="userSpaceOnUse">
      <stop offset="0" stop-color="#ede5e2"/>
      <stop offset="1" stop-color="#d0c5c0"/>
    </linearGradient>
    <linearGradient id="_무제_그라디언트_41" data-name="무제 그라디언트 41" x1="3103.9" y1="887.7" x2="3103.9" y2="1017.48" gradientTransform="translate(-13149.58 -3857.26) scale(4.51)" gradientUnits="userSpaceOnUse">
      <stop offset="0" stop-color="#ede5e2"/>
      <stop offset="1" stop-color="#d0c5c0"/>
    </linearGradient>
    <linearGradient id="_무제_그라디언트_42" data-name="무제 그라디언트 42" x1="3123.1" y1="887.7" x2="3123.1" y2="1017.48" gradientTransform="translate(-13149.58 -3857.26) scale(4.51)" gradientUnits="userSpaceOnUse">
      <stop offset="0" stop-color="#ede5e2"/>
      <stop offset="1" stop-color="#d0c5c0"/>
    </linearGradient>
    <linearGradient id="_무제_그라디언트_43" data-name="무제 그라디언트 43" x1="3085.05" y1="887.7" x2="3085.05" y2="1017.48" gradientTransform="translate(-13149.58 -3857.26) scale(4.51)" gradientUnits="userSpaceOnUse">
      <stop offset="0" stop-color="#ede5e2"/>
      <stop offset="1" stop-color="#d0c5c0"/>
    </linearGradient>
    <linearGradient id="_무제_그라디언트_44" data-name="무제 그라디언트 44" x1="3201.75" y1="887.7" x2="3201.75" y2="1017.48" gradientTransform="translate(-13149.58 -3857.26) scale(4.51)" gradientUnits="userSpaceOnUse">
      <stop offset="0" stop-color="#ede5e2"/>
      <stop offset="1" stop-color="#d0c5c0"/>
    </linearGradient>
    <linearGradient id="_무제_그라디언트_45" data-name="무제 그라디언트 45" x1="3273.8" y1="887.7" x2="3273.8" y2="1017.48" gradientTransform="translate(-13149.58 -3857.26) scale(4.51)" gradientUnits="userSpaceOnUse">
      <stop offset="0" stop-color="#ede5e2"/>
      <stop offset="1" stop-color="#d0c5c0"/>
    </linearGradient>
    <linearGradient id="_무제_그라디언트_46" data-name="무제 그라디언트 46" x1="3342.85" y1="887.7" x2="3342.85" y2="1017.48" gradientTransform="translate(-13149.58 -3857.26) scale(4.51)" gradientUnits="userSpaceOnUse">
      <stop offset="0" stop-color="#ede5e2"/>
      <stop offset="1" stop-color="#d0c5c0"/>
    </linearGradient>
    <linearGradient id="_무제_그라디언트_47" data-name="무제 그라디언트 47" x1="3393.3" y1="887.7" x2="3393.3" y2="1017.48" gradientTransform="translate(-13149.58 -3857.26) scale(4.51)" gradientUnits="userSpaceOnUse">
      <stop offset="0" stop-color="#ede5e2"/>
      <stop offset="1" stop-color="#d0c5c0"/>
    </linearGradient>
    <linearGradient id="_무제_그라디언트_48" data-name="무제 그라디언트 48" x1="3549.8" y1="887.7" x2="3549.8" y2="1017.48" gradientTransform="translate(-13149.58 -3857.26) scale(4.51)" gradientUnits="userSpaceOnUse">
      <stop offset="0" stop-color="#ede5e2"/>
      <stop offset="1" stop-color="#d0c5c0"/>
    </linearGradient>
    <linearGradient id="_무제_그라디언트_49" data-name="무제 그라디언트 49" x1="3671.75" y1="887.7" x2="3671.75" y2="1017.48" gradientTransform="translate(-13149.58 -3857.26) scale(4.51)" gradientUnits="userSpaceOnUse">
      <stop offset="0" stop-color="#ede5e2"/>
      <stop offset="1" stop-color="#d0c5c0"/>
    </linearGradient>
    <linearGradient id="_무제_그라디언트_50" data-name="무제 그라디언트 50" x1="3723.25" y1="887.7" x2="3723.25" y2="1017.48" gradientTransform="translate(-13149.58 -3857.26) scale(4.51)" gradientUnits="userSpaceOnUse">
      <stop offset="0" stop-color="#ede5e2"/>
      <stop offset="1" stop-color="#d0c5c0"/>
    </linearGradient>
    <linearGradient id="_무제_그라디언트_51" data-name="무제 그라디언트 51" x1="4095.55" y1="887.7" x2="4095.55" y2="1017.48" gradientTransform="translate(-13149.58 -3857.26) scale(4.51)" gradientUnits="userSpaceOnUse">
      <stop offset="0" stop-color="#ede5e2"/>
      <stop offset="1" stop-color="#d0c5c0"/>
    </linearGradient>
    <linearGradient id="_무제_그라디언트_52" data-name="무제 그라디언트 52" x1="4185" y1="887.7" x2="4185" y2="1017.48" gradientTransform="translate(-13149.58 -3857.26) scale(4.51)" gradientUnits="userSpaceOnUse">
      <stop offset="0" stop-color="#ede5e2"/>
      <stop offset="1" stop-color="#d0c5c0"/>
    </linearGradient>
    <linearGradient id="_무제_그라디언트_53" data-name="무제 그라디언트 53" x1="4007.75" y1="887.65" x2="4007.75" y2="1016.84" gradientTransform="translate(-13149.58 -3857.26) scale(4.51)" gradientUnits="userSpaceOnUse">
      <stop offset="0" stop-color="#ede5e2"/>
      <stop offset="1" stop-color="#d0c5c0"/>
    </linearGradient>
    <linearGradient id="_무제_그라디언트_54" data-name="무제 그라디언트 54" x1="4006.1" y1="887.7" x2="4006.1" y2="1017.47" gradientTransform="translate(-13149.58 -3857.26) scale(4.51)" gradientUnits="userSpaceOnUse">
      <stop offset="0" stop-color="#ede5e2"/>
      <stop offset="1" stop-color="#d0c5c0"/>
    </linearGradient>
    <linearGradient id="_무제_그라디언트_55" data-name="무제 그라디언트 55" x1="4043.6" y1="887.7" x2="4043.6" y2="1017.48" gradientTransform="translate(-13149.58 -3857.26) scale(4.51)" gradientUnits="userSpaceOnUse">
      <stop offset="0" stop-color="#ede5e2"/>
      <stop offset="1" stop-color="#d0c5c0"/>
    </linearGradient>
    <linearGradient id="_무제_그라디언트_56" data-name="무제 그라디언트 56" x1="3692.8" y1="887.83" x2="3692.8" y2="1017.04" gradientTransform="translate(-13149.58 -3857.26) scale(4.51)" gradientUnits="userSpaceOnUse">
      <stop offset="0" stop-color="#ede5e2"/>
      <stop offset="1" stop-color="#d0c5c0"/>
    </linearGradient>
    <linearGradient id="_무제_그라디언트_57" data-name="무제 그라디언트 57" x1="3841.6" y1="887.7" x2="3841.6" y2="1017.47" gradientTransform="translate(-13149.58 -3857.26) scale(4.51)" gradientUnits="userSpaceOnUse">
      <stop offset="0" stop-color="#ede5e2"/>
      <stop offset="1" stop-color="#d0c5c0"/>
    </linearGradient>
    <linearGradient id="_무제_그라디언트_58" data-name="무제 그라디언트 58" x1="3864.2" y1="887.7" x2="3864.2" y2="1017.47" gradientTransform="translate(-13149.58 -3857.26) scale(4.51)" gradientUnits="userSpaceOnUse">
      <stop offset="0" stop-color="#ede5e2"/>
      <stop offset="1" stop-color="#d0c5c0"/>
    </linearGradient>
    <linearGradient id="_무제_그라디언트_59" data-name="무제 그라디언트 59" x1="3882" y1="887.7" x2="3882" y2="1017.47" gradientTransform="translate(-13149.58 -3857.26) scale(4.51)" gradientUnits="userSpaceOnUse">
      <stop offset="0" stop-color="#ede5e2"/>
      <stop offset="1" stop-color="#d0c5c0"/>
    </linearGradient>
    <linearGradient id="_무제_그라디언트_60" data-name="무제 그라디언트 60" x1="3881.65" y1="887.7" x2="3881.65" y2="1017.48" gradientTransform="translate(-13149.58 -3857.26) scale(4.51)" gradientUnits="userSpaceOnUse">
      <stop offset="0" stop-color="#ede5e2"/>
      <stop offset="1" stop-color="#d0c5c0"/>
    </linearGradient>
    <linearGradient id="_무제_그라디언트_61" data-name="무제 그라디언트 61" x1="3849.45" y1="887.7" x2="3849.45" y2="1017.48" gradientTransform="translate(-13149.58 -3857.26) scale(4.51)" gradientUnits="userSpaceOnUse">
      <stop offset="0" stop-color="#ede5e2"/>
      <stop offset="1" stop-color="#d0c5c0"/>
    </linearGradient>
    <linearGradient id="_무제_그라디언트_62" data-name="무제 그라디언트 62" x1="3472.1" y1="887.7" x2="3472.1" y2="1017.48" gradientTransform="translate(-13149.58 -3857.26) scale(4.51)" gradientUnits="userSpaceOnUse">
      <stop offset="0" stop-color="#ede5e2"/>
      <stop offset="1" stop-color="#d0c5c0"/>
    </linearGradient>
    <linearGradient id="_무제_그라디언트_63" data-name="무제 그라디언트 63" x1="3610.75" y1="887.7" x2="3610.75" y2="1017.48" gradientTransform="translate(-13149.58 -3857.26) scale(4.51)" gradientUnits="userSpaceOnUse">
      <stop offset="0" stop-color="#ede5e2"/>
      <stop offset="1" stop-color="#d0c5c0"/>
    </linearGradient>
    <linearGradient id="_무제_그라디언트_64" data-name="무제 그라디언트 64" x1="3778.05" y1="887.7" x2="3778.05" y2="1017.48" gradientTransform="translate(-13149.58 -3857.26) scale(4.51)" gradientUnits="userSpaceOnUse">
      <stop offset="0" stop-color="#ede5e2"/>
      <stop offset="1" stop-color="#d0c5c0"/>
    </linearGradient>
    <linearGradient id="_무제_그라디언트_65" data-name="무제 그라디언트 65" x1="2963.3" y1="887.7" x2="2963.3" y2="1017.48" gradientTransform="translate(-13149.58 -3857.26) scale(4.51)" gradientUnits="userSpaceOnUse">
      <stop offset="0" stop-color="#ede5e2"/>
      <stop offset="1" stop-color="#d0c5c0"/>
    </linearGradient>
    <linearGradient id="_무제_그라디언트_66" data-name="무제 그라디언트 66" x1="3013.85" y1="887.7" x2="3013.85" y2="1017.48" gradientTransform="translate(-13149.58 -3857.26) scale(4.51)" gradientUnits="userSpaceOnUse">
      <stop offset="0" stop-color="#ede5e2"/>
      <stop offset="1" stop-color="#d0c5c0"/>
    </linearGradient>
    <linearGradient id="_무제_그라디언트_67" data-name="무제 그라디언트 67" x1="3067.35" y1="887.7" x2="3067.35" y2="1017.48" gradientTransform="translate(-13149.58 -3857.26) scale(4.51)" gradientUnits="userSpaceOnUse">
      <stop offset="0" stop-color="#ede5e2"/>
      <stop offset="1" stop-color="#d0c5c0"/>
    </linearGradient>
    <linearGradient id="_무제_그라디언트_68" data-name="무제 그라디언트 68" x1="4018.85" y1="887.7" x2="4018.85" y2="1017.48" gradientTransform="translate(-13149.58 -3857.26) scale(4.51)" gradientUnits="userSpaceOnUse">
      <stop offset="0" stop-color="#ede5e2"/>
      <stop offset="1" stop-color="#d0c5c0"/>
    </linearGradient>
    <linearGradient id="_무제_그라디언트_69" data-name="무제 그라디언트 69" x1="4057.5" y1="887.7" x2="4057.5" y2="1017.48" gradientTransform="translate(-13149.58 -3857.26) scale(4.51)" gradientUnits="userSpaceOnUse">
      <stop offset="0" stop-color="#ede5e2"/>
      <stop offset="1" stop-color="#d0c5c0"/>
    </linearGradient>
    <linearGradient id="_무제_그라디언트_70" data-name="무제 그라디언트 70" x1="3962.35" y1="887.7" x2="3962.35" y2="1017.48" gradientTransform="translate(-13149.58 -3857.26) scale(4.51)" gradientUnits="userSpaceOnUse">
      <stop offset="0" stop-color="#ede5e2"/>
      <stop offset="1" stop-color="#d0c5c0"/>
    </linearGradient>
    <linearGradient id="_무제_그라디언트_71" data-name="무제 그라디언트 71" x1="3468.75" y1="887.7" x2="3468.75" y2="1017.48" gradientTransform="translate(-13149.58 -3857.26) scale(4.51)" gradientUnits="userSpaceOnUse">
      <stop offset="0" stop-color="#ede5e2"/>
      <stop offset="1" stop-color="#d0c5c0"/>
    </linearGradient>
    <linearGradient id="_무제_그라디언트_72" data-name="무제 그라디언트 72" x1="3578.65" y1="887.7" x2="3578.65" y2="1017.48" gradientTransform="translate(-13149.58 -3857.26) scale(4.51)" gradientUnits="userSpaceOnUse">
      <stop offset="0" stop-color="#ede5e2"/>
      <stop offset="1" stop-color="#d0c5c0"/>
    </linearGradient>
    <linearGradient id="_무제_그라디언트_73" data-name="무제 그라디언트 73" x1="3727.45" y1="887.7" x2="3727.45" y2="1017.48" gradientTransform="translate(-13149.58 -3857.26) scale(4.51)" gradientUnits="userSpaceOnUse">
      <stop offset="0" stop-color="#ede5e2"/>
      <stop offset="1" stop-color="#d0c5c0"/>
    </linearGradient>
    <linearGradient id="_무제_그라디언트_74" data-name="무제 그라디언트 74" x1="3872.35" y1="887.7" x2="3872.35" y2="1017.48" gradientTransform="translate(-13149.58 -3857.26) scale(4.51)" gradientUnits="userSpaceOnUse">
      <stop offset="0" stop-color="#ede5e2"/>
      <stop offset="1" stop-color="#d0c5c0"/>
    </linearGradient>
  </defs>
  <g id="surface1">
    <path d="m5724.36,361.85l104.98-174.39L5771.22,0H1759.43l-18.92,136.99L1703.57,0h-934.91l-31.99,128.88h-77.95l-18.47,71.2L537.07,0H232.04L0,745.33l185.18,253.7h304.13l37.39-140.6h123l82.45,140.6h939.42l22.53-163.13,51.81,163.13h3138.15l127.06-263.16h114.89l106.79-209.09,113.99,472.25h315.84l174.82-254.15-113.09-383.03Zm-2711.02,177.09l.45-89.22h269.89l2.7,89.22h-273.04Z"/>
    <path class="cls-32" d="m1218.31,735.87h-248.71l106.33,211.79h235.64l-93.27-211.79Z"/>
    <path class="cls-32" d="m1301.21,735.87l89.21,211.79h235.64l-75.7-211.79h-249.16Z"/>
    <path class="cls-32" d="m2047.79,735.87l50.01,211.79h550.13l-19.37-211.79h-580.77Z"/>
    <path class="cls-32" d="m3292.24,735.87l-15.32,211.79h-550.14l-15.32-211.79h580.77Z"/>
    <path class="cls-32" d="m3375.14,735.87h248.71l-32.44,211.79h-236.09l19.82-211.79Z"/>
    <path class="cls-32" d="m3706.75,735.87l-36.95,211.79h235.64l50.02-211.79h-248.71Z"/>
    <path class="cls-32" d="m4038.37,735.87l-54.07,211.79h235.64l67.59-211.79h-249.16Z"/>
    <path class="cls-32" d="m4370.43,735.87l-71.64,211.79h235.64l84.7-211.79h-248.71Z"/>
    <path class="cls-32" d="m4702.04,735.87l-89.21,211.79h236.09l101.83-211.79h-248.71Z"/>
    <path class="cls-32" d="m5531.52,735.87l-132.46,211.79h235.64l145.53-211.79h-248.71Z"/>
    <path class="cls-32" d="m1716.18,735.87l67.14,211.79h236.09l-54.52-211.79h-248.71Z"/>
    <path class="cls-32" d="m637.99,735.87h248.71l110.84,211.79h-236.09l-123.45-211.79Z"/>
    <path class="cls-32" d="m211.31,947.66l-154.09-211.79h248.71l141.03,211.79h-235.64Z"/>
    <path class="cls-2" d="m709.63,449.72h-80.65l-36.5,140.59h-163.1l38.75-140.59h-80.2l-81.55,286.15H57.67L270.79,51.82h230.69l-36.5,128.88h77.95l-36.5,132.48h158.14l34.24-132.48h77.95l31.99-128.88h230.69l-153.19,684.05h-248.71l72.09-286.15ZM1116.94,51.82h230.69l-129.31,684.05h-248.71L1116.94,51.82Zm999.79,0h538.42l-4.96,128.88h-312.24l-9.91,132.48h316.74l-5.41,136.54h-321.7l-10.36,140.59h326.66l-5.86,145.55h-580.32l68.94-684.05Zm615.91,0h538.42l4.05,128.88h-312.24l-1.8,410.07h326.66l4.5,145.55h-580.77l21.18-684.5Zm952.93,397.9h-80.65l18.93,286.15h-248.71l-27.03-684.05h538.42l26.13,261.36h-79.3l6.31,67.59h80.2l36.05,355.09h-248.71l-21.62-286.15Zm-98.22-269.02l8.56,132.48h79.3l-9.91-132.48h-77.95Zm991.68-128.88h538.42l31.09,128.88h-312.23l27.48,132.48h316.74l32.89,136.54h-321.7l59.02,286.15h-248.71l-123-684.05Zm804.25,128.88h-156.34l-32.44-128.88h538.42l40.1,128.88h-156.34l163.1,555.62h-248.71l-147.79-555.62Zm-3637.82,338.87h-81.1l20.27-138.79h-79.75l-54.52,355.09h-248.71l123-684.05h230.69l-19.82,128.88h77.95l-19.37,132.48h79.3l35.59-261.36h230.69l-74.79,684.05h-248.71l29.29-216.3ZM4501.99,51.82h-538.42l75.24,684.05h248.71l-29.29-216.3h81.1l31.54,216.3h248.71l-117.59-684.05Zm-181.57,250.1h39.65l18.92,124.82h-53.62l-6.76-45.52h-79.75l6.31,45.52h-53.62l-15.77-124.82h39.65l-4.51-33.35h-91.91l-10.81-87.87h104.08l10.36,77.06h78.85l-11.26-77.06h104.08l13.97,87.87h-91.92l4.06,33.35Z"/>
    <path class="cls-7" d="m1109.73,590.77l-29.29,145.1h-27.93l30.19-145.1h27.03Z"/>
    <path class="cls-7" d="m4195.16,662.42l9.46,73.45h-27.93l-9.01-73.45h27.48Z"/>
    <path class="cls-12" d="m1080.44,735.87l31.09,65.79h-27.04l-31.99-65.79h27.93Z"/>
    <path class="cls-7" d="m1424.22,662.42l-12.16,73.45h-27.93l12.61-73.45h27.48Z"/>
    <path class="cls-12" d="m1881.99,735.87l18.47,65.79h-27.48l-18.47-65.79h27.48Z"/>
    <path class="cls-12" d="m2158.63,735.87l27.03,129.78h-27.03l-27.94-129.78h27.94Z"/>
    <path class="cls-12" d="m392.44,865.65l-13.97-21.18h-80.65l14.42,21.18h80.2Z"/>
    <path class="cls-12" d="m4737.18,844.47h-80.65l-9.01,21.18h80.2l9.46-21.18Z"/>
    <path class="cls-12" d="m3768.48,844.47h-80.65l-3.61,21.18h80.2l4.05-21.18Z"/>
    <path class="cls-12" d="m2444.29,801.66h27.04l-8.56-65.79h-27.93l9.46,65.79Z"/>
    <path class="cls-12" d="m5450.42,865.65l13.07-21.18h80.65l-13.52,21.18h-80.2Z"/>
    <path class="cls-12" d="m954.73,865.65l-11.26-21.18h-80.65l11.27,21.18h80.65Z"/>
    <path class="cls-7" d="m4082.07,403.76l-2.7-22.98h-79.75l2.25,22.98h80.2Z"/>
    <path class="cls-7" d="m854.71,290.65l31.09-132.03h-103.63l-5.41,22.08h77.95l-26.58,109.95h-158.15l-5.41,22.53h316.75l4.95-22.53h-131.56Z"/>
    <path class="cls-7" d="m5604.96,51.82h-25.68l37.84,128.88h26.13l-38.3-128.88Z"/>
    <path class="cls-7" d="m5022.39,313.18h-26.58l30.19,136.54h26.58l-30.19-136.54Z"/>
    <path class="cls-7" d="m3614.39,590.77l-1.8-23.88h-108.58l9.01,168.98h27.94l-8.56-145.1h82Z"/>
    <path class="cls-7" d="m237,158.62h233.84l-6.31,22.08h-234.29l6.76-22.08Z"/>
    <path class="cls-7" d="m1335.91,543l4.5-23.43h242.85l-3.61,23.43h-243.75Z"/>
    <path class="cls-7" d="m5479.71,543l-6.31-23.43h243.3l6.76,23.43h-243.75Z"/>
    <path class="cls-7" d="m4352.86,614.65l-3.6-23.88h245.1l4.05,23.88h-245.55Z"/>
    <path class="cls-7" d="m1907.67,519.57h-162.2l-3.16,23.43h135.62l-23.43,192.87h27.48l25.68-216.3Z"/>
    <path class="cls-7" d="m3516.62,313.18l-1.35-22.53h-52.71l-12.16-238.83h-25.68l8.56,172.59h-78.4l.9,22.08h78.39l3.16,66.69h79.3Z"/>
    <path class="cls-7" d="m3516.62,313.18l-1.35-22.53h-52.71l-12.16-238.83h-25.68l8.56,172.59h-78.4l.9,22.08h78.39l3.16,66.69h79.3Z"/>
    <path class="cls-7" d="m347.38,590.77l6.76-23.88h-135.62l35.14-117.16h-107.23l-7.21,23.43h80.65l-57.67,189.26h164.9l6.76-23.88h-136.97l14.42-47.77h136.07Z"/>
    <path class="cls-7" d="m4992.65,180.7l-19.38-86.52h-128.86l-9.01-42.36h-25.68l13.07,63.99h129.31l14.42,64.89h26.13Z"/>
    <path class="cls-7" d="m2099.61,224.41h78.39l-2.25,22.08h-78.4l2.25-22.08Z"/>
    <path class="cls-7" d="m2064.91,566.89l-2.25,23.88h81.55l-13.52,145.1h27.94l14.87-168.98h-108.59Z"/>
    <path class="cls-7" d="m1638.68,158.62h-77.5l-3.6,22.08h77.95l3.15-22.08Z"/>
    <path class="cls-7" d="m2028.42,158.62h-233.84l-3.15,22.08h234.29l2.7-22.08Z"/>
    <path class="cls-12" d="m4204.62,735.87h-27.93l-37.85,129.78h27.04l38.75-129.78Z"/>
    <path class="cls-7" d="m3694.14,566.89l1.8,23.88h81.55l-1.8-23.88h-81.55Z"/>
    <path class="cls-7" d="m2726.34,246.49l-.45,22.08h78.85l-5.86,251h-80.65l-.9,23.43h108.59l4.96-274.43h131.56v-22.08h-236.09Z"/>
    <path class="cls-7" d="m4784.94,590.77l-27.03-141.05h-107.23l4.05,23.43h80.65l22.08,117.61h27.48Z"/>
    <path class="cls-7" d="m2988.11,735.87h-27.94l.45-61.29h27.48v61.29Z"/>
    <path class="cls-12" d="m2988.11,801.66h-27.04l-.9-65.79h27.94v65.79Z"/>
    <path class="cls-12" d="m3531.94,801.66h-27.04l8.11-65.79h27.94l-9.01,65.79Z"/>
    <path class="cls-7" d="m1223.27,158.62l-17.57,87.87h26.58l13.07-65.79h77.95l4.05-22.08h-104.08Z"/>
    <path class="cls-7" d="m2525.39,590.77l-2.7,47.77h-82l-5.86,97.34h27.93l4.05-73.45h82.45l3.16-71.65h-27.04Z"/>
    <path class="cls-12" d="m3283.68,855.29l.45-10.82h-80.65l-.45,10.82h80.65Z"/>
    <path class="cls-12" d="m1412.05,735.87l50.91,129.78h-26.59l-52.26-129.78h27.93Z"/>
    <path class="cls-29" d="m253.66,449.72l-3.6,11.71h-107.23l3.61-11.71h107.23Z"/>
    <path class="cls-29" d="m218.52,566.89l9.91,11.71h122.55l3.16-11.71h-135.62Z"/>
    <path class="cls-29" d="m196.89,638.54l10.36,12.17h123l3.6-12.17h-136.97Z"/>
    <path class="cls-29" d="m237,158.62h233.84l-3.16,11.27h-233.84l3.16-11.27Z"/>
    <path class="cls-29" d="m782.17,158.62l-2.7,11.27h104.08l2.25-11.27h-103.63Z"/>
    <path class="cls-29" d="m854.71,180.7l10.36,10.82-26.58,110.4h-171.21l2.7-11.27h158.15l26.58-109.95Z"/>
    <path class="cls-29" d="m854.71,290.65l10.36,11.27h118.95l2.25-11.27h-131.56Z"/>
    <path class="cls-29" d="m219.88,473.16l9.91,11.27-53.62,178h-13.96l57.67-189.26Z"/>
    <path class="cls-29" d="m1205.7,246.49h13.52l15.32-76.61h90.56l2.25-11.27h-104.08l-17.57,87.87Z"/>
    <path class="cls-29" d="m1109.73,590.77l-2.25,11.71h-13.52l-27.48,133.39h-13.97l30.19-145.1h27.03Z"/>
    <path class="cls-29" d="m1557.59,180.7h12.61l1.8-10.81h65.33l1.35-11.27h-77.5l-3.6,22.08Z"/>
    <path class="cls-29" d="m1794.58,158.62h233.84l-1.35,11.27h-233.84l1.35-11.27Z"/>
    <path class="cls-29" d="m1340.41,519.57h242.85l-1.8,11.71h-243.3l2.25-11.71Z"/>
    <path class="cls-29" d="m1424.22,662.42h-27.48l-12.61,73.45h13.96l10.36-61.29h13.97l1.8-12.17Z"/>
    <path class="cls-29" d="m1745.47,519.57l-1.35,11.71h162.2l1.35-11.71h-162.2Z"/>
    <path class="cls-29" d="m1877.93,543l12.16,12.16-22.08,180.7h-13.52l23.43-192.87Z"/>
    <path class="cls-29" d="m2099.61,224.41l-1.35,10.82h78.85l.9-10.82h-78.39Z"/>
    <path class="cls-29" d="m2064.91,566.89l-1.35,11.71h109.04l.9-11.71h-108.59Z"/>
    <path class="cls-29" d="m2144.21,590.77l12.61,11.71-12.16,133.39h-13.97l13.52-145.1Z"/>
    <path class="cls-29" d="m2538.9,590.77h-13.52l-2.7,47.77h-82l-5.86,97.34h13.97l4.95-85.17h82l3.15-59.93Z"/>
    <path class="cls-29" d="m2725.89,257.3h236.54v-10.81h-236.09l-.45,10.81Z"/>
    <path class="cls-29" d="m2804.73,268.57l12.61,11.27-4.95,251.45h-94.62l.45-11.71h80.65l5.86-251Z"/>
    <path class="cls-29" d="m3433.27,224.41h-78.4l.45,10.82h65.33l12.62-10.82Z"/>
    <path class="cls-29" d="m3516.62,313.18l-1.35-22.53h-52.71l-12.16-238.83h-12.62l12.62,250.1h52.71l.45,11.27h13.07Z"/>
    <path class="cls-29" d="m3613.49,578.6l-.9-11.71h-108.58l.45,11.71h109.04Z"/>
    <path class="cls-29" d="m3532.39,590.77l-12.61,11.71,7.21,133.39h13.97l-8.56-145.1Z"/>
    <path class="cls-29" d="m3694.14,566.89l.9,11.71h68.04l.9,12.17h13.52l-1.8-23.88h-81.55"/>
    <path class="cls-29" d="m4000.97,392.49l-1.35-11.71h79.75l2.7,22.98h-13.52l-.9-11.27h-66.68Z"/>
    <path class="cls-29" d="m4349.25,590.77h245.1l1.8,11.71h-245.11l-1.8-11.71Z"/>
    <path class="cls-29" d="m4169.03,674.59h13.97l7.66,61.29h13.96l-9.46-73.45h-27.48l1.35,12.17Z"/>
    <path class="cls-29" d="m4652.48,461.44h94.16l24.33,129.33h13.96l-27.03-141.05h-107.23l1.8,11.71Z"/>
    <path class="cls-29" d="m4835.41,51.82h-12.62l10.82,53.18h128.86l17.12,75.7h13.07l-19.38-86.52h-128.86l-9.01-42.36Z"/>
    <path class="cls-29" d="m5022.39,313.18h-13.52l30.64,136.54h13.07l-30.19-136.54Z"/>
    <path class="cls-29" d="m5473.4,519.57h243.3l3.61,11.71h-243.75l-3.15-11.71Z"/>
    <path class="cls-29" d="m5591.89,51.82l38.3,128.88h13.07l-38.3-128.88h-13.07Z"/>
    <path class="cls-29" d="m2960.63,662.42v12.17h27.48v-12.17h-27.48Z"/>
    <path class="cls-16" d="m874.09,865.65l-11.27-21.18h13.52l5.86,10.82h66.68l5.86,10.36h-80.65Z"/>
    <path class="cls-16" d="m1066.48,735.87h-13.97l31.99,65.79h27.04l-4.96-10.82h-13.97l-26.13-54.97Z"/>
    <path class="cls-16" d="m1868.02,735.87l15.77,54.97h13.52l3.16,10.82h-27.48l-18.47-65.79h13.52Z"/>
    <path class="cls-16" d="m2144.66,735.87l25.23,119.41h13.52l2.25,10.36h-27.03l-27.94-129.78h13.97Z"/>
    <path class="cls-16" d="m2448.79,735.87l7.66,54.97h13.52l1.35,10.82h-27.04l-9.46-65.79h13.97Z"/>
    <path class="cls-16" d="m4190.66,735.87l-35.14,119.41h-13.52l-3.16,10.36h27.04l38.75-129.78h-13.96Z"/>
    <path class="cls-16" d="m4727.72,865.65l9.46-21.18h-13.52l-4.51,10.82h-67.13l-4.5,10.36h80.2Z"/>
    <path class="cls-16" d="m5456.73,855.29h67.13l6.76-10.82h13.52l-13.52,21.18h-80.2l6.31-10.36Z"/>
    <path class="cls-16" d="m297.82,844.47l14.42,21.18h80.2l-6.76-10.36h-67.13l-7.21-10.82h-13.52Z"/>
    <path class="cls-16" d="m3526.98,735.87l-7.21,54.97h-13.52l-1.35,10.82h27.04l9.01-65.79h-13.97Z"/>
    <path class="cls-16" d="m2960.63,790.84l.45,10.82h27.04v-10.82h-27.48Z"/>
    <path class="cls-16" d="m3203.03,855.29l-.45,10.36h80.2l.9-10.36h-80.65Z"/>
    <path class="cls-16" d="m1398.09,735.87h-13.96l52.26,129.78h26.59l-4.06-10.36h-13.52l-47.31-119.41Z"/>
    <path class="cls-16" d="m3686.03,855.29l-1.8,10.36h80.2l4.05-21.18h-13.52l-1.8,10.82h-67.13Z"/>
    <path class="cls-29" d="m312.24,865.65l7.21,10.36h80.2l-7.21-10.36h-80.2Z"/>
    <path class="cls-29" d="m874.09,865.65h80.65l5.41,10.36h-80.2l-5.86-10.36Z"/>
    <path class="cls-29" d="m1084.5,801.66l4.96,10.82h27.04l-4.96-10.82h-27.04Z"/>
    <path class="cls-29" d="m1872.98,801.66l3.15,10.82h27.04l-2.7-10.82h-27.48Z"/>
    <path class="cls-29" d="m2158.63,865.65l2.25,10.36h26.59l-1.8-10.36h-27.03Z"/>
    <path class="cls-29" d="m2444.29,801.66l1.35,10.82h27.04l-1.35-10.82h-27.04Z"/>
    <path class="cls-29" d="m3684.23,865.65h80.2l-2.25,10.36h-79.75l1.8-10.36Z"/>
    <path class="cls-29" d="m4138.84,865.65l-2.7,10.36h26.58l3.16-10.36h-27.04Z"/>
    <path class="cls-29" d="m4727.72,865.65l-4.51,10.36h-80.2l4.51-10.36h80.2Z"/>
    <path class="cls-29" d="m5450.42,865.65l-6.76,10.36h80.2l6.76-10.36h-80.2Z"/>
    <path class="cls-29" d="m2961.08,801.66v10.82h27.04v-10.82h-27.04Z"/>
    <path class="cls-29" d="m3531.94,801.66l-1.35,10.82h-27.04l1.35-10.82h27.04Z"/>
    <path class="cls-25" d="m2799.33,507.85h-81.1v11.72h80.65l.45-11.72Z"/>
    <path class="cls-61" d="m1340.41,519.57h242.85l1.8-11.72h-242.85l-1.8,11.72Z"/>
    <path class="cls-6" d="m1909.02,507.85h-242.85l-1.8,11.72h243.3l1.35-11.72Z"/>
    <path class="cls-70" d="m5713.1,507.85h-242.85l3.15,11.72h243.3l-3.6-11.72Z"/>
    <path class="cls-74" d="m57.22,735.87h248.71l3.61-12.17H61.28l-4.05,12.17Z"/>
    <path class="cls-42" d="m196.89,638.54h136.97l3.61-12.17h-136.97l-3.61,12.17Z"/>
    <path class="cls-40" d="m218.52,566.89h135.62l3.61-11.72h-135.62l-3.61,11.72Z"/>
    <path class="cls-1" d="m429.38,590.77h163.1l3.16-12.17h-163.1l-3.16,12.17Z"/>
    <path class="cls-11" d="m637.99,735.87h248.71l2.7-12.17h-248.26l-3.15,12.17Z"/>
    <path class="cls-17" d="m1112.43,578.6h-27.48l-2.25,12.17h27.03l2.71-12.17Z"/>
    <path class="cls-4" d="m1426.47,650.7h-27.48l-2.25,11.71h27.48l2.25-11.71Z"/>
    <path class="cls-48" d="m2174.85,555.17h-108.59l-1.35,11.72h108.59l1.35-11.72Z"/>
    <path class="cls-59" d="m2523.59,626.37h-82l-.9,12.17h82l.9-12.17Z"/>
    <path class="cls-37" d="m3504,566.89h108.58l-.9-11.72h-108.14l.45,11.72Z"/>
    <path class="cls-44" d="m3774.79,555.17h-81.55l.9,11.72h81.55l-.9-11.72Z"/>
    <path class="cls-3" d="m4166.32,650.7l1.35,11.71h27.48l-1.8-11.71h-27.04Z"/>
    <path class="cls-72" d="m4592.11,578.6h-244.66l1.8,12.17h245.1l-2.25-12.17Z"/>
    <path class="cls-60" d="m4037.02,723.7l1.35,12.17h138.32l-1.35-12.17h-138.32Z"/>
    <path class="cls-20" d="m4202.82,723.7l1.8,12.17h82.91l-1.8-12.17h-82.9Z"/>
    <path class="cls-51" d="m4368.62,723.7l1.8,12.17h248.71l-2.25-12.17h-248.26Z"/>
    <path class="cls-39" d="m4699.79,723.7l2.25,12.17h248.71l-2.25-12.17h-248.71Z"/>
    <path class="cls-55" d="m5776.62,723.7h-248.71l3.6,12.17h248.71l-3.61-12.17Z"/>
    <path class="cls-45" d="m3374.69,723.7l.45,12.17h137.87l-.45-12.17h-137.87Z"/>
    <path class="cls-65" d="m3540.05,723.7l.9,12.17h82.9l-.9-12.17h-82.9Z"/>
    <path class="cls-62" d="m2711.47,735.87h248.71v-12.17h-248.26l-.45,12.17Z"/>
    <path class="cls-30" d="m2988.11,723.7v12.17h304.12l-.45-12.17h-303.68Z"/>
    <path class="cls-19" d="m3705.85,723.7l.9,12.17h248.71l-1.36-12.17h-248.26Z"/>
    <path class="cls-75" d="m2047.79,735.87h82.9l1.35-12.17h-82.9l-1.35,12.17Z"/>
    <path class="cls-58" d="m2158.63,735.87h276.19l.9-12.17h-276.2l-.9,12.17Z"/>
    <path class="cls-73" d="m2462.76,735.87h165.81l.45-12.17h-165.8l-.45,12.17Z"/>
    <path class="cls-21" d="m1716.18,735.87h138.32l1.35-12.17h-137.87l-1.8,12.17Z"/>
    <path class="cls-14" d="m1881.99,735.87h82.9l1.35-12.17h-82.9l-1.35,12.17Z"/>
    <path class="cls-34" d="m1301.21,735.87h82.91l2.25-12.17h-82.9l-2.25,12.17Z"/>
    <path class="cls-22" d="m1412.05,735.87h138.32l1.8-12.17h-137.87l-2.25,12.17Z"/>
    <path class="cls-31" d="m969.61,735.87h82.9l2.7-12.17h-82.9l-2.7,12.17Z"/>
    <path class="cls-24" d="m1080.44,735.87h137.87l2.7-12.17h-138.32l-2.25,12.17Z"/>
    <path class="cls-5" d="m4078.02,369.51h-79.75l1.35,11.27h79.75l-1.35-11.27Z"/>
    <path class="cls-13" d="m1685.99,369.51h-79.75l-1.35,11.27h79.75l1.35-11.27Z"/>
    <path class="cls-53" d="m473.54,148.25h-232.94l-3.6,10.37h233.84l2.7-10.37Z"/>
    <path class="cls-18" d="m888.5,148.25h-103.63l-2.7,10.37h103.63l2.7-10.37Z"/>
    <path class="cls-8" d="m854.71,290.65h131.56l2.7-10.82h-132.01l-2.25,10.82Z"/>
    <path class="cls-10" d="m830.83,279.84h-157.7l-3.16,10.82h158.15l2.7-10.82Z"/>
    <path class="cls-50" d="m1329.15,148.25h-103.63l-2.25,10.37h104.08l1.8-10.37Z"/>
    <path class="cls-76" d="m1640.49,148.25h-77.95l-1.35,10.37h77.5l1.8-10.37Z"/>
    <path class="cls-35" d="m1794.58,158.62h233.84l.9-10.37h-233.39l-1.35,10.37Z"/>
    <path class="cls-46" d="m2178.91,213.6h-78.4l-.9,10.81h78.39l.9-10.81Z"/>
    <path class="cls-69" d="m2962.43,235.23h-235.64l-.45,11.27h236.09v-11.27Z"/>
    <path class="cls-28" d="m3432.81,213.6h-78.39l.45,10.81h78.4l-.45-10.81Z"/>
    <path class="cls-57" d="m3665.3,180.7l-.9-10.81h-77.95l.9,10.81h77.95Z"/>
    <path class="cls-41" d="m5223.79,169.89l3.15,10.81h155.89l-2.7-10.81h-156.34Z"/>
    <path class="cls-71" d="m5773.02,180.7l-3.15-10.81h-130.21l3.6,10.81h129.76Z"/>
    <path class="cls-54" d="m4973.28,94.18l-2.7-10.36h-128.41l2.25,10.36h128.86Z"/>
    <path class="cls-26" d="m4966.52,180.7l-2.25-10.81h-130.21l2.25,10.81h130.21Z"/>
    <path class="cls-38" d="m5148.54,180.7l-2.7-10.81h-155.89l2.7,10.81h155.89Z"/>
    <path class="cls-9" d="m3515.27,290.65l-.45-10.82h-52.71l.45,10.82h52.71Z"/>
    <path class="cls-79" d="m4211.83,180.7l-1.35-10.81h-104.08l1.35,10.81h104.08Z"/>
    <path class="cls-49" d="m4301.04,257.3l-1.8-10.81h-78.39l1.35,10.81h78.85Z"/>
    <path class="cls-15" d="m4393.86,180.7l-1.8-10.81h-103.63l1.35,10.81h104.08Z"/>
    <path class="cls-66" d="m4320.42,301.92h39.65l-1.35-11.27h-39.65l1.35,11.27Z"/>
    <path class="cls-27" d="m4175.79,301.92h39.2l-1.35-11.27h-39.65l1.8,11.27Z"/>
    <path class="cls-43" d="m2337.95,180.7h312.24l.45-10.81h-311.79l-.9,10.81Z"/>
    <path class="cls-68" d="m3274.67,169.89h-311.79v10.81h312.24l-.45-10.81Z"/>
    <path class="cls-56" d="m3913.11,313.18l-1.35-11.27h-79.3l1.35,11.27h79.3Z"/>
    <path class="cls-23" d="m257.27,438.01h-107.23l-3.6,11.71h107.23l3.61-11.71Z"/>
    <path class="cls-67" d="m471.29,438.01h-80.2l-3.15,11.71h80.2l3.15-11.71Z"/>
    <path class="cls-78" d="m712.34,438.01h-80.2l-3.16,11.71h80.65l2.7-11.71Z"/>
    <path class="cls-36" d="m4889.47,438.01l2.25,11.71h134.27l-2.7-11.71h-133.82Z"/>
    <path class="cls-63" d="m5050.32,438.01l2.25,11.71h160.85l-2.7-11.71h-160.4Z"/>
    <path class="cls-52" d="m4755.66,438.01h-107.23l2.25,11.71h107.23l-2.25-11.71Z"/>
    <path class="cls-77" d="m2318.13,449.72h321.7l.45-11.71h-321.25l-.9,11.71Z"/>
    <path class="cls-33" d="m2988.11,650.7h-27.48v11.71h27.48v-11.71Z"/>
    <path class="cls-47" d="m3604.03,438.01l.9,11.71h80.65l-.9-11.71h-80.65Z"/>
    <path class="cls-64" d="m4256.44,507.85l1.35,11.72h81.1l-1.8-11.72h-80.65Z"/>
    <path class="cls-29" d="m3202.58,865.65l-.45,10.36h79.75l.9-10.36h-80.2Z"/>
    <path class="cls-29" d="m1436.38,865.65l4.05,10.36h26.59l-4.05-10.36h-26.59Z"/>
    <path class="cls-32" d="m392.44,865.65l7.21,10.36,15.32-57.68-6.76-10.36-15.77,57.68Z"/>
    <path class="cls-32" d="m5450.42,865.65l-6.76,10.36-15.32-61.73,6.3-10.36,15.77,61.73Z"/>
  </g>
</svg>