<?xml version="1.0" encoding="UTF-8" standalone="no"?>
<svg
   xmlns:dc="http://purl.org/dc/elements/1.1/"
   xmlns:cc="http://creativecommons.org/ns#"
   xmlns:rdf="http://www.w3.org/1999/02/22-rdf-syntax-ns#"
   xmlns:svg="http://www.w3.org/2000/svg"
   xmlns="http://www.w3.org/2000/svg"
   width="905.66876mm"
   height="300.59866mm"
   viewBox="0 0 905.66876 300.59866"
   version="1.1"
   id="svg1480">
  <title
     id="title2031">INSIDE (vector by Cridone)</title>
  <defs
     id="defs1474" />
  <metadata
     id="metadata1477">
    <rdf:RDF>
      <cc:Work
         rdf:about="">
        <dc:format>image/svg+xml</dc:format>
        <dc:type
           rdf:resource="http://purl.org/dc/dcmitype/StillImage" />
        <dc:title>INSIDE (vector by Cridone)</dc:title>
      </cc:Work>
    </rdf:RDF>
  </metadata>
  <path
     d="M 770.46667,150.28691 V 0.003569 h 67.60104 67.60104 v 23.15105 23.15104 H 862.40937 819.15 v 38.76146 38.761461 h 27.25208 27.25209 v 23.15104 23.15104 H 846.40208 819.15 v 42.06876 42.06875 h 43.25937 43.25938 v 23.15104 23.15105 H 838.06771 770.46667 Z M 653.78542,253.87886 c 8.3798,-1.28748 14.15658,-4.77998 18.28252,-11.05312 2.50682,-3.81143 3.95073,-8.26373 4.48358,-13.82528 0.19034,-1.98646 0.25191,-27.05912 0.19394,-78.97813 -0.0783,-70.211011 -0.11946,-76.251661 -0.53396,-78.456851 -1.03918,-5.52879 -2.62924,-9.77498 -5.03407,-13.44334 -3.4644,-5.28467 -8.30233,-8.81735 -14.51123,-10.59618 -3.93068,-1.12614 -5.57342,-1.2203 -21.28848,-1.2203 h -14.9298 V 150.28691 254.26817 l 15.41198,-0.003 c 12.1793,0 15.93918,-0.0825 17.92552,-0.38774 z M 572.02917,150.30093 V 0.003569 l 39.22448,0.003 c 23.49177,0.0021 40.76327,0.10913 43.06093,0.268179 16.33075,1.130411 30.01627,5.962351 41.80417,14.759752 3.94764,2.946149 10.33799,9.338469 13.29716,13.301269 8.19449,10.97367 12.89162,22.96125 15.19164,38.77084 0.42386,2.91342 0.46453,9.03878 0.55425,83.445261 0.1007,83.50455 0.0913,84.36717 -0.99965,91.81877 -1.59621,10.90274 -5.47206,21.54491 -10.67528,29.31173 -9.99135,14.91411 -25.49271,24.0425 -46.59376,27.43801 -7.99835,1.28703 -7.44281,1.27246 -52.46446,1.37847 l -42.39948,0.0998 V 150.30129 Z m -100.80625,-0.014 V 0.003591 h 24.20937 24.20938 V 150.28693 300.57028 H 495.43229 471.22292 Z M 337.68578,300.3052 c -28.11579,-2.00541 -45.73567,-16.35559 -52.46582,-42.72981 -2.32757,-9.12122 -2.89687,-14.89173 -2.90412,-29.43492 l -0.005,-10.91393 h 24.18403 24.18403 l 0.11729,10.51716 c 0.10395,9.32196 0.18113,10.84797 0.67905,13.42763 1.58983,8.23656 4.78999,13.31447 9.6474,15.30821 1.33413,0.54758 1.80459,0.56943 13.88954,0.64503 7.86225,0.0492 13.0711,-0.0238 14.02292,-0.19678 5.30822,-0.96411 9.23226,-5.30629 11.01119,-12.18461 1.35998,-5.25836 1.35101,-5.0741 1.35101,-27.78125 0,-23.19216 0.0246,-22.75663 -1.53445,-27.05211 -1.85923,-5.12212 -5.75773,-9.11226 -12.92828,-13.23225 -1.64986,-0.94797 -12.10379,-6.32564 -23.23092,-11.95038 -11.12713,-5.62475 -20.29495,-10.32649 -20.37292,-10.44831 -0.078,-0.12182 -1.27286,-0.78353 -2.6553,-1.47047 -4.11684,-2.04566 -10.35169,-5.87405 -13.87637,-8.52052 -14.77692,-11.09511 -22.73334,-25.48847 -25.05781,-45.330141 -0.26263,-2.24178 -0.35645,-7.39555 -0.35645,-19.57915 0,-18.16536 0.11531,-20.04817 1.71773,-28.04585 1.46889,-7.33123 3.39807,-13.15271 6.35683,-19.18228 9.50274,-19.365324 26.31508,-30.227185 49.34003,-31.876846 4.80787,-0.344469 31.97746,-0.344051 36.77708,5.29e-4 28.3855,2.038102 46.20715,17.760712 52.62925,46.430567 1.65277,7.37837 2.24822,13.46438 2.45255,25.06705 l 0.1619,9.19428 h -24.35302 -24.35301 l -0.13182,-8.26823 c -0.11194,-7.02247 -0.21505,-8.66445 -0.68424,-10.89801 -1.78414,-8.49311 -5.28306,-13.59707 -10.3337,-15.07395 -2.11531,-0.61855 -25.83725,-0.62662 -28.2068,-0.01 -4.92443,1.28232 -8.44129,5.65334 -10.14347,12.60701 -1.11953,4.57349 -1.22308,6.18326 -1.22229,18.99694 v 12.30312 l 0.7388,2.36038 c 2.16463,6.91575 6.78344,12.750441 13.71973,17.331401 1.25907,0.83152 12.00086,6.4775 23.8706,12.54659 11.86976,6.06909 21.97195,11.28148 22.44931,11.58308 0.47736,0.30161 2.35622,1.3838 4.17523,2.40488 20.17795,11.32668 30.42687,26.80593 33.46495,50.54305 0.81344,6.35556 0.98401,12.97223 0.85469,33.1528 -0.12875,20.08833 -0.20884,21.93523 -1.2731,29.35703 -2.32061,16.18332 -8.63245,29.31266 -17.98264,37.40576 -8.25148,7.14216 -18.44593,11.1914 -32.12952,12.76191 -3.1559,0.36221 -37.12081,0.55417 -41.59443,0.23506 z M 100.80625,150.28508 V 0 l 19.06783,0.0679 19.06782,0.068 27.30041,76.457309 27.3004,76.457311 0.0666,-76.523451 0.0666,-76.523461 h 24.20892 24.20893 v 150.285202 150.2852 l -17.79323,-0.068 -17.79323,-0.068 -5.61423,-14.02292 c -3.08783,-7.7126 -16.02943,-40.0976 -28.75911,-71.96667 l -23.14487,-57.94375 -0.0143,72.03282 -0.0143,72.03281 H 124.88341 100.80633 V 150.28523 Z M 0,150.28708 V 0.003739 H 24.20937 48.41875 V 150.28708 300.57041 H 24.20937 0 Z"
     style="fill:#6c0c0e;stroke-width:0.26458338"
     id="path846" />
</svg>
