<?xml version="1.0" encoding="UTF-8"?>
<svg id="_레이어_1" data-name="레이어 1" xmlns="http://www.w3.org/2000/svg" xmlns:xlink="http://www.w3.org/1999/xlink" viewBox="0 0 1131 999.57">
  <defs>
    <style>
      .cls-1 {
        fill: #b7b7b7;
      }

      .cls-2 {
        fill: url(#_무제_그라디언트);
      }

      .cls-3 {
        fill: #fff;
      }

      .cls-4 {
        fill: #b6b6b7;
      }

      .cls-5 {
        stroke: #fff;
        stroke-width: 12.01px;
      }

      .cls-5, .cls-6 {
        fill: none;
      }

      .cls-5, .cls-6, .cls-7 {
        stroke-miterlimit: 17.1;
      }

      .cls-8 {
        fill: #aaa;
      }

      .cls-6 {
        stroke: #204a00;
        stroke-width: 1.41px;
      }

      .cls-7 {
        stroke: #949496;
        stroke-width: 5.16px;
      }
    </style>
    <linearGradient id="_무제_그라디언트" data-name="무제 그라디언트" x1="1211.76" y1="393.46" x2="1517.07" y2="217.19" gradientTransform="translate(-160.42 891.93) scale(.71 -.71)" gradientUnits="userSpaceOnUse">
      <stop offset="0" stop-color="#c7d1bd"/>
      <stop offset="1" stop-color="#638e30"/>
    </linearGradient>
  </defs>
  <g id="surface1">
    <path class="cls-7" d="m725.52,2.58v51.58h-27.55c-14.88.3-26.73,6.69-37.22,15.77-9.6-8.41-21.21-15.01-39.56-15.54-7.83.19-15.79.67-24.48,2.61v-2.65h-110.21v6.14c-4.46-2.35-10.45-5.49-24.02-6.09h-82.19c-10.89,1-21.86,2.21-37.2,15.08-10.79-8.07-22-15.7-41.22-14.84H58.37c-27.74,0-50.4,23.3-50.4,50.63v266.17h136.35v64.3h25.21v96.1c-.3,8.42,3.16,13.84,5.96,19.19H55.74c-24.27,0-53.16,20.95-53.16,50.83v153.86c0,32.3,36.46,47.52,55.06,47.52h241.32c20.5-1.32,33.8-11.59,41.88-20.69,9.63,12.99,25.36,19.6,39.98,21.15h90.32c14.22-1.94,25.79-6.82,34.36-15.04,9.73,7.62,22.03,12.99,38.57,14.57h86.1c3.46,9.69,5.2,21.11,3.02,36.43-5.09,39.16,9.29,54.73,28.5,55.05,30.38-.19,55.1-25.74,56.05-47.52,11.45,1.36,31.47,25.4,48.75,23.1l66.41,126.7h64.04l59.34-126.95c18.33,4.37,39.66-22.16,51.57-22.86.88,23.29,24.8,45.85,55.81,47.54,30.03-1.99,32.77-31.63,28.26-61.43-1.51-12.01.87-24.02,4.24-36.04,2.49-7.68,12.29-17.52,11.55-25.68,1.38-34.91-37.63-68.02-65.7-86.91,14.16-28.96,30.08-50.95,51.79-50.17h34.62v-81.48h-130.21c6.93-10.44,8.3-18.81,8.23-26.63v-187.71h-79.59v-20.49h-110.7v7.07h-117.74c-15.53.7-26.15,7.93-36.49,15.55-9.73-7.7-20.15-14.79-37.69-15.55h-84.53c-12.95.77-24.34,5.5-37.22,15.08-8.52-7.16-18.26-13.75-39.78-14.84h-23.09v-18.86h396.57V2.58h-110.67Zm32.91,484.64h57.58l.4,38.8c.35,12.01,3.63,20.33,8.06,27.25h-66.04v-66.04Z"/>
    <path class="cls-3" d="m112.56,129.03h-15.6v103.4h15.6v-103.4Zm64.32,193.37c0,13.59-13.95,25.64-31.97,25.64H32.63v-51.28h79.92v-13.03h-47.96c-18.33,0-30.6-11.05-31.96-25.64V103.39c0-10.87,10.2-26.05,31.96-26.05h112.27v245.06Z"/>
    <path class="cls-8" d="m92.01,237.2h24.81v-112.84l2.16-2.16v117.16h-29.12l2.16-2.16Z"/>
    <path class="cls-1" d="m170.68,81.95H63.2c-13.48,1.64-22.85,7.56-26.23,19.71v158.91c.16,5.71,12.6,18.35,27.29,18.35h52.61v22.44H36.97v41.55h110.52c6.34-.89,10.97-3.49,15.31-6.37l-1.52-1.52c-4.33,3.36-9.41,5.34-15.16,6.07H39.25v-37.91h79.89v-26.39h-55.18c-11.52,0-24.71-10.72-24.71-17.59V102.72c2.48-14.43,17.16-18.39,25.77-18.65h104.3l1.36-2.12Z"/>
    <path class="cls-3" d="m272.08,129.03h-14.64v25.66h14.64v-25.66Zm33.31,219.01c-7.27,0-14.29-2.3-21.05-6.92-7.54-5.43-12.26-11.66-12.26-18.72v-116.02h-14.64v100.31h-64.33V77.34h112.27c17.86,0,31.96,10.85,31.96,26.05v55.36c0,18.47-4.39,18.96-15.59,21.2,3.17-6.22,15.59-3.55,15.59,21.96v94.85h80.31v51.28h-112.27Z"/>
    <path class="cls-3" d="m593.92,625.22h-15.6v103.39h15.6v-103.39Zm64.32,129.05c0,11.84-18.4,25.64-31.97,25.64h-80.3c-15.43,0-31.97-11.28-31.97-25.64v-154.7c0-11.22,16-26.05,31.97-26.05h80.3c13.77,0,31.97,13.3,31.97,26.05v154.7Z"/>
    <path class="cls-8" d="m251.95,159.1h24.8v-34.04l2.16-2.16v38.35h-29.12l2.16-2.16Z"/>
    <path class="cls-8" d="m248.97,299.73l2.54,2.54h-54.25V82.66h110.12c4.62.06,9.48,1.93,15.14,5.57l-1.45,1.71c-3.73-2.96-8.41-4.71-14.61-5.21h-106.66v214.98h49.18Z"/>
    <path class="cls-4" d="m282.67,330.18v3.74c-2.86-2.99-5.42-6.17-5.98-10.66v-121.16l2.52-2.52v124.05c.44,1.96.76,3.89,3.46,6.54Z"/>
    <path class="cls-3" d="m431.15,206.38h-15.6v26.05h15.6v-26.05Zm-47.96,77.35c-15.48,0-31.97-13-31.97-25.64v-77.76c0-17.63,23.84-25.64,31.97-25.64h47.96v-25.66h-15.6v12.62h-64.33v-38.27c0-13,18.74-26.05,31.97-26.05h80.3c16.07,0,31.97,14.09,31.97,26.05v180.34h-112.27Z"/>
    <path class="cls-8" d="m411.23,236.92h24.8v-35.34l2.16-2.16v39.66h-29.12l2.16-2.16Z"/>
    <path class="cls-8" d="m436.13,122.57v36.85h-55.79l-.13.02c-11.85,2.98-20.2,9.32-23.47,19.79l-.07.15v78.66l.02.02c.31,6.64,5.06,11.73,10.18,15.12,2.56,1.7,5.24,2.99,7.59,3.87,2.36.88,4.33,1.34,5.76,1.34h110l-2.32-2.12h-107.68c-.9,0-2.82-.39-5.03-1.21-2.21-.82-4.75-2.07-7.16-3.67-4.8-3.18-8.96-7.73-9.25-13.38v-78.28c3.05-9.61,10.52-15.32,21.79-18.2h57.66v-38.97l-2.12,2.38v-2.38Z"/>
    <path class="cls-8" d="m379.77,82.63c-4.28-.04-9.73,2.34-14.35,6.03s-8.39,8.79-8.63,14.48v33.98h54.24v-12.39l-2.12-2.07v12.34h-50v-31.82c.21-4.79,3.54-9.46,7.84-12.9,4.31-3.45,9.57-5.57,13-5.54h85.53c6.85-.02,10.67,2.19,14.52,4.7l1.15-1.79c-3.93-2.56-8.36-5.05-15.67-5.04h-85.51,0Z"/>
    <path class="cls-3" d="m590.14,283.73v-154.7h-14.75v154.7h-64.33V77.34h64.33v13.02c10.65-8.68,25.35-13.02,46.66-13.02,7.28,0,14.3,2.31,21.06,6.92,7.27,5.15,12.2,11.53,12.2,19.13v180.34h-65.16Z"/>
    <path class="cls-8" d="m594.89,125v153.22h53.44l-2.02-2.12h-49.3V121.6l-2.12,3.41Z"/>
    <path class="cls-8" d="m515.75,82.38v195.75h53.45l-1.95-2.12h-49.38V84.5h49.76v21.8l1.83-1.96c13.54-14.44,30.86-20.37,51.59-19.81h.02c8.47.05,12.55,1.76,17.48,5.04l1.17-1.77c-5.11-3.39-9.88-5.34-18.63-5.39h-.02c-20.27-.54-37.64,5.18-51.33,18.73v-18.75h-54Z"/>
    <path class="cls-3" d="m748.66,129.03h-14.68v103.4h14.68v-103.4Zm-47.04,154.7c-20.76,0-31.11-15.44-31.97-25.64V103.39c1.18-12.74,12.97-26.05,31.97-26.05h47.96V25.64h64.32v258.09h-112.27Z"/>
    <path class="cls-8" d="m753.52,125.31v110.43l2.12,3.38v-117.49l-2.12,3.69Z"/>
    <path class="cls-8" d="m754.73,30.69v51.21h-55.52l-.11.02c-5.97,1.2-11.54,3.07-15.94,6.4-4.4,3.34-7.56,8.17-8.54,14.95v152.7c-.14,4.49,1.27,9.18,5.14,13.18,3.89,4.02,10.17,7.35,19.7,9.39l.11.02h109.19l-2.29-2.12h-106.66c-9.2-1.98-15.04-5.16-18.52-8.77-3.49-3.61-4.68-7.66-4.55-11.68V103.49c.93-6.24,3.71-10.45,7.71-13.47,3.99-3.03,9.23-4.84,14.99-6.01h57.42v-51.21h49.61l3-2.12h-54.73Z"/>
    <path class="cls-3" d="m337.7,528.99c0,14.37-13.39,23.38-31.96,25.64h-80.31c-14.27,0-31.96-11.39-31.96-25.64v-116.43h-24.35v-51.3h24.35v-38.65h64.33v38.65h79.91v51.75h-79.91v90.32h15.98v-77.74h63.93v103.4Z"/>
    <path class="cls-1" d="m197.57,327.13v39.5h-23.8v41.38h24.55v119.61c.2,6.61,2.61,11.93,7.24,15.66s11.35,5.86,20.2,6.49h80.6c8.91-.54,12.86-3.07,16.18-5.57l-1.26-1.7c-3.24,2.43-6.48,4.62-14.99,5.14h-80.38s-.04,0-.07,0c-8.55-.61-14.82-2.67-18.96-6-4.14-3.34-6.26-7.95-6.45-14.07v-121.69h-24.55v-37.14h23.8v-39.5h49.87l2.23-2.12h-54.22,0Z"/>
    <path class="cls-1" d="m278.15,430.81v77.13h-24.65l-2.48,2.12h29.25v-77.13h49.36l2.37-2.12h-53.84Z"/>
    <path class="cls-8" d="m252.15,366.49h81.5l-2.15,2.15h-81.22l1.87-2.15Z"/>
    <path class="cls-8" d="m252.15,408.26h81.5l-2.15-2.15h-81.22l1.87,2.15Z"/>
    <path class="cls-3" d="m432.85,554.22v-153.79h-15.6v153.79h-64.33v-255.48h61.04v49.09h51.24c21.31,0,31.97,8.68,31.97,26.05v180.34h-64.32Z"/>
    <path class="cls-8" d="m410.97,393.38l2.48,2.12h23.88v154.33h53.67l-2.48-2.12h-49.07v-154.33h-28.48Z"/>
    <path class="cls-8" d="m357.74,348.09v201.43h54.57l-2.18-2.12h-50.27v-199.31h-2.12Z"/>
    <path class="cls-8" d="m412.66,353.54l-2.36,2.12h56.08c7.2.27,10.89,2.75,15.04,5.32l1.12-1.79c-4.12-2.56-8.43-5.38-16.12-5.65h-53.76Z"/>
    <path class="cls-8" d="m331.09,300.83h81.5l-2.15,2.15h-81.22l1.87-2.15Z"/>
    <path class="cls-3" d="m591.24,399.53h-15.48v25.65h15.48v-25.65Zm63.83,129.05c0,13.21-13.58,25.64-31.73,25.64h-79.7c-17.26,0-31.73-11.14-31.73-25.64v-154.7c0-12.23,14.52-26.05,31.73-26.05h79.7c16.99,0,31.73,13.89,31.73,26.05v102.99h-79.31v26.05h15.48v-13.02h63.83v38.68Z"/>
    <path class="cls-8" d="m568.64,472.56h81.5l-2.15-2.15h-81.22l1.87,2.15Z"/>
    <path class="cls-8" d="m569.13,393.47l1.89,2.12h24.69v34.54h-24.69l-1.89,2.12h28.7v-38.77h-28.7Z"/>
    <path class="cls-8" d="m545.2,352.99c-7.94.5-14.45,2.26-19.36,5.52-4.91,3.27-8.15,8.08-9.47,14.4l-.02.11v153.18c1.03,9.46,4.8,14.92,9.82,18.11,5.03,3.19,11.16,4.19,17.05,5.37l.11.02h78.64c6.04-.11,12.03-1.42,17.75-4.86l-1.11-1.83c-5.36,3.23-10.91,4.47-16.67,4.57h-78.41c-5.89-1.18-11.73-2.22-16.23-5.08-4.53-2.88-7.86-7.51-8.83-16.52v-152.71c1.23-5.82,4.09-10.02,8.54-12.98,4.46-2.97,10.59-4.68,18.26-5.17h81.4c4.37.62,8.64,1.75,13.46,5.7l1.35-1.63c-5.21-4.27-10.09-5.55-14.68-6.18h-81.6Z"/>
    <path class="cls-8" d="m595.86,495.15v12.79h-25.01l-2.14,2.12h29.27v-12.79h49.3l2.25-2.12h-53.67Z"/>
    <path class="cls-3" d="m735.91,463.85v90.37h-64.33v-180.34c0-13.75,18.55-26.05,31.97-26.05h112.46v51.7h-80.1v12.62h80.1v51.7h-80.1Z"/>
    <path class="cls-8" d="m730.14,417.25h81.5l-2.15,2.15h-81.23l1.87-2.15Z"/>
    <path class="cls-8" d="m730.14,395.47h81.5l-2.15-2.15h-81.23l1.87,2.15Z"/>
    <path class="cls-8" d="m730.14,459.7h81.5l-2.15-2.15h-81.23l1.87,2.15Z"/>
    <path class="cls-8" d="m704.48,353.12c-6.96,0-13.73,1.89-18.96,5.52-5.23,3.63-8.91,9.05-9.47,15.95v175.11h54.31l-2.03-2.12h-50.16v-172.81c.5-6.24,3.74-11.06,8.55-14.4,4.8-3.34,11.2-5.12,17.77-5.12h104.76l2.43-2.12h-107.19Z"/>
    <path class="cls-3" d="m983.96,528.99c0,14.37-13.39,23.38-31.96,25.64h-80.31c-14.27,0-31.96-11.39-31.96-25.64v-116.43h-15.08v-51.3h15.08v-20.41h64.33v20.41h79.91v51.75h-79.91v90.32h15.98v-77.74h63.93v103.4Z"/>
    <path class="cls-1" d="m845.19,345.83v20.81h-15.44v41.38h14.82v119.61c.2,6.61,2.61,11.93,7.24,15.66s11.35,5.86,20.2,6.49h80.6c8.91-.54,12.86-3.07,16.18-5.57l-1.26-1.7c-3.24,2.43-6.48,4.62-14.99,5.14h-80.38s-.04,0-.07,0c-8.55-.61-14.82-2.67-18.96-6-4.14-3.34-6.26-7.95-6.45-14.07v-121.69h-14.82v-37.14h15.44v-20.81h49.87l2.23-2.12h-54.22Z"/>
    <path class="cls-1" d="m924.41,430.81v77.13h-24.65l-2.48,2.12h29.25v-77.13h49.36l2.37-2.12h-53.84Z"/>
    <path class="cls-8" d="m898.41,366.49h81.5l-2.15,2.15h-81.22l1.87-2.15Z"/>
    <path class="cls-8" d="m898.41,408.26h81.5l-2.15-2.15h-81.22l1.87,2.15Z"/>
    <path class="cls-3" d="m106.44,702.5h-15.59v26.05h15.59v-26.05Zm-47.96,77.35c-15.48,0-31.96-13-31.96-25.64v-77.76c0-17.63,23.84-25.64,31.96-25.64h47.96v-25.66h-15.59v12.62H26.52v-38.27c0-13,18.74-26.05,31.96-26.05h80.31c16.06,0,31.96,14.09,31.96,26.05v180.34H58.48Z"/>
    <path class="cls-8" d="m86.52,733.05h24.81v-35.34l2.16-2.16v39.66h-29.12l2.16-2.16Z"/>
    <path class="cls-8" d="m111.43,618.7v36.85h-55.79l-.13.02c-11.85,2.98-20.2,9.32-23.47,19.79l-.07.15v78.66l.02.02c.3,6.64,5.05,11.73,10.18,15.12,2.56,1.7,5.24,2.99,7.59,3.86,2.36.88,4.33,1.35,5.76,1.35h110l-2.32-2.12H55.52c-.9,0-2.82-.39-5.03-1.21-2.21-.82-4.75-2.07-7.15-3.67-4.8-3.18-8.97-7.73-9.25-13.38v-78.28c3.05-9.61,10.52-15.32,21.79-18.2h57.66v-38.97l-2.12,2.38v-2.38Z"/>
    <path class="cls-8" d="m55.06,578.75c-4.28-.04-9.73,2.34-14.35,6.03s-8.39,8.79-8.63,14.48v33.98h54.24v-12.39l-2.12-2.07v12.34h-50v-31.82c.22-4.78,3.54-9.46,7.84-12.89,4.31-3.45,9.57-5.57,13-5.54h85.53c6.85-.01,10.67,2.19,14.53,4.7l1.15-1.79c-3.93-2.56-8.36-5.05-15.68-5.03H55.06Z"/>
    <path class="cls-3" d="m329.81,754.27c0,12.51-13.06,25.64-31.96,25.64h-80.31c-15.77,0-31.96-13.14-31.96-25.64v-180.75h64.33v155.09h15.59v-155.09h64.32v180.75Z"/>
    <path class="cls-8" d="m270.03,579.32v153.8h-24.36l-2.05,2.12h28.52v-153.8h49.79l2.23-2.12h-54.13Z"/>
    <path class="cls-8" d="m190.84,579.04v177.32l.04.15c2.01,6.27,5.59,10.71,10.22,13.67s10.29,4.46,16.54,5.1h83.5c5.27-.56,9.46-2.63,13.14-5.21l-1.21-1.72c-3.46,2.43-7.23,4.28-12.04,4.81h-83.27c-5.99-.62-11.28-2.07-15.5-4.77-4.22-2.69-7.41-6.62-9.3-12.41v-174.82h49.88l2.04-2.12h-54.04Z"/>
    <path class="cls-3" d="m500.02,754.7c0,14.38-13.4,23.39-31.97,25.64h-80.3c-14.27,0-31.97-11.39-31.97-25.64v-116.43h-15.08v-51.29h15.08v-20.41h64.33v20.41h79.91v51.75h-79.91v90.32h15.98v-77.75h63.94v103.4Z"/>
    <path class="cls-1" d="m361.25,571.54v20.81h-15.44v41.38h14.82v119.61c.2,6.61,2.61,11.93,7.24,15.66s11.36,5.87,20.2,6.49h80.6c8.91-.54,12.86-3.07,16.18-5.56l-1.26-1.7c-3.24,2.44-6.48,4.62-14.99,5.15h-80.45c-8.55-.62-14.82-2.68-18.96-6.01-4.15-3.34-6.26-7.94-6.45-14.07v-121.69h-14.82v-37.14h15.44v-20.8h49.87l2.23-2.12h-54.22Z"/>
    <path class="cls-1" d="m440.47,656.52v77.13h-24.65l-2.48,2.12h29.25v-77.13h49.36l2.37-2.12h-53.85Z"/>
    <path class="cls-8" d="m414.47,592.21h81.5l-2.15,2.15h-81.22l1.87-2.15Z"/>
    <path class="cls-8" d="m414.47,633.97h81.5l-2.15-2.15h-81.22l1.87,2.15Z"/>
    <path class="cls-8" d="m571.91,618.88l1.89,2.12h24.69v112.31h-24.69l-1.89,2.12h28.7v-116.54h-28.7Z"/>
    <path class="cls-8" d="m543.58,579.04c-6.53,1.03-12.04,3.11-16.25,6.52s-7.04,8.13-8.23,14.27l-.02.11v155.98l.02.11c1.71,7.04,5.46,11.34,10.15,14,4.69,2.66,10.27,3.73,15.79,4.75l.09.02h79.54v-2.12h-79.37c-5.45-1-10.74-2.1-14.99-4.5-4.25-2.41-7.51-6.07-9.12-12.52v-155.52c1.13-5.67,3.68-9.86,7.48-12.94,3.8-3.08,8.89-5.04,15.12-6.03h61.93v-2.12h-62.15Z"/>
    <path d="m624.45,780.67c-10.7-24.92,17.34-58.8,33.21-72.39v-70.41c-13.78-14.98-22.58-17.19-34.7-18.34h-19.83v-50.57h95.18l-9.42,226.6-64.45-14.88Z"/>
    <path class="cls-2" d="m643.85,596.7v3.4c24.8,8.6,49.78,19.64,78.35,79.75l147.51,278.38h3.17l134.2-290.64c8.4-13.86,31.1-68.36,79.25-71.87h-144.55c9.76,5.07,52.51,16.94,52.97,52.87-.04,8.87-1.89,17.74-5.13,26.62l-75.34,170.27-93.29-187.59c-10.69-46.02,12.2-56.27,40.07-61.18h-217.21Z"/>
    <path class="cls-6" d="m892.59,918.77c-18.86-32.8-35.57-91.05-16.82-149.78"/>
    <path class="cls-6" d="m885.19,934c-19.57-35.92-41.5-92.84-16.07-164.53"/>
    <path class="cls-6" d="m877.92,948.93c-30.04-52.07-40.47-112.69-17.21-178.69"/>
    <path class="cls-6" d="m864.54,950.46c10.1-9.48,19.94-21.23,29.46-35.97"/>
    <path class="cls-6" d="m858.03,938.59c19.92-23.69,39.87-44.76,54.7-100.63"/>
    <path class="cls-6" d="m852.2,925.75c25.15-28.48,45.27-62.19,52.93-100.67"/>
    <path class="cls-6" d="m845.56,913.41c29.61-30.88,48.54-72.53,53.2-100.33"/>
    <path class="cls-6" d="m838.61,901.47c23.11-26.39,46.09-57.32,54.36-100.41"/>
    <path class="cls-6" d="m832.65,889.65c23.48-25.04,45.01-56.98,56-98.25"/>
    <path class="cls-6" d="m826.68,878.07c24.94-26.46,46.89-57.53,56.86-96.46"/>
    <path class="cls-6" d="m820.87,867.07c39.27-39.13,47.98-67.02,58.14-94.02"/>
    <path class="cls-6" d="m815.61,856.48c27.59-25.73,46.27-54.42,56.92-85.8"/>
    <path class="cls-6" d="m809.48,845.9c18.7-18.77,38.14-34.78,56.85-75.21"/>
    <path class="cls-6" d="m804.82,835.98c20.83-19.19,42.56-37.6,53.68-65.29"/>
    <path class="cls-6" d="m799.56,826.59c18.93-15.88,37.93-32.62,51.93-55.91"/>
    <path class="cls-6" d="m794.54,816.97c13.87-11.35,23.45-14.14,48.32-45.74"/>
    <path class="cls-6" d="m789.41,807.44c15.74-7.49,30.09-21.84,44-35.41"/>
    <path class="cls-6" d="m784.58,798.54c15.19-5.77,25.61-16.67,36.7-25.96"/>
    <path class="cls-6" d="m780.02,790.25c10.7-4.23,19.46-11.13,27.78-17.14"/>
    <path class="cls-6" d="m774.69,781.58c2.32-.45,8.1-3.11,12.06-5.5"/>
    <path class="cls-6" d="m847.19,917.96c-6.71-30.58-22.49-72.78,7.37-148.1"/>
    <path class="cls-6" d="m825.75,877.43c2.2-31.74-1.52-58.6,20.77-106.89"/>
    <path class="cls-6" d="m814.78,855.97c4.29-26.79,6.93-53.54,24.04-85.1"/>
    <path class="cls-6" d="m829.43,771.54c-11.37,21.45-18.24,44.37-24.04,65.82"/>
    <path class="cls-6" d="m820.72,772.21c-10.78,17.09-17.62,34.18-22.78,51.27"/>
    <path class="cls-6" d="m811.01,773.55c-8.52,11.84-14.92,24.8-19.68,37.27"/>
    <path class="cls-6" d="m799.62,774.55c-5.25,7.38-10.32,16.98-14.31,25.61"/>
    <path class="cls-6" d="m788.07,776.7c-2.9,3.46-6.26,8.36-8.54,11.82"/>
    <path class="cls-6" d="m898.6,904.48c-13.55-31.54-27.82-63.17-18.29-128.99"/>
    <path class="cls-6" d="m905,889.96c-16.89-33.75-20.53-70.71-20.13-105.72"/>
    <path class="cls-6" d="m911.48,876.18c-10.27-21.76-18.48-46.62-18.64-74.94"/>
    <path class="cls-6" d="m917.7,862.13c-5.81-10.98-11.63-24.96-12.28-36.08"/>
    <path class="cls-6" d="m913.11,872.13c4.69-13.37,8.25-28.07,8.64-46.46"/>
    <path class="cls-6" d="m931.47,832.75c.9-6.66,2.14-13.18.27-28.16"/>
    <path class="cls-6" d="m940.66,812.97c.17-7.39-.98-14.77-2.97-22.15"/>
    <path class="cls-6" d="m947.66,798.54c-1.22-5.08-2.12-11.02-5.38-17.46"/>
    <path class="cls-6" d="m952.9,786.95c-1.17-3.47-2.96-7.34-4.14-9.37"/>
    <path class="cls-6" d="m924.99,850.25c-3.38-4.84-5.61-9.11-7.56-13.24"/>
    <path class="cls-6" d="m929.85,838.63c-2.95-4.16-5.33-8.89-7.56-13.78"/>
    <path class="cls-6" d="m934.44,825.93c-2.17-3.6-5.21-7.81-6.69-12.1"/>
    <path class="cls-6" d="m939.04,815.94c-2.93-3.76-5-7.95-6.48-12.43"/>
    <path class="cls-6" d="m943.63,805.94c-2.74-2.31-5.27-5.72-7.29-11.62"/>
    <path class="cls-6" d="m947.68,797.02c-2.43-3.24-4.86-6.53-7.29-11.89"/>
    <path class="cls-6" d="m951.71,788.36c-2.83-3.2-5.43-7.14-7.54-11.06"/>
    <path class="cls-6" d="m644.31,596.56c1.86,2.53,3.91,5.18,7.45,8.83"/>
    <path class="cls-6" d="m660.58,595.73c23.03,27.66,51.14,53.88,107.83,72"/>
    <path class="cls-6" d="m751.59,671.86l-46.33-20.41"/>
    <path class="cls-6" d="m734.77,676.83l-18.75-7.17"/>
    <path class="cls-6" d="m784.68,664.14c-40.1-14.21-77.89-32.8-106.73-68.41"/>
    <path class="cls-6" d="m716.56,670.21c30.75-9.65,54.88-9.85,77.77-8.28"/>
    <path class="cls-6" d="m711.05,660.83c16.18-4.01,42.86-14.93,109.77-2.76"/>
    <path class="cls-6" d="m705.25,650.34c32.48-5.87,67.41-9.7,114.99,2.32"/>
    <path class="cls-6" d="m699.18,640.25c35.48-7.27,73.23-9.75,119.97,6.62"/>
    <path class="cls-6" d="m690.09,629.38c42.48-8.9,85.89-6.51,128.94,11.82"/>
    <path class="cls-6" d="m680.16,619.73c36.02-7.3,73.49-12.87,138.45,14.34"/>
    <path class="cls-6" d="m662.78,610.07c43.68-7.58,86.22-16.97,156.93,18.48"/>
    <path class="cls-6" d="m645.68,601.52c5.66-2.23,12.56-3.83,19.3-5.52"/>
    <path class="cls-6" d="m694.77,595.45c26.94,31.61,62.15,54.48,108.94,65.1"/>
    <path class="cls-6" d="m711.32,595.45c32.04,37.33,71.19,52.48,110.54,62.85"/>
    <path class="cls-6" d="m727.32,596.28c22.9,24.31,53.61,44.72,93.51,57.13"/>
    <path class="cls-6" d="m741.66,596c24.7,25.59,51.95,41.19,78.34,51.5"/>
    <path class="cls-6" d="m756.28,596c19.67,18.8,40.7,34.66,62.63,44.96"/>
    <path class="cls-6" d="m770.34,596c13.58,15.41,30.3,27.89,48.41,37.63"/>
    <path class="cls-6" d="m782.2,596c12.14,13.8,24.82,22.64,37.51,31.45"/>
    <path class="cls-6" d="m794.38,595.93c11.31,12.87,18.62,18.62,28.09,25.73"/>
    <path class="cls-6" d="m804.56,596.37c6.16,6.71,13.38,13.89,20.67,20.6"/>
    <path class="cls-6" d="m815.22,596.21c4.04,6.09,9,10.8,13.59,15.24"/>
    <path class="cls-6" d="m818.69,596.02c4.85,3.27,9.7,8.28,13.98,12.68"/>
    <path class="cls-6" d="m823.66,596.09c2.72,4.09,6.59,7.95,9.84,11.5"/>
    <path class="cls-6" d="m828.74,595.97l9.17,9.41"/>
    <path class="cls-6" d="m832.6,596.13c1.82,1.84,4.04,4.62,6.42,8.7"/>
    <path class="cls-6" d="m840.95,596c1.56,3.22,3.13,5.34,4.69,7.45"/>
    <path class="cls-6" d="m839.02,596.28c1.78,1.99,3.47,4.07,4.69,6.62"/>
    <path class="cls-6" d="m846.46,596c1.48,2.13,2.38,3.66,3.31,5.24"/>
    <path class="cls-6" d="m848.94,595.73c.29,2.82,1.09,4.09,1.93,5.24"/>
    <path class="cls-6" d="m853.63,595.73c.16,1.49.92,2.67,2.21,3.59"/>
    <path class="cls-6" d="m805.65,596.56c7.64,4.84,15.25,9.77,22.34,16.28"/>
    <path class="cls-6" d="m785.6,596.02c7.22,2.57,13.2,4.67,39.63,21.5"/>
    <path class="cls-6" d="m821.91,622.48c-19.43-11.69-40.49-20.49-61.05-26.51"/>
    <path class="cls-6" d="m1081.22,595.12c-.7,1.18-3.58,3.04-2.62,3.59"/>
    <path class="cls-6" d="m1067.52,594.9l-13.05,13.73"/>
    <path class="cls-6" d="m1052.38,595.18c-17.05,18.3-38.01,31.67-59.11,43.6"/>
    <path class="cls-6" d="m1038.96,594.81c-13.21,12.45-25.34,25.9-47.96,38.36"/>
    <path class="cls-6" d="m1025.9,595.33c-10.38,11.36-22.92,23.27-37.97,32.28"/>
    <path class="cls-6" d="m1013.07,595.34c-7.84,7.7-7.93,9.68-28.96,26.87"/>
    <path class="cls-6" d="m1005.65,595.34c-8.38,5.33-17.59,13.76-26.56,23.19"/>
    <path class="cls-6" d="m993.35,595.18c-6.46,6.46-12.88,12.96-18.77,18.84"/>
    <path class="cls-6" d="m982.69,595.34c-5,4.8-8.74,9.61-12.6,14.41"/>
    <path class="cls-6" d="m973.91,595.12c-2.78,4.44-6.32,8.73-9.09,12.02"/>
    <path class="cls-6" d="m965.81,595.12c-2.54,4.71-3.94,6.98-5.41,9.54"/>
    <path class="cls-6" d="m958.16,595.25l-4.07,6.41"/>
    <path class="cls-6" d="m950.29,595.18l-1.8,4.89"/>
    <path class="cls-6" d="m944.52,595.1l-.68,2.7"/>
    <path class="cls-6" d="m1038.95,620.56c-14.09,9.25-29.55,18.27-44.8,24.61"/>
    <path class="cls-6" d="m1024.09,639.68c-10.07,4.72-20.8,9.55-29.72,11.41"/>
    <path class="cls-6" d="m1018.02,650.71c-7.27,2.43-15.39,4.8-24.39,6.08"/>
    <path class="cls-6" d="m1012.17,660.16c-6.15.61-13.45,2.36-19.6,4.13"/>
    <path class="cls-6" d="m1008.57,667.59c-5.99.75-12.15,1.5-17.57,2.25"/>
    <path class="cls-6" d="m1004.29,674.79c-5.52.23-10.29.53-14.71.75"/>
    <path class="cls-6" d="m1054.02,608.85c-16.13,2.49-32.75,5.22-65.49,19.74"/>
    <path class="cls-6" d="m985.39,623.25c43.93-21.02,59.06-24.18,80.55-27.46"/>
    <path class="cls-6" d="m980.89,618.53c15.47-8.39,32.07-17.88,44.13-23.43"/>
    <path class="cls-6" d="m975.26,614.7c10.16-6.23,20.66-13.21,29.65-19.45"/>
    <path class="cls-6" d="m971.44,611.1c6.46-4.8,12.73-10.54,18.01-15.92"/>
    <path class="cls-6" d="m965.42,607.14c5.06-3.37,9.75-8.43,13.07-11.81"/>
    <path class="cls-6" d="m960.85,604.43c2.79-2.16,5.98-5.84,7.59-9.18"/>
    <path class="cls-6" d="m955.08,601.89c1.66-1.41,3.59-4.48,4.66-6.48"/>
    <path class="cls-6" d="m949.16,600.07c1.65-1.5,2.18-3.46,2.7-4.96"/>
    <path class="cls-6" d="m993.56,640.36c18.58-7.05,28.15-8.24,35.71-8.33"/>
    <path class="cls-6" d="m991.98,634.89c20.31-8.5,36.1-12.64,46.91-13.89"/>
    <path class="cls-6" d="m994.37,646.22c11.33-3.5,20.54-4.61,29.05-5.86"/>
    <path class="cls-6" d="m994.14,652.51c9.63-2.5,18.51-3.44,24.04-3.6"/>
    <path class="cls-6" d="m993.4,659.04c6.64-1.05,14.81-1.56,20.29-2.02"/>
    <path class="cls-6" d="m992.49,665.04c4.7-.09,10.77-.38,17.2-1.05"/>
    <path class="cls-6" d="m990.84,670.14c4.48.64,10.41.91,15.47.38"/>
    <path class="cls-6" d="m989.8,675.77c3.57.65,7.97,1.31,13.82.82"/>
    <path class="cls-5" d="m615.4,580.55h257.42v26.66c-52.2,1.84-45.69,35.83-39.28,53.67l72.25,145.92,60.32-134.7c24.32-59.01-18.21-63-44.19-64.89v-26.66h179.21v25.96c-23.41,2.34-46.41.51-74.35,48.05-47.32,95.93-97.73,209.98-146.6,315h-30.51l-160.98-305.53c-20.74-38.1-39.48-57.98-73.3-56.83v-26.66Z"/>
    <path d="m692.7,695.27c27.68-21.13,96.91-37.09,146.43-37.93,41.22-4.68,82.01-1.58,122.35,9.57,20.31,5.51,40.57,11.05,55.73,19.13l25.39,65.64-70.57,31.34c-17.78-4.43-37.22-7.19-56.72-9.89-11.97,0-7.06-1.32-20.78-1.32-49.86-.47-100.86,2.48-149.84,12.54l-51.99-89.06Z"/>
    <path d="m643.67,596.59h216.87c-6.08,2.96-54.79,2.29-39.39,61.71-37.9,3.23-72.3,11.04-98.95,21.64-22.85-50.65-49.21-71.86-78.52-79.74l-2.8,1.2,36.32,22.17,38.06,61.44,31.91-10.42,77.72-13.62-3.61-24.57,4.54-16.43,13.22-12.82,23.37-8.01-.27-7.21-190.29-.4-28.18,5.07Z"/>
    <path d="m941.8,595.84h144.29c-23.72,2.11-53.34,14.32-84.44,83.45-3.99-1.45-7.97-2.89-11.96-4.34,4.73-15.43,22.25-53.36-46.3-78.22l-3.27.22,18.64,9.45,20.13,14.54,7.08,37.29.25,17.52,17.4,7.34,9.94-21.5,14.66-24.11,16.78-20.14,17.4-11.31,26.47-7.96.12-6.21-150.12.5,2.92,3.48Z"/>
    <path class="cls-3" d="m863.23,662.7c-48.91,1.11-97.15,6.77-143.5,25-49.88,22.75-16.02,41.08-19.52,75.85,30.45-171.57,157.54-25.21.66-5.69l-42.09,73.32c13.03-13.69,44.35-64.01,198.41-66.29,58.72-.5,98.84,7.52,135.86,16.96,10.73,4.34,79.11,24.35,83.89,76.89-.28,10.43-3.91,13.91-8.68,15.04,4.23-2.29,5.8-6.32,7.13-10.49-2.57,4.06-5.5,4.64-8.41,5.32,5.2-3.71,5.84-6.54,7.64-9.61-1.82,2.47-4.03,3.73-6.71,3.42,3.86-2.39,5.88-5.41,6.8-8.83-1.05,2.45-3.23,3.74-6.36,4.11,2.44-2.44,5.14-4.72,5.58-8.32-2.89,2.65-5.25,3.08-7.48,3.09,1.1-1.75,4.75-2.63,6.07-6.14-1.46.1-3.35.23-4.44-.4,2.07-1.29,2.39-2.57,2.41-3.86-.41-.85-2.25-.73-3.6-.95.89-.52,1.45-1.18,1.72-1.96-3.92-4.96-8.02-8.31-12.3-9.8-1.46.1-2.4.42-2.65,1.04,3.64.68,5.4,1.75,7.38,2.76-1.84.43-3.29,1.23-6.09.68.58,1.18,1.12,2.42,2.21,2.76,1.73-.01,3.48-.01,7.07.84-1.23.89-2.14,1.91-6.09,1.81-.92,1.07-.28,1.36-.27,1.96,1.45.48,3.99.69,6.82.82-2.38,2.74-6.56,1.14-5.72,4.68,2.05.27,4.11.15,5.52,1.21-.98.6-1.8,1.16-5.14,2.1-.85.73-.89,1.46-.89,2.19,2.33.03,3.98.48,4.57,1.54-.79.58-2.05,1.06-5.07,1.13-.89.61-.98,1.16-1.11,1.72,1.13.79,3.51,1.44,6.18,2.05-2.44,1.04-5.88,1.3-10.57.6,2.41-3.09,3.31-6.5,3.36-10.11-1.39-23.34-33.28-28.72-53.78-23.74,15.37-4.83,30.89-6.58,47.16,5.94-6.35-12.54-24.45-13.68-45.94-11.53,16.39-5.41,31.06-3.92,43.98,4.57-9.77-10.95-25.9-12.79-46.39-8.35,18.16-7.25,33.4-6.31,45.52,3.36-7.18-9.2-20.6-12.91-43.03-8.68,15.52-7.68,29.71-4.17,43.43,3.64-11.33-9.37-25.46-12.93-43.54-8.28l4.04-2.56c-6.22,1.86-12.41,3.78-17.62,9.54v1.11c-1.98,1.35-3.08,2.69-4.59,4.04,1.39-.34,2.93-.84,3.49-.35-1.66,1.27-3.16,2.63-5.32,3.58-.96,1.7-2.07,2.77-2.21,4.3,4.03-2.38,6.65-3.54,8.26-3.84-3.21,2.3-6.29,4.62-10.16,6.76-1.27,1.86-1.91,3.12-2.14,4.81,11.27-7.69,13.66-8.43,14.68-8.08-5.52,3.97-11.09,8.28-16.54,11.39-2.33,2.29-2.98,5.12-4.39,7.71,16.07-13.53,20.99-15.6,24.06-15.79-7.89,5.6-15.67,10.46-23.89,18-3.41,2.84-6.47,6.41-11.02,6.8-2.39.3-4.79.02-7.18-.55,2.02,1.05,4.5,1.85,7.73,2.21,5.23-1,10.57-4.19,15.98-8.83,12.97-9.99,25.78-20.27,44.82-19.48,16.81.76,30.12,7.41,29.93,17.64-.31-1.66-1.21-2.3-2.21-2.76-.5-2.04-1.68-3.29-4.59-2.56-2.23-.9-3.77-2.27-4.97-3.86h-1.66c1.36,2.06,1.61,3.8,8.08,7.35,1.71.29,2.42-.2,3.51-.38-.8.83-1.17,1.94-3.51,1.83-4.69-1.16-7.65-5.14-10.46-9.36l-2.01-.93c3.29,5.51,6.45,11.12,13.78,13.6,1.63-.16,2.93-1.01,4.04-2.21-.81,2.08-2.39,3.39-5.01,3.66-6.83-2.68-10.63-9.52-14.83-15.23-2.95-.43-6.36-1.18-7.31-.18-1.6,9.52-3.12,8.3-3.16,12.85,4.04,14.36,12.32,29.64,41.92,32.68,13.05.27,16.5-9.17,16.12-19.63.51-25.59-13.54-36.33-24.88-49.84,10.87,8.47,20.36,18.65,24.82,35.13-1.13-11.99-8.52-24.47-21.92-37.43,8.8,5.4,14.41,13.74,19.38,22.66-4.72-12.73-14.18-22-23.62-31.27,10.17,6.4,17.86,14.95,23.51,25.22-3.65-11.6-12.75-21.29-22.79-30.65,8.58,6.51,17.25,12.71,23.62,26.76-3.14-7.96-7-16.09-15.88-25.33,6.41,4.46,11.88,10.98,16.36,19.63-2.85-9.53-9.39-17.74-16.71-25.68,8.8,5.94,13.31,14.02,17.68,22.17-3.18-10.02-8.93-19.82-19.52-29.19,8.84,6.04,15.6,13.39,19.27,22.65-2.74-10.38-10.95-19.6-19.73-28.7,10.37,7.05,17.4,16.24,21.3,27.49-.22-9.47-10.68-21.8-24.71-35.13,11.82,8.1,20.55,17.91,25.92,29.57-3.82-10.84-10.56-21.1-20.84-30.65,9.92,7.24,17.14,16.05,21.57,26.52-2.82-9.84-8.81-18.83-16.47-27.38,7.57,6.38,13.97,14.04,17.68,24.6-1.73-11.23-9.35-20.59-17.09-29.92,6.71,7.17,14.09,13.39,17.73,24.86-1.18-10.57-9.22-20.59-18.43-30.52,10.21,7.12,15.87,17.77,20.27,29.41-.32-9.07-6.39-20.36-19.41-34.31,13.52,10.99,18.12,21.71,21.35,32.37-1.73-15.63-12.19-27.94-23.18-40.05,9.2,7.89,18.75,14.48,24.18,35.9.3-15.6-12.44-28.73-25.52-41.78,10.63,7.81,20.89,16.79,27.36,37.74-1.52-12.01-10.3-25.88-23.2-40.17,12.55,10.43,19.44,23.32,23.93,36.02-1.69-13.38-11.38-26.75-23.07-40.12,13.7,12.4,23.6,26.17,25.3,42.86.8-29.94-36.3-60.67-76.05-80.84-39.11-20.29-104.41-28.9-153.88-29.26Zm167.06,174.66c3.03.16,9.62,11.46,16.58,14.62,1.97.71,3.95-1.52,5.92-3.62-1.29,2.09-.71,4.58-6.38,5.68-7.55-4.19-12.88-13.99-16.67-16.54.17-.09.35-.14.55-.13Zm-3.49,2.12c4.76-.18,10.16,14.49,19.96,16.85,5.99-.93,7.23-4.76,7.48-9.19.46,5.73-.11,10.96-6.64,13.18,5.71,2.12,11.44,2.29,17.15,2.89-7.55,1.15-13.32,4.75-31.04-7.97,8.98,11.88,19.23,10.91,29.1,13.89-11.69,2.54-22.97-1.29-33.69-13.89,6.58,9.82,16.95,17.21,33.82,19.32-19.58,7.21-51.23-28.41-36.58-35.02.15-.04.29-.06.44-.07h0Z"/>
    <path class="cls-3" d="m863.22,662.7c48.91,1.11,97.15,6.77,143.5,25,49.88,22.75-72.68,17.88-69.17,52.65-26.46-146.14-326.04,9.22,62.86,7.82l67.27,83.01c-13.03-13.69-44.36-64.01-198.41-66.29-58.71-.5-98.83,7.52-135.86,16.96-10.72,4.34-79.11,24.35-83.89,76.89.28,10.43,3.91,13.91,8.68,15.04-4.23-2.29-5.8-6.32-7.13-10.49,2.58,4.06,5.5,4.64,8.41,5.32-5.2-3.71-5.84-6.54-7.64-9.61,1.82,2.47,4.02,3.73,6.71,3.42-3.86-2.39-5.88-5.41-6.8-8.83,1.05,2.45,3.23,3.74,6.36,4.11-2.45-2.44-5.14-4.72-5.59-8.32,2.89,2.65,5.25,3.08,7.48,3.09-1.1-1.75-4.75-2.63-6.07-6.14,1.46.1,3.35.23,4.44-.4-2.07-1.29-2.39-2.57-2.41-3.86.41-.85,2.25-.73,3.6-.95-.89-.52-1.45-1.18-1.72-1.96,3.93-4.96,8.02-8.31,12.3-9.8,1.46.1,2.4.42,2.65,1.04-3.64.68-5.4,1.75-7.38,2.76,1.84.43,3.29,1.23,6.09.68-.58,1.18-1.12,2.42-2.21,2.76-1.73-.01-3.48-.01-7.06.84,1.23.89,2.14,1.91,6.09,1.81.92,1.07.28,1.36.27,1.96-1.45.48-3.99.69-6.82.82,2.38,2.74,6.56,1.14,5.72,4.68-2.05.27-4.11.15-5.52,1.21.98.6,1.8,1.16,5.14,2.1.85.73.88,1.46.88,2.19-2.33.03-3.98.48-4.57,1.54.79.58,2.05,1.06,5.08,1.13.89.61.98,1.16,1.1,1.72-1.13.79-3.5,1.44-6.18,2.05,2.44,1.04,5.88,1.3,10.57.6-2.41-3.09-3.31-6.5-3.36-10.11,1.39-23.34,33.28-28.72,53.78-23.74-15.36-4.83-30.89-6.58-47.16,5.94,6.35-12.54,24.45-13.68,45.95-11.53-16.39-5.41-31.06-3.92-43.98,4.57,9.77-10.95,25.9-12.79,46.39-8.35-18.16-7.25-33.4-6.31-45.52,3.36,7.18-9.2,20.6-12.91,43.03-8.68-15.52-7.68-29.71-4.17-43.43,3.64,11.33-9.37,25.46-12.93,43.54-8.28l-4.04-2.56c6.22,1.86,12.41,3.78,17.62,9.54v1.11c1.98,1.35,3.08,2.69,4.59,4.04-1.39-.34-2.93-.84-3.49-.35,1.67,1.27,3.16,2.63,5.32,3.58.96,1.7,2.07,2.77,2.21,4.3-4.03-2.38-6.65-3.54-8.26-3.84,3.21,2.3,6.29,4.62,10.16,6.76,1.27,1.86,1.91,3.12,2.14,4.81-11.27-7.69-13.66-8.43-14.68-8.08,5.52,3.97,11.09,8.28,16.54,11.39,2.33,2.29,2.98,5.12,4.39,7.71-16.07-13.53-20.99-15.6-24.07-15.79,7.89,5.6,15.68,10.46,23.89,18,3.41,2.84,6.47,6.41,11.02,6.8,2.39.3,4.79.02,7.17-.55-2.02,1.05-4.5,1.85-7.73,2.21-5.23-1-10.57-4.19-15.98-8.83-12.97-9.99-25.78-20.27-44.82-19.48-16.81.76-30.12,7.41-29.93,17.64.31-1.66,1.21-2.3,2.21-2.76.5-2.04,1.68-3.29,4.59-2.56,2.23-.9,3.77-2.27,4.97-3.86h1.66c-1.36,2.06-1.61,3.8-8.08,7.35-1.71.29-2.42-.2-3.51-.38.8.83,1.17,1.94,3.51,1.83,4.69-1.16,7.65-5.14,10.46-9.36l2.01-.93c-3.28,5.51-6.45,11.12-13.78,13.6-1.63-.16-2.93-1.01-4.04-2.21.81,2.08,2.39,3.39,5.01,3.66,6.83-2.68,10.63-9.52,14.84-15.23,2.95-.43,6.36-1.18,7.3-.18,1.6,9.52,3.12,8.3,3.16,12.85-4.04,14.36-12.32,29.64-41.93,32.68-13.05.27-16.5-9.17-16.12-19.63-.51-25.59,13.54-36.33,24.88-49.84-10.87,8.47-20.36,18.65-24.82,35.13,1.13-11.99,8.52-24.47,21.92-37.43-8.8,5.4-14.41,13.74-19.38,22.66,4.72-12.73,14.18-22,23.62-31.27-10.16,6.4-17.86,14.95-23.51,25.22,3.65-11.6,12.75-21.29,22.79-30.65-8.57,6.51-17.25,12.71-23.62,26.76,3.14-7.96,7-16.09,15.87-25.33-6.41,4.46-11.88,10.98-16.36,19.63,2.85-9.53,9.39-17.74,16.71-25.68-8.8,5.94-13.31,14.02-17.68,22.17,3.18-10.02,8.92-19.82,19.52-29.19-8.84,6.04-15.59,13.39-19.27,22.65,2.74-10.38,10.95-19.6,19.73-28.7-10.37,7.05-17.39,16.24-21.3,27.49.22-9.47,10.68-21.8,24.71-35.13-11.82,8.1-20.55,17.91-25.92,29.57,3.82-10.84,10.55-21.1,20.84-30.65-9.92,7.24-17.14,16.05-21.57,26.52,2.82-9.84,8.81-18.83,16.47-27.38-7.57,6.38-13.97,14.04-17.68,24.6,1.73-11.23,9.35-20.59,17.09-29.92-6.71,7.17-14.09,13.39-17.73,24.86,1.18-10.57,9.22-20.59,18.44-30.52-10.21,7.12-15.88,17.77-20.27,29.41.32-9.07,6.39-20.36,19.41-34.31-13.52,10.99-18.12,21.71-21.35,32.37,1.73-15.63,12.19-27.94,23.18-40.05-9.2,7.89-18.75,14.48-24.17,35.9-.3-15.6,12.44-28.73,25.52-41.78-10.63,7.81-20.89,16.79-27.36,37.74,1.52-12.01,10.3-25.88,23.2-40.17-12.55,10.43-19.44,23.32-23.93,36.02,1.69-13.38,11.38-26.75,23.07-40.12-13.7,12.4-23.6,26.17-25.3,42.86-.8-29.94,36.3-60.67,76.05-80.84,39.11-20.29,104.41-28.9,153.88-29.26Zm-167.06,174.66c-3.03.16-9.62,11.46-16.58,14.62-1.97.71-3.95-1.52-5.92-3.62,1.3,2.09.71,4.58,6.38,5.68,7.55-4.19,12.88-13.99,16.67-16.54-.17-.09-.35-.14-.55-.13Zm3.49,2.12c-4.76-.18-10.16,14.49-19.96,16.85-5.99-.93-7.23-4.76-7.48-9.19-.46,5.73.11,10.96,6.64,13.18-5.71,2.12-11.44,2.29-17.15,2.89,7.55,1.15,13.32,4.75,31.04-7.97-8.98,11.88-19.23,10.91-29.1,13.89,11.69,2.54,22.97-1.29,33.69-13.89-6.58,9.82-16.95,17.21-33.82,19.32,19.58,7.21,51.23-28.41,36.58-35.02-.15-.04-.29-.06-.44-.07h0Z"/>
    <path class="cls-3" d="m1008.29,800.86c.95.75,2.14,1.39,2.36,2.5,6.21-1.91,11.44-1.54,16.48-.73-4.18-2.34-9.96-3.35-18.84-1.77Z"/>
    <path class="cls-3" d="m1002.25,797.32c4.3-.65,8.5-1.22,12.36-1.47l1.77,2.06c-3.29-.48-6.57-.34-9.86,1.91-.76-1.83-2.81-1.72-4.27-2.5Z"/>
    <path class="cls-3" d="m985.62,785.84l23.25,7.8-7.36,2.95c-3.72-1.66-9.39-2.21-15.01-2.8l5-2.5c-5.19,1.38-10.89,3.32-15.01,3.53-1.45-.41,6.12-3.34,13.39-6.18-3.83-.59-8.17,1.41-12.36,2.65.64-2.04,3.95-3.79,8.1-5.45Z"/>
    <path class="cls-3" d="m718.04,800.86c-.95.75-2.14,1.39-2.36,2.5-6.21-1.91-11.44-1.54-16.48-.73,4.18-2.34,9.96-3.35,18.84-1.77Z"/>
    <path class="cls-3" d="m724.07,797.32c-4.3-.65-8.5-1.22-12.36-1.47l-1.77,2.06c3.29-.48,6.57-.34,9.86,1.91.76-1.83,2.81-1.72,4.27-2.5Z"/>
    <path class="cls-3" d="m738.21,786.72l-20.76,6.92,7.36,2.95c3.72-1.66,9.39-2.21,15.01-2.8l-5-2.5c5.19,1.38-.27.67,3.86.89,1.44-.41,5.03-.7-2.24-3.54,3.83-.59-1.07-1.23,3.12.01-.64-2.05,2.8-.27-1.34-1.93h0Z"/>
    <path d="m792.86,682.02c-31.1,4.26-59.36,11.91-85,24.16v5.88c6.87-1.35,12.18-1.62,14.73,4.37v35.48c-1.21,7.51-6.1,13.04-13.6,17.18l.22,6.03c23.01-8.86,46.47-16.81,71.15-22.32v-6.25c-2.43.31-4.74.64-7.57.95-5.43.05-10.1-.89-12.5-6.52v-14.95l14.5,10.71v-32.35l18.06,12.94v-35.31Zm-31.02,10.09c4,1.2,9.51,3.35,13.84,5.76,3.81,2.65,8.83,6.5,13.6,10v2.89c-4.7-3.74-9.62-7.96-14.48-11.04-4.09-2.3-8.53-4.41-13.78-5.83-1.2-.46-1.8-.47-3.38,0,.99-1.16,2.32-1.62,4.19-1.79Zm-1.37,5.01l11.86,5.28-11.79,13.71-.07-18.99Zm-42.76,10.02c4.32-.18,7.86,2.05,10.31,8.26v31.69c-.76,4.62-1.77,8.74-3.78,10.86.82-2.28,1.62-4.58,2.03-8.5v-32.64c-1.21-5.25-5.37-7.22-9.45-9.61.3-.04.6-.05.89-.07Zm43.31,13.47l10.84,7.29v2.47l-11.68-8.39c.19-.33.2-.3.27-.42.1-.17.2-.35.2-.35-.01.04-.2.39.38-.6Zm5.12,30.25c1.37.25,2.74.74,4.11,1.41-7.83.39-35.93,9.11-53.27,16.87.46-.8.43-1.25,2.05-2.82,16.51-7.02,31.84-11.32,47.11-15.46Z"/>
    <path d="m860.61,676.28c-1.53,0-3.05.02-4.59.02-20.47.14-41.27,1.52-62.88,5.76l-.05,5.54c7.13-1.27,12.79,2.24,15.37,8.11v37.1c-2.64,5.14-6.82,9.51-14.84,11.96l-.16,5.72c1.74-1.91,61.8-6.44,63.03-5.43v-6.36c-9.72.14-13-4.65-15.17-10.29v-35.73c2.57-5.82,7.04-8.6,11.13-9.78,9.33-2.36,20.57,35.02,35.06,62.71l22.25,1.86,20.73-49.22c2.35-4.74,5.85-7.62,10.44-8.77,5.95,2.57,8.44,6.68,8.77,11.79v37.76c-.68,6.06-5.89,7.59-14.66,5.56v6.58c18.12,1.46,46.81,10.51,79.23,22.26v-35.91l-4.72-1.35-12.14,7.75v-27.32l11.81,14.48,4.37,1.7v-28.66c-28.55-12.53-65.16-22.67-121.03-27.14-10.62-.38-21.25-.71-31.97-.73Zm-4.15,3.95h4.11c4.05,4.11,6.05,8.21,8.21,12.32l22.04,48.45,17.46.88-.44,2.21-18.34-1.61-22.17-49.04c-2.69-5.43-5.92-9.98-10.86-13.21Zm-7.46.02c-2.74,1.84-5.47,4.42-8.21,6.98.55-2.38,2.56-4.65,5.87-6.84l2.34-.13Zm52.39,1.48c-2.81,1.73-5.64,4.2-8.48,6.64.64-2.35,2.74-4.54,6.14-6.6l2.34-.04Zm12.32,1.43h4.11c3.88,3.47,6.24,7.78,6.6,13.2l-14.53,37.14-.44-2.05,12.91-32.75c1.4-8.47-3.55-12.06-8.65-15.55Zm-6.93,1.12c9.68,1.52,12.53,8.43,13.36,11.18l-11.74,28.95-14.11-30.56c.54-6.81,6.63-8.08,12.5-9.56Zm-105,.38c5.8-.12,8.3,3.15,10.82,8.26l.27,39.06c.09,2.09-.86,3.66-2.03,5.12.54-1.73.72-3.8.95-5.83l-.25-35.77c-1.39-6.98-6.56-8.3-10.97-10.78.41-.04.82-.06,1.21-.07Zm135.38,2.03c.52.02,1.08.09,1.66.27-3.87,1.16-7.04,4.46-10.13,7.93,2.3-4.51,4.82-8.27,8.48-8.2Zm11.63,1.02c2.52,1.74,5.01,5.89,5.43,10.71l.44,38.46c-.5,4.27-2.25,7.07-3.54,8.21.73-2.17,1.48-4.39,2.21-7.33l-.73-37.14c-1.08-3.72.8-6.36-7.64-12.79l3.82-.13Zm31.55,8.21l8.08,2.34,22.45,27.03.15,2.93-24.66-29.21-6.16-1.2.13-1.9Zm2.05,5.59l2.05.13,9.56,11.46-11.61,7.33v-18.93Zm1.61,22.75l10,12.34v3.38l-11.46-14.24,1.46-1.48Zm-1.46,7.04l12.03,14.24-12.03,7.36v-21.6Zm-135.49,9.03c1.62.47,1.87,1.39,2.63,2.14-14.79-1.21-41.42,3.1-48.39,3.82.66-.61,1.17-1.1,2.74-2.62,14.98-1.75,28.97-2.51,43.03-3.34Zm102.02,7.27c22.38,5.82,44.17,11.84,61.95,19.1l-.44,2.49c-24.13-9.77-45.94-16.16-65.77-19.67l4.26-1.92Z"/>
    <path d="m869.67,958.24l-95.3-180.67-6.24,1.5,91.07,180.17,16.21,1.75,83.83-181.42-3.75-.25-82.83,178.92h-3Z"/>
    <path d="m877.46,771.74l36.91,73.84,30.18-68.73-4.61-1.25-33.8,46.65-26.06-51.64-2.62,1.12Z"/>
  </g>
</svg>