<svg xmlns="http://www.w3.org/2000/svg" viewBox="0 0 430 219.011"><defs><style>.cls-1{fill:purple;}</style></defs><g id="레이어_2" data-name="레이어 2"><g id="레이어_1-2" data-name="레이어 1"><path class="cls-1" d="M429.083,173.529c-1.206-1.1-2.344-.737-3.515.276-1.44,1.246-2.467,2.728-4.763,3.212-11.567,2.437-23.216,1.07-34.491-.547A137.542,137.542,0,0,1,334.409,157.9c-6.786-4.108-13.509-8.346-19.446-13.81-3.113-2.865-1.059-3.83.735-5.082,6.352-4.437,10.85-10.649,14.828-16.947,8.789-13.917,14.009-29.64,21.052-44.454,2.711-5.7,5.208-11.784,6.229-17.953a180.53,180.53,0,0,0,2.273-35.517,34.521,34.521,0,0,0-2.186-10.977c-2.814-7.54-13.747-11.38-19.46-6.962A71.222,71.222,0,0,0,322.958,22.04c-1.894,2.751-3.431,6.027-6.689,8.254-.1-1.185-.145-1.843-.214-2.5-.871-8.309-2.671-15.946-10.558-20.95C297.79,1.956,289.418.388,280.58.021,272.825-.3,267.411,3.109,262.9,9.387c-7.537,10.489-6.868,22.244-5.056,33.651,2.185,13.748,7.581,26.714,13.054,39.559a244.041,244.041,0,0,0,33.8,56.373c1.331,1.675,1.524,2.05-.47,3.547-5.575,4.183-11.954,6.561-18.31,8.94-5.251,1.966-7.9.447-10.886-4.386-2.757-4.467-2.735-9.584-3.958-14.408-.361-1.422-.482-3.072-2.018-3.663-1.807-.694-3.187.342-4.273,1.738a32.018,32.018,0,0,0-2.015,2.764c-2.92,4.718-6.137,9.292-8.6,14.24-2.437,4.891-6.109,4.492-9.939,3-3.926-1.527-3.7-5.428-2.909-8.493a33,33,0,0,0,.822-9.325c-.073-2.628,1.614-6.856-1.129-7.6-3.642-.985-4.208,3.79-5.747,6.206-4.982,7.826-9.643,15.856-14.4,23.826-1.519,2.547-3.843,2.987-6.432,2.452-3.085-.638-2.3-3.228-2.3-5.261a25.159,25.159,0,0,1,.567-5.87,97.926,97.926,0,0,1,8.815-23.692,4.751,4.751,0,0,0-.036-5.152c-1.294-1.817-2.9-.418-4.456-.061a7.749,7.749,0,0,0-2.957,1.624c-6.55,4.819-13.376,9.353-16.462,17.606-.415-4.175-.3-8.105-.479-12.021-.064-1.388,1.168-3.758-1.464-3.978-2.058-.172-3.072,1.453-3.6,3.415-1.945,7.192-.893,14.5-.7,21.738.079,2.941,1.953,6.113-.453,8.563-1.143,1.165-6.143-4.7-6.768-8.181a7.248,7.248,0,0,1-.027-1.5c.167-5.092-.739-10.3,1.614-15.159.759-1.567.561-3.055-1.123-3.761-1.639-.687-2.83-.405-3.933,1.558a58.08,58.08,0,0,1-6.768,9.57c-5.782,6.661-11.525,13.453-19.617,17.53-5.077,2.559-8.623.684-8.024-4.811a43.493,43.493,0,0,1,10.079-24c1.006-1.177,3.4-1.759,2.471-3.74-1.086-2.321-3.464-1.523-5.337-1.043a22.908,22.908,0,0,0-4.966,2.028c-.966.511-1.666.927-2.6.005-3.032-3-5.609-.945-6.887,1.509-4.349,8.351-11.113,15-15.764,23.1-3.2,5.571-3.164,5.59-10.615,2.914,7.444-5.833,8.5-14.972,12.712-22.421.815-1.443,1.418-3.089.215-4.024-1.372-1.065-3.071-.352-4.37,1.012-5.718,6-10.623,12.667-12.777,20.663a11.234,11.234,0,0,1-4.607,6.6c-3.684,2.659-7.522,5.115-12.031,6.422-2.984.864-5.908,1.681-8.357-.54-2.418-2.192-1.264-5.119-.706-7.857,2.128-10.436,7.452-19.346,13.271-28.021,1.2-1.785,3.177-3.831,1.933-5.716-1.381-2.092-4.327-1.169-6.4-.616-5.474,1.461-10.836,3.338-16.4,5.1.451-13.393-2.239-25.676-9.676-37.307C59.9,75.358,54.253,69.288,43.162,70.951c-9.625,1.443-18.907,3.486-26.185,10.673-1.837,1.814-2.673,4.109-3.613,6.333a2.834,2.834,0,0,0,1.453,3.827c2.1.928,2.631-1,2.971-2.262a11.16,11.16,0,0,1,3.709-5.6c7.5-6.713,16.444-8.153,26.076-8.06,3.8.037,6.6.943,9.018,3.9,9.69,11.811,15.08,25.1,14.618,40.563-.065,2.181-.894,3.166-2.8,4.035a125.371,125.371,0,0,0-13.986,6.992c-9.682,5.972-20.438,10.3-28.514,18.776-8.6,9.029-14.175,19.888-19.841,30.815C.879,190.943-.689,201.381.262,212.355c.238,2.739,1.335,6.171,4.337,6.3,6.846.295,13.847,1.173,20.49-1.759,14.747-6.51,25.217-17.742,32.93-31.356,4.7-8.294,7.935-17.467,11.33-26.434a98.084,98.084,0,0,0,5.612-24.162c.872-8.078.951-9.318,8.593-11.652,2.259-.69,4.532-1.447,7.652-2.58-2.129,3.566-3.978,6.292-5.454,9.206-4.313,8.514-8.117,17.222-7.573,27.086.228,4.14,2.439,6.61,6.732,6.885,5.872.377,11.522-.383,16.262-4.175,5.2-4.161,10.625-5.167,17.053-2.96,2.931,1.006,6.694,1.4,7.5-3.687.267-1.685,1.9-3.153,3.406-5.485,0,2.787,0,4.6,0,6.4.008,1.921.138,3.719,2.715,3.917s2.955-1.726,3.231-3.464c1.405-8.836,4.458-16.854,11.639-23.924-1.438,4.811-2.758,8.769-3.788,12.8-1.142,4.464-2.18,9.236.461,13.336,3.067,4.762,11.419,4.607,17.233.226a95.841,95.841,0,0,0,18.193-18.015c.956,12.108,1.972,14.47,8.207,19.615,2.88,2.375,8.575,2,8.942-.746.774-5.792,4.183-10.569,5.613-16.17,1.665-6.526,5.231-12.482,12.314-15.052.048.3.219.658.129.934-.253.768-.641,1.49-.929,2.248-3.222,8.466-5.727,17.05-5.042,26.291.227,3.067,1.132,5.851,4.216,6.416,3.391.623,7.522,2.168,10.114-1.485,2.313-3.26,5.009-6.241,6.8-9.949,2.064-4.267,4.9-8.165,7.9-13.043,0,3.565.027,6.06-.007,8.554-.046,3.3.756,6.552,3.893,7.836,4.185,1.713,8.653,3.03,13.143.3,4.027-2.453,5.593-6.7,7.906-10.394,1.541-2.459,2.373-6.577,4.952-6.692,1.671-.074,1.037,4.843,2.182,7.227,1.867,3.888,2.128,9.526,6.8,10.785a21.626,21.626,0,0,0,12.708-.479,83.984,83.984,0,0,0,17.076-8.031c1.766-1.113,3.681-2.044,5.837-.139,14.721,13.01,31.765,21.883,50.353,27.948,18.89,6.164,38.361,7.691,58.06,6.946a12.16,12.16,0,0,0,9.014-4.388C430.146,176.009,430.478,174.8,429.083,173.529ZM67.838,149.05c-3.618,12.992-8.157,25.941-15.684,37.192-8.377,12.522-18.581,23.547-33.85,28.112a24.366,24.366,0,0,1-10.838.331c-3.809-.609-3.226-4.427-3.514-7.313-.1-.988-.016-1.994-.016-2.991.516-10.809,5.371-20.135,10.271-29.4,3.99-7.54,8.5-14.834,14.46-20.978,8.237-8.5,19.033-13.286,29.107-19.081,3.248-1.869,6.74-3.318,9.974-5.207,2.733-1.6,3.4-.759,3.444,2.073C71.283,137.788,69.38,143.516,67.838,149.05Zm239.906-12.966c-4.572-6.166-9.447-12.16-13.446-18.686C285.47,103,276.629,88.5,271.24,72.378c-4.616-13.812-10.932-27.32-10.132-42.416.475-8.971,2.752-17.265,10.517-22.976C277.041,3,282.983,3.727,288.986,5.042c9.981,2.186,18.82,6.16,21.931,16.922,2.481,8.585.9,17.36-.43,26a13.131,13.131,0,0,0-.377,3.879c.231,1.486-1.368,3.98,1.868,4.14,2.646.131,2.718-2.035,3-3.685a69.423,69.423,0,0,1,3.866-14.044c4.695-11.855,12.818-20.849,22.789-28.342,4.182-3.143,7.718-2.006,10.485,2.354,3.918,6.172,4.261,12.944,3.872,19.169.476,19.769-4.514,37.369-12.982,54.361-4.178,8.383-7.806,17.086-11.8,25.6-4.695,10.007-11.722,17.955-19.522,25.47C309.682,138.792,308.673,137.337,307.744,136.084Z"/></g></g></svg>