<svg xmlns="http://www.w3.org/2000/svg" viewBox="0 0 536.424 409.561"><defs><style>.cls-1{fill:#467ec5;}.cls-2{fill:#467dc5;}</style></defs><g id="레이어_2" data-name="레이어 2"><g id="레이어_1-2" data-name="레이어 1"><path class="cls-1" d="M535.811.23c-1.4-.763-2.181.51-2.67,1.768-.222.57-.571,1.089-.828,1.648-5.525,12.021-10.656,24.243-16.665,36.017-7.686,15.06-17.85,28.666-26.569,43.132-4.76,7.9-10.842,14.844-16.437,22.136-6.427,8.375-12.43,17.16-19.581,24.875q-16.974,18.313-34.529,36.11c-27.885,28.314-56.3,56.1-83.536,85.058-6.751,7.178-13.958,13.926-20.87,20.954-4.526,4.6-8.494,9.841-13.42,13.947-13.589,11.328-27.173,22.727-41.458,33.14-18,13.121-35.33,27.162-54.606,38.581-22.98,13.614-45.443,28.082-69.806,39.237a127.086,127.086,0,0,1-21.063,7.4c-2.947.765-5.651,2.4-8.849,2.3-9.56-.312-19.121.333-28.7-.663a34.786,34.786,0,0,1-19.711-9.042c-8.9-8.063-14.393-18.951-17.276-30.569-3.779-15.222-5.91-30.775-4.721-46.563.358-4.75,1.259-8.98,5.253-12.747,5.46-5.15,11.1-10.133,16.567-15.274,2.734-2.568,5.794-4.805,8.34-7.637,1.094-1.218,4.569-1.261,3.161-3.485-1.228-1.94-3.454.582-5.236,1.118a2.563,2.563,0,0,0-1.13.945c-3.905,5.171-9.067,9.039-13.994,13.086-3.919,3.221-7.242,7.069-11.323,10.43.967-7.708,2.361-15.084,2.657-22.5.193-4.834,2.508-7.1,6.4-8.62,6.829-2.672,13.56-5.547,20.105-8.87,1.434-.728,3.937-.987,4.111.9.346,3.763,2.777,5.128,5.491,6.65.785.44,1.151,1.069,2.092.182,1.22-1.151.041-1.548-.388-2.337-.951-1.75-3.465-1.706-4-4.093-1.07-4.749-4.339-6.135-8.664-3.979-7.556,3.765-15.287,7.132-23.584,10.462.359-1.689.642-2.856.851-4.035,1.541-8.671,2.572-17.468,4.709-25.988,3.588-14.3,6.779-28.731,12.5-42.445,4.829-11.58,10.22-22.823,17.7-32.92,2.019-2.725,3.6-6.485,8.127-6.287.683.029,1.149-.873,1.12-1.723-.038-1.112-.88-1.03-1.6-1.032-3.443-.011-6.772.136-7.764,4.476a5.526,5.526,0,0,1-1.37,2.148c-11.23,12.848-17.365,28.5-22.691,44.2-6.671,19.661-10.838,40.071-13.912,60.661-.3,2,.311,4.86-2.414,6.169-9.185,4.412-18.028,9.523-27.5,13.348-2.338.943-5.071.981-6.979,2.969-.723.754-1.569,1.632-.9,2.568a2.233,2.233,0,0,0,2.786.3c4.61-3.318,10.264-4.3,15.157-7.013,5.655-3.13,11.564-5.8,18.083-9.032-1.04,8.677-2.47,16.563-2.764,24.491-.2,5.282-2.854,8.5-6.431,11.358a85.068,85.068,0,0,0-13.082,13.107c-.932,1.156-2.013,2.588-.826,3.508,1.618,1.254,2.59-.594,3.315-1.822,3.83-6.491,10.513-10,15.761-16.267,0,3.306,0,5.425,0,7.545,0,7.914-.892,15.958.231,23.711,1.478,10.2,3.146,20.448,7.13,30.208,4.266,10.454,9.97,19.651,19.449,25.928,3.6,2.385,7.273,5.09,11.719,5.937,11.056,2.107,22.248,1.475,33.4,1.5a18.206,18.206,0,0,0,4.01-.453c15.083-3.336,29.052-9.593,42.624-16.639,15.543-8.07,30.429-17.336,45.539-26.2,18.337-10.751,35.521-23.07,52.528-35.735,11.029-8.213,21.978-16.526,32.535-25.32,8.712-7.256,18.138-13.666,25.975-21.981,9.563-10.146,19.967-19.462,29.242-29.911,7.1-8,15.092-15.149,22.362-23.022,11.147-12.072,22.933-23.552,34.4-35.327,14.432-14.813,29.521-28.969,43.586-44.158,9.334-10.079,19.427-19.406,27.61-30.582,10.35-14.134,21.8-27.4,31.2-42.31,11.7-18.559,23.572-36.953,32.19-57.223,2.492-5.859,5.2-11.628,7.867-17.41C536.347,2.135,536.863.8,535.811.23Z"/><path class="cls-1" d="M94.694,150.423c1.389.084,1.179-.97,1.2-1.8.043-1.62-.417-3.422.135-4.834,3.4-8.694,4.453-18,7.236-26.856,3.451-10.983,7.738-21.623,12.083-32.259,2.037-4.988,3.894-10.051,6.054-15.653.979,1.977,1.673,3.266,2.269,4.6,4.289,9.6,9.325,18.815,14.1,28.168,3.073,6.022,8.085,10.732,10.826,16.95.813,1.846,2.9.933,4.437,1.012,1.575.081,1.1-1.237,1.324-2.131a93.058,93.058,0,0,0,1.632-10.527c.732-5.38.8-10.836,1.67-16.138a207.584,207.584,0,0,1,10.151-37.029c2.058-5.663,4.15-11.237,7.944-16.081.739,4.662,3.407,8.355,4.735,12.521,5.848,18.345,10.952,36.982,22.505,52.92.9,1.246,1.78,1.88,2.98,1.4,1.675-.665.482-1.831.049-2.724-.316-.651-.9-1.168-1.274-1.794-3.091-5.115-6.76-9.983-9.122-15.417-5.692-13.1-9.385-26.958-14.346-40.347-.928-2.5-2.326-4.761-2.475-7.652-.068-1.306-.788-3.964-2.9-4.106-1.832-.124-2.012,2.129-2.88,3.386-5.366,7.771-7.991,16.7-10.916,25.512-3.862,11.632-7.377,23.327-7.789,35.715-.168,5.041-2.057,9.892-1.672,15.043a3.927,3.927,0,0,1-1.483,3.4c-10.1-11.54-15.828-25.566-22.8-38.853-2.04-3.887-3.555-8.046-5.5-11.988-.383-.777-.706-2.459-2.29-1.866a2.884,2.884,0,0,0-2.175,3.092,10.519,10.519,0,0,1-1.133,4.993c-4.389,11.4-8.682,22.841-13.317,34.141C98.916,117.5,97.5,130.785,93.033,143.214c-.595,1.656-.138,3.714-.054,5.581A1.652,1.652,0,0,0,94.694,150.423Z"/><path class="cls-1" d="M270.359,143.363c.724.215,1.555.724,2.012-.007.95-1.523-.095-2.34-1.3-3.2-1.313-.937.08-1.6.448-2.422,2.133-4.785,6.85-7.4,9.629-11.658a89.588,89.588,0,0,1,12.736-14.85c9.774-9.533,20.56-17.929,31.639-25.94,6.524-4.718,9.735-3.911,12.23,3.595.346,1.041.566,2.123.852,3.184a366.165,366.165,0,0,1,8.241,38.3c1.371,8.7,4.318,17.008,6.428,25.523,1.048,4.231-.767,8.981,2.27,12.93.2.259-.486,1.346-.924,1.925a132.591,132.591,0,0,0-16.229,26.746c-1.77-1-2.253-2.438-2.824-3.789-4.749-11.234-12.088-20.949-18.326-31.31-3.209-5.332-6.386-10.7-9.219-16.232-.568-1.111-1.185-2.213-2.031-2.075-1.315.215-1.19,1.719-1.056,2.824a5.445,5.445,0,0,0,.721,2.049c2.432,4.106,4.874,8.208,7.383,12.268,7.327,11.856,15.286,23.345,20.99,36.142.745,1.672,1.2,3.347,3.745,3.368,2.5.02,3.093-1.494,3.861-3.217,3.36-7.541,8.053-14.3,12.511-21.193.47-.726.882-2.041,1.649-1.705,3.991,1.75,2.94-1.241,3-3.078a7.8,7.8,0,0,1,.975-3.062c1.963-4.289,5.807-6.521,9.282-9.215.567-.44,2.143-.925,1.094-2.216-.771-.948-1.629-.482-2.619.036-4.023,2.1-6.95,5.413-9.933,8.66-1.22-1.284-1.1-2.894-1.009-4.463a27.9,27.9,0,0,0-1.558-11.261c-3.384-9.238-4.967-18.878-6.693-28.493-2.223-12.38-4.717-24.692-8.993-36.568-1.916-5.322-6.252-7.29-11.116-4.485-11.979,6.912-22.291,16.046-32.694,25.056-9.62,8.33-16.116,19.4-25.105,28.284a8.841,8.841,0,0,0-3.058,6.5C267.418,142.553,268.762,142.889,270.359,143.363Z"/><path class="cls-1" d="M419,67.708a2.372,2.372,0,0,0-1.7,2.256c.009.587.056,1.416.419,1.685a1.752,1.752,0,0,0,1.69-.154c2.733-2.568,6.523-3.244,9.461-5.518a65.819,65.819,0,0,1,16.647-9.121c2.045-.8,2.759-.083,3.093,1.457,1.055,4.864,2.479,9.857,2.777,14.63.469,7.536,4.917,13.905,4.919,21.38,0,1.129,1.085,1.538,2.217,1.5.865-.027,1.472-.255,1.353-1.448-.828-2.4-.674-5.371-1.691-7.662-4.28-9.648-4.114-20.247-7.047-30.147a1.51,1.51,0,0,1,.553-1.877A25.067,25.067,0,0,1,462.267,49.3a15.075,15.075,0,0,0,4.564-2.237c1.138-.725.712-2.063.417-3.049-.276-.921-1.5-.746-1.853-.271-1.712,2.327-4.513,2.31-6.78,3.417-9.32,4.549-18.886,8.592-27.876,13.821C426.847,63.245,423.529,66.5,419,67.708Z"/><path class="cls-1" d="M366.623,137.689c1.388.1,1.252-1.013,1.164-1.812-.792-7.234,1.809-14.222,1.546-21.9-.493-2.765.481-5.9.713-9.092.057-.785.1-1.634.866-1.9.83-.286,1.22.647,1.776,1.085,4.7,3.7,9.421,7.389,14.082,11.144.749.6,1.179.647,1.805-.057.521-.586,1.075-1.1.172-1.768-1.463-1.083-2.377-2.661-4.271-3.439-5.04-2.07-5.732-8.032-1.331-10.906,3.349-2.189,6.655-4.618,10.728-5.361,1.657-.3,2.811-1.017,3.1-2.685.235-1.34-.557-2.7-1.75-1.617-2.408,2.177-5.633,2.16-8.285,3.814-3.388,2.113-6.229,4.783-9.4,7.082-1.116.809-2.329,2.7-4.106.8-1.3-1.393-3.75-2.136-2.1-4.986.642-1.108.868-3.256-1.3-3.485-1.883-.2-2.412,1.436-2.193,3.01a25.49,25.49,0,0,1-.907,10.435c-.878,3.109-.6,6.165-.548,9.23a20.869,20.869,0,0,1-.6,6.411c-1.307,4.454-.976,9.076-.972,13.653C364.822,136.6,365.194,137.589,366.623,137.689Z"/><path class="cls-1" d="M205.156,230.711c-3.586.077-7.18,1.027-10.837.633-1.448-.157-2.773.6-2.815,1.831-.052,1.5,1.578,1.14,2.61,1.142,3.96.009,7.929-.54,11.838-.592,19.375-.26,38.764.256,58.093-1.64,4.117,0,8.236.07,12.35-.05,1.008-.029,2.88.961,2.884-1.118,0-1.454-1.6-1.811-2.783-1.779-10.179.272-20.41-.944-30.526.815a37.151,37.151,0,0,1-6.412.838C228.09,230.768,216.617,230.464,205.156,230.711Z"/><path class="cls-1" d="M202.689,148.764c.009,1.059,1.488.984,2.493.978,2.242-.015,4.485,0,6.727,0,6.006,0,6.015,0,5.326,6-.068.6-.388,1.159-.5,1.754-.735,3.841-2.2,7.564-1.744,11.6.142,1.26.455,2.193,1.87,2.3,1.1.082,1.2-.757,1.116-1.492-.613-5.243,2.354-10.134,1.512-15.379-.612-3.815.738-5.253,4.729-4.862a107.683,107.683,0,0,0,11.577.064c1.37-.014,3.1-.27,3.034-1.883-.076-2-1.8-1.219-3.087-1.141-1.985.12-3.984.031-5.977.031v.019h-2.99c-6.356,0-6.353,0-5.787-6.163.046-.494-.018-1,.017-1.493.357-5.168-.768-10.4.667-15.523.235-.841-.217-1.261-.991-1.688-.911-.5-1.3-.008-1.858.458-1.156.965-.747,2.273-.813,3.473-.329,6.049.475,12.107-.61,18.18-.409,2.285-.928,2.911-3.1,2.8-2.981-.159-5.977-.017-8.967-.045C203.875,146.728,202.68,147.545,202.689,148.764Z"/><path class="cls-1" d="M230.848,195.722c.543-.423,1.52-.425,1.273-1.9a1.732,1.732,0,0,0-2.668-.7,28.476,28.476,0,0,1-3.465,2.048,259.052,259.052,0,0,0-32.724,16.611,110.3,110.3,0,0,0-12.134,8.907c-1.126.891-2.122,2.068-.636,3.4,1.74,1.559,2.168-.418,3.018-1.282,1.572-1.6,2.938-3.6,4.828-4.65,10.593-5.873,20.65-12.748,32-17.225C223.978,199.493,227.7,198.178,230.848,195.722Z"/><path class="cls-1" d="M406.788,32.257c.723,1.541.157,4.565,2.541,4.2,2.269-.343.76-2.585.57-4.15-.263-2.173.182-4.246,2.98-4.663,3.811-.569,6.959-3.06,10.987-3.39,2.612-.214,3.768.673,3.776,2.61.025,6.186,2.53,12.123,1.631,18.391-.388,2.7.864,4.326,3.8,4.145.769-.047,1.841.43,2.095-.9.19-1-.552-1.243-1.224-1.561-1.033-.489-1.957-1.01-1.72-2.45,1-6.124-1.365-11.966-1.619-18.006-.1-2.337-.977-5.331-4.249-5.452-5.876-.216-11.154,2.19-16.267,4.651a5.859,5.859,0,0,0-3.318,5.828A1.969,1.969,0,0,0,406.788,32.257Z"/><path class="cls-1" d="M394.763,80.858c3.8,10.5,11.178,19.475,13.193,30.747a4.222,4.222,0,0,0,.886,1.589,1.531,1.531,0,0,0,1.677.517c.833-.191.654-.907.762-1.7-1-2.667-1.309-5.687-2.466-8.565-2.964-7.37-7.311-14.046-10.356-21.359-1.124-2.7-2.3-5.38-3.388-8.093-.453-1.125-1.35-2.037-2.36-1.668-1.287.471-1,1.663-.415,2.82A50.862,50.862,0,0,1,394.763,80.858Z"/><path class="cls-1" d="M414.411,78.967c1.514,4.5,3.15,8.965,3.692,13.748.114,1,.686,2.452,2.468,1.8,1.324-.484,2.572-1.446,1.717-2.683-2.558-3.695-2.886-8.089-4.3-12.131-2.645-7.577-5.2-15.183-7.865-22.754-.347-.988-.71-2.2-2.457-2.254-1.578.728-.828,1.917-.386,3.2C409.7,64.905,412.047,71.939,414.411,78.967Z"/><path class="cls-2" d="M146.483,244.665c3.832-.963,2.278-3.661,2.607-5.665,0-.859-.008-1.606,0-2.353.021-1.47.321-3.376-1.708-3.47-1.975-.091-4.951-.016-5.3,2.118-.445,2.727-2.471,5.734.343,8.656,1.64,1.7.647,4.3.571,6.465-.071,1.988-1.974.76-2.969,1.206-.712.321-1.411.741-1.264,1.584.132.754.78,1.129,1.585,1.325,3.821.927,5.684-.576,5.767-4.579C146.155,248.112,145.4,244.937,146.483,244.665Zm-.768-3.6h-.31c-1.095-.754-.9-2.144-1.537-3.123a2.016,2.016,0,0,1,2.156-1.355,3.14,3.14,0,0,1,0,4.476Z"/><path class="cls-1" d="M156.177,255.292c2.774,0,7.487-3.735,7.826-6.384.105-.821.645-2.091-.752-2.507a1.643,1.643,0,0,0-2.061,1.164c-.957,2.741-2.454,5.162-5.651,4.631-3.037-.5-4.563-3.229-5.634-5.9-.368-.916-.469-1.686-1.6-1.4-1.356.342-1.606,1.435-1.424,2.63C147.286,250.174,153.446,255.29,156.177,255.292Z"/><path class="cls-1" d="M133.242,221.226c-.724-.209-.982.469-1.414.821-1.047.852-.72,2.053-.693,3.124a31.21,31.21,0,0,0,2.226,11.424,2.562,2.562,0,0,0,3.744,1.3c1.956-1.063-.154-1.729-.636-2.635-1.878-3.53-2.847-7.36-1.959-11.285C134.876,222.358,134.716,221.7,133.242,221.226Z"/><path class="cls-1" d="M153.593,225.7a2.307,2.307,0,0,0,2.448.2c.934-.575.623-1.537-.031-2.2-1.656-1.679-.567-3.765-.952-5.621-.229-1.106.946-3.087-1.294-3.07-1.886.014-1.656,1.765-1.673,3.106-.008.616,0,1.232,0,2.133C152.308,221.947,151.362,224.233,153.593,225.7Z"/><path class="cls-2" d="M146.024,236.586a5.118,5.118,0,0,1,0,4.476A3.14,3.14,0,0,0,146.024,236.586Z"/><path class="cls-2" d="M146.024,236.586v4.476A5.118,5.118,0,0,0,146.024,236.586Z"/><path class="cls-2" d="M143.868,237.941c.638.979.442,2.369,1.537,3.123C144.679,240.128,145.218,238.57,143.868,237.941Z"/><path class="cls-2" d="M143.868,237.941c1.35.629.811,2.187,1.537,3.123C144.992,239.974,146.246,238.064,143.868,237.941Z"/></g></g></svg>