<svg xmlns="http://www.w3.org/2000/svg" viewBox="0 0 282.193 168.585"><defs><style>.cls-1{fill:#efa857;}.cls-2{fill:#d39752;}.cls-3{fill:#cd9453;}.cls-4{fill:#b48c5e;}.cls-5{fill:#b8a999;}.cls-6{fill:#cf9553;}.cls-7{fill:#b88d5c;}.cls-8{fill:#d69953;}.cls-9{fill:#d49b59;}</style></defs><g id="레이어_2" data-name="레이어 2"><g id="레이어_1-2" data-name="레이어 1"><path class="cls-1" d="M68.131,34.166c-1.408-2.254-2.924-4.439-4.349-6.683-.715-1.126-.739-1.972.7-2.79C74.384,19.062,84.16,13.2,94.552,8.479c3.1-1.409,6.276-2.662,9.423-3.974a2.606,2.606,0,0,0,1.6-2.8c0-1.566-1.248-1.132-2.037-1.5-1.071-.5-1.953.033-2.861.369a154.387,154.387,0,0,0-19.414,9.07A716.891,716.891,0,0,0,19.356,47.554c-3.444,2.326-6.734,4.885-10.045,7.4a2.422,2.422,0,0,0-.854,3.3c.722,1.361,1.977,1.441,3.248,1.2A3.625,3.625,0,0,0,14.516,57.6a4.94,4.94,0,0,1,1.642-1.844c13.317-9.428,27.1-18.137,40.988-26.7.718-.442,1.227-.708,1.847.2,3.6,5.292,7.288,10.524,9.63,16.556,3.768,9.709,5.247,19.864,6,30.168a12.219,12.219,0,0,1,0,6.921h0c-.478,11.6-2.175,23-6.114,33.957-5.054,14.058-11.367,27.384-23.325,37.119-7.461,6.075-15.46,10.883-25.65,9.409-5.935-.859-11.653-2.442-14.961-8.142-.994-1.714-2.467-1.188-3.58-.905-1.194.3-1.1,1.755-.8,2.817a9.123,9.123,0,0,0,3.194,4.674A30.6,30.6,0,0,0,28.762,168c8.241-1.5,14.963-6.214,21.163-11.655C61.1,146.538,67.6,133.764,72.5,120.1A113.574,113.574,0,0,0,78.693,67.86C77.293,55.924,74.573,44.48,68.131,34.166Z"/><path class="cls-1" d="M219.018,66.079l2.938-.019h0A29.376,29.376,0,0,0,229.078,65c13.812-3.541,26.459-9.789,38.828-16.68,2.4-1.335,4.771-2.722,7.088-4.19,1.3-.826,2.167-2.163,1.08-3.562a2.788,2.788,0,0,0-3.7-.483c-.439.237-.844.536-1.274.789-12.708,7.473-25.745,14.238-39.921,18.553a31.917,31.917,0,0,1-10.039,1.646c1.725-1.168,3.514-2.125,5.291-3.1,2.391-1.32,4.367-3.362,7.1-4.09a1.831,1.831,0,0,1,2.439,0h0c4.4.178,8.033-1.952,11.6-4.046,4.747-2.792,9.509-5.383,14.991-6.522a18.938,18.938,0,0,0,9.5-5.219c3.024-2.994,5.26-6.446,5.48-10.86.067-1.335.058-2.582-1.907-2.827-1.946-.242-2.524.711-2.805,2.263-1.3,7.177-6.128,10.719-12.779,12.289a37.831,37.831,0,0,0-10.4,4.055c-2.586,1.5-5.187,2.981-7.824,4.393a11.041,11.041,0,0,1-6.19,1.585,12.293,12.293,0,0,0-8.175,2.472c-2.941,2.018-5.847,4.164-9.39,5.022-.512.124-1.021,1.537-1.746.222a1.715,1.715,0,0,1,.561-2.221c1.807-1.5,3.165-3.316,5.709-4.206,6.494-2.271,12.778-5.167,19.078-7.965,8.424-3.742,16.96-7.294,24.53-12.688,2.9-2.067,5.323-4.53,6.153-8.173a1.991,1.991,0,0,1,0-2.433h0c-.915-3.606-3.569-5.313-6.926-5.994a29.363,29.363,0,0,0-12.9.466c-12.312,2.992-23.212,8.519-31.969,17.827a19.357,19.357,0,0,0-5.581,14.744c.158,2.991.137,2.995-1.8,5.2-2.412,2.747-2.814,7.077-.493,9.061,2.008,1.716,2.7,4.179,4.255,6.111l1.023.028A1.113,1.113,0,0,1,219.018,66.079Zm.894-23.39c1.878-7.838,7.931-12.033,14-16.195,5.293-3.628,11.253-5.862,17.31-7.792,1.844-.587,3.9-.505,5.758-1.2h0a9.265,9.265,0,0,1,6.991.086c4.322,1.523,4.689,3.162,1.257,6.4-3.982,3.762-8.924,6.033-13.76,8.414-8.987,4.425-18.252,8.228-27.5,12.06-.537.222-1.059.491-1.613.658-.884.268-1.811,1.63-2.5.867S219.633,43.853,219.912,42.689Z"/><path class="cls-1" d="M199.38,52.29c-.215-1.561-.529-3.256-2.612-3.435-1.944-.167-2.468,1.231-2.967,2.742a60.524,60.524,0,0,1-10.1,19.07,45.316,45.316,0,0,1-10.131,9.556c-.519.347-1.159.994-1.78.546-.565-.408-.363-1.277-.22-1.876a34.543,34.543,0,0,1,1.469-5.013c3.85-9.421,9.568-17.66,16.235-25.277.885-1.01,1.926-1.949,2-3.354s.055-2.5-2.208-2.493-2.391,1.689-3.35,2.7a97.557,97.557,0,0,0-14.1,19.9,43.729,43.729,0,0,0-4.906,13.013c-.5,2.574-.176,5.05,2.163,6.721,2.211,1.581,4.427.88,6.57-.278a10.864,10.864,0,0,0,1.266-.8,56.236,56.236,0,0,0,9.852-9.147,71.047,71.047,0,0,0,8.846-13.952c.271,1.383.482,2.268.614,3.165.948,6.4,1.856,12.812,2.822,19.212a56.97,56.97,0,0,1-.094,18.373c-2.676,15.354-11.27,26.45-25.091,33.344-13.633,6.8-28.195,10.764-43.261,12.821-4.911.671-9.888,1.014-14.8-.121-1.864-.431-3.838-.64-4.3,1.556s1.552,2.85,3.32,3.165a40.3,40.3,0,0,0,11.432.415,1.859,1.859,0,0,1,2.453-.033h0c10.509-.753,20.6-3.457,30.559-6.685,10.325-3.346,20.258-7.406,28.583-14.758,12.817-11.319,17.509-25.959,16.521-42.323C203.424,76.739,201.065,64.533,199.38,52.29Z"/><path class="cls-1" d="M138.715,72.605C134.2,79,130.67,85.967,127,92.853c0,.487.01.991-.548,1.211a.4.4,0,0,1-.337-.194.858.858,0,0,1,.453-1.008h0c.576-3.346,1.161-6.69,1.726-10.037,1.033-6.131,2.091-12.259,3.06-18.4.358-2.27-1.354-3.737-3.308-2.928-1.264.524-1.364,1.769-1.551,2.927C124.5,76.781,122.362,89.112,120,101.4c-.564,2.929-1.493,5.8-1.477,8.828a2.484,2.484,0,0,0,1.672,2.518,2.333,2.333,0,0,0,2.83-1.007,11.513,11.513,0,0,0,1.094-1.945c3.8-7.569,7.5-15.2,11.433-22.694,2.546-4.849,5.183-9.685,8.848-13.831.46-.52.94-1.516,1.7-1.156.473.223.7,1.236.8,1.928.3,2.136.482,4.289.711,6.436a13.525,13.525,0,0,1-.006,7.432h0c-.858,6.884-1.462,13.8-3.011,20.591-.326,1.43-.312,3.153,1.827,3.424s2.714-1.313,3.022-2.9a158.6,158.6,0,0,0,2.948-23.6,3.785,3.785,0,0,1,0-3.457h0c-.405-4.114-.12-8.336-1.782-12.256-1.382-3.26-4.147-4.077-7.092-2.134A18.6,18.6,0,0,0,138.715,72.605Z"/><path class="cls-1" d="M280.491,43.485c-2.028-.42-2.775.766-3.145,2.59-1.062,5.236-4.127,9.22-8.312,12.329-9.82,7.293-21.168,10.9-32.944,13.46a27.92,27.92,0,0,1-9.422.231c-3.493-.45-7.547-1.108-8.7-5.64a.7.7,0,0,1-1.023-.028c-2.311.793-2.726,2.4-2,4.547a6.394,6.394,0,0,0,3.916,3.917,23.782,23.782,0,0,0,9.662,1.962,6.534,6.534,0,0,1,4.951,0h0a32.18,32.18,0,0,0,9.066-1.465c10.962-2.959,21.611-6.707,30.552-14.035,4.608-3.777,7.978-8.449,8.979-14.508C282.306,45.4,282.4,43.881,280.491,43.485Z"/><path class="cls-1" d="M217.964,66.455l-1.023-.028A.7.7,0,0,0,217.964,66.455Z"/><path class="cls-1" d="M114.627,65.079c-1.4-1.086-2.361-.2-3.18.716a32.945,32.945,0,0,0-5.433,8.907c-3.953,9.036-6.035,18.6-8.013,28.2-1.74,8.445-3.767,16.839-4.55,24.754,0,1.369.017,2.035,0,2.7-.049,1.571.766,2.726,2.219,2.8,1.5.077,2.33-1.068,2.414-2.628.049-.912.13-1.825.233-2.733,1.175-10.409,3.61-20.589,5.9-30.776,2.235-9.945,4.505-19.974,10.99-28.32C116.257,67.339,116,66.14,114.627,65.079Z"/><path class="cls-1" d="M100.088,51.388c.331,1.587,1.521,2.049,3.469,2.086.678.034,1.521-.627,2.434-1.232,11.9-7.891,23.762-15.865,36.926-21.589,1.719-.748,3.228-1.7,2.425-3.6-.749-1.778-2.466-1.63-4.23-.937-9.494,3.732-17.85,9.505-26.561,14.641-4.208,2.481-7.991,5.658-12.446,7.718C100.737,49.1,99.747,49.75,100.088,51.388Z"/><path class="cls-2" d="M147.6,80.48l-.006,7.432h0A31.636,31.636,0,0,0,147.6,80.48Z"/><path class="cls-2" d="M147.6,80.48a31.636,31.636,0,0,1-.006,7.432A13.525,13.525,0,0,0,147.6,80.48Z"/><path class="cls-3" d="M74.622,75.986l0,6.921h0A27.733,27.733,0,0,0,74.622,75.986Z"/><path class="cls-3" d="M74.622,75.986a27.733,27.733,0,0,1,0,6.921A12.219,12.219,0,0,0,74.622,75.986Z"/><path class="cls-2" d="M228.52,76.853h4.951A15.632,15.632,0,0,0,228.52,76.853Z"/><path class="cls-2" d="M228.52,76.853a15.632,15.632,0,0,1,4.951,0A6.534,6.534,0,0,0,228.52,76.853Z"/><path class="cls-4" d="M152.382,85.427a9.592,9.592,0,0,0,0-3.458h0A10.288,10.288,0,0,0,152.382,85.427Z"/><path class="cls-4" d="M152.382,85.427a10.288,10.288,0,0,1,0-3.457A3.785,3.785,0,0,0,152.382,85.427Z"/><path class="cls-5" d="M219.018,66.079a3.091,3.091,0,0,0,2.936-.018A7.294,7.294,0,0,1,219.018,66.079Z"/><path class="cls-5" d="M219.018,66.079a7.294,7.294,0,0,0,2.936-.018h0Z"/><path class="cls-6" d="M272.357,21.448q0-1.216,0-2.434h0A4.96,4.96,0,0,0,272.357,21.448Z"/><path class="cls-6" d="M272.357,21.448a4.96,4.96,0,0,1,0-2.433A1.991,1.991,0,0,0,272.357,21.448Z"/><path class="cls-2" d="M233.529,53.879l2.44,0h0A3.734,3.734,0,0,0,233.529,53.879Z"/><path class="cls-2" d="M233.529,53.879a3.734,3.734,0,0,1,2.439,0A1.831,1.831,0,0,0,233.529,53.879Z"/><path class="cls-7" d="M127,92.853a.653.653,0,0,1-.432.009h0C126.725,93.347,126.862,93,127,92.853Z"/><path class="cls-7" d="M126.118,93.87a.4.4,0,0,0,.337.194c.558-.22.545-.724.548-1.211-.141.149-.278.494-.432.009A.858.858,0,0,0,126.118,93.87Z"/><path class="cls-8" d="M126.05,152.841l2.454-.033h0A3.843,3.843,0,0,0,126.05,152.841Z"/><path class="cls-8" d="M126.05,152.841a3.843,3.843,0,0,1,2.453-.033A1.859,1.859,0,0,0,126.05,152.841Z"/><path class="cls-9" d="M263.977,17.585a9.265,9.265,0,0,0-6.991-.086A16.577,16.577,0,0,1,263.977,17.585Z"/><path class="cls-9" d="M263.977,17.585a16.577,16.577,0,0,0-6.991-.086h0Z"/></g></g></svg>