<svg xmlns="http://www.w3.org/2000/svg" viewBox="0 0 374.353 204.513"><defs><style>.cls-1{fill:navy;}.cls-2{fill:#010180;}.cls-3{fill:#020281;}.cls-4{fill:#020280;}</style></defs><g id="레이어_2" data-name="레이어 2"><g id="레이어_1-2" data-name="레이어 1"><path class="cls-1" d="M373.18,37.86c-1.879-1.223-2.239.76-3.331,1.228-3.793,1.626-7.192,3.934-10.775,5.918-1.123.621-2.035,1.5-3.269,2.069a80.134,80.134,0,0,0-9.169,4.8c-4.248,2.685-8.882,4.536-13.244,6.928-3.162,1.734-6.586,3.258-9.714,5.037-4.884,2.778-9.923,5.265-14.783,8.076-1.571.908-3.2,1.7-4.825,2.516-4.749,2.379-9.2,5.354-13.974,7.683-4.971,2.427-9.913,4.934-14.956,7.233-4.191,1.912-8.549,3.6-12.554,5.908-2.215,1.277-5.13.748-7.009,2.964-.214.253-1.773,2.064-2.91.577-1.595-2.088-3.815-3.906-3.14-7.093.271-1.276-.076-2.671.076-3.986.327-2.818-2.3-3.017-3.744-4-1.076-.733-3.288-.914-4.215.1-1.929,2.106-5.087,2.4-6.58,5.189-1.261,2.35-3.26,4.264-3.536,7.15-.242,2.537-.244,5.3-3.563,6.159-.752.193-1.535.389-2.284.655-2.942,1.045-5.327,3.274-8.438,3.995a26.561,26.561,0,0,1,2.56-5.523c1.98-3.58,4.734-6.5,6.846-9.895a24.06,24.06,0,0,0,3.255-6.936c.555-2.367.181-4.967.112-7.462-.052-1.863-2.63-3.848-4.117-3.05a30,30,0,0,0-4.565,2.66c-2.373,1.858-4.02,4.366-6.366,6.21-1.486,1.167-1.226,3.484.1,4.8.865.86,1.576.293,1.634-.288.2-2.041,1.632-3.232,2.865-4.51,1.766-1.83,3.445-3.819,5.814-4.936,1.027-.484,1.816-.221,2,1.07.4,2.78-.534,5-1.78,7.569-1.521,3.141-3.915,5.616-5.613,8.567-.95,1.651-2.7,3.406-3.6,5.251-1.543,3.151-4.663,6.342-1.324,10.29l-5.511.54c.532-1.927,1.375-3.688,1.447-5.481.241-5.966,2.472-11.628,2.5-17.61.012-2.3.482-4.622-.462-6.844-.264-.622-.727-1.194-1.48-1.062-.654.114-.528.776-.484,1.242a29.942,29.942,0,0,1-.571,7.868c-.525,3.054-.547,6.143-1.144,9.215-.784,4.032-2.43,7.926-2.31,12.134a2.077,2.077,0,0,1-1.659,2.169c-3.445,1.075-7.045,1.193-10.564,2.31a60.8,60.8,0,0,1-22.742,2.661c-2.5-.176-5.248.135-7.432-.814a13.6,13.6,0,0,1-8.45-11.9c-.353-5.3-.639-10.692.76-16.012a3.576,3.576,0,0,1,2.205-2.77c4.214-2.027,8.374-4.168,12.531-6.313a194.235,194.235,0,0,0,19.286-11.819c3.955-2.663,7.325-6.052,11.043-9.012,3.36-2.675,5.8-6.477,8.994-9.4a76.345,76.345,0,0,0,10.7-11.544c5.667-7.913,11.857-15.584,15.43-24.851A37.183,37.183,0,0,0,239.6,3.116c.249-2.954-1.672-3.436-3.956-2.954-3.894.822-7.24,2.953-10.88,4.376-7.288,2.849-14.555,5.759-21.339,9.771-4.728,2.8-9.276,5.864-13.773,8.981a46.666,46.666,0,0,0-8.482,7.28c-2.471,2.788-5.023,5.51-7.538,8.256a43.012,43.012,0,0,0-4.98,6.218A84.447,84.447,0,0,0,159.4,64.5c-1.739,5.648-3.6,11.136-3.93,17.1-.079,1.407.007,3.553-1.52,4.289-4.712,2.272-9.568,4.266-14.319,6.442-4.222,1.933-8.544,3.634-12.768,5.557q-8.059,3.67-16.387,6.785a44.074,44.074,0,0,1-9.352,2.785c1.465-2.329,1.569-4.753,2.112-7.087.636-2.732.641-5.54,1.5-8.269a26.216,26.216,0,0,0,1.614-7.915c-.071-3.529.509-7,.346-10.5a5.294,5.294,0,0,0-.1-1.24c-.378-1.275-2.5-2.245-3.089-1.4-2.829,4.038-6.791,7.272-8.159,12.353-1.24,4.6-2.671,9.169-3.2,13.905a75.411,75.411,0,0,0-.534,12.384c.035.655.065,1.347-.764,1.58A42.13,42.13,0,0,1,81.3,112.91c-4.527.209-8.657-1-12.762-2.57a2.541,2.541,0,0,1-1.436-1.314c-.951-2.05-2.65-3.578-3.834-5.5a57.268,57.268,0,0,1-5.132-9.254C56.084,88.879,53.552,83.6,53.116,77.7a2.35,2.35,0,0,1,1.545-2.727c2.292-.911,3.691-2.975,5.355-4.575,3.307-3.176,6.148-6.837,9.2-10.286a6.213,6.213,0,0,0,1.56-2.419,9.929,9.929,0,0,1,1.878-3.363,34.663,34.663,0,0,0,5.326-9.538c1.473-3.823,3.353-7.676,3.708-11.945a26.221,26.221,0,0,1,.532-3.616c1.02-4.481,2.593-8.845,2.35-13.566-.1-1.886-.185-3.7-2.029-4.653a5.752,5.752,0,0,0-6.023.536,33.461,33.461,0,0,0-8.571,8.038c-3.049,4.025-6.588,7.708-8.9,12.313A148.689,148.689,0,0,0,52.151,47.34c-2.2,5.975-2,11.921-2.046,17.976-.021,2.666-.044,5.332.013,8a3.9,3.9,0,0,1-1.388,3.262c-3.433,2.864-7.281,5.141-10.595,8.245-2.846,2.665-6.62,4.381-10,6.447-1.942,1.189-3.974,2.452-6.008,3.585-1.458.811-3.261.889-4.413,1.881-3.556,3.063-7.741,3.31-12.041,3.185-1.967-.056-3.185-.748-3.142-3.278.1-6.094.241-12.133,2.127-18.015.514-1.6-.242-2.891-1.879-3.714-.317,2.779-1.472,5.1-2.139,7.554C-.5,86.687.262,91.059.131,95.364c-.1,3.128,2.471,6.684,5.439,7,3.655.392,7.515.7,10.88-1.131,6.753-3.669,13.687-7.034,19.938-11.6,1.156-.845,2.24-1.821,3.389-2.564,3.735-2.413,7.241-5.091,10.694-7.775,1.536,4.533,2.615,9.408,5.121,13.771,1,1.733,1.066,3.945,2.4,5.487,2.441,2.816,4.168,6.122,6.407,9.088a15.93,15.93,0,0,0,10.832,6.654c4.577.54,9.388.872,14.041-.277,1.4-.345,1.9.111,1.849,1.606-.1,3.245-.079,6.5-.007,9.743a7.706,7.706,0,0,1-.718,3.061c-1.526,3.772-2.677,7.713-4.919,11.175-1.855,2.863-3.25,6.153-5.569,8.56-4.859,5.04-10.86,8.039-18.128,7.774a3.9,3.9,0,0,1-2.067-.544,4.177,4.177,0,0,1-2.2-3.76c-.046-1.007-.73-2.3-1.979-2.044-.924.189-.559,1.508-.384,2.179.855,3.281,4.9,6.461,8.406,6.751,5.337.44,9.827-1.749,13.941-4.358,6.554-4.157,9.852-11.049,13.044-17.842.263-.559.3-1.146,1.027-.941.431.12,1.055.069,1.1.913.152,3.221,2.448,5.61,3.432,8.526.959,2.841,3.06,5.067,4.466,7.676.038-.582-.065-1.216.573-1.581-1.35-2.722-2.75-5.422-4.039-8.173-1.511-3.223-1.291-7-3.062-10.117a4.7,4.7,0,0,1-.011-4.08,150.265,150.265,0,0,0,5.219-14.85,4.649,4.649,0,0,1,4.08-3.507,24.694,24.694,0,0,0,5.56-1.7,87.974,87.974,0,0,0,10.157-4.056c2.587-1.319,5.339-2.194,8.006-3.292,2.938-1.21,5.7-2.836,8.59-4.176,3.324-1.542,7.185-1.827,10.111-4.336a1.727,1.727,0,0,1,1.4-.285c1.109.344,1.7-.3,2.276-.988a5.915,5.915,0,0,1,4.621-2.083c-.937,2.235-.684,4.512-.485,6.677.382,4.15-.831,8.27,1.15,12.53a23.871,23.871,0,0,0,6.405,8.624,11.313,11.313,0,0,0,4.669,2.38c6.022,1.319,12.131.985,18.221.993a6.114,6.114,0,0,0,1.96-.2c6.147-2.1,12.635-2.847,18.839-4.722.593-.179,1.347-.4,1.083.871-.186.891.21,1.79-.157,2.813a27.034,27.034,0,0,0-1.2,5.515c-.635,4.751-1.641,9.438-2.312,14.187-.929,6.574-2.971,12.992-2.665,19.735.029.637-.237,1.329.377,1.866.425.372.726,1.033,1.407.837a1.125,1.125,0,0,0,.709-1.424c-.25-1.363.591-2.584.526-3.873-.318-6.375,1.2-12.566,2.684-18.595,1.553-6.317,1.813-12.709,2.864-19.031.267-1.609.795-4.277,2.271-4.316,4.347-.115,8.081-2.366,12.293-2.817a23.238,23.238,0,0,0,7.232-1.936,5.117,5.117,0,0,1,5.562.537c1.588,1.059,7.645.814,8.838-.555,1.42-1.631,3.291-2.812,4.287-4.905a3.436,3.436,0,0,1,5.511-.609,30.391,30.391,0,0,0,6.5,6.1c2.737,2.015,5.919,3.994,9.761,4.075,1.893.04,3.781,1,5.76-.456-1.16-.947-1.906-2.6-3.836-1.223-.386.275-.939-.126-1.362-.153-1.436-.094-2.553-1.02-3.921-1.243-5.488-.895-9.056-4.445-12.031-8.792-.152-.223-.546-.428,0-.682,1.765-.821,3.445-1.971,5.3-2.43a47.021,47.021,0,0,0,9.379-3.729c4.524-2.231,9.017-4.6,13.571-6.738,8.245-3.871,16.109-8.418,24.164-12.623,2.439-1.273,4.748-2.825,7.257-3.927a82.544,82.544,0,0,0,10.437-5.3c6.022-3.754,12.427-6.638,18.726-9.782,3.218-1.606,6.7-2.842,9.581-4.918,3.922-2.83,8.527-4.255,12.635-6.878-1.862,1.391-2.594,3.476-3.635,5.305-2.114,3.714-5.218,6.782-6.659,10.961a46.653,46.653,0,0,1-4.17,8.893c-2.1,3.436-3.143,7.3-5.313,10.59-.958,1.456-.828,3.142-1.541,4.545a54.368,54.368,0,0,0-4.1,9.662c-1.3,4.557-2.933,9.029-2.655,13.877a2.322,2.322,0,0,1-.507,1.318c-1.015,1.835-.623,6.155.819,7.074,1.371.875,1.171,1.684.363,2.6-1.039,1.173-1.765,2.572-2.72,3.759a44.982,44.982,0,0,0-7.309,14.322c-1.687,5.081-1.084,10.474-1.035,15.752a5,5,0,0,0,.865,1.971c2.117,4,5.549,5.26,9.921,5.213a22.973,22.973,0,0,0,6.653-1.056c-.235,1.688-1.251,2.674-1.881,3.863-2.435,4.595-2.266,9.819-3,14.776a86.932,86.932,0,0,0-.662,16.886c.131,2.685.521,5.288,2.322,7.52,1.309,1.622,4.567,2.111,6.193.735a64.818,64.818,0,0,0,5.649-4.791c2-2.132,4.108-4.187,6.149-6.257,1.652-1.675,2.787-3.941,4.714-5.11,1.567-.95.943-1.29.284-2.14-1.435-1.852-2.888-.487-3.639.4-1.586,1.866-2.811,4.126-4.827,5.528-2.179,1.515-2.993,4.272-5.261,5.512-1.838,1.005-2.67,3.124-4.831,3.792-.814.252-1.234,1.761-2.552,1.251-1.1-.426-1-1.47-1.206-2.412a10.812,10.812,0,0,1-.462-2.118,145.917,145.917,0,0,1,.585-17.384c.171-1.706.015-3.549.55-5.1,1.5-4.37,2.7-8.828,4.737-13.059a23.309,23.309,0,0,1,6.827-8.492c1.766-1.392,4.027-2.619,4-5.459a2.16,2.16,0,0,0-1.645-2.161c-.63-.251-.976-.47-1.6.293-3.713,4.577-7.6,8.821-13.183,11.465a13.82,13.82,0,0,1-7.548,1.38c-1.43-.138-3.358-.1-3.729-2.457a41.806,41.806,0,0,1,.392-15.16c.33-1.584-.207-3.317.861-4.777,2.338-3.2,3.713-6.933,5.907-10.272,2.329-3.543,5.229-6.493,7.786-9.765a9.412,9.412,0,0,1,4.128-2.886c3.07-1.076,5.013-3.288,6.968-5.642.573-.69.627-1.091,0-1.632-.655-.567-1.39-1.916-2.16-1.164-1.524,1.489-3.546,2.2-5.028,3.661a34.954,34.954,0,0,1-6.676,4.921c-.783.471-1.972.186-2.316,1.536a.725.725,0,0,1-1.322-.494,12.537,12.537,0,0,1,.159-2.209c.36-2.9,1.215-5.746,1.652-8.582a52.274,52.274,0,0,1,4.363-13.252c2.076-4.675,3.7-9.538,6.191-14.068,1.88-3.423,3.133-7.238,5.159-10.6,1.943-3.23,3.554-6.636,5.627-9.825,1.847-2.843,3.63-5.821,5.709-8.476,1.533-1.957,2.153-4.662,4.806-5.918A2.258,2.258,0,0,0,373.18,37.86ZM159.193,75.977A108.73,108.73,0,0,1,165.188,57.8a54.538,54.538,0,0,1,4.209-8.052c1.806-2.878,4.371-5.194,5.794-8.365.649-1.445,2.366-2.351,3.513-3.632a86.769,86.769,0,0,1,10.4-9.877,108.137,108.137,0,0,1,13.728-9.447c4.644-2.67,9.365-5.226,14.18-7.572,2.846-1.387,5.937-2.271,8.92-3.375,3.612-1.337,6.951-3.343,10.924-4.395-1.118,4.447-1.533,9.024-4.549,12.69-.729.886-.584,2.021-1.148,2.959A127.888,127.888,0,0,1,218.9,36.48c-2.295,2.669-4.446,5.475-6.872,8.028-4.779,5.027-9.415,10.192-14.768,14.663-1.595,1.333-3.126,2.971-4.711,4.211a44.085,44.085,0,0,1-5.743,4.363c-2.624,1.418-4.939,3.244-7.466,4.768-5.313,3.2-10.78,6.11-16.3,8.927-1.561.8-3.2,1.431-4.814,2.143C157.56,80.9,158.644,78.471,159.193,75.977Zm-77.7-63.063c.79,8.391-1.466,16.481-4.026,24.13C72.86,50.81,64.438,62.37,53.241,72.2,48.693,46,69.034,18.428,81.494,12.914ZM93.578,119.945c0-1.247.078-2.5-.018-3.741-.136-1.766-.086-3.282,2.512-2.909C95.643,115.584,94.211,117.636,93.578,119.945ZM98.6,107.061a4.4,4.4,0,0,1-1.385,2.5c-.8.717-1.762.44-2.6.314-.948-.143-.515-1.095-.493-1.654.256-6.6.977-13.113,3.243-19.4C98.712,85.061,99.309,80.994,102.3,78c.225-.225.49-.411.972-.81.71,5.147-.81,9.711-1.533,14.338C100.925,96.74,99.65,101.883,98.6,107.061Zm122.135,2.208c3.006-2.361,6.89-3.106,10.128-5.41.172.918.316,1.686.458,2.446A50.177,50.177,0,0,0,220.73,109.269Zm14.4-1.439a21.632,21.632,0,0,1,7.266-1.46A9.3,9.3,0,0,1,235.126,107.83Zm8.72-5.393c-1.211-.23-2.022.5-2.9,1.017-1.975,1.168-4.554.369-6.385,2.024-.268.242-.966.059-.926-.432.059-.725-.281-1.63.777-2.078a71.052,71.052,0,0,0,6.714-3.057c1.572-.868,3.752-.38,4.932-2.8,0,1.4-.065,2.225.013,3.04C246.23,101.827,245.653,102.78,243.846,102.437Zm3.282-13.546c-.046,3.32-2.254,5.536-4.687,7.3-1.76,1.276-4.045,1.851-6.132,2.646-1.458.556-2.023-.207-1.735-1.571a12.7,12.7,0,0,1,6.31-8.953,18.232,18.232,0,0,0,2.208-1.655,3.4,3.4,0,0,1,3.508-.6C247.606,86.527,246.839,87.855,247.128,88.891Zm3.105,11.094c-.145.219-.691.466-.765.4-.815-.772-.257-1.764-.19-2.714C249.6,98.47,251.01,98.815,250.233,99.985Z"/><path class="cls-2" d="M100.569,152.49c3.575,4.13,7.3,8.058,13.087,8.925,3.113.467,5.942,1.041,9.257-.721,4.265-2.267,6.418-5.837,8.747-9.55.942-1.5.4-2.587-.743-3.665-.816-.768-1.1-.619-1.489.393a21.931,21.931,0,0,1-5.516,8.562c-4.1,3.786-8.967,3.9-13.561,2.308-2.872-.994-6.289-2.456-7.482-6.125-.222-.684-1.133-1.144-1.727-1.708C101.123,151.5,101.149,152.1,100.569,152.49Z"/><path class="cls-2" d="M100.569,152.49c.58-.386.554-.992.573-1.581C100.5,151.274,100.607,151.908,100.569,152.49Z"/><path class="cls-1" d="M52.6,121.609c.009-1.156-.093-2.172-1.34-2.826-1.554-.815-1.771.734-2.476,1.283-2.677,2.087-3.917,5.258-5.591,8.052-.963,1.607-1.375,3.738.646,5.281s3.665.281,4.933-.984A11.773,11.773,0,0,0,52.6,123.07C52.6,122.437,52.6,122.023,52.6,121.609Zm-2.663,3.442c-.9,1.966-1.618,4.086-3.9,5.1a17.632,17.632,0,0,1,2.742-5.726c.244-.3.592-.72,1-.3A1.025,1.025,0,0,1,49.938,125.051Z"/><path class="cls-1" d="M133.542,119.371a3.3,3.3,0,0,0-3.193.937c-1.455,3.588-2.946,7.264-2.639,11.237a2.476,2.476,0,0,0,2.369,2.438c1.37-.006,2.624.241,3.627-1.545,1.386-2.47,1.31-4.959,1.374-7.16a29.418,29.418,0,0,1,.02-3.121A2.464,2.464,0,0,0,133.542,119.371Zm-2.632,10.753c-.876-1.626.262-2.742,1.016-3.968C131.9,127.512,132.812,129.156,130.91,130.124Z"/><path class="cls-2" d="M102.153,55.984a14.487,14.487,0,0,1,3.581-2.994c1.346-.874,1.9-.765,1.864.947-.047,1.993-.011,3.987-.011,5.981,0,1.745-.04,3.491.019,5.234a2.158,2.158,0,0,0,1.788,2.073c1.141.023.66-1.276.668-2,.042-4.237,0-8.474.017-12.711.006-1.3-.372-2.443-1.788-2.485-2.225-.067-4.256-.2-6.4,1.576-1.7,1.41-2.733,3.176-4.229,4.621C99.992,58.552,100.079,58.565,102.153,55.984Z"/><path class="cls-3" d="M76.23,156.31c-.611-.292-.994.215-1.2.585-1.226,2.144-2.734,4.167-3.151,6.777a4.1,4.1,0,0,1-1.332-3.01,1.549,1.549,0,0,0-1.81-1.553c-.987.045-1.307.644-1.124,1.5.69,3.225,2.467,6.089,3.081,9.372a1.236,1.236,0,0,0,2.363.336c2-3.442,2-7.559,3.515-11.186a4.6,4.6,0,0,0,.025-1.729C76.586,157,76.7,156.532,76.23,156.31Z"/><path class="cls-4" d="M117.34,163.546c-.977-.509-1.588.27-2,.972a11.868,11.868,0,0,0-1.478,4.024c-2.695-2.294-3.056-6.273-7.124-7.962.907,2.8,2.663,4.343,3.452,6.454a18.093,18.093,0,0,0,3.625,5.878c.644.7,1,.721,1.665-.065,1.735-2.057,1.679-4.836,3-7.074C118.851,165.134,118.191,163.989,117.34,163.546Z"/></g></g></svg>