<svg xmlns="http://www.w3.org/2000/svg" viewBox="0 0 900.565 328.55"><defs><style>.cls-1{fill:#84ab20;}</style></defs><g id="레이어_2" data-name="레이어 2"><g id="레이어_1-2" data-name="레이어 1"><path class="cls-1" d="M897.56,288.212c-6.618-5.672-7.9-13.24-8.055-21.072-.287-14.991-.188-29.993-.051-44.989A187.725,187.725,0,0,0,886.42,185.6c-1.812-9.638-4.263-19.16-13.727-24.122-10.181-5.338-21.4-5.921-32.513-4.05-16.494,2.776-29.257,12.573-41.369,23.35-5.7,5.072-9.953,11.318-14.447,17.914-3.176-8.692-8.844-15.169-14.7-21.538-3.377-3.674-7.412-4.324-11.787-2.56-4.707,1.9-4.588,6.225-4.13,10.217.808,7.039,1.96,14.041,3.051,21.046q3.878,24.908,7.831,49.8c.4,2.526-.478,3.867-3.16,4.6-7.167,1.955-14.205,4.057-21.724,4.769-10.49.994-17.413-1.715-22.306-10.71a85.745,85.745,0,0,1-6.1-13.607,209.482,209.482,0,0,1-7.919-33.212c-.878-5.372-5.793-9.117-10.338-7.312-2.488.989-3.656.377-5.523-.917-21.562-14.934-49.117-11.955-66.6,8.244-16.71,19.309-20.529,50.679-7.947,72.961.868,1.537,1.988,2.653.038,4.1-4.241,3.157-8.125,6.962-12.733,9.419-7.288,3.885-11.933,5.555-16.764-5.46a42.213,42.213,0,0,1-2.06-6.108c-3.648-13.739-2.784-27.927-3.878-41.9-.983-12.564.693-25.26-1.144-37.835-1.152-7.884-2.839-15.691-10.914-19.438-7.539-3.5-14.522-1.021-20.984,3.441-11.807,8.153-21.952,18.174-31.985,28.33-1.153,1.167-2.08,2.781-4.158,3.167,1.375-9.625,2.781-18.907,4.012-28.213,2.1-15.858,3.35-31.868,6.294-47.564a491.1,491.1,0,0,0,7.527-65.355c.881-17.071,1.918-34.2,1.244-51.336-.229-5.814-3.45-9.764-8.359-9.81-4.891-.046-8.429,3.936-8.428,9.7,0,17.594-1,35.143-1.878,52.709-.587,11.744-1.644,23.4-3.043,35.058-2.355,19.651-6.215,39.074-8.291,58.774-1.743,16.546-4.667,32.964-6.732,49.481-2.23,17.842-4.087,35.73-6.048,53.605a3.67,3.67,0,0,1-2.377,3.436c-19,7.588-38.138,14.035-59.2,11.221-11.284-1.509-21.607-5.041-30.55-12.025-5.283-4.126-8.623-9.4-8.156-16.687A96.22,96.22,0,0,1,399.819,215.1c5.991-9.439,14.373-15.147,25.242-17.77,7.217-1.741,14.446-1.623,21.73-1.765,5.418-.1,7.749-2.867,7.711-8.647-.034-5.29-2.5-7.924-7.8-8.068-4.329-.118-8.668-.15-13,0-19.055.639-34.491,8.44-45.983,23.706-9.846,13.081-15.807,27.919-18.766,43.918-1.537,8.308-2.458,16.835-.338,25.161,3.684,14.47,14.363,22.952,27.159,28.508,22.457,9.751,45.677,9.3,68.978,3.007,5.617-1.517,11.152-3.339,17.232-5.173a30.736,30.736,0,0,0-1.291,9.5c.242,4.246,3.652,7.91,7.721,8.105,5.553.266,8.217-1.737,9.067-6.972,2-12.329,3.363-24.746,5.886-37.011,4.8-23.32,16.155-42.576,34.626-57.544,5.521-4.473,10.393-9.781,16.66-13.3,1.705-.957,3.877-2.907,4.26,1.36.367,4.092,1.557,8.13,1.715,12.217.558,14.442-.233,28.886.873,43.36.846,11.069,1.321,22.146,4.321,32.843,3.051,10.881,8.872,20.276,20.666,22.717,12.468,2.581,22.921-3.133,32.252-11.046,7.516-6.374,13.171-15.466,24.236-16.715a4.328,4.328,0,0,0,1.351-.63c13.332-6.97,23.234-17.88,33.07-28.851,5.362-5.98,9.516-12.881,14.506-19.97a105.581,105.581,0,0,0,8.975,24.331c8.974,16.841,21.538,24.3,42.105,21.473a124.316,124.316,0,0,0,20.339-4.172c2.286-.714,3.651-.326,3.421,2.758a119.5,119.5,0,0,0-.04,12.99,8.163,8.163,0,0,0,5.817,7.9c3.584,1.086,7.572.559,9.848-2.973,2-3.1,1.9-7.055,1.923-10.532.075-11.952.428-23.853,2.131-35.7,1.934-13.467,4.86-26.687,10.118-39.267,5.968-14.281,17.45-23.438,29.99-31.556,7.853-5.083,16.267-8.014,25.754-7.709,10.508.337,13.867,3.051,16.72,13.037,2.619,9.164,3.218,18.6,3.48,27.945.528,18.815-.091,37.659.251,56.482.2,11.251,3.359,21.574,12.6,29.137,3.864,3.164,10.233,3.346,13.192.139A8.622,8.622,0,0,0,897.56,288.212Zm-216.755-68.1a162.723,162.723,0,0,1-17.347,25.961c-7.632,9.229-16.025,17.674-26.966,23.078-5.973,2.951-9.984,1.408-11.869-4.748-1.355-4.429-2.48-8.94-2.29-13.731,1.4-14.686,5.375-28.184,17.731-37.791,11.125-8.65,31.655-7.189,40.857,2.786C682.549,217.435,681.565,218.721,680.805,220.116Z"/><path class="cls-1" d="M175.373,14.284C170.06-.036,157.228-4.31,144.827,4.768,131.864,14.256,124,27.927,118.065,42.415c-8.914,21.77-13.712,44.87-20.435,67.212-1.357-.965-1.442-2.613-1.8-3.987-5.08-19.762-13.012-38.212-25.058-54.767-8.223-11.3-18.383-20.465-31.24-26.135-10.957-4.832-22.388-4.477-30.483,4.895C.539,39.491-.323,51.49.079,63.3.6,78.649,4.825,93.556,8.49,108.443,13.5,128.8,18.558,149.152,23.874,169.432c9.006,34.36,16.4,69.184,29.679,102.32,6.79,16.94,13.477,33.9,24.5,48.667,6.559,8.782,17.725,11.728,26.356,2.368,5.18-5.619,10.347-11.184,14.567-17.558a382.278,382.278,0,0,0,29.538-54.017c14.418-31.939,26.616-64.427,30.238-99.687,1.69-16.454,3.621-32.876,3.725-49.412.12-19.11.938-38.264-1.016-57.319C180.406,34.473,179.02,24.118,175.373,14.284Zm-9.744,87.085c-.316,15.508-2.06,30.959-3.616,46.42-3.281,32.6-14.232,62.743-27.56,92.256-9.768,21.628-19.985,43.076-34.606,61.9-8.23,10.6-6.507,12.192-13.977-1.261-17.252-31.07-27.388-64.846-36.092-99.089C41.563,169.276,33.147,137,25.29,104.591c-3.957-16.326-9-32.579-7.708-49.761a21.292,21.292,0,0,1,.038-2.493c2.142-10.672,5.126-17.771,18.521-9.959,16.44,9.588,26.078,24.431,33.666,41.128,7.86,17.294,12.075,35.635,15.663,54.151a100.223,100.223,0,0,1,1.293,11.3c.4,5.124,3.843,9.2,8.358,9.615,3.788.351,8.026-2.973,9.28-7.511q11.157-40.364,22.241-80.748c4.306-15.611,10.558-30.353,20.1-43.526a29.038,29.038,0,0,1,11.023-9.7C162.5,28.2,163.794,39.8,164.848,51.535,166.339,68.143,165.968,84.771,165.629,101.369Z"/><path class="cls-1" d="M246.076,36.612c5.83.07,11.663.115,17.49-.018,3.451-.079,6.936.59,10.353-.817,3.557-1.465,5.606-3.555,5.7-7.707.1-4.307-1.787-6.62-5.531-8.373-3.431-1.606-6.509.227-9.723.1-16.469-.633-32.88,1.534-49.329.972-6.19-.211-12.2,1.389-18.348,1.1a4.065,4.065,0,0,0-3.11,1.3c-2.664,2.542-4.267,5.174-2.929,9.188,1.408,4.227,3.9,6.081,8.341,6.351,7.513.456,14.869-1.3,22.351-1.138,2.469.054,3.5.526,3.481,3.29-.106,18.751.79,37.47,1.907,56.185.633,10.6-.154,21.2.8,31.858,1.066,11.865.655,23.874,1.043,35.823.675,20.8.188,41.638.188,62.461v9.494c0,18.657.02,37.314-.035,55.97,0,1.727,1.028,4.05-2.459,4.209-11.072.506-22.128,1.334-33.2,1.92-5.675.3-8.258,2.748-8.3,8.272-.043,5.675,2.7,8.523,8.577,8.5,6.124-.029,12.274-.606,18.351-.729,19.413-.39,38.793-1.272,58.179-2.2,5.31-.255,8.217-2.093,8.645-6.1.674-6.305-1.461-10.093-7.037-10.493-6.941-.5-14.043-1.058-20.894.342-4.165.852-5.281.15-5.113-4.054.663-16.6-.13-33.2.779-49.843a349.8,349.8,0,0,0-.516-45.333c-1.3-17.209-.284-34.53-.909-51.824-.666-18.413-2-36.855-1.3-55.317a10.258,10.258,0,0,0-.029-1.5C241.8,72.8,242.755,57.005,241.5,41.3,241.213,37.7,242.807,36.573,246.076,36.612Z"/><path class="cls-1" d="M332.8,151.383c-.6-13.411-1.022-26.866-1.191-40.3-.142-11.287-1.806-22.514-1.12-33.823a10.057,10.057,0,0,0-.5-2.92c-1.375-5.554-5.293-9.065-9.341-8.409A9.51,9.51,0,0,0,312.892,77.4c1.874,9.54,1.03,19.184,1.535,28.725,1.051,19.851,1.96,39.766,2.093,59.637.179,26.765,1.88,53.507,1.193,80.272-.485,18.89-1.345,37.77-1.932,56.657a8.363,8.363,0,1,0,16.7.977c.763-13.718,1.833-27.44,1.952-41.168.249-28.757.559-57.525-1.065-86.268C333.114,167.953,333.173,159.666,332.8,151.383Z"/><path class="cls-1" d="M382.848,148.5c2.292,2.81,4.855,5.626,9.155,5.063,3.8.639,5.745-1.858,7.464-4.6,1.805-2.876,1.63-6.046-.53-8.354-6.547-7-10.584-15.513-15.209-23.7a8.717,8.717,0,0,0-10.836-3.333c-4.357,2.045-6.374,6.506-4.464,10.708C372.335,132.886,376.858,141.161,382.848,148.5Z"/><path class="cls-1" d="M459.435,140.185c2.919,2.435,8.533,2.274,11.25-1.038,6.068-7.4,9.943-15.876,10.822-23.95-.035-5.843-3.187-9.682-7.17-10.318a8.588,8.588,0,0,0-9.385,6.448,46.1,46.1,0,0,1-7.531,17.058C454.365,132.551,455.306,136.741,459.435,140.185Z"/><path class="cls-1" d="M328.038,22.523a103.055,103.055,0,0,1-19.42,5.5,8.238,8.238,0,0,0-6.691,9.115c.71,4.64,4.057,7.427,9.766,7.5,7.742-1.069,16.237-2.261,23.562-7.233a8.223,8.223,0,0,0,1.986-11.073C335.223,23.216,332.079,20.952,328.038,22.523Z"/></g></g></svg>