<svg xmlns="http://www.w3.org/2000/svg" viewBox="0 0 663.411 415.035"><defs><style>.cls-1{fill:#892be1;}</style></defs><g id="레이어_2" data-name="레이어 2"><g id="레이어_1-2" data-name="레이어 1"><path class="cls-1" d="M659.479,45.827c-4.809-8.892-12.92-12.275-22.536-9.213-8.166,2.6-14.283,8.131-20,14.341-1.357-2.052-2.642-4.268-4.187-6.286C601.218,29.61,584.4,29.5,572.1,43.135c-9.318,10.327-10.022,23.373-8.459,36.209a50.412,50.412,0,0,0,15.564,31.291,2.347,2.347,0,0,1,.613,3.191c-2.27,4.813-4.343,9.72-6.631,14.524a481.069,481.069,0,0,1-42.011,72.176A452.7,452.7,0,0,1,489.518,251.3c-12.824,13.41-25.831,26.675-39.952,38.819a407.283,407.283,0,0,1-40.819,31.471c-14.353,9.482-28.918,18.865-46.144,22.244-10.261,2.013-17.493.657-20.139-10.471-.906-3.808-1.218-6.776,2.431-9.879,8.236-7,15.946-14.633,23.8-22.085a332.721,332.721,0,0,0,43.123-49.256c6.761-9.579,13.358-19.379,16.181-31.092,2.293-9.514-3.8-16.777-13.17-15.3a48.478,48.478,0,0,0-9.934,2.82c-14.462,5.629-26.358,15.156-37.441,25.665a128.35,128.35,0,0,0-21.539,27.37,122.982,122.982,0,0,0-17.305,51.54c-.441,4.365-.9,8.315-5.153,11.838-10.394,8.6-20.379,17.718-31.007,26.057-4.355,3.417-8.512,7.24-14.058,8.793-4.49,1.257-8.13.5-9.69-2.369-2.119-3.894-3.331-8.028-1.582-12.442,1.321-3.333,2.6-6.695,4.156-9.919,4.425-9.165,9.072-18.211,14.188-27.022,7.336-12.633,14.312-25.476,21.774-38.032,4.56-7.674,7-15.588,4.791-24.408-2.612-10.446-11.039-15.829-20.575-15.084-8.764.685-15.787,5.119-21.883,11.369-6.183,6.34-12.693,12.362-18.887,18.355a1.2,1.2,0,0,1-.045-.669c1.5-6.276-.582-11.417-5.843-15.025-4.762-3.266-10.1-1.951-15.234-2.141a10.984,10.984,0,0,0-7.752,3.024,233.01,233.01,0,0,0-21.116,21.081c-9.367,10.469-18.732,20.98-28.7,30.863-11.146,11.05-21.481,22.862-33.068,33.523-13.16,12.108-26.14,24.375-40.2,35.453-16.092,12.676-32.767,24.4-52.1,31.692-5.916,2.233-12.064,3.882-18.491,3.258-5.408-.526-10.564-1.663-12.825-7.673-2.215-5.891-2.242-12.05-1.465-18.04,1.588-12.254,6.515-23.511,11.831-34.538,6.306-13.077,13.021-25.946,20.308-38.517,9.246-15.949,18.454-31.925,28.535-47.36,17.037-26.083,34.7-51.749,52.255-77.486q16.512-24.2,32.23-48.949c14.055-22.183,28.066-44.385,38.857-68.4C203.594,47.6,208.637,34.616,207.916,20.1c-.454-9.152-6.275-17.2-15.292-19.1-10.037-2.12-19.946-.563-29.729,1.93-18.175,4.633-35.283,12.1-52.146,20.1C79.239,37.97,48.88,55.065,19.039,73.071,13.346,76.506,7.214,79.4,2.353,84.1-.3,86.657-.432,89.61,1.621,92.462a6.117,6.117,0,0,0,8.217,2.052C12.278,93.3,14.683,92,17,90.565,49.564,70.393,82.705,51.273,117.477,35.089c14.92-6.945,29.977-13.508,45.843-18.011,7.133-2.024,14.311-4.086,21.847-3.448,6.175.524,9.357,1.489,9.325,9.533a46.352,46.352,0,0,1-2.628,14.517c-4.267,12.842-10.082,24.975-16.459,36.913-10.276,19.24-21.755,37.734-33.648,55.978-17.487,26.824-35.738,53.137-53.682,79.656-14.063,20.785-28.121,41.577-40.8,63.279-13.008,22.258-26.2,44.386-36.893,67.9C3.513,356.489-1.064,371.98.214,388.786c.938,12.331,8.618,22.561,20.43,25.185,10.062,2.234,19.985.754,29.577-2.618C63.858,406.559,76.1,399.17,88.039,391.08c24.561-16.641,46.084-36.8,67.429-57.191,4.41-4.212,8.426-8.825,12.646-13.222,8.708-9.073,17.316-18.234,25.933-27.392,10.668-11.338,20.846-23.155,32.2-33.845a18.416,18.416,0,0,1,4.094-3.175,7.74,7.74,0,0,1,6.172-.155c1.394.556.827,2.72.43,4.085a90.221,90.221,0,0,1-10.517,23.6c-15.926,24.956-34.5,47.931-52.642,71.241-2.518,3.236-2.522,6.985.059,9.395a7.327,7.327,0,0,0,10.013-.464c3.426-3.9,6.689-7.956,9.847-12.079,15.192-19.843,30.947-39.224,47.047-58.339,12.342-14.653,24.9-29.083,38.736-42.351,2.759-2.645,5.679-5.211,9.445-6.348,4.436-1.341,8.527-.152,9.419,2.766,1.137,3.722,1.278,7.434-.589,11.094-5.744,11.265-12.352,22.037-18.636,32.994-8.077,14.084-16.382,28.049-22.77,43.023-3.069,7.194-4.539,14.578-2.69,22.42,2.242,9.507,12.49,19.194,24.77,16.634,10.429-2.174,17.958-8.541,25.762-14.708a296.049,296.049,0,0,0,22.569-19.377c1.265-1.224,2.522-2.16,3.6.823,3.283,9.088,9.5,15.724,19.276,17.068a51.431,51.431,0,0,0,23.532-2.236c16.472-5.554,31.267-14.211,45.548-23.913a423.459,423.459,0,0,0,52.1-42.366q16.738-15.759,32.364-32.738c10.6-11.5,20.732-23.374,30.217-35.767A476.75,476.75,0,0,0,577.36,151q7.139-13.69,13.245-27.9c.423-.981.521-2.961,2.75-1.377,5.662,4.021,10.88,4.045,17.4.28,19.016-10.985,35.644-24.4,47.139-43.268C664.212,68.367,665.585,57.116,659.479,45.827ZM349.328,285.575a122.254,122.254,0,0,1,22.914-36.627,116.428,116.428,0,0,1,34.291-26.174c2.046-1.047,4.874-3.174,6.341-1.772,1.674,1.6-.736,4.332-1.73,6.255a166.684,166.684,0,0,1-14.351,22.471,310.575,310.575,0,0,1-37.74,42.112c-4.979,4.656-9.811,9.48-15.722,14.926A90.505,90.505,0,0,1,349.328,285.575ZM645.944,72a94.714,94.714,0,0,1-24.659,26.874c-5.1,3.735-10.482,6.99-15.787,10.389-1.955,1.252-3.714,1.557-5.875.35-11.861-6.62-18.954-16.728-22.09-29.787a25.853,25.853,0,0,1-.729-3.988c-.127-1.614-.03-3.246-.03-4.869-.168-6.6.861-13.028,5.193-18.152,6.307-7.461,13.546-8.6,19.831-.015,2.14,2.922,3.532,6.2,5.361,9.256.838,1.4-.042,2.1-.408,3.022-1.512,3.81-.6,7.494,2.366,9.206a6.853,6.853,0,0,0,9.4-2.655A67.631,67.631,0,0,1,635.509,52.6c2.739-2.053,5.635-4.8,9.238-3.053,3.805,1.845,4.343,6.039,4.809,9.818C650.13,64.022,648.318,68.166,645.944,72Z"/></g></g></svg>