<svg xmlns="http://www.w3.org/2000/svg" viewBox="0 0 711.926 332.175"><g id="레이어_2" data-name="레이어 2"><g id="svg5"><g id="layer1"><path id="path1378" d="M77.891,330.846c0-7.1,89.577-48.554,174.875-80.923l40.3-15.293,12.2-14.787,12.2-14.786-7.281,1.552c-19.868,4.236-46.546,3.319-60.433-2.077-2.879-1.119-4.151.517-6.155,7.917-7.439,27.46-6.925,26.5-14.662,27.245-6.159.59-8.574-.721-16.427-8.917l-9.206-9.608-1.3,9.462c-3.779,27.573-27.118,41.268-36.233,21.262l-2.5-5.475-5.548,10.219c-10.339,19.045-27.24,24.767-46.854,15.862C96.137,265.81,91.846,249,90.912,194.324c-.2-11.373-3.741-5.69-16.123,25.838-27.9,71.044-45.217,95.215-63.4,88.489-27.556-10.194-.508-164.191,32.235-183.533,10.762-6.357,12.007-1.89,1.855,6.652C26.73,147.547,9.015,212.9,8.24,269.147c-.809,58.693,22.977,40.633,56.72-43.063,26.369-65.408,30.789-66.111,35.551-5.653,3.282,41.67,5.155,45.27,24.524,47.131,32.734,3.145,43.25-46.344,24.875-117.066-12.679-48.8-26.888-63.114-45.415-45.762-8.088,7.576-8.149.188-.065-7.9,25.167-25.166,54.193,22.99,62.2,103.186l.622,6.238,5.387-8.391c8.546-13.313,32.294-10.458,32.294,3.882,0,9.272,15.275,29.713,22.2,29.713,3.882,0,4.107-1.011,2.752-12.38-7.931-66.58-11.575-129.2-8.365-143.725,2.387-10.8,7.455-11.38,9.4-1.076,2.024,10.707,10.386,71.879,11.871,86.839,1.148,11.566,1.53,12.3,4.847,9.3,1.98-1.792,11.119-6.829,20.308-11.193s17.236-8.789,17.882-9.834c1.8-2.906,9.538-2.26,9.491.791-.023,1.48-6.927,8.5-15.341,15.611-33.4,28.2-33.287,31.938,1.058,35.491,22.374,2.315,22.376,2.314,17.419-5.252-7.322-11.174-3.978-33.493,7.193-48.007,5.149-6.689,21.12-8.024,20.563-1.719-.2,2.31,1.13,7.1,2.966,10.651l3.336,6.453,3.815-7.422c6.818-13.264,21.074-27.606,28.9-29.074,8.423-1.58,17.147,2.237,15.417,6.746-1.566,4.08-1.054,3.963,10.956-2.507,8.655-4.663,12.226-5.386,21.905-4.435,10.934,1.075,12.339.616,25.815-8.424,22.956-15.4,25.149-12.882,8.914,10.236-15,21.365-13.536,33.528,2.973,24.629,13.981-7.536,16.881-15.309,16.749-44.895C467.783,68.606,477.8,0,483.766,0c5.858,0,5.741,70.205-.181,108.309-6.478,41.682,11.067,45.7,55.755,12.782,15.7-11.567,22.951-11.868,14.074-.583-18.542,23.572-60.723,37.944-73.593,25.074l-4.389-4.39-10.155,10.592c-20.41,21.287-44.726,14.233-35.866-10.4,3.883-10.8,3.465-13.186-1.576-9-1.952,1.62-3.3,6.325-3.329,11.611-.17,31.943-44.242,68.875-49.782,41.717-.572-2.8-3.111-.739-9.848,7.994-14.853,19.256-10.923,20.143,31.97,7.211,19.272-5.81,69-19.7,110.5-30.865s85.068-23.231,96.807-26.81c24.86-7.58,27.1-7.8,27.1-2.69,0,4.291-38.025,16.135-122.731,38.228-57.249,14.931-136.156,37.51-138.384,39.6-.912.855,1.684,7.965,5.769,15.8,18.977,36.407,6.24,69.093-34.321,88.073-51.345,24.028-84.926-6.627-62.588-57.135,3.076-6.957,5.594-13.887,5.594-15.4,0-4.907-68.48,22.026-152.86,60.119-51.66,23.322-53.846,24.175-53.846,21.016Zm244.386-11.873c46.2-12.34,64.813-43.441,47.144-78.759-9.875-19.739-8.514-19.471-42.086-8.28l-28.459,9.486-6.617,11.951C268.285,296.667,283.261,329.4,322.277,318.973ZM184.711,251.351c9.844-6.513,16.032-49.661,7.758-54.09-9.494-5.081-15.877,4.032-19.734,28.17C169.447,246.018,174.908,257.837,184.711,251.351Zm144.78-29.137c22.176-7.6,25.427-10.864,11.794-11.856-4.941-.36-10.146-2.056-11.568-3.769-3.958-4.769-8.392-3.72-10.776,2.551a63.392,63.392,0,0,1-6.407,11.636c-3.776,5.3-5.286,8.733-3.714,8.436.3-.056,9.6-3.2,20.671-7Zm-7.615-29.772c1.722-2.75.158-5.913-7.317-14.8l-9.507-11.3-.659,11.263C303.429,194.077,314.805,203.727,321.876,192.442Zm40.117-7.619c9.417-13.151,11.316-19.557,4.963-16.744-2.073.917-9.065,2.232-15.539,2.922-15.645,1.666-20.377,11.9-9.583,20.724,8.89,7.269,10.375,6.76,20.159-6.9Zm37.74-7.361c13.145-12.117,24.044-36.429,16.331-36.429-9.5,0-22.351,15.064-29.051,34.054-4.98,14.113-.851,14.884,12.72,2.375ZM234.96,124.312c-2.157-20.431-6.39-35.618-6.327-22.7.049,10.045,4.456,65.26,5.9,73.873C237.471,193.068,237.821,151.411,234.96,124.312Zm17.614,56.017c2.678-3.415,2.6-3.492-.813-.813-2.073,1.625-3.768,3.321-3.768,3.768,0,1.772,1.768.631,4.581-2.955Zm72.925-9.69c-.011-7.086-8.339-19.966-11.115-17.191-2.753,2.754-.844,9.162,4.908,16.476,5.355,6.806,6.217,6.906,6.207.715Zm40.38-10.169c10-4.539,13.592-17.272,5.725-20.291-8.028-3.081-26.681,12.177-26.71,21.848-.012,3.979,10.508,3.2,20.985-1.557Zm337.514-21.584c-1.78-2.881.605-6.465,4.3-6.465,4.979,0,5.767,3.949,1.268,6.357-2.811,1.5-4.685,1.541-5.571.108Z"/></g></g></g></svg>