<?xml version="1.0" encoding="utf-8"?>
<!-- Generator: Adobe Illustrator 26.0.3, SVG Export Plug-In . SVG Version: 6.00 Build 0)  -->
<svg version="1.1" xmlns="http://www.w3.org/2000/svg" xmlns:xlink="http://www.w3.org/1999/xlink" x="0px" y="0px"
	 viewBox="0 0 1000 1500" style="enable-background:new 0 0 1000 1500;" xml:space="preserve">
<style type="text/css">
	.st0{fill:#121212;}
	.st1{fill:#444444;}
</style>
<g id="레이어_2">
	<path class="st0" d="M499.5,1499.9c-165,0-329.9,0-494.9,0.1c-3.7,0-4.6-1.3-4.6-6.9C0.1,997.7,0.1,502.3,0,6.9C0,1.3,0.8,0,4.6,0
		c330.3,0.2,660.5,0.2,990.8,0c3.7,0,4.6,1.3,4.6,6.9c-0.1,495.4-0.1,990.8,0,1486.2c0,5.6-0.8,6.9-4.6,6.9
		C830.1,1499.8,664.8,1499.8,499.5,1499.9z M364.7,691.9l1.2-0.5c17.3,44.8,34.5,89.6,52.2,135.3c-15.2,0-29.5,0.1-43.8-0.1
		c-3.6,0-6.3,0.7-6.2,7.5c0.1,6.3,2.6,7.1,6,7.1c17.5-0.1,35-0.2,52.5,0.1c4.8,0.1,6.4-2.6,6.4-9.7c-0.1-54.2-0.1-108.5,0-162.7
		c0-5.3-0.3-9.4-4.9-9.4c-4.7,0-4.8,4.4-4.8,9.6c0,44,0,88,0,132c0,2.4,0.6,5.2-1,7.9c-1.1-2.9-2.1-5.2-3-7.6
		c-17.5-45.4-35.1-90.8-52.4-136.4c-2.3-6.1-5.3-6.2-8.7-5.3c-3.6,0.9-3.1,5.6-3.1,9.6c0,42.2,0,84.5,0,126.7c0,12.5-0.1,25,0,37.5
		c0,6.2,2.8,9.3,6.5,7.5c3-1.4,3.1-5.1,3.1-9c0-44-0.1-88,0-132L364.7,691.9z M630.9,744.9c6.2-9,8.6-14.8,10-23.4
		c4.4-28.1-5.2-50.9-24.7-58.6c-12.1-4.8-24.5-3-36.8-3.3c-6.3-0.1-6.6,0.3-6.6,9.5c0,52.2,0,104.4,0,156.6c0,3-0.1,6,0,9
		c0.1,3.7,1.1,6.5,3.8,6.4c14.6-0.5,29.4,2.1,43.8-3c13.3-4.8,23.3-15.6,26.8-36.8C650.9,778.4,645.9,761,630.9,744.9L630.9,744.9z
		 M323.7,728.4c0-22.1-0.1-41.1,0.1-60.1c0.1-6.5-1.5-8.8-5.9-8.7c-18.8,0.2-37.6,0.1-56.5,0.1c-3.2,0-6.1,0.1-6.2,6.7
		c-0.1,6.9,2.7,7.4,6.2,7.4c16-0.1,32,0.1,48-0.2c3.8-0.1,4.9,1.4,4.7,7.1c-1.2,36.3,1.6,72.7-1.8,109c-2,22.3-9.1,36.5-23.9,39.1
		c-19.5,3.5-32.5-6.5-36-37.8c-1-8.6-1.5-17.4-1.5-26.1c0-32.2,0-64.5,0-96.7c0-4.3-0.1-8.1-3.9-8.5c-4-0.5-5.7,1.9-5.7,8.1
		c0.1,32.7,0,65.5,0.1,98.2c0,8.8,0.4,17.5,1.5,26.1c2.4,18.5,6.6,35.3,18.5,44.7c26.9,21.2,55.6-0.2,60.5-44.9
		C324.5,769.7,323.3,747.4,323.7,728.4z M471.6,750.6c0.1-16-0.3-32,2.4-47.7c2.1-11.9,6-21.6,13.6-27.2
		c17.3-12.6,37.2-2.8,45.7,22.8c1.1,3.2,1.8,3.8,4.1,2.4c5.4-3.3,6-5,3.3-12.8c-8.1-23.3-19.7-33.8-44.3-30.4
		c-16.8,2.3-27.5,16.6-31.1,40.8c-5,34-5.1,69.3-0.1,103.3c2.1,14.9,7.1,28.1,16.8,34.6c16.5,11.1,33.2,10.2,48.9-3.3
		c8.8-7.5,13.4-19.6,13.1-35.5c-0.3-13.5-0.1-27,0-40.5c0.1-5.4-1.3-7.7-5-7.6c-7,0.2-14,0.2-21,0c-3.2-0.1-5,1.6-5.1,6.8
		c-0.1,5.7,1.9,7.4,5.3,7.2c3.8-0.2,7.7,0.3,11.5-0.1c3.2-0.3,4,1.6,3.9,6c-0.2,9.5-0.3,19,0,28.5c0.3,9.2-2.4,15.8-7,21.1
		c-7.7,8.9-16.7,10.6-26,10.1c-14.4-0.7-23.2-11.5-26.7-32.5C471.3,781.5,471.7,766,471.6,750.6z M752,744.9
		c-0.1-7.7,0.1-20.9-1.1-34.1c-3.1-32.7-13.9-50.5-34.1-53.3c-26.3-3.7-40.8,13.5-45,49.6c-2.8,23.8-2.1,47.8-1.3,71.7
		c0.3,10.5,1.8,20.8,4.2,30.7c4.4,17.5,12.6,28.3,24.9,32.2c5.1,1.5,10.2,2,15.4,1.4c18.4-1.7,29-14.7,34-41.4
		C752.3,784.9,752.1,767.7,752,744.9L752,744.9z M210,750.5c0-27,0-54,0-81c0-5.2,0.3-10.2-4.8-10.1c-5.3,0.1-4.6,5.5-4.6,10.5
		c0,21-0.1,42,0,63c0,4.6-0.7,6.6-4.1,6.5c-15.8-0.3-31.6-0.3-47.5,0c-3.5,0.1-4.1-1.7-4.1-6.4c0.1-21.5,0-43,0.1-64.5
		c0-4.9-0.1-8.9-4.5-9.1c-4.7-0.2-4.9,3.9-4.9,9.2c0.1,54.2,0.1,108.5,0,162.7c0,5-0.2,9.7,4.6,9.8c5.1,0.1,4.8-5,4.8-10.2
		c0-23.5,0.1-47-0.1-70.5c0-5.2,0.5-7.4,4.5-7.3c15.5,0.4,31,0.4,46.5,0c3.8-0.1,4.8,1.7,4.7,7.2c-0.2,24,0,48-0.1,72
		c0,5.2,0.6,8.9,4.8,8.8c4.2,0,4.7-3.9,4.7-9C210,805,210,777.8,210,750.5z M852.9,660.1c-3.2-1.2-5.3,1.3-7.4,4.5
		c-16.5,24.8-33,49.4-49.6,74c-4.8,7.1-4.8,8-0.1,15c18.5,27.7,37.1,55.3,55.6,83c0.6,1.2,1.3,2.2,2.2,3.1c3.1,2.2,6.6,3.4,9.1-0.4
		c2.9-4.3-0.7-7-2.4-9.5c-17.6-26.3-35.1-52.6-52.9-78.7c-2.7-3.9-2.7-5.8,0-9.8c16.1-23.6,32-47.4,47.9-71.3
		c1.4-2.1,4.1-3.7,2.8-7.8C857.1,658.6,854.7,660.5,852.9,660.1L852.9,660.1z M790.9,750.2c0-27.5,0-54.9,0-82.4
		c0-4.9-0.6-8.2-4.5-8.3c-4.2-0.1-4.9,3.2-4.9,8.5c0.1,54.9,0.1,109.8,0,164.8c0,4.9,0.6,8.3,4.5,8.4c4.1,0.1,4.9-3.3,4.9-8.6
		C790.9,805.1,790.9,777.7,790.9,750.2L790.9,750.2z"/>
</g>
<g id="레이어_1">
	<path class="st0" d="M499.5,1249.9c-165,0-329.9,0-494.9,0.1c-3.7,0-4.6-0.8-4.6-4.6c0.1-330.3,0.1-660.5,0-990.8
		c0-3.7,0.8-4.6,4.6-4.6c330.3,0.1,660.5,0.1,990.8,0c3.7,0,4.6,0.8,4.6,4.6c-0.1,330.3-0.1,660.5,0,990.8c0,3.7-0.8,4.6-4.6,4.6
		C830.1,1249.9,664.8,1249.9,499.5,1249.9z M364.7,711.3l1.2-0.3c17.3,29.9,34.5,59.7,52.2,90.2c-15.2,0-29.5,0.1-43.8,0
		c-3.6,0-6.3,0.5-6.2,5c0.1,4.2,2.6,4.7,6,4.7c17.5-0.1,35-0.1,52.5,0c4.8,0.1,6.4-1.7,6.4-6.5c-0.1-36.2-0.1-72.3,0-108.5
		c0-3.6-0.3-6.3-4.9-6.3c-4.7,0-4.8,3-4.8,6.4c0,29.3,0,58.7,0,88c0,1.6,0.6,3.5-1,5.3c-1.1-1.9-2.1-3.5-3-5
		c-17.5-30.3-35.1-60.5-52.4-90.9c-2.3-4.1-5.3-4.1-8.7-3.5c-3.6,0.6-3.1,3.7-3.1,6.4c0,28.2,0,56.3,0,84.5c0,8.3-0.1,16.7,0,25
		c0,4.2,2.8,6.2,6.5,5c3-0.9,3.1-3.4,3.1-6c0-29.3-0.1-58.7,0-88L364.7,711.3z M630.9,746.6c6.2-6,8.6-9.9,10-15.6
		c4.4-18.8-5.2-33.9-24.7-39.1c-12.1-3.2-24.5-2-36.8-2.2c-6.3-0.1-6.6,0.2-6.6,6.4c0,34.8,0,69.6,0,104.4c0,2-0.1,4,0,6
		c0.1,2.5,1.1,4.3,3.8,4.3c14.6-0.3,29.4,1.4,43.8-2c13.3-3.2,23.3-10.4,26.8-24.5C650.9,768.9,645.9,757.3,630.9,746.6L630.9,746.6
		z M323.7,735.6c0-14.8-0.1-27.4,0.1-40.1c0.1-4.3-1.5-5.9-5.9-5.8c-18.8,0.2-37.6,0.1-56.5,0c-3.2,0-6.1,0.1-6.2,4.5
		c-0.1,4.6,2.7,4.9,6.2,4.9c16-0.1,32,0.1,48-0.1c3.8-0.1,4.9,0.9,4.7,4.7c-1.2,24.2,1.6,48.4-1.8,72.7c-2,14.9-9.1,24.3-23.9,26.1
		c-19.5,2.3-32.5-4.3-36-25.2c-1-5.7-1.5-11.6-1.5-17.4c0-21.5,0-43,0-64.5c0-2.9-0.1-5.4-3.9-5.7c-4-0.3-5.7,1.3-5.7,5.4
		c0.1,21.8,0,43.6,0.1,65.5c0,5.8,0.4,11.7,1.5,17.4c2.4,12.3,6.6,23.5,18.5,29.8c26.9,14.1,55.6-0.1,60.5-30
		C324.5,763.1,323.3,748.3,323.7,735.6z M471.6,750.4c0.1-10.7-0.3-21.3,2.4-31.8c2.1-7.9,6-14.4,13.6-18.1
		c17.3-8.4,37.2-1.8,45.7,15.2c1.1,2.1,1.8,2.5,4.1,1.6c5.4-2.2,6-3.3,3.3-8.5c-8.1-15.5-19.7-22.5-44.3-20.3
		c-16.8,1.5-27.5,11.1-31.1,27.2c-5,22.7-5.1,46.2-0.1,68.9c2.1,9.9,7.1,18.7,16.8,23.1c16.5,7.4,33.2,6.8,48.9-2.2
		c8.8-5,13.4-13.1,13.1-23.7c-0.3-9-0.1-18,0-27c0.1-3.6-1.3-5.1-5-5.1c-7,0.1-14,0.1-21,0c-3.2,0-5,1.1-5.1,4.6
		c-0.1,3.8,1.9,4.9,5.3,4.8c3.8-0.1,7.7,0.2,11.5-0.1c3.2-0.2,4,1,3.9,4c-0.2,6.3-0.3,12.7,0,19c0.3,6.1-2.4,10.5-7,14.1
		c-7.7,5.9-16.7,7-26,6.8c-14.4-0.4-23.2-7.7-26.7-21.6C471.3,771,471.7,760.7,471.6,750.4z M752,746.6c-0.1-5.1,0.1-13.9-1.1-22.7
		c-3.1-21.8-13.9-33.6-34.1-35.5c-26.3-2.5-40.8,9-45,33c-2.8,15.9-2.1,31.9-1.3,47.8c0.3,7,1.8,13.9,4.2,20.5
		c4.4,11.7,12.6,18.9,24.9,21.5c5.1,1,10.2,1.3,15.4,0.9c18.4-1.1,29-9.8,34-27.6C752.3,773.3,752.1,761.8,752,746.6L752,746.6z
		 M210,750.4c0-18,0-36,0-54c0-3.5,0.3-6.8-4.8-6.7c-5.3,0.1-4.6,3.7-4.6,7c0,14-0.1,28,0,42c0,3.1-0.7,4.4-4.1,4.3
		c-15.8-0.2-31.6-0.2-47.5,0c-3.5,0-4.1-1.2-4.1-4.3c0.1-14.3,0-28.7,0.1-43c0-3.3-0.1-5.9-4.5-6c-4.7-0.1-4.9,2.6-4.9,6.2
		c0.1,36.2,0.1,72.3,0,108.5c0,3.3-0.2,6.5,4.6,6.6c5.1,0.1,4.8-3.3,4.8-6.8c0-15.7,0.1-31.3-0.1-47c0-3.5,0.5-4.9,4.5-4.9
		c15.5,0.3,31,0.2,46.5,0c3.8-0.1,4.8,1.1,4.7,4.8c-0.2,16,0,32-0.1,48c0,3.5,0.6,5.9,4.8,5.9c4.2,0,4.7-2.6,4.7-6
		C210,786.7,210,768.5,210,750.4z M852.9,690.1c-3.2-0.8-5.3,0.9-7.4,3c-16.5,16.5-33,33-49.6,49.4c-4.8,4.8-4.8,5.4-0.1,10
		c18.5,18.4,37.1,36.9,55.6,55.3c0.6,0.8,1.3,1.5,2.2,2.1c3.1,1.5,6.6,2.2,9.1-0.3c2.9-2.9-0.7-4.6-2.4-6.3
		c-17.6-17.5-35.1-35.1-52.9-52.5c-2.7-2.6-2.7-3.9,0-6.5c16.1-15.7,32-31.6,47.9-47.5c1.4-1.4,4.1-2.4,2.8-5.2
		C857.1,689.1,854.7,690.3,852.9,690.1L852.9,690.1z M790.9,750.1c0-18.3,0-36.6,0-54.9c0-3.3-0.6-5.5-4.5-5.5
		c-4.2-0.1-4.9,2.1-4.9,5.7c0.1,36.6,0.1,73.2,0,109.8c0,3.3,0.6,5.5,4.5,5.6c4.1,0.1,4.9-2.2,4.9-5.7
		C790.9,786.8,790.9,768.5,790.9,750.1L790.9,750.1z"/>
	<path class="st1" d="M364.7,711.3v5.4c0,29.3,0,58.7,0,88c0,2.7-0.1,5.1-3.1,6c-3.8,1.2-6.5-0.8-6.5-5c-0.1-8.3,0-16.7,0-25
		c0-28.2,0-56.3,0-84.5c0-2.7-0.5-5.8,3.1-6.4c3.4-0.6,6.4-0.5,8.7,3.5c17.3,30.4,34.9,60.6,52.4,90.9c0.9,1.6,1.8,3.1,3,5
		c1.6-1.8,1-3.7,1-5.3c0-29.3,0-58.7,0-88c0-3.4,0.1-6.4,4.8-6.4c4.6,0,4.9,2.7,4.9,6.3c-0.1,36.2,0,72.3,0,108.5
		c0,4.7-1.5,6.5-6.4,6.5c-17.5-0.2-35-0.1-52.5,0c-3.4,0-5.9-0.5-6-4.7c-0.1-4.5,2.6-5,6.2-5c14.3,0.1,28.6,0,43.8,0
		c-17.6-30.5-34.9-60.3-52.2-90.2L364.7,711.3z"/>
	<path class="st1" d="M630.9,746.6c15,10.7,20,22.3,16.3,37.6c-3.4,14.1-13.4,21.3-26.8,24.5c-14.4,3.4-29.2,1.7-43.8,2
		c-2.7,0.1-3.7-1.8-3.8-4.3c-0.1-2,0-4,0-6c0-34.8,0-69.6,0-104.4c0-6.2,0.2-6.5,6.6-6.4c12.3,0.2,24.6-1,36.8,2.2
		c19.5,5.1,29.1,20.3,24.7,39.1C639.5,736.7,637.1,740.6,630.9,746.6z M582.1,750.3v38.4c0,12.4,0,12.4,12.3,12.5
		c9.6,0,19.3,0.3,28.6-3.2c10.5-4,15.7-11,15.8-21.8c0.1-10.7-5-18-15.4-22.1c-2.8-1.1-5.7-1.9-8.4-3.1c-2.8-1.2-3-4-0.5-5.7
		c2.6-1.7,5.5-3.1,8.2-4.8c5.3-3.2,8.6-7.7,9.4-13.9c1.7-13.3-4.4-22-18.2-25.5c-8.8-2.2-17.8-2-26.8-2.2c-3.8-0.1-5.1,0.8-5.1,4.9
		C582.3,719.3,582.1,734.8,582.1,750.3L582.1,750.3z"/>
	<path class="st1" d="M323.7,735.6c-0.4,12.7,0.8,27.5-1.6,42.3c-4.9,29.8-33.6,44.1-60.5,30c-12-6.3-16.2-17.5-18.5-29.8
		c-1-5.7-1.5-11.6-1.5-17.4c-0.1-21.8,0-43.6-0.1-65.5c0-4.2,1.6-5.8,5.7-5.4c3.7,0.3,3.9,2.8,3.9,5.7c0,21.5,0,43,0,64.5
		c0,5.8,0.5,11.7,1.5,17.4c3.5,20.9,16.5,27.5,36,25.2c14.7-1.7,21.8-11.2,23.9-26.1c3.3-24.2,0.6-48.5,1.8-72.7
		c0.2-3.8-0.9-4.8-4.7-4.7c-16,0.2-32,0-48,0.1c-3.6,0-6.3-0.4-6.2-4.9c0.1-4.4,2.9-4.5,6.2-4.5c18.8,0.1,37.6,0.1,56.5,0
		c4.3,0,5.9,1.5,5.9,5.8C323.5,708.2,323.7,720.8,323.7,735.6z"/>
	<path class="st1" d="M471.6,750.4c0.1,10.3-0.3,20.7,2.3,30.8c3.5,14,12.3,21.2,26.7,21.6c9.3,0.3,18.3-0.8,26-6.8
		c4.6-3.6,7.3-7.9,7-14.1c-0.3-6.3-0.2-12.7,0-19c0.1-3-0.7-4.2-3.9-4c-3.8,0.3-7.7,0-11.5,0.1c-3.4,0.1-5.4-1-5.3-4.8
		c0.1-3.5,1.8-4.6,5.1-4.6c7,0.1,14,0.1,21,0c3.7-0.1,5.1,1.4,5,5.1c-0.1,9-0.2,18,0,27c0.3,10.6-4.4,18.6-13.1,23.7
		c-15.7,9-32.4,9.6-48.9,2.2c-9.6-4.3-14.7-13.2-16.8-23.1c-5-22.7-5-46.2,0.1-68.9c3.6-16.1,14.3-25.7,31.1-27.2
		c24.6-2.3,36.2,4.7,44.3,20.3c2.7,5.2,2.1,6.3-3.3,8.5c-2.3,0.9-3,0.5-4.1-1.6c-8.5-17-28.4-23.6-45.7-15.2
		c-7.6,3.7-11.6,10.2-13.6,18.1C471.3,729,471.7,739.7,471.6,750.4z"/>
	<path class="st1" d="M752,746.6c0.1,15.2,0.3,26.7-2.9,37.9c-5.1,17.8-15.7,26.5-34,27.6c-5.2,0.4-10.3,0.1-15.4-0.9
		c-12.3-2.6-20.5-9.8-24.9-21.5c-2.5-6.6-3.9-13.5-4.2-20.5c-0.8-16-1.5-32,1.3-47.8c4.2-24,18.7-35.5,45-33
		c20.2,1.9,31,13.7,34.1,35.5C752.2,732.7,752,741.5,752,746.6z M679.6,750c0.1,9-0.3,18,1.3,26.9c1.6,8.6,4.3,16.4,12.1,21.5
		c18.8,12.4,43.8,2.3,47.8-19.7c3.2-17.8,2.7-35.8,0.6-53.7c-1-8.9-3.8-17.3-11.8-22.8c-6.4-4.4-13.7-4.9-21.1-4.5
		c-15.1,0.7-23.2,7.4-26.8,22C679.2,729.7,679.7,739.8,679.6,750z"/>
	<path class="st1" d="M210,750.4c0,18.2,0,36.3,0,54.5c0,3.4-0.5,6-4.7,6c-4.2,0-4.8-2.4-4.8-5.9c0.1-16-0.1-32,0.1-48
		c0-3.7-0.9-4.8-4.7-4.8c-15.5,0.2-31,0.2-46.5,0c-4-0.1-4.6,1.4-4.5,4.9c0.2,15.7,0.1,31.3,0.1,47c0,3.5,0.3,6.9-4.8,6.8
		c-4.7-0.1-4.6-3.2-4.6-6.6c0-36.2,0-72.3,0-108.5c0-3.5,0.2-6.3,4.9-6.2c4.4,0.1,4.5,2.8,4.5,6c-0.1,14.3,0,28.7-0.1,43
		c0,3.1,0.6,4.3,4.1,4.3c15.8-0.2,31.6-0.2,47.5,0c3.5,0,4.1-1.3,4.1-4.3c-0.1-14-0.1-28,0-42c0-3.3-0.7-6.9,4.6-7
		c5.2-0.1,4.9,3.2,4.8,6.7C210,714.4,210,732.4,210,750.4z"/>
	<path class="st1" d="M852.9,690.1c1.8,0.2,4.2-1,5.3,1.5c1.2,2.8-1.4,3.8-2.8,5.2c-15.9,15.9-31.8,31.8-47.9,47.5
		c-2.7,2.6-2.6,3.9,0,6.5c17.7,17.4,35.3,34.9,52.9,52.5c1.7,1.7,5.3,3.4,2.4,6.3c-2.5,2.5-6.1,1.7-9.1,0.3
		c-0.8-0.6-1.6-1.3-2.2-2.1c-18.5-18.4-37.1-36.9-55.6-55.3c-4.7-4.6-4.7-5.2,0.1-10c16.5-16.4,33.1-32.9,49.6-49.4
		C847.7,691,849.7,689.3,852.9,690.1z"/>
	<path class="st1" d="M790.9,750.1c0,18.3,0,36.6,0,54.9c0,3.5-0.8,5.8-4.9,5.7c-3.9-0.1-4.5-2.3-4.5-5.6c0-36.6,0-73.2,0-109.8
		c0-3.5,0.7-5.8,4.9-5.7c3.9,0.1,4.6,2.3,4.5,5.5C790.9,713.5,790.9,731.8,790.9,750.1z"/>
	<path class="st0" d="M582.1,750.3c0-15.5,0.2-31-0.1-46.4c-0.1-4.1,1.2-5,5.1-4.9c9,0.2,18-0.1,26.8,2.2
		c13.7,3.5,19.9,12.2,18.2,25.5c-0.8,6.2-4.1,10.8-9.4,13.9c-2.7,1.6-5.6,3-8.2,4.8c-2.5,1.7-2.2,4.5,0.5,5.7c2.7,1.2,5.6,2,8.4,3.1
		c10.4,4.1,15.5,11.4,15.4,22.1c-0.1,10.7-5.2,17.8-15.8,21.8c-9.3,3.5-18.9,3.2-28.6,3.2c-12.3,0-12.3,0-12.3-12.5L582.1,750.3z"/>
	<path class="st0" d="M679.6,750c0.1-10.1-0.3-20.3,2.2-30.3c3.6-14.6,11.7-21.4,26.8-22c7.4-0.3,14.7,0.2,21.1,4.5
		c8,5.5,10.8,13.8,11.8,22.8c2,17.9,2.6,35.9-0.6,53.7c-4,22-29.1,32.1-47.8,19.7c-7.8-5.1-10.5-13-12.1-21.5
		C679.3,768,679.7,759,679.6,750z"/>
	<path class="st0" d="M499.5,1251.4c-165,0-329.9,0-494.9,0.1c-3.7,0-4.6-0.8-4.6-4.6c0.1-330.3,0.1-660.5,0-990.8
		c0-3.7,0.8-4.6,4.6-4.6c330.3,0.1,660.5,0.1,990.8,0c3.7,0,4.6,0.8,4.6,4.6c-0.1,330.3-0.1,660.5,0,990.8c0,3.7-0.8,4.6-4.6,4.6
		C830.1,1251.4,664.8,1251.3,499.5,1251.4z M364.7,712.8l1.2-0.3c17.3,29.9,34.5,59.7,52.2,90.2c-15.2,0-29.5,0.1-43.8,0
		c-3.6,0-6.3,0.5-6.2,5c0.1,4.2,2.6,4.7,6,4.7c17.5-0.1,35-0.1,52.5,0c4.8,0.1,6.4-1.7,6.4-6.5c-0.1-36.2-0.1-72.3,0-108.5
		c0-3.6-0.3-6.3-4.9-6.3c-4.7,0-4.8,3-4.8,6.4c0,29.3,0,58.7,0,88c0,1.6,0.6,3.5-1,5.3c-1.1-1.9-2.1-3.5-3-5
		c-17.5-30.3-35.1-60.5-52.4-90.9c-2.3-4.1-5.3-4.1-8.7-3.5c-3.6,0.6-3.1,3.7-3.1,6.4c0,28.2,0,56.3,0,84.5c0,8.3-0.1,16.7,0,25
		c0,4.2,2.8,6.2,6.5,5c3-0.9,3.1-3.4,3.1-6c0-29.3-0.1-58.7,0-88L364.7,712.8z M630.9,748.1c6.2-6,8.6-9.9,10-15.6
		c4.4-18.8-5.2-33.9-24.7-39.1c-12.1-3.2-24.5-2-36.8-2.2c-6.3-0.1-6.6,0.2-6.6,6.4c0,34.8,0,69.6,0,104.4c0,2-0.1,4,0,6
		c0.1,2.5,1.1,4.3,3.8,4.3c14.6-0.3,29.4,1.4,43.8-2c13.3-3.2,23.3-10.4,26.8-24.5C650.9,770.4,645.9,758.8,630.9,748.1L630.9,748.1
		z M323.7,737.1c0-14.8-0.1-27.4,0.1-40.1c0.1-4.3-1.5-5.9-5.9-5.8c-18.8,0.2-37.6,0.1-56.5,0c-3.2,0-6.1,0.1-6.2,4.5
		c-0.1,4.6,2.7,4.9,6.2,4.9c16-0.1,32,0.1,48-0.1c3.8-0.1,4.9,0.9,4.7,4.7c-1.2,24.2,1.6,48.4-1.8,72.7c-2,14.9-9.1,24.3-23.9,26.1
		c-19.5,2.3-32.5-4.3-36-25.2c-1-5.7-1.5-11.6-1.5-17.4c0-21.5,0-43,0-64.5c0-2.9-0.1-5.4-3.9-5.7c-4-0.3-5.7,1.3-5.7,5.4
		c0.1,21.8,0,43.6,0.1,65.5c0,5.8,0.4,11.7,1.5,17.4c2.4,12.3,6.6,23.5,18.5,29.8c26.9,14.1,55.6-0.1,60.5-30
		C324.5,764.6,323.3,749.8,323.7,737.1z M471.6,751.9c0.1-10.7-0.3-21.3,2.4-31.8c2.1-7.9,6-14.4,13.6-18.1
		c17.3-8.4,37.2-1.8,45.7,15.2c1.1,2.1,1.8,2.5,4.1,1.6c5.4-2.2,6-3.3,3.3-8.5c-8.1-15.5-19.7-22.5-44.3-20.3
		c-16.8,1.5-27.5,11.1-31.1,27.2c-5,22.7-5.1,46.2-0.1,68.9c2.1,9.9,7.1,18.7,16.8,23.1c16.5,7.4,33.2,6.8,48.9-2.2
		c8.8-5,13.4-13.1,13.1-23.7c-0.3-9-0.1-18,0-27c0.1-3.6-1.3-5.1-5-5.1c-7,0.1-14,0.1-21,0c-3.2,0-5,1.1-5.1,4.6
		c-0.1,3.8,1.9,4.9,5.3,4.8c3.8-0.1,7.7,0.2,11.5-0.1c3.2-0.2,4,1,3.9,4c-0.2,6.3-0.3,12.7,0,19c0.3,6.1-2.4,10.5-7,14.1
		c-7.7,5.9-16.7,7-26,6.8c-14.4-0.4-23.2-7.7-26.7-21.6C471.3,772.5,471.7,762.2,471.6,751.9z M752,748.1
		c-0.1-5.1,0.1-13.9-1.1-22.7c-3.1-21.8-13.9-33.6-34.1-35.5c-26.3-2.5-40.8,9-45,33c-2.8,15.9-2.1,31.9-1.3,47.8
		c0.3,7,1.8,13.9,4.2,20.5c4.4,11.7,12.6,18.9,24.9,21.5c5.1,1,10.2,1.3,15.4,0.9c18.4-1.1,29-9.8,34-27.6
		C752.3,774.8,752.1,763.3,752,748.1L752,748.1z M210,751.9c0-18,0-36,0-54c0-3.5,0.3-6.8-4.8-6.7c-5.3,0.1-4.6,3.7-4.6,7
		c0,14-0.1,28,0,42c0,3.1-0.7,4.4-4.1,4.3c-15.8-0.2-31.6-0.2-47.5,0c-3.5,0-4.1-1.2-4.1-4.3c0.1-14.3,0-28.7,0.1-43
		c0-3.3-0.1-5.9-4.5-6c-4.7-0.1-4.9,2.6-4.9,6.2c0.1,36.2,0.1,72.3,0,108.5c0,3.3-0.2,6.5,4.6,6.6c5.1,0.1,4.8-3.3,4.8-6.8
		c0-15.7,0.1-31.3-0.1-47c0-3.5,0.5-4.9,4.5-4.9c15.5,0.3,31,0.2,46.5,0c3.8-0.1,4.8,1.1,4.7,4.8c-0.2,16,0,32-0.1,48
		c0,3.5,0.6,5.9,4.8,5.9c4.2,0,4.7-2.6,4.7-6C210,788.2,210,770,210,751.9z M852.9,691.6c-3.2-0.8-5.3,0.9-7.4,3
		c-16.5,16.5-33,33-49.6,49.4c-4.8,4.8-4.8,5.4-0.1,10c18.5,18.4,37.1,36.9,55.6,55.3c0.6,0.8,1.3,1.5,2.2,2.1
		c3.1,1.5,6.6,2.2,9.1-0.3c2.9-2.9-0.7-4.6-2.4-6.3c-17.6-17.5-35.1-35.1-52.9-52.5c-2.7-2.6-2.7-3.9,0-6.5
		c16.1-15.7,32-31.6,47.9-47.5c1.4-1.4,4.1-2.4,2.8-5.2C857.1,690.6,854.7,691.8,852.9,691.6L852.9,691.6z M790.9,751.6
		c0-18.3,0-36.6,0-54.9c0-3.3-0.6-5.5-4.5-5.5c-4.2-0.1-4.9,2.1-4.9,5.7c0.1,36.6,0.1,73.2,0,109.8c0,3.3,0.6,5.5,4.5,5.6
		c4.1,0.1,4.9-2.2,4.9-5.7C790.9,788.3,790.9,769.9,790.9,751.6L790.9,751.6z"/>
</g>
</svg>
