<?xml version="1.0" encoding="utf-8"?>
<!-- Generator: Adobe Illustrator 26.0.3, SVG Export Plug-In . SVG Version: 6.00 Build 0)  -->
<svg version="1.1" xmlns="http://www.w3.org/2000/svg" xmlns:xlink="http://www.w3.org/1999/xlink" x="0px" y="0px"
	 viewBox="0 0 1920 1080" style="enable-background:new 0 0 1920 1080;" xml:space="preserve">
<style type="text/css">
	.st0{fill:#121212;}
	.st1{fill:#444444;}
</style>
<g id="레이어_2">
	<path class="st0" d="M959,1079.9c-316.7,0-633.5,0-950.2,0.1c-7.2,0-8.8-0.9-8.8-5C0.2,718.3,0.2,361.7,0,5c0-4,1.6-5,8.8-5
		c634.1,0.1,1268.2,0.1,1902.4,0c7.2,0,8.8,0.9,8.8,5c-0.2,356.7-0.2,713.4,0,1070.1c0,4-1.6,5-8.8,5
		C1593.8,1079.9,1276.4,1079.8,959,1079.9z M700.3,498.2l2.3-0.4c33.2,32.2,66.3,64.5,100.2,97.4c-29.2,0-56.6,0.1-84.1,0
		c-6.9,0-12.1,0.5-12,5.4c0.1,4.5,5,5.1,11.5,5.1c33.6-0.1,67.2-0.2,100.8,0c9.3,0.1,12.2-1.9,12.2-7c-0.3-39.1-0.3-78.1-0.1-117.2
		c0-3.8-0.7-6.8-9.4-6.8c-9,0-9.1,3.2-9.1,6.9c0.1,31.7,0.1,63.3,0,95c0,1.8,1.2,3.8-1.9,5.7c-2.2-2.1-4-3.7-5.7-5.4
		c-33.6-32.7-67.4-65.3-100.5-98.2c-4.4-4.4-10.1-4.4-16.7-3.8c-6.9,0.6-6,4-6,6.9c0,30.4,0,60.8,0,91.2c0,9-0.1,18,0,27
		c0.1,4.5,5.3,6.7,12.6,5.4c5.8-1,6-3.6,6-6.5c-0.1-31.7-0.1-63.3-0.1-95L700.3,498.2z M1211.4,536.3c11.8-6.5,16.5-10.7,19.1-16.8
		c8.5-20.3-10-36.6-47.5-42.2c-23.3-3.4-47-2.2-70.6-2.4c-12.1-0.1-12.6,0.2-12.6,6.9c0,37.6,0,75.2,0,112.7c0,2.2-0.1,4.3,0,6.5
		c0.1,2.7,2.2,4.7,7.3,4.6c28.1-0.3,56.4,1.5,84.1-2.2c25.6-3.4,44.8-11.2,51.4-26.5C1249.8,560.4,1240.2,547.9,1211.4,536.3
		L1211.4,536.3z M621.4,524.4c0-15.9-0.2-29.6,0.1-43.3c0.1-4.7-2.9-6.3-11.3-6.3c-36.1,0.2-72.3,0.1-108.4,0
		c-6.2,0-11.6,0.1-11.8,4.8c-0.2,4.9,5.1,5.3,12,5.3c30.7-0.1,61.4,0.1,92.1-0.1c7.2-0.1,9.3,1,9,5.1c-2.2,26.1,3,52.3-3.4,78.5
		c-3.9,16-17.5,26.3-45.9,28.2c-37.4,2.5-62.4-4.7-69.2-27.2c-1.9-6.2-2.8-12.5-2.8-18.8c0.1-23.2,0-46.4,0.1-69.6
		c0-3.1-0.3-5.8-7.5-6.1c-7.7-0.4-10.9,1.4-10.9,5.9c0.2,23.6,0,47.1,0.2,70.7c-0.1,6.3,0.9,12.6,2.8,18.8
		c4.6,13.3,12.6,25.4,35.6,32.2c51.7,15.3,106.7-0.1,116.1-32.3C623,554.2,620.7,538.1,621.4,524.4z M905.5,540.4
		c0.1-11.5-0.6-23,4.6-34.3c4-8.6,11.6-15.6,26.2-19.6c33.2-9.1,71.5-2,87.8,16.4c2,2.3,3.5,2.7,7.8,1.7c10.3-2.4,11.5-3.6,6.3-9.2
		c-15.6-16.8-37.9-24.3-85.1-21.9c-32.2,1.7-52.8,11.9-59.8,29.4c-9.7,24.5-9.7,49.9-0.1,74.4c4.1,10.7,13.7,20.2,32.3,24.9
		c31.7,8,63.7,7.3,93.9-2.4c16.9-5.4,25.8-14.1,25.2-25.5c-0.5-9.7-0.3-19.4,0-29.1c0.1-3.9-2.6-5.5-9.6-5.5
		c-13.4,0.1-26.9,0.1-40.3,0c-6.2,0-9.6,1.2-9.7,4.9c-0.1,4.1,3.6,5.3,10.2,5.2c7.4-0.1,14.7,0.2,22.1-0.1c6.1-0.2,7.6,1.1,7.4,4.3
		c-0.4,6.8-0.6,13.7,0,20.5c0.6,6.6-4.5,11.4-13.4,15.2c-14.8,6.4-32.1,7.6-50,7.3c-27.7-0.5-44.5-8.3-51.3-23.4
		C904.9,562.7,905.6,551.5,905.5,540.4z M1443.9,536.3c-0.1-5.5,0.2-15-2.2-24.5c-6-23.6-26.6-36.3-65.4-38.4
		c-50.6-2.6-78.3,9.8-86.4,35.7c-5.4,17.1-4,34.4-2.5,51.7c0.6,7.6,3.4,15,8.1,22.1c8.5,12.6,24.2,20.4,47.8,23.2
		c9.7,1.1,19.7,1.4,29.6,1c35.3-1.2,55.6-10.6,65.4-29.8C1444.4,565.2,1444,552.8,1443.9,536.3L1443.9,536.3z"/>
</g>
<g id="레이어_1">
	<path class="st0" d="M959.5,1039.9c-165,0-329.9,0-494.9,0.1c-3.7,0-4.6-0.8-4.6-4.6c0.1-330.3,0.1-660.5,0-990.8
		c0-3.7,0.8-4.6,4.6-4.6c330.3,0.1,660.5,0.1,990.8,0c3.7,0,4.6,0.8,4.6,4.6c-0.1,330.3-0.1,660.5,0,990.8c0,3.7-0.8,4.6-4.6,4.6
		C1290.1,1039.9,1124.8,1039.9,959.5,1039.9z M824.7,501.3l1.2-0.3c17.3,29.9,34.5,59.7,52.2,90.2c-15.2,0-29.5,0.1-43.8,0
		c-3.6,0-6.3,0.5-6.2,5c0.1,4.2,2.6,4.7,6,4.7c17.5-0.1,35-0.1,52.5,0c4.8,0.1,6.4-1.7,6.4-6.5c-0.1-36.2-0.1-72.3,0-108.5
		c0-3.6-0.3-6.3-4.9-6.3c-4.7,0-4.8,3-4.8,6.4c0,29.3,0,58.7,0,88c0,1.6,0.6,3.5-1,5.3c-1.1-1.9-2.1-3.5-3-5
		c-17.5-30.3-35.1-60.5-52.4-90.9c-2.3-4.1-5.3-4.1-8.7-3.5c-3.6,0.6-3.1,3.7-3.1,6.4c0,28.2,0,56.3,0,84.5c0,8.3-0.1,16.7,0,25
		c0,4.2,2.8,6.2,6.5,5c3-0.9,3.1-3.4,3.1-6c0-29.3-0.1-58.7,0-88L824.7,501.3z M1090.9,536.6c6.2-6,8.6-9.9,10-15.6
		c4.4-18.8-5.2-33.9-24.7-39.1c-12.1-3.2-24.5-2-36.8-2.2c-6.3-0.1-6.6,0.2-6.6,6.4c0,34.8,0,69.6,0,104.4c0,2-0.1,4,0,6
		c0.1,2.5,1.1,4.3,3.8,4.3c14.6-0.3,29.4,1.4,43.8-2c13.3-3.2,23.3-10.4,26.8-24.5C1110.9,558.9,1105.9,547.3,1090.9,536.6
		L1090.9,536.6z M783.7,525.6c0-14.8-0.1-27.4,0.1-40.1c0.1-4.3-1.5-5.9-5.9-5.8c-18.8,0.2-37.6,0.1-56.5,0c-3.2,0-6.1,0.1-6.2,4.5
		c-0.1,4.6,2.7,4.9,6.2,4.9c16-0.1,32,0.1,48-0.1c3.8-0.1,4.9,0.9,4.7,4.7c-1.2,24.2,1.6,48.4-1.8,72.7c-2,14.9-9.1,24.3-23.9,26.1
		c-19.5,2.3-32.5-4.3-36-25.2c-1-5.7-1.5-11.6-1.5-17.4c0-21.5,0-43,0-64.5c0-2.9-0.1-5.4-3.9-5.7c-4-0.3-5.7,1.3-5.7,5.4
		c0.1,21.8,0,43.6,0.1,65.5c0,5.8,0.4,11.7,1.5,17.4c2.4,12.3,6.6,23.5,18.5,29.8c26.9,14.1,55.6-0.1,60.5-30
		C784.5,553.1,783.3,538.3,783.7,525.6z M931.6,540.4c0.1-10.7-0.3-21.3,2.4-31.8c2.1-7.9,6-14.4,13.6-18.1
		c17.3-8.4,37.2-1.8,45.7,15.2c1.1,2.1,1.8,2.5,4.1,1.6c5.4-2.2,6-3.3,3.3-8.5c-8.1-15.5-19.7-22.5-44.3-20.3
		c-16.8,1.5-27.5,11.1-31.1,27.2c-5,22.7-5.1,46.2-0.1,68.9c2.1,9.9,7.1,18.7,16.8,23.1c16.5,7.4,33.2,6.8,48.9-2.2
		c8.8-5,13.4-13.1,13.1-23.7c-0.3-9-0.1-18,0-27c0.1-3.6-1.3-5.1-5-5.1c-7,0.1-14,0.1-21,0c-3.2,0-5,1.1-5.1,4.6
		c-0.1,3.8,1.9,4.9,5.3,4.8c3.8-0.1,7.7,0.2,11.5-0.1c3.2-0.2,4,1,3.9,4c-0.2,6.3-0.3,12.7,0,19c0.3,6.1-2.4,10.5-7,14.1
		c-7.7,5.9-16.7,7-26,6.8c-14.4-0.4-23.2-7.7-26.7-21.6C931.3,561,931.7,550.7,931.6,540.4z M1212,536.6c-0.1-5.1,0.1-13.9-1.1-22.7
		c-3.1-21.8-13.9-33.6-34.1-35.5c-26.3-2.5-40.8,9-45,33c-2.8,15.9-2.1,31.9-1.3,47.8c0.3,7,1.8,13.9,4.2,20.5
		c4.4,11.7,12.6,18.9,24.9,21.5c5.1,1,10.2,1.3,15.4,0.9c18.4-1.1,29-9.8,34-27.6C1212.3,563.3,1212.1,551.8,1212,536.6L1212,536.6z
		 M670,540.4c0-18,0-36,0-54c0-3.5,0.3-6.8-4.8-6.7c-5.3,0.1-4.6,3.7-4.6,7c0,14-0.1,28,0,42c0,3.1-0.7,4.4-4.1,4.3
		c-15.8-0.2-31.6-0.2-47.5,0c-3.5,0-4.1-1.2-4.1-4.3c0.1-14.3,0-28.7,0.1-43c0-3.3-0.1-5.9-4.5-6c-4.7-0.1-4.9,2.6-4.9,6.2
		c0.1,36.2,0.1,72.3,0,108.5c0,3.3-0.2,6.5,4.6,6.6c5.1,0.1,4.8-3.3,4.8-6.8c0-15.7,0.1-31.3-0.1-47c0-3.5,0.5-4.9,4.5-4.9
		c15.5,0.3,31,0.2,46.5,0c3.8-0.1,4.8,1.1,4.7,4.8c-0.2,16,0,32-0.1,48c0,3.5,0.6,5.9,4.8,5.9c4.2,0,4.7-2.6,4.7-6
		C670,576.7,670,558.5,670,540.4z M1312.9,480.1c-3.2-0.8-5.3,0.9-7.4,3c-16.5,16.5-33,33-49.6,49.4c-4.8,4.8-4.8,5.4-0.1,10
		c18.5,18.4,37.1,36.9,55.6,55.3c0.6,0.8,1.3,1.5,2.2,2.1c3.1,1.5,6.6,2.2,9.1-0.3c2.9-2.9-0.7-4.6-2.4-6.3
		c-17.6-17.5-35.1-35.1-52.9-52.5c-2.7-2.6-2.7-3.9,0-6.5c16.1-15.7,32-31.6,47.9-47.5c1.4-1.4,4.1-2.4,2.8-5.2
		C1317.1,479.1,1314.7,480.3,1312.9,480.1L1312.9,480.1z M1250.9,540.1c0-18.3,0-36.6,0-54.9c0-3.3-0.6-5.5-4.5-5.5
		c-4.2-0.1-4.9,2.1-4.9,5.7c0.1,36.6,0.1,73.2,0,109.8c0,3.3,0.6,5.5,4.5,5.6c4.1,0.1,4.9-2.2,4.9-5.7
		C1250.9,576.8,1250.9,558.5,1250.9,540.1L1250.9,540.1z"/>
	<path class="st1" d="M824.7,501.3v5.4c0,29.3,0,58.7,0,88c0,2.7-0.1,5.1-3.1,6c-3.8,1.2-6.5-0.8-6.5-5c-0.1-8.3,0-16.7,0-25
		c0-28.2,0-56.3,0-84.5c0-2.7-0.5-5.8,3.1-6.4c3.4-0.6,6.4-0.5,8.7,3.5c17.3,30.4,34.9,60.6,52.4,90.9c0.9,1.6,1.8,3.1,3,5
		c1.6-1.8,1-3.7,1-5.3c0-29.3,0-58.7,0-88c0-3.4,0.1-6.4,4.8-6.4c4.6,0,4.9,2.7,4.9,6.3c-0.1,36.2,0,72.3,0,108.5
		c0,4.7-1.5,6.5-6.4,6.5c-17.5-0.2-35-0.1-52.5,0c-3.4,0-5.9-0.5-6-4.7c-0.1-4.5,2.6-5,6.2-5c14.3,0.1,28.6,0,43.8,0
		c-17.6-30.5-34.9-60.3-52.2-90.2L824.7,501.3z"/>
	<path class="st1" d="M1090.9,536.6c15,10.7,20,22.3,16.3,37.6c-3.4,14.1-13.4,21.3-26.8,24.5c-14.4,3.4-29.2,1.7-43.8,2
		c-2.7,0.1-3.7-1.8-3.8-4.3c-0.1-2,0-4,0-6c0-34.8,0-69.6,0-104.4c0-6.2,0.2-6.5,6.6-6.4c12.3,0.2,24.6-1,36.8,2.2
		c19.5,5.1,29.1,20.3,24.7,39.1C1099.5,526.7,1097.1,530.6,1090.9,536.6z M1042.1,540.3v38.4c0,12.4,0,12.4,12.3,12.5
		c9.6,0,19.3,0.3,28.6-3.2c10.5-4,15.7-11,15.8-21.8c0.1-10.7-5-18-15.4-22.1c-2.8-1.1-5.7-1.9-8.4-3.1c-2.8-1.2-3-4-0.5-5.7
		c2.6-1.7,5.5-3.1,8.2-4.8c5.3-3.2,8.6-7.7,9.4-13.9c1.7-13.3-4.4-22-18.2-25.5c-8.8-2.2-17.8-2-26.8-2.2c-3.8-0.1-5.1,0.8-5.1,4.9
		C1042.3,509.3,1042.1,524.8,1042.1,540.3L1042.1,540.3z"/>
	<path class="st1" d="M783.7,525.6c-0.4,12.7,0.8,27.5-1.6,42.3c-4.9,29.8-33.6,44.1-60.5,30c-12-6.3-16.2-17.5-18.5-29.8
		c-1-5.7-1.5-11.6-1.5-17.4c-0.1-21.8,0-43.6-0.1-65.5c0-4.2,1.6-5.8,5.7-5.4c3.7,0.3,3.9,2.8,3.9,5.7c0,21.5,0,43,0,64.5
		c0,5.8,0.5,11.7,1.5,17.4c3.5,20.9,16.5,27.5,36,25.2c14.7-1.7,21.8-11.2,23.9-26.1c3.3-24.2,0.6-48.5,1.8-72.7
		c0.2-3.8-0.9-4.8-4.7-4.7c-16,0.2-32,0-48,0.1c-3.6,0-6.3-0.4-6.2-4.9c0.1-4.4,2.9-4.5,6.2-4.5c18.8,0.1,37.6,0.1,56.5,0
		c4.3,0,5.9,1.5,5.9,5.8C783.5,498.2,783.7,510.8,783.7,525.6z"/>
	<path class="st1" d="M931.6,540.4c0.1,10.3-0.3,20.7,2.3,30.8c3.5,14,12.3,21.2,26.7,21.6c9.3,0.3,18.3-0.8,26-6.8
		c4.6-3.6,7.3-7.9,7-14.1c-0.3-6.3-0.2-12.7,0-19c0.1-3-0.7-4.2-3.9-4c-3.8,0.3-7.7,0-11.5,0.1c-3.4,0.1-5.4-1-5.3-4.8
		c0.1-3.5,1.8-4.6,5.1-4.6c7,0.1,14,0.1,21,0c3.7-0.1,5.1,1.4,5,5.1c-0.1,9-0.2,18,0,27c0.3,10.6-4.4,18.6-13.1,23.7
		c-15.7,9-32.4,9.6-48.9,2.2c-9.6-4.3-14.7-13.2-16.8-23.1c-5-22.7-5-46.2,0.1-68.9c3.6-16.1,14.3-25.7,31.1-27.2
		c24.6-2.3,36.2,4.7,44.3,20.3c2.7,5.2,2.1,6.3-3.3,8.5c-2.3,0.9-3,0.5-4.1-1.6c-8.5-17-28.4-23.6-45.7-15.2
		c-7.6,3.7-11.6,10.2-13.6,18.1C931.3,519,931.7,529.7,931.6,540.4z"/>
	<path class="st1" d="M1212,536.6c0.1,15.2,0.3,26.7-2.9,37.9c-5.1,17.8-15.7,26.5-34,27.6c-5.2,0.4-10.3,0.1-15.4-0.9
		c-12.3-2.6-20.5-9.8-24.9-21.5c-2.5-6.6-3.9-13.5-4.2-20.5c-0.8-16-1.5-32,1.3-47.8c4.2-24,18.7-35.5,45-33
		c20.2,1.9,31,13.7,34.1,35.5C1212.2,522.7,1212,531.5,1212,536.6z M1139.6,540c0.1,9-0.3,18,1.3,26.9c1.6,8.6,4.3,16.4,12.1,21.5
		c18.8,12.4,43.8,2.3,47.8-19.7c3.2-17.8,2.7-35.8,0.6-53.7c-1-8.9-3.8-17.3-11.8-22.8c-6.4-4.4-13.7-4.9-21.1-4.5
		c-15.1,0.7-23.2,7.4-26.8,22C1139.2,519.7,1139.7,529.8,1139.6,540z"/>
	<path class="st1" d="M670,540.4c0,18.2,0,36.3,0,54.5c0,3.4-0.5,6-4.7,6c-4.2,0-4.8-2.4-4.8-5.9c0.1-16-0.1-32,0.1-48
		c0-3.7-0.9-4.8-4.7-4.8c-15.5,0.2-31,0.2-46.5,0c-4-0.1-4.6,1.4-4.5,4.9c0.2,15.7,0.1,31.3,0.1,47c0,3.5,0.3,6.9-4.8,6.8
		c-4.7-0.1-4.6-3.2-4.6-6.6c0-36.2,0-72.3,0-108.5c0-3.5,0.2-6.3,4.9-6.2c4.4,0.1,4.5,2.8,4.5,6c-0.1,14.3,0,28.7-0.1,43
		c0,3.1,0.6,4.3,4.1,4.3c15.8-0.2,31.6-0.2,47.5,0c3.5,0,4.1-1.3,4.1-4.3c-0.1-14-0.1-28,0-42c0-3.3-0.7-6.9,4.6-7
		c5.2-0.1,4.9,3.2,4.8,6.7C670,504.4,670,522.4,670,540.4z"/>
	<path class="st1" d="M1312.9,480.1c1.8,0.2,4.2-1,5.3,1.5c1.2,2.8-1.4,3.8-2.8,5.2c-15.9,15.9-31.8,31.8-47.9,47.5
		c-2.7,2.6-2.6,3.9,0,6.5c17.7,17.4,35.3,34.9,52.9,52.5c1.7,1.7,5.3,3.4,2.4,6.3c-2.5,2.5-6.1,1.7-9.1,0.3
		c-0.8-0.6-1.6-1.3-2.2-2.1c-18.5-18.4-37.1-36.9-55.6-55.3c-4.7-4.6-4.7-5.2,0.1-10c16.5-16.4,33.1-32.9,49.6-49.4
		C1307.7,481,1309.7,479.3,1312.9,480.1z"/>
	<path class="st1" d="M1250.9,540.1c0,18.3,0,36.6,0,54.9c0,3.5-0.8,5.8-4.9,5.7c-3.9-0.1-4.5-2.3-4.5-5.6c0-36.6,0-73.2,0-109.8
		c0-3.5,0.7-5.8,4.9-5.7c3.9,0.1,4.6,2.3,4.5,5.5C1250.9,503.5,1250.9,521.8,1250.9,540.1z"/>
	<path class="st0" d="M1042.1,540.3c0-15.5,0.2-31-0.1-46.4c-0.1-4.1,1.2-5,5.1-4.9c9,0.2,18-0.1,26.8,2.2
		c13.7,3.5,19.9,12.2,18.2,25.5c-0.8,6.2-4.1,10.8-9.4,13.9c-2.7,1.6-5.6,3-8.2,4.8c-2.5,1.7-2.2,4.5,0.5,5.7c2.7,1.2,5.6,2,8.4,3.1
		c10.4,4.1,15.5,11.4,15.4,22.1c-0.1,10.7-5.2,17.8-15.8,21.8c-9.3,3.5-18.9,3.2-28.6,3.2c-12.3,0-12.3,0-12.3-12.5L1042.1,540.3z"
		/>
	<path class="st0" d="M1139.6,540c0.1-10.1-0.3-20.3,2.2-30.3c3.6-14.6,11.7-21.4,26.8-22c7.4-0.3,14.7,0.2,21.1,4.5
		c8,5.5,10.8,13.8,11.8,22.8c2,17.9,2.6,35.9-0.6,53.7c-4,22-29.1,32.1-47.8,19.7c-7.8-5.1-10.5-13-12.1-21.5
		C1139.3,558,1139.7,549,1139.6,540z"/>
	<path class="st0" d="M959.5,1041.4c-165,0-329.9,0-494.9,0.1c-3.7,0-4.6-0.8-4.6-4.6c0.1-330.3,0.1-660.5,0-990.8
		c0-3.7,0.8-4.6,4.6-4.6c330.3,0.1,660.5,0.1,990.8,0c3.7,0,4.6,0.8,4.6,4.6c-0.1,330.3-0.1,660.5,0,990.8c0,3.7-0.8,4.6-4.6,4.6
		C1290.1,1041.4,1124.8,1041.3,959.5,1041.4z M824.7,502.8l1.2-0.3c17.3,29.9,34.5,59.7,52.2,90.2c-15.2,0-29.5,0.1-43.8,0
		c-3.6,0-6.3,0.5-6.2,5c0.1,4.2,2.6,4.7,6,4.7c17.5-0.1,35-0.1,52.5,0c4.8,0.1,6.4-1.7,6.4-6.5c-0.1-36.2-0.1-72.3,0-108.5
		c0-3.6-0.3-6.3-4.9-6.3c-4.7,0-4.8,3-4.8,6.4c0,29.3,0,58.7,0,88c0,1.6,0.6,3.5-1,5.3c-1.1-1.9-2.1-3.5-3-5
		c-17.5-30.3-35.1-60.5-52.4-90.9c-2.3-4.1-5.3-4.1-8.7-3.5c-3.6,0.6-3.1,3.7-3.1,6.4c0,28.2,0,56.3,0,84.5c0,8.3-0.1,16.7,0,25
		c0,4.2,2.8,6.2,6.5,5c3-0.9,3.1-3.4,3.1-6c0-29.3-0.1-58.7,0-88L824.7,502.8z M1090.9,538.1c6.2-6,8.6-9.9,10-15.6
		c4.4-18.8-5.2-33.9-24.7-39.1c-12.1-3.2-24.5-2-36.8-2.2c-6.3-0.1-6.6,0.2-6.6,6.4c0,34.8,0,69.6,0,104.4c0,2-0.1,4,0,6
		c0.1,2.5,1.1,4.3,3.8,4.3c14.6-0.3,29.4,1.4,43.8-2c13.3-3.2,23.3-10.4,26.8-24.5C1110.9,560.4,1105.9,548.8,1090.9,538.1
		L1090.9,538.1z M783.7,527.1c0-14.8-0.1-27.4,0.1-40.1c0.1-4.3-1.5-5.9-5.9-5.8c-18.8,0.2-37.6,0.1-56.5,0c-3.2,0-6.1,0.1-6.2,4.5
		c-0.1,4.6,2.7,4.9,6.2,4.9c16-0.1,32,0.1,48-0.1c3.8-0.1,4.9,0.9,4.7,4.7c-1.2,24.2,1.6,48.4-1.8,72.7c-2,14.9-9.1,24.3-23.9,26.1
		c-19.5,2.3-32.5-4.3-36-25.2c-1-5.7-1.5-11.6-1.5-17.4c0-21.5,0-43,0-64.5c0-2.9-0.1-5.4-3.9-5.7c-4-0.3-5.7,1.3-5.7,5.4
		c0.1,21.8,0,43.6,0.1,65.5c0,5.8,0.4,11.7,1.5,17.4c2.4,12.3,6.6,23.5,18.5,29.8c26.9,14.1,55.6-0.1,60.5-30
		C784.5,554.6,783.3,539.8,783.7,527.1z M931.6,541.9c0.1-10.7-0.3-21.3,2.4-31.8c2.1-7.9,6-14.4,13.6-18.1
		c17.3-8.4,37.2-1.8,45.7,15.2c1.1,2.1,1.8,2.5,4.1,1.6c5.4-2.2,6-3.3,3.3-8.5c-8.1-15.5-19.7-22.5-44.3-20.3
		c-16.8,1.5-27.5,11.1-31.1,27.2c-5,22.7-5.1,46.2-0.1,68.9c2.1,9.9,7.1,18.7,16.8,23.1c16.5,7.4,33.2,6.8,48.9-2.2
		c8.8-5,13.4-13.1,13.1-23.7c-0.3-9-0.1-18,0-27c0.1-3.6-1.3-5.1-5-5.1c-7,0.1-14,0.1-21,0c-3.2,0-5,1.1-5.1,4.6
		c-0.1,3.8,1.9,4.9,5.3,4.8c3.8-0.1,7.7,0.2,11.5-0.1c3.2-0.2,4,1,3.9,4c-0.2,6.3-0.3,12.7,0,19c0.3,6.1-2.4,10.5-7,14.1
		c-7.7,5.9-16.7,7-26,6.8c-14.4-0.4-23.2-7.7-26.7-21.6C931.3,562.5,931.7,552.2,931.6,541.9z M1212,538.1
		c-0.1-5.1,0.1-13.9-1.1-22.7c-3.1-21.8-13.9-33.6-34.1-35.5c-26.3-2.5-40.8,9-45,33c-2.8,15.9-2.1,31.9-1.3,47.8
		c0.3,7,1.8,13.9,4.2,20.5c4.4,11.7,12.6,18.9,24.9,21.5c5.1,1,10.2,1.3,15.4,0.9c18.4-1.1,29-9.8,34-27.6
		C1212.3,564.8,1212.1,553.3,1212,538.1L1212,538.1z M670,541.9c0-18,0-36,0-54c0-3.5,0.3-6.8-4.8-6.7c-5.3,0.1-4.6,3.7-4.6,7
		c0,14-0.1,28,0,42c0,3.1-0.7,4.4-4.1,4.3c-15.8-0.2-31.6-0.2-47.5,0c-3.5,0-4.1-1.2-4.1-4.3c0.1-14.3,0-28.7,0.1-43
		c0-3.3-0.1-5.9-4.5-6c-4.7-0.1-4.9,2.6-4.9,6.2c0.1,36.2,0.1,72.3,0,108.5c0,3.3-0.2,6.5,4.6,6.6c5.1,0.1,4.8-3.3,4.8-6.8
		c0-15.7,0.1-31.3-0.1-47c0-3.5,0.5-4.9,4.5-4.9c15.5,0.3,31,0.2,46.5,0c3.8-0.1,4.8,1.1,4.7,4.8c-0.2,16,0,32-0.1,48
		c0,3.5,0.6,5.9,4.8,5.9c4.2,0,4.7-2.6,4.7-6C670,578.2,670,560,670,541.9z M1312.9,481.6c-3.2-0.8-5.3,0.9-7.4,3
		c-16.5,16.5-33,33-49.6,49.4c-4.8,4.8-4.8,5.4-0.1,10c18.5,18.4,37.1,36.9,55.6,55.3c0.6,0.8,1.3,1.5,2.2,2.1
		c3.1,1.5,6.6,2.2,9.1-0.3c2.9-2.9-0.7-4.6-2.4-6.3c-17.6-17.5-35.1-35.1-52.9-52.5c-2.7-2.6-2.7-3.9,0-6.5
		c16.1-15.7,32-31.6,47.9-47.5c1.4-1.4,4.1-2.4,2.8-5.2C1317.1,480.6,1314.7,481.8,1312.9,481.6L1312.9,481.6z M1250.9,541.6
		c0-18.3,0-36.6,0-54.9c0-3.3-0.6-5.5-4.5-5.5c-4.2-0.1-4.9,2.1-4.9,5.7c0.1,36.6,0.1,73.2,0,109.8c0,3.3,0.6,5.5,4.5,5.6
		c4.1,0.1,4.9-2.2,4.9-5.7C1250.9,578.3,1250.9,559.9,1250.9,541.6L1250.9,541.6z"/>
</g>
</svg>
