<svg width="1161" height="1036" xmlns="http://www.w3.org/2000/svg" xml:space="preserve" version="1.1">

 <g>
  <title>Layer 1</title>
  <g stroke="null" id="svg_1">
   <path stroke="null" id="svg_2" fill="#097400" display="none" d="m1146.63129,2.96525c-378.70013,0 -757.40026,0 -1136.10038,0c-8.02331,0 -9.62797,1.60466 -9.62797,9.62797c0,336.97893 0,673.95786 0,1010.93678c0,9.62797 3.20932,9.62797 9.62797,9.62797c187.7454,0 377.09547,0 566.44553,0c189.35006,0 378.70013,0 569.65485,0c8.02331,0 9.62797,-1.60466 9.62797,-9.62797c0,-32.09323 0,-64.18646 0,-96.27969c3.20932,46.53519 -22.46526,81.83774 -67.39579,96.27969c-14.44195,4.81398 -30.48857,6.41865 -46.53519,6.41865c-157.25683,0 -311.30434,0 -463.74719,0c-155.65217,0 -311.30434,0 -465.35185,0c-30.48857,0 -59.37248,-9.62797 -81.83774,-30.48857c-32.09323,-32.09323 -32.09323,-69.00045 -17.65128,-109.11699c6.41865,-17.65128 16.04662,-32.09323 24.06992,-48.13985c146.0242,-251.93186 292.0484,-505.46839 438.07261,-757.40026c11.23263,-20.8606 25.67458,-40.11654 44.93052,-56.16315c41.7212,-32.09323 89.86105,-30.48857 128.37292,8.02331c14.44195,12.83729 25.67458,28.88391 35.30255,46.53519c149.23353,256.74585 296.86239,515.09636 446.09591,771.84221c12.83729,22.46526 24.06992,46.53519 25.67458,72.20977c0,-304.8857 0,-609.77139 0,-914.65709c0,-8.02331 -1.60466,-9.62797 -9.62797,-9.62797z" class="st0"/>
   <path stroke="null" id="svg_3" fill="#FEA400" d="m684.48876,83.19833c-9.62797,-17.65128 -20.8606,-33.69789 -35.30255,-46.53519c-38.51188,-38.51188 -86.65172,-40.11654 -128.37292,-8.02331c-19.25594,16.04662 -33.69789,35.30255 -44.93052,56.16315c-146.0242,251.93186 -292.0484,505.46839 -438.07261,757.40026c-8.02331,16.04662 -17.65128,30.48857 -24.06992,48.13985c-14.44195,40.11654 -14.44195,77.02375 17.65128,109.11699c22.46526,20.8606 51.34917,30.48857 81.83774,30.48857c154.04751,0 309.69968,0 465.35185,0c152.44285,0 306.49036,0 463.74719,0c16.04662,0 32.09323,-1.60466 46.53519,-6.41865c44.93052,-14.44195 70.60511,-49.74451 67.39579,-96.27969c-1.60466,-25.67458 -12.83729,-49.74451 -25.67458,-72.20977c-149.23353,-256.74585 -296.86239,-515.09636 -446.09591,-771.84221zm-134.79157,192.55939c44.93052,-14.44195 86.65172,4.81398 105.90766,48.13985c9.62797,20.8606 8.02331,43.32586 4.81398,64.18646c-12.83729,80.23308 -27.27925,160.46616 -36.90722,240.69923c-1.60466,9.62797 -1.60466,20.8606 -3.20932,30.48857c0,6.41865 -3.20932,11.23263 -11.23263,9.62797c-9.62797,1.60466 -19.25594,1.60466 -30.48857,1.60466c-11.23263,0 -22.46526,0 -33.69789,0c-4.81398,0 -6.41865,0 -8.02331,-6.41865c-4.81398,-64.18646 -16.04662,-126.76826 -27.27925,-190.95473c-4.81398,-32.09323 -11.23263,-65.79112 -17.65128,-97.88436c-8.02331,-43.32586 19.25594,-86.65172 57.76782,-99.48902zm28.88391,617.7947c-46.53519,0 -86.65172,-38.51188 -86.65172,-85.04706c0,-46.53519 38.51188,-86.65172 86.65172,-86.65172c49.74451,0 86.65172,40.11654 86.65172,86.65172c0,46.53519 -40.11654,85.04706 -86.65172,85.04706z" class="st1"/>
   <path stroke="null" id="svg_4" fill="#FEFEFE" display="none" d="m509.58065,473.13109c11.23263,64.18646 22.46526,126.76826 27.27925,190.95473c1.60466,6.41865 3.20932,6.41865 8.02331,6.41865c11.23263,0 22.46526,0 33.69789,0c11.23263,0 20.8606,0 30.48857,-1.60466c8.02331,1.60466 11.23263,-3.20932 11.23263,-9.62797c1.60466,-9.62797 1.60466,-20.8606 3.20932,-30.48857c9.62797,-80.23308 24.06992,-160.46616 36.90722,-240.69923c3.20932,-20.8606 4.81398,-43.32586 -4.81398,-64.18646c-19.25594,-43.32586 -60.97714,-62.5818 -105.90766,-48.13985c-38.51188,12.83729 -65.79112,56.16315 -57.76782,99.48902c6.41865,32.09323 12.83729,65.79112 17.65128,97.88436z" class="st2"/>
   <path stroke="null" id="svg_5" fill="#FEFEFE" display="none" d="m578.5811,721.85363c-48.13985,0 -86.65172,40.11654 -86.65172,86.65172c0,46.53519 40.11654,85.04706 86.65172,85.04706c46.53519,0 86.65172,-38.51188 86.65172,-85.04706c0,-46.53519 -36.90722,-86.65172 -86.65172,-86.65172z" class="st2"/>
  </g>
 </g>
</svg>